<svg width="48" height="120" viewBox="0 0 48 120" fill="none" xmlns="http://www.w3.org/2000/svg">
<path d="M29.957 59.1584L29.957 59.1584L18.7682 47.9696L18.7682 47.9696L18.7651 47.9665C18.2954 47.5129 17.5468 47.5259 17.0932 47.9956C16.6506 48.4539 16.6506 49.1803 17.0932 49.6385L17.0932 49.6385L17.0962 49.6415L27.4491 59.9944L17.0962 70.3472L17.0962 70.3472C16.6346 70.8089 16.6346 71.5575 17.0962 72.0192L17.0963 72.0192C17.558 72.4808 18.3065 72.4808 18.7682 72.0192L18.7682 72.0192L29.957 60.8304L29.957 60.8303C30.4186 60.3686 30.4187 59.6201 29.957 59.1584Z" fill="#002655" stroke="#002655" stroke-width="0.5"/>
</svg>
