<svg width="22" height="22" viewBox="0 0 22 22" fill="none" xmlns="http://www.w3.org/2000/svg">
<path d="M16.6606 9.08565C15.749 9.99726 14.2743 9.99726 13.3627 9.08565C12.4511 8.17404 12.4511 6.69929 13.3627 5.78767C14.2743 4.87606 17.4851 4.96318 17.4851 4.96318C17.4851 4.96318 17.5722 8.17404 16.6606 9.08565Z" stroke="#002655" stroke-width="0.62226" stroke-miterlimit="10" stroke-linecap="round" stroke-linejoin="round"/>
<path d="M11.8879 12.1817C11.8879 12.1817 11.8848 12.1817 11.8879 12.1817C11.8848 11.1892 12.1493 10.234 12.6471 9.42198C12.9146 8.98329 13.2507 8.58816 13.6427 8.25214C14.0596 7.89123 14.545 7.59254 15.0863 7.3623H15.0894C15.0894 7.3623 15.0894 7.36542 15.0863 7.36542C14.5481 7.59565 14.0627 7.89434 13.6458 8.25214C13.2538 8.59127 12.9209 8.98329 12.6533 9.42198C12.1555 10.2371 11.891 11.1892 11.8879 12.1817ZM11.8879 12.1817C11.891 12.1817 11.891 12.1817 11.8879 12.1817Z" stroke="#002655" stroke-width="0.62226" stroke-miterlimit="10" stroke-linecap="round" stroke-linejoin="round"/>
<path d="M7.11519 8.12471C8.0268 9.03632 9.50156 9.03632 10.4132 8.12471C11.3248 7.2131 11.3248 5.73835 10.4132 4.82674C9.50156 3.91513 6.2907 4.00224 6.2907 4.00224C6.2907 4.00224 6.20358 7.2131 7.11519 8.12471Z" stroke="#002655" stroke-width="0.62226" stroke-miterlimit="10" stroke-linecap="round" stroke-linejoin="round"/>
<path d="M11.8879 12.1814C11.8879 12.1814 11.8848 12.1814 11.8879 12.1814L11.8848 11.2169C11.8848 10.2275 11.6204 9.27546 11.1257 8.46341C10.8581 8.02471 10.5221 7.63269 10.1332 7.29356C9.71624 6.93265 9.23088 6.63396 8.69263 6.40684L8.68951 6.40373C8.68951 6.40373 8.69263 6.40062 8.69263 6.40373C9.23088 6.63396 9.71624 6.93265 10.1363 7.29356C10.5283 7.63269 10.8612 8.02471 11.1319 8.46341C11.6297 9.27857 11.8942 10.2306 11.8942 11.22L11.8879 12.1814ZM11.8879 12.1814C11.891 12.1814 11.891 12.1814 11.8879 12.1814Z" stroke="#002655" stroke-width="0.62226" stroke-miterlimit="10" stroke-linecap="round" stroke-linejoin="round"/>
<path d="M5.3075 13.0751C6.11332 12.2693 7.22717 11.6097 8.45924 11.6097C9.26507 11.6097 9.77532 11.787 10.2762 12.0328H14.1374C14.6632 12.0328 15.0925 12.4622 15.0925 12.988C15.0925 13.5138 14.6632 13.9431 14.1374 13.9431H11.6452H14.1374C14.6632 13.9431 15.0925 13.5138 15.0925 12.988L16.838 11.2425C17.2082 10.8723 17.818 10.8723 18.1883 11.2425C18.5585 11.6128 18.5585 12.2226 18.1883 12.5928L15.4877 15.2934C15.1423 15.6388 14.6632 15.8535 14.1374 15.8535H9.36152C9.00994 15.8535 8.69259 15.9966 8.46235 16.2268L5.3075 13.0751Z" stroke="#002655" stroke-width="0.62226" stroke-miterlimit="10" stroke-linecap="round" stroke-linejoin="round"/>
<path d="M8.32235 17.2633L7.82765 17.758C7.50407 18.0816 6.97826 18.0816 6.65469 17.758L3.77674 14.8801C3.45316 14.5565 3.45316 14.0307 3.77674 13.7071L4.27144 13.2124C4.59501 12.8888 5.12082 12.8888 5.44439 13.2124L8.32235 16.0904C8.64592 16.4139 8.64592 16.9397 8.32235 17.2633Z" stroke="#002655" stroke-width="0.62226" stroke-miterlimit="10" stroke-linecap="round" stroke-linejoin="round"/>
</svg>
