<svg width="61" height="48" viewBox="0 0 61 48" fill="none" xmlns="http://www.w3.org/2000/svg">
<g clip-path="url(#clip0_7_4401)">
<path d="M12.7861 11.0859C11.8656 11.0859 11.1183 11.8405 11.1183 12.77C11.1183 13.6995 11.8656 14.454 12.7861 14.454H26.1322C26.7983 13.2479 27.5866 12.1199 28.4792 11.0859H12.7861Z" fill="#35B1B8"/>
<path d="M21.9281 23.999C21.9281 23.0685 21.1809 22.3149 20.2603 22.3149H1.66779C0.746311 22.3159 0 23.0695 0 23.999C0 24.9294 0.746311 25.684 1.66779 25.684H20.2603C21.1818 25.684 21.9281 24.9294 21.9281 23.999Z" fill="#35B1B8"/>
<path d="M12.7861 33.5435C11.8656 33.5435 11.1183 34.297 11.1183 35.2275C11.1183 36.158 11.8656 36.9115 12.7861 36.9115H28.4792C27.5866 35.8767 26.7983 34.7496 26.1322 33.5435H12.7861Z" fill="#35B1B8"/>
<path d="M43.1734 5.99951C38.3573 5.99951 33.9847 7.94134 30.7712 11.0865C29.7426 12.0941 28.8341 13.224 28.0683 14.4545C26.3464 17.2233 25.3458 20.4945 25.3458 23.9972C25.3458 27.5017 26.3464 30.7738 28.0692 33.5435C28.8351 34.7741 29.7426 35.904 30.7721 36.9116C33.9838 40.0567 38.3564 41.9986 43.1734 41.9986C53.0021 41.9986 60.9991 33.9236 60.9991 23.999C61.0001 14.0745 53.0031 5.99951 43.1734 5.99951ZM43.1734 38.0538C35.4997 38.0538 29.2543 31.7485 29.2543 23.9972C29.2543 16.2487 35.4997 9.94338 43.1734 9.94338C50.8471 9.94338 57.0924 16.2477 57.0924 23.9972C57.0924 31.7475 50.848 38.0538 43.1734 38.0538Z" fill="#35B1B8"/>
<path d="M41.952 27.8054H41.9603H41.9687H47.7622C48.8411 27.8054 49.716 26.922 49.716 25.8335C49.716 24.745 48.8411 23.8615 47.7622 23.8615H43.9058V15.9719C43.9058 14.8815 43.0309 14 41.9529 14C40.874 14 40 14.8825 40 15.9719V25.8325C39.9991 26.922 40.874 27.8045 41.952 27.8054Z" fill="#35B1B8"/>
</g>
<defs>
<clipPath id="clip0_7_4401">
<rect width="61" height="36" fill="white" transform="translate(0 6)"/>
</clipPath>
</defs>
</svg>
