<svg width="54" height="60" viewBox="0 0 54 60" fill="none" xmlns="http://www.w3.org/2000/svg">
<path d="M38.6942 24.8361C36.2345 27.2958 32.2555 27.2958 29.7959 24.8361C27.3363 22.3765 27.3363 18.3975 29.7959 15.9379C32.2555 13.4782 40.9187 13.7133 40.9187 13.7133C40.9187 13.7133 41.1538 22.3765 38.6942 24.8361Z" stroke="#002655" stroke-width="2.22128" stroke-miterlimit="10" stroke-linecap="round" stroke-linejoin="round"/>
<path d="M25.8172 33.1888C25.8172 33.1888 25.8088 33.1888 25.8172 33.1888C25.8088 30.5109 26.5224 27.9338 27.8655 25.7428C28.5874 24.5591 29.494 23.493 30.5518 22.5864C31.6766 21.6126 32.9862 20.8068 34.4469 20.1856H34.4552C34.4552 20.1856 34.4553 20.194 34.4469 20.194C32.9946 20.8152 31.685 21.621 30.5602 22.5864C29.5024 23.5014 28.6042 24.5591 27.8823 25.7428C26.5391 27.9422 25.8256 30.5109 25.8172 33.1888ZM25.8172 33.1888C25.8256 33.1888 25.8256 33.1888 25.8172 33.1888Z" stroke="#002655" stroke-width="2.22128" stroke-miterlimit="10" stroke-linecap="round" stroke-linejoin="round"/>
<path d="M12.9396 22.2422C15.3992 24.7018 19.3783 24.7018 21.8379 22.2422C24.2975 19.7826 24.2975 15.8035 21.8379 13.3439C19.3783 10.8843 10.715 11.1193 10.715 11.1193C10.715 11.1193 10.48 19.7826 12.9396 22.2422Z" stroke="#002655" stroke-width="2.22128" stroke-miterlimit="10" stroke-linecap="round" stroke-linejoin="round"/>
<path d="M25.8171 33.1888C25.8171 33.1888 25.8088 33.1888 25.8171 33.1888L25.8088 30.5865C25.8088 27.917 25.0952 25.3482 23.7605 23.1572C23.0385 21.9736 22.1319 20.9159 21.0826 20.0009C19.9577 19.0271 18.6482 18.2212 17.1959 17.6084L17.1875 17.6C17.1875 17.6 17.1959 17.5916 17.1959 17.6C18.6482 18.2212 19.9577 19.0271 21.091 20.0009C22.1487 20.9159 23.0469 21.9736 23.7773 23.1572C25.1204 25.3566 25.8339 27.9254 25.8339 30.5949L25.8171 33.1888ZM25.8171 33.1888C25.8255 33.1888 25.8255 33.1888 25.8171 33.1888Z" stroke="#002655" stroke-width="2.22128" stroke-miterlimit="10" stroke-linecap="round" stroke-linejoin="round"/>
<path d="M8.0625 35.598C10.2367 33.4238 13.242 31.6441 16.5662 31.6441C18.7404 31.6441 20.1171 32.1226 21.4687 32.7858H31.8864C33.3051 32.7858 34.4635 33.9442 34.4635 35.3629C34.4635 36.7816 33.3051 37.9401 31.8864 37.9401H25.1623H31.8864C33.3051 37.9401 34.4635 36.7816 34.4635 35.3629L39.1729 30.6536C40.1718 29.6546 41.8172 29.6546 42.8161 30.6536C43.8151 31.6525 43.8151 33.2979 42.8161 34.2968L35.5296 41.5833C34.5978 42.5151 33.3051 43.0944 31.8864 43.0944H19.0007C18.0521 43.0944 17.1958 43.4805 16.5746 44.1017L8.0625 35.598Z" stroke="#002655" stroke-width="2.22128" stroke-miterlimit="10" stroke-linecap="round" stroke-linejoin="round"/>
<path d="M16.1966 46.8971L14.8619 48.2319C13.9889 49.1049 12.5702 49.1049 11.6971 48.2319L3.93212 40.4669C3.05908 39.5938 3.05908 38.1751 3.93212 37.3021L5.26686 35.9674C6.1399 35.0943 7.55859 35.0943 8.43163 35.9674L16.1966 43.7324C17.0697 44.6054 17.0697 46.0241 16.1966 46.8971Z" stroke="#002655" stroke-width="2.22128" stroke-miterlimit="10" stroke-linecap="round" stroke-linejoin="round"/>
</svg>
