<svg width="29" height="39" viewBox="0 0 29 39" fill="none" xmlns="http://www.w3.org/2000/svg">
<path d="M18.8197 33.7975H15.9789V5.26124H18.8197V16.645H20.0865V4.91511C20.0865 4.41515 19.7026 3.9921 19.2036 3.9921H15.9789V1.33846C15.9789 0.876957 15.595 0.569288 15.096 0.723122L1.42963 4.41515C0.968969 4.53052 0.585083 5.03049 0.585083 5.53045V33.6052C0.585083 34.0667 0.968969 34.5667 1.42963 34.7205L15.096 38.4126C15.5566 38.5279 15.9789 38.2587 15.9789 37.7972V35.1436H19.2036C19.6642 35.1436 20.0865 34.7205 20.0865 34.2206V22.4522H18.8197V33.7975ZM12.9078 20.2986C12.4856 20.2986 12.1401 19.9524 12.1401 19.5294C12.1401 19.1063 12.4856 18.7602 12.9078 18.7602C13.3301 18.7602 13.6756 19.1063 13.6756 19.5294C13.6756 19.9524 13.3301 20.2986 12.9078 20.2986Z" fill="#35B1B8"/>
<path d="M28.0334 19.414L24.3097 15.6835C24.1946 15.5681 24.0026 15.645 24.0026 15.7989V17.9141H17.4382C17.323 17.9141 17.2462 17.991 17.2462 18.1064V20.9908C17.2462 21.1061 17.323 21.1831 17.4382 21.1831H24.0026V23.2983C24.0026 23.4521 24.1946 23.529 24.3097 23.4137L28.0334 19.6832C28.1102 19.5678 28.1102 19.4909 28.0334 19.414Z" fill="#35B1B8"/>
</svg>
