<svg width="52" height="52" viewBox="0 0 52 52" fill="none" xmlns="http://www.w3.org/2000/svg">
<path d="M5.7 11.3765H29.1L30.8 8.21094H5.7C2.6 8.21094 0 10.783 0 13.8497V39.9659C0 43.0326 2.6 45.6046 5.7 45.6046H10.8L12.5 42.439H5.7C4.3 42.439 3.2 41.3509 3.2 39.9659V26.3142H21.2L26.2 17.0153H3.2V13.8497C3.2 12.4647 4.3 11.3765 5.7 11.3765ZM45.5 8.21094H39.5L37.8 11.3765H45.5C46.9 11.3765 48 12.4647 48 13.8497V17.0153H34.7L29.7 26.3142H48V39.9659C48 41.3509 46.9 42.439 45.5 42.439H21.1L19.4 45.6046H45.5C48.6 45.6046 51.2 43.0326 51.2 39.9659V13.8497C51.2 10.783 48.6 8.21094 45.5 8.21094Z" fill="#35B1B8"/>
<path d="M40.8 1.78065L37.3 8.21079L35.6 11.3764L32.6 17.0151L27.6 26.3141L19 42.4389L17.3 45.6045L14.2 51.4411L10.8 49.6604L13 45.6045L14.7 42.4389L23.3 26.3141L28.3 17.0151L31.3 11.3764L33 8.21079L37.4001 0L40.8 1.78065Z" fill="#35B1B8"/>
</svg>
