<svg width="56" height="56" viewBox="0 0 56 56" fill="none" xmlns="http://www.w3.org/2000/svg">
<path d="M28 0C12.5231 0 0 12.5242 0 28C0 43.4769 12.5242 56 28 56C43.4769 56 56 43.4758 56 28C56 12.5231 43.4757 0 28 0ZM28 51.625C14.9414 51.625 4.375 41.0577 4.375 28C4.375 14.9414 14.9423 4.375 28 4.375C41.0586 4.375 51.625 14.9423 51.625 28C51.625 41.0586 41.0576 51.625 28 51.625Z" fill="#35B1B8"/>
<path d="M28 23.4414C26.7918 23.4414 25.8125 24.4208 25.8125 25.6289V39.7156C25.8125 40.9238 26.7918 41.9031 28 41.9031C29.2082 41.9031 30.1875 40.9237 30.1875 39.7155V25.6289C30.1875 24.4208 29.2082 23.4414 28 23.4414Z" fill="#35B1B8"/>
<path d="M28 20.7656C29.631 20.7656 30.9531 19.4435 30.9531 17.8125C30.9531 16.1815 29.631 14.8594 28 14.8594C26.369 14.8594 25.0469 16.1815 25.0469 17.8125C25.0469 19.4435 26.369 20.7656 28 20.7656Z" fill="#35B1B8"/>
</svg>
