<svg width="41" height="40" viewBox="0 0 41 40" fill="none" xmlns="http://www.w3.org/2000/svg">
<path d="M34.3604 40H6.63957C5.01179 39.9982 3.45119 39.3508 2.30018 38.1996C1.14916 37.0484 0.501754 35.4876 0.5 33.8596V6.14043C0.501754 4.51237 1.14916 2.95157 2.30018 1.80036C3.45119 0.64915 5.01179 0.00175406 6.63957 0H34.3604C35.9882 0.00175406 37.5488 0.64915 38.6998 1.80036C39.8508 2.95157 40.4982 4.51237 40.5 6.14043V33.8596C40.4982 35.4876 39.8508 37.0484 38.6998 38.1996C37.5488 39.3508 35.9882 39.9982 34.3604 40V40ZM6.63957 4.03538C6.08156 4.03596 5.54656 4.25793 5.15198 4.65257C4.75741 5.04722 4.53548 5.58231 4.53489 6.14043V33.8596C4.53548 34.4177 4.75741 34.9528 5.15198 35.3474C5.54656 35.7421 6.08156 35.964 6.63957 35.9646H34.3604C34.9184 35.964 35.4534 35.7421 35.848 35.3474C36.2426 34.9528 36.4645 34.4177 36.4651 33.8596V6.14043C36.4645 5.58231 36.2426 5.04722 35.848 4.65257C35.4534 4.25793 34.9184 4.03596 34.3604 4.03538H6.63957Z" fill="#002655"/>
</svg>
