<svg width="50" height="50" viewBox="0 0 50 50" fill="none" xmlns="http://www.w3.org/2000/svg">
<path d="M25.0003 0.409912C11.4082 0.409912 0.410156 11.4089 0.410156 25.0001C0.410156 38.5922 11.4092 49.5902 25.0003 49.5902C38.5924 49.5902 49.5905 38.5912 49.5905 25.0001C49.5905 11.408 38.5914 0.409912 25.0003 0.409912ZM25.0003 45.748C13.532 45.748 4.25237 36.4676 4.25237 25.0001C4.25237 13.5317 13.5328 4.25213 25.0003 4.25213C36.4687 4.25213 45.7483 13.5325 45.7483 25.0001C45.7483 36.4684 36.4678 45.748 25.0003 45.748Z" fill="#35B1B8"/>
<path d="M25.0002 20.9973C23.9392 20.9973 23.0791 21.8574 23.0791 22.9184V35.2897C23.0791 36.3507 23.9392 37.2108 25.0002 37.2108C26.0612 37.2108 26.9213 36.3506 26.9213 35.2896V22.9184C26.9213 21.8574 26.0612 20.9973 25.0002 20.9973Z" fill="#35B1B8"/>
<path d="M25.0007 18.645C26.4331 18.645 27.5942 17.4838 27.5942 16.0515C27.5942 14.6192 26.4331 13.458 25.0007 13.458C23.5684 13.458 22.4072 14.6192 22.4072 16.0515C22.4072 17.4838 23.5684 18.645 25.0007 18.645Z" fill="#35B1B8"/>
</svg>
