<svg width="29" height="39" viewBox="0 0 29 39" fill="none" xmlns="http://www.w3.org/2000/svg">
<path d="M18.8195 33.7975H15.9788V5.26124H18.8195V16.645H20.0864V4.91511C20.0864 4.41515 19.7025 3.9921 19.2034 3.9921H15.9788V1.33846C15.9788 0.876957 15.5949 0.569288 15.0959 0.723122L1.42951 4.41515C0.968847 4.53052 0.584961 5.03049 0.584961 5.53045V33.6052C0.584961 34.0667 0.968847 34.5667 1.42951 34.7205L15.0959 38.4126C15.5565 38.5279 15.9788 38.2587 15.9788 37.7972V35.1436H19.2034C19.6641 35.1436 20.0864 34.7205 20.0864 34.2206V22.4522H18.8195V33.7975ZM12.9077 20.2986C12.4854 20.2986 12.1399 19.9524 12.1399 19.5294C12.1399 19.1063 12.4854 18.7602 12.9077 18.7602C13.33 18.7602 13.6755 19.1063 13.6755 19.5294C13.6755 19.9524 13.33 20.2986 12.9077 20.2986Z" fill="#35B1B8"/>
<path d="M28.0333 19.414L24.3096 15.6835C24.1944 15.5681 24.0025 15.645 24.0025 15.7989V17.9141H17.438C17.3229 17.9141 17.2461 17.991 17.2461 18.1064V20.9908C17.2461 21.1061 17.3229 21.1831 17.438 21.1831H24.0025V23.2983C24.0025 23.4521 24.1944 23.529 24.3096 23.4137L28.0333 19.6832C28.1101 19.5678 28.1101 19.4909 28.0333 19.414Z" fill="#35B1B8"/>
</svg>
