<svg width="56" height="56" viewBox="0 0 56 56" fill="none" xmlns="http://www.w3.org/2000/svg">
<path d="M28 0C12.5231 0 0 12.5242 0 28C0 43.4769 12.5242 56 28 56C43.4769 56 56 43.4758 56 28C56 12.5231 43.4757 0 28 0ZM28 51.625C14.9414 51.625 4.375 41.0577 4.375 28C4.375 14.9414 14.9423 4.375 28 4.375C41.0586 4.375 51.625 14.9423 51.625 28C51.625 41.0586 41.0576 51.625 28 51.625Z" fill="#35B1B8"/>
<path d="M28 23.4424C26.7918 23.4424 25.8125 24.4217 25.8125 25.6299V39.7166C25.8125 40.9248 26.7918 41.9041 28 41.9041C29.2082 41.9041 30.1875 40.9247 30.1875 39.7165V25.6299C30.1875 24.4217 29.2082 23.4424 28 23.4424Z" fill="#35B1B8"/>
<path d="M28 20.7637C29.631 20.7637 30.9531 19.4415 30.9531 17.8105C30.9531 16.1796 29.631 14.8574 28 14.8574C26.369 14.8574 25.0469 16.1796 25.0469 17.8105C25.0469 19.4415 26.369 20.7637 28 20.7637Z" fill="#35B1B8"/>
</svg>
