<svg width="56" height="56" viewBox="0 0 56 56" fill="none" xmlns="http://www.w3.org/2000/svg">
<path d="M49.7488 38.722C49.6268 38.344 49.3991 38.0087 49.0926 37.7559C48.786 37.5031 48.4134 37.3433 48.0189 37.2955C47.4622 37.1483 44.5251 35.8997 42.8745 35.1929C38.2172 33.2101 37.2867 32.8559 36.6442 32.8284C35.7477 32.7928 34.814 33.0403 31.3752 36.4011C29.0544 34.8604 26.8548 33.1448 24.7954 31.2693C22.8981 29.1903 21.1616 26.9703 19.6008 24.6284C22.9684 21.1834 23.2144 20.2309 23.1772 19.3623C23.1497 18.7251 22.7936 17.7951 20.8113 13.1372C20.164 11.612 18.8063 8.43876 18.7237 8.13794C18.6989 7.71662 18.5478 7.3125 18.2901 6.97818C18.0324 6.64387 17.6799 6.39484 17.2786 6.26344C15.8805 5.92955 14.4253 5.91282 13.0198 6.21452C11.6143 6.51623 10.2943 7.12871 9.15666 8.00694C8.81521 8.3482 0.918159 16.532 11.4756 31.2239C13.2324 33.8139 15.2769 36.1969 17.5699 38.3273L17.6314 38.3904C19.7589 40.6836 22.1376 42.7305 24.7226 44.4927C29.8104 48.1463 34.6651 49.9917 39.1509 49.9917C42.3984 50.1091 45.568 48.9814 48.0108 46.8394C48.8778 45.6962 49.4828 44.3766 49.7831 42.9739C50.0834 41.5712 50.0717 40.1197 49.7488 38.722ZM19.6494 36.3785L20.0993 35.8819C18.0033 33.9405 16.1258 31.776 14.5001 29.4271L14.403 29.2751C5.50265 16.9056 11.3947 10.7516 11.652 10.496C12.8108 9.79541 14.1482 9.44594 15.5018 9.49004C15.8255 10.3877 16.4469 11.8869 17.5715 14.5232C18.2496 16.1179 19.2367 18.4372 19.5701 19.3381C18.6275 20.5932 17.5764 21.7633 16.4291 22.8348C15.2494 24.0138 14.9726 25.4808 22.19 33.637C22.244 33.6989 22.3018 33.7573 22.3632 33.8117C30.5402 41.0235 32.0096 40.7501 33.1812 39.5711C34.2511 38.4301 35.4167 37.3825 36.6653 36.4399C37.5893 36.7731 39.6962 37.6675 41.2805 38.3403L41.4941 38.4309C44.1836 39.576 45.6465 40.1873 46.5252 40.4995C46.5795 41.856 46.2291 43.1981 45.5187 44.3552C45.263 44.6108 39.1218 50.5092 26.747 41.6057L26.5852 41.5006C24.2719 39.9092 22.1388 38.0708 20.2239 36.0178L19.6494 36.3785Z" fill="#35B1B8"/>
</svg>
