<svg width="56" height="60" viewBox="0 0 56 60" fill="none" xmlns="http://www.w3.org/2000/svg">
<path d="M25.5103 47.832C25.5103 48.0366 25.5915 48.2329 25.7362 48.3776C25.8809 48.5222 26.0772 48.6035 26.2818 48.6035H29.7151C29.9197 48.6035 30.116 48.5222 30.2607 48.3776C30.4053 48.2329 30.4866 48.0366 30.4866 47.832V45.3477H25.5103V47.832Z" stroke="#35B1B8" stroke-width="0.5"/>
<path d="M10.0797 20.9004C10.0797 20.6295 9.97205 20.3697 9.78048 20.1781C9.58891 19.9865 9.32909 19.8789 9.05816 19.8789H5.0215C4.75058 19.8789 4.49076 19.9865 4.29919 20.1781C4.10762 20.3697 4 20.6295 4 20.9004C4 21.1714 4.10762 21.4311 4.29919 21.6227C4.49076 21.8143 4.75058 21.9219 5.0215 21.9219H9.05816C9.19231 21.9219 9.32514 21.8955 9.44908 21.8442C9.57301 21.7928 9.68562 21.7176 9.78048 21.6227C9.87533 21.5279 9.95057 21.4153 10.0019 21.2913C10.0532 21.1674 10.0797 21.0346 10.0797 20.9004V20.9004Z" fill="#35B1B8" stroke="#35B1B8" stroke-width="0.5"/>
<path d="M10.0212 28.7514L6.21288 30.6679C6.00754 30.7715 5.84317 30.9414 5.7464 31.1501C5.64964 31.3588 5.62613 31.594 5.67969 31.8177C5.73325 32.0414 5.86074 32.2405 6.04152 32.3827C6.2223 32.5249 6.44579 32.6019 6.67581 32.6013C6.83666 32.6024 6.99542 32.5648 7.13873 32.4917L10.947 30.5753C11.1889 30.4525 11.3721 30.2387 11.4563 29.9808C11.5405 29.723 11.5188 29.4423 11.396 29.2004C11.2733 28.9585 11.0594 28.7754 10.8016 28.6912C10.5438 28.607 10.263 28.6286 10.0212 28.7514V28.7514Z" fill="#35B1B8" stroke="#35B1B8" stroke-width="0.5"/>
<path d="M12.4699 11.3372L8.75111 9.46386C8.51049 9.35232 8.23593 9.33876 7.98548 9.426C7.73502 9.51324 7.52832 9.69448 7.40907 9.93137C7.28983 10.1683 7.26738 10.4422 7.34649 10.6954C7.4256 10.9485 7.60007 11.1609 7.83298 11.2878L11.5518 13.161C11.6951 13.234 11.8538 13.2716 12.0147 13.2706C12.2447 13.2712 12.4682 13.1942 12.649 13.052C12.8298 12.9098 12.9572 12.7107 13.0108 12.487C13.0644 12.2633 13.0408 12.0281 12.9441 11.8194C12.8473 11.6107 12.683 11.4408 12.4776 11.3372H12.4699Z" fill="#35B1B8" stroke="#35B1B8" stroke-width="0.5"/>
<path d="M50.9785 19.8789H46.9372C46.6663 19.8789 46.4065 19.9865 46.2149 20.1781C46.0233 20.3697 45.9157 20.6295 45.9157 20.9004C45.9157 21.1714 46.0233 21.4311 46.2149 21.6227C46.4065 21.8143 46.6663 21.9219 46.9372 21.9219H50.9785C51.2494 21.9219 51.5093 21.8143 51.7008 21.6227C51.8924 21.4311 52 21.1714 52 20.9004C52 20.6295 51.8924 20.3697 51.7008 20.1781C51.5093 19.9865 51.2494 19.8789 50.9785 19.8789Z" fill="#35B1B8" stroke="#35B1B8" stroke-width="0.5"/>
<path d="M49.7853 30.67L45.977 28.7536C45.8572 28.6933 45.7268 28.6572 45.5931 28.6473C45.4593 28.6374 45.325 28.654 45.1977 28.696C45.0704 28.7381 44.9526 28.8048 44.8511 28.8924C44.7495 28.98 44.6663 29.0867 44.606 29.2065C44.5457 29.3262 44.5096 29.4567 44.4997 29.5904C44.4898 29.7241 44.5064 29.8584 44.5485 29.9858C44.5905 30.1131 44.6572 30.2309 44.7448 30.3324C44.8324 30.4339 44.9391 30.5172 45.0589 30.5774L48.8671 32.4939C49.0104 32.5672 49.1692 32.6048 49.3301 32.6035C49.5601 32.6041 49.7836 32.5271 49.9644 32.3848C50.1451 32.2426 50.2726 32.0435 50.3262 31.8198C50.3797 31.5961 50.3562 31.361 50.2595 31.1523C50.1627 30.9436 49.9983 30.7737 49.793 30.67H49.7853Z" fill="#35B1B8" stroke="#35B1B8" stroke-width="0.5"/>
<path d="M48.6212 9.91497C48.4992 9.67314 48.2862 9.48962 48.0289 9.40484C47.7717 9.32005 47.4913 9.34095 47.2494 9.46285L43.5306 11.3361C43.2888 11.4589 43.1056 11.6727 43.0214 11.9305C42.9372 12.1884 42.9588 12.4691 43.0816 12.711C43.2044 12.9528 43.4182 13.136 43.676 13.2203C43.9339 13.3045 44.2146 13.2828 44.4565 13.16L48.1753 11.2867C48.4163 11.1639 48.5987 10.9504 48.6823 10.6932C48.766 10.4359 48.744 10.156 48.6212 9.91497V9.91497Z" fill="#35B1B8" stroke="#35B1B8" stroke-width="0.5"/>
<path d="M27.9977 9.82617C24.594 9.83265 21.3309 11.1849 18.9203 13.588C16.5097 15.9911 15.1472 19.2499 15.1301 22.6536C15.1456 27.988 17.3691 30.9075 19.5201 33.7344C21.349 35.782 22.6392 38.2526 23.2744 40.9235C23.3174 41.1586 23.4414 41.3713 23.625 41.5244C23.8085 41.6774 24.0399 41.7614 24.279 41.7615H31.715C31.954 41.7614 32.1854 41.6774 32.369 41.5244C32.5525 41.3713 32.6766 41.1586 32.7195 40.9235C33.3541 38.2578 34.6422 35.792 36.4676 33.7483L36.4815 33.7313L35.6668 33.1141L36.4831 33.7313C38.631 30.9044 40.8515 27.9819 40.8669 22.6506C40.8478 19.2475 39.4844 15.9899 37.0738 13.5877C34.6632 11.1855 31.4009 9.83345 27.9977 9.82617ZM34.8598 32.4907L34.8459 32.5077C33.0328 34.6022 31.6862 37.0587 30.8956 39.7138H25.1045C24.313 37.052 22.9632 34.5896 21.145 32.4907C19.0217 29.7008 17.187 27.2906 17.1747 22.649C17.1747 19.7774 18.3155 17.0233 20.346 14.9927C22.3766 12.9621 25.1307 11.8214 28.0024 11.8214C30.8741 11.8214 33.6281 12.9621 35.6587 14.9927C37.6893 17.0233 38.8301 19.7774 38.8301 22.649C38.8131 27.2875 36.9815 29.6993 34.8598 32.4907Z" fill="#35B1B8" stroke="#35B1B8" stroke-width="0.5"/>
<path d="M31.5116 43.3066H24.4892C24.2182 43.3066 23.9584 43.4143 23.7668 43.6059C23.5753 43.7974 23.4677 44.0573 23.4677 44.3282V47.8309C23.4689 48.5774 23.766 49.293 24.2938 49.8209C24.8217 50.3487 25.5372 50.6458 26.2837 50.647H29.7171C30.4636 50.6458 31.1791 50.3487 31.707 49.8209C32.2348 49.293 32.5319 48.5774 32.5332 47.8309V44.3282C32.5332 44.0573 32.4255 43.7974 32.234 43.6059C32.0424 43.4143 31.7826 43.3066 31.5116 43.3066V43.3066ZM30.4901 47.8309C30.4901 48.0355 30.4089 48.2318 30.2642 48.3765C30.1195 48.5212 29.9232 48.6024 29.7186 48.6024H26.2837C26.0791 48.6024 25.8829 48.5212 25.7382 48.3765C25.5935 48.2318 25.5122 48.0355 25.5122 47.8309V45.3482H30.4917L30.4901 47.8309Z" fill="#35B1B8" stroke="#35B1B8" stroke-width="0.5"/>
</svg>
