<svg width="30" height="30" viewBox="0 0 30 30" fill="none" xmlns="http://www.w3.org/2000/svg">
<path d="M8.79883 12.5988C8.73317 12.5281 8.65423 12.4711 8.56653 12.4309C8.47883 12.3908 8.38405 12.3683 8.28766 12.3648C8.19127 12.3613 8.09516 12.3767 8.00476 12.4104C7.91436 12.444 7.83146 12.4951 7.76081 12.5608C7.69016 12.6264 7.63317 12.7054 7.59302 12.7931C7.55288 12.8808 7.53039 12.9755 7.52686 13.0719C7.52333 13.1683 7.53883 13.2644 7.57245 13.3548C7.60608 13.4452 7.65718 13.5281 7.72284 13.5988L13.3928 19.7168C13.4599 19.7892 13.5408 19.8473 13.6309 19.8876C13.7209 19.928 13.8182 19.9498 13.9168 19.9518H13.9308C14.1255 19.9517 14.3122 19.8744 14.4498 19.7368L28.6618 5.52476C28.7309 5.4568 28.7858 5.37585 28.8234 5.28657C28.861 5.19728 28.8805 5.10143 28.8809 5.00455C28.8813 4.90767 28.8625 4.81169 28.8256 4.72211C28.7887 4.63253 28.7345 4.55115 28.666 4.48264C28.5975 4.41414 28.516 4.35987 28.4265 4.32297C28.3369 4.28608 28.2409 4.26726 28.144 4.26764C28.0472 4.26803 27.9513 4.28759 27.862 4.3252C27.7727 4.36281 27.6918 4.41771 27.6238 4.48676L13.9508 18.1598L8.79883 12.5988Z" fill="#35B1B8" stroke="#35B1B8" stroke-width="2" stroke-miterlimit="10"/>
<path d="M17.102 1.211H3.93396C3.15606 1.21179 2.41029 1.52117 1.86023 2.07123C1.31017 2.62129 1.00079 3.36709 1 4.14499V25.855C1.00106 26.6328 1.31053 27.3785 1.86053 27.9285C2.41054 28.4785 3.15614 28.7879 3.93396 28.789H25.644C26.4218 28.7879 27.1675 28.4785 27.7175 27.9285C28.2675 27.3785 28.5769 26.6328 28.578 25.855V18.655C28.5816 18.5564 28.5654 18.4581 28.5302 18.3659C28.4949 18.2737 28.4415 18.1896 28.373 18.1186C28.3045 18.0475 28.2224 17.991 28.1316 17.9524C28.0408 17.9138 27.9432 17.8939 27.8445 17.8939C27.7458 17.8939 27.6482 17.9138 27.5574 17.9524C27.4666 17.991 27.3845 18.0475 27.316 18.1186C27.2475 18.1896 27.194 18.2737 27.1588 18.3659C27.1236 18.4581 27.1073 18.5564 27.111 18.655V25.855C27.1104 26.2439 26.9557 26.6168 26.6807 26.8918C26.4057 27.1668 26.0329 27.3215 25.644 27.322H3.93396C3.54505 27.3215 3.17222 27.1668 2.89722 26.8918C2.62222 26.6168 2.46751 26.2439 2.46698 25.855V4.14499C2.46751 3.75608 2.62222 3.38325 2.89722 3.10825C3.17222 2.83324 3.54505 2.67854 3.93396 2.67801H17.102C17.2965 2.67801 17.4831 2.60072 17.6207 2.46317C17.7582 2.32561 17.8355 2.13902 17.8355 1.94449C17.8355 1.74995 17.7582 1.5634 17.6207 1.42584C17.4831 1.28828 17.2965 1.211 17.102 1.211Z" fill="#35B1B8" stroke="#35B1B8" stroke-width="2" stroke-miterlimit="10"/>
</svg>
