<svg width="56" height="56" viewBox="0 0 56 56" fill="none" xmlns="http://www.w3.org/2000/svg">
<path d="M27.9999 7.10596C22.5086 7.10475 17.2376 9.26614 13.328 13.1223C9.41838 16.9785 7.18461 22.2191 7.1102 27.71C7.03579 33.2009 9.12673 38.5002 12.9304 42.4608C16.7341 46.4215 21.9446 48.725 27.4339 48.8726C27.6226 48.8915 27.8113 48.8933 27.9999 48.8933C28.1888 48.8969 28.3778 48.89 28.5659 48.8726C34.0553 48.725 39.2658 46.4215 43.0695 42.4608C46.8732 38.5002 48.9641 33.2009 48.8897 27.71C48.8153 22.2191 46.5815 16.9785 42.6719 13.1223C38.7623 9.26614 33.4913 7.10475 27.9999 7.10596V7.10596ZM27.3038 8.56436V14.762H21.4061C21.5155 14.5092 21.6155 14.2412 21.7325 14.0073C23.2663 10.8264 25.2435 8.91338 27.3038 8.56436ZM28.6961 8.56436C30.7563 8.91527 32.7335 10.8283 34.2674 14.0055C34.3844 14.2469 34.4844 14.5148 34.5938 14.7601H28.6961V8.56436ZM23.5588 9.02093C22.2644 10.2727 21.2162 11.7561 20.4685 13.3942C20.2571 13.8338 20.0496 14.2922 19.8591 14.7657H13.701C16.3386 11.9072 19.7733 9.90602 23.5607 9.02093H23.5588ZM32.4392 9.02093C36.2266 9.90602 39.6613 11.9072 42.2988 14.7657H36.1408C35.9522 14.2922 35.7427 13.8338 35.5314 13.3942C34.784 11.7555 33.735 10.2719 32.4392 9.02093V9.02093ZM12.503 16.1581H19.3591C18.6095 18.4203 18.0992 20.755 17.8366 23.1236H9.10894C9.76107 20.5977 10.9161 18.2292 12.5049 16.16L12.503 16.1581ZM20.8609 16.1581H27.3038V23.1236H19.2516C19.5285 20.7498 20.0689 18.4142 20.8628 16.16L20.8609 16.1581ZM28.6961 16.1581H35.139C35.9318 18.4131 36.4716 20.7493 36.7483 23.1236H28.6961V16.1581ZM36.6389 16.1581H43.495C45.0831 18.2284 46.2381 20.5973 46.8909 23.1236H38.1652C37.9018 20.7555 37.3909 18.4216 36.6408 16.16L36.6389 16.1581ZM8.80519 24.5178H17.7064C17.6139 25.6498 17.5536 26.8082 17.5536 28.0005C17.5536 29.1929 17.6139 30.3532 17.7064 31.4815H8.80519C8.60153 30.3324 8.49989 29.1675 8.50145 28.0005C8.49857 26.8329 8.60022 25.6673 8.80519 24.5178V24.5178ZM19.1006 24.5178H27.3056V31.4815H19.0987C19.0006 30.3495 18.9459 29.1872 18.9459 28.0005C18.9459 26.8138 18.9931 25.6498 19.0987 24.5178H19.1006ZM28.698 24.5178H36.903C37.0011 25.6498 37.0559 26.8101 37.0559 28.0005C37.0559 29.191 36.9993 30.3532 36.903 31.4815H28.6961L28.698 24.5178ZM38.2954 24.5178H47.1966C47.4022 25.6672 47.5038 26.8329 47.5003 28.0005C47.5025 29.1675 47.4009 30.3325 47.1966 31.4815H38.2935C38.3859 30.3495 38.4463 29.1835 38.4463 28.0005C38.4463 26.8176 38.3878 25.6554 38.2935 24.5178H38.2954ZM9.10894 32.8738H17.8366C18.0979 35.242 18.6083 37.5762 19.3591 39.8375H12.4823C10.9041 37.7648 9.75705 35.397 9.10894 32.8738V32.8738ZM19.2497 32.8738H27.3038V39.8375H20.8628C20.0681 37.5835 19.5277 35.2477 19.2516 32.8738H19.2497ZM28.6961 32.8738H36.7483C36.4727 35.2476 35.933 37.5834 35.139 39.8375H28.6961V32.8738ZM38.1633 32.8738H46.8909C46.2427 35.3969 45.0957 37.7648 43.5176 39.8375H36.6408C37.3917 37.5761 37.9027 35.242 38.1652 32.8738H38.1633ZM13.6784 41.2316H19.8817C20.0704 41.6957 20.259 42.1523 20.4703 42.5806C21.2233 44.2347 22.2791 45.7333 23.5833 46.9991C19.7773 46.1166 16.3259 44.1065 13.6803 41.2316H13.6784ZM21.4137 41.2316H27.3113V47.4349C25.2511 47.0784 23.272 45.1483 21.74 41.9731C21.625 41.7353 21.5231 41.4825 21.4137 41.2316ZM28.7037 41.2316H34.5957C34.4862 41.4825 34.3844 41.7335 34.2693 41.9731C32.7354 45.1483 30.7563 47.0784 28.698 47.4349V41.2316H28.7037ZM36.1257 41.2316H42.329C39.6829 44.1059 36.2317 46.1158 32.426 46.9991C33.7309 45.734 34.7869 44.2352 35.539 42.5806C35.7465 42.1523 35.939 41.6957 36.1276 41.2316H36.1257Z" fill="#35B1B8" stroke="#35B1B8" stroke-width="0.908333" stroke-miterlimit="10"/>
</svg>
