<svg width="56" height="56" viewBox="0 0 56 56" fill="none" xmlns="http://www.w3.org/2000/svg">
<path d="M47.1906 37.102V41.3343H43.7032V37.102C43.7032 32.1051 37.5583 27.3986 28.001 27.3986C18.4438 27.3986 12.2988 32.1051 12.2988 37.102L12.3344 41.3561L8.80945 41.3343V37.102C8.80945 29.9454 16.6852 23.9092 27.999 23.9092C39.3128 23.9092 47.1906 29.9454 47.1906 37.102Z" fill="#35B1B8" stroke="#35B1B8" stroke-width="0.878892"/>
<path fill-rule="evenodd" clip-rule="evenodd" d="M40.2109 15.1874C40.2109 12.772 39.4946 10.4107 38.1527 8.40235C36.8107 6.39396 34.9033 4.82862 32.6717 3.90426C30.4401 2.9799 27.9845 2.73805 25.6155 3.20928C23.2464 3.68051 21.0703 4.84367 19.3623 6.55166C17.6543 8.25966 16.4912 10.4358 16.0199 12.8048C15.5487 15.1739 15.7906 17.6295 16.7149 19.8611C17.6393 22.0927 19.2046 24 21.213 25.342C23.2214 26.684 25.5826 27.4002 27.9981 27.4002C31.2371 27.4002 34.3435 26.1135 36.6339 23.8232C38.9242 21.5328 40.2109 18.4265 40.2109 15.1874V15.1874ZM19.2668 15.1874C19.2683 13.4628 19.781 11.7774 20.7401 10.3441C21.6991 8.91082 23.0615 7.79394 24.6551 7.13461C26.2486 6.47527 28.0019 6.30307 29.6933 6.63976C31.3846 6.97645 32.9383 7.80691 34.1579 9.02623C35.3775 10.2456 36.2083 11.799 36.5454 13.4903C36.8824 15.1816 36.7106 16.9349 36.0517 18.5286C35.3927 20.1223 34.2761 21.485 32.843 22.4443C31.4099 23.4037 29.7246 23.9168 28.0001 23.9188C26.8538 23.919 25.7186 23.6933 24.6596 23.2545C23.6006 22.8157 22.6385 22.1724 21.8283 21.3615C21.0181 20.5506 20.3757 19.5879 19.9379 18.5285C19.5 17.4691 19.2753 16.3337 19.2766 15.1874H19.2668Z" fill="#35B1B8" stroke="#35B1B8" stroke-width="0.878892"/>
<path d="M35.3592 47.0254H14.906Z" fill="#35B1B8"/>
<path d="M35.3592 48.7754H37.1092V45.2754H35.3592V48.7754ZM35.3592 45.2754H14.906V48.7754H35.3592V45.2754Z" fill="#35B1B8"/>
<path d="M31.906 53.0254L37.9657 46.9657L31.906 40.906" stroke="#35B1B8" stroke-width="3.5"/>
</svg>
