<svg width="54" height="40" viewBox="0 0 54 40" fill="none" xmlns="http://www.w3.org/2000/svg">
<path fill-rule="evenodd" clip-rule="evenodd" d="M54.0001 4C54.0001 1.79086 52.2093 0 50.0001 0H20.3986C18.8528 0 17.5278 0.6625 16.6444 1.9875L0.0703125 19.875L16.6444 37.7625C17.5278 38.8667 18.8528 39.75 20.3986 39.75H50.0001C52.2093 39.75 54.0001 37.9591 54.0001 35.75C54.0001 25.1667 54.0001 14.5833 54.0001 4ZM40.852 28.9553C41.4378 29.5411 42.3875 29.5411 42.9733 28.9553C43.5591 28.3695 43.5591 27.4198 42.9733 26.834L35.6655 19.5262L42.9732 12.2185C43.559 11.6327 43.559 10.6829 42.9732 10.0971C42.3875 9.51136 41.4377 9.51136 40.8519 10.0971L33.5442 17.4049L26.2365 10.0971C25.6507 9.51136 24.701 9.51136 24.1152 10.0971C23.5294 10.6829 23.5294 11.6327 24.1152 12.2185L31.4229 19.5262L24.1151 26.834C23.5293 27.4198 23.5293 28.3695 24.1151 28.9553C24.7009 29.5411 25.6506 29.5411 26.2364 28.9553L33.5442 21.6475L40.852 28.9553Z" fill="white"/>
</svg>
