<svg width="26" height="16" viewBox="0 0 26 16" fill="none" xmlns="http://www.w3.org/2000/svg">
<path d="M13.7262 14.4302L13.7262 14.4302L24.9151 3.24134L24.9151 3.24136L24.9181 3.23823C25.3718 2.76851 25.3587 2.01999 24.889 1.56634C24.4308 1.12378 23.7044 1.12376 23.2462 1.56635L23.2462 1.56632L23.2431 1.56938L12.8903 11.9222L2.53742 1.56938L2.53741 1.56937C2.07571 1.10774 1.32718 1.10774 0.86548 1.56937L0.86544 1.56941C0.403833 2.03115 0.403814 2.77961 0.865454 3.24132L0.865467 3.24133L12.0543 14.4302L12.0543 14.4302C12.5161 14.8918 13.2645 14.8918 13.7262 14.4302Z" fill="#002655" stroke="#002655" stroke-width="0.5"/>
</svg>
