<svg width="26" height="16" viewBox="0 0 26 16" fill="none" xmlns="http://www.w3.org/2000/svg">
<path d="M13.7262 14.4307L13.7262 14.4306L24.9151 3.24182L24.9151 3.24185L24.9181 3.23872C25.3718 2.769 25.3587 2.02048 24.889 1.56682C24.4308 1.12427 23.7044 1.12425 23.2462 1.56684L23.2462 1.56681L23.2431 1.56987L12.8903 11.9227L2.53742 1.56987L2.53741 1.56986C2.07571 1.10822 1.32718 1.10822 0.86548 1.56986L0.86544 1.5699C0.403833 2.03164 0.403814 2.7801 0.865454 3.24181L0.865467 3.24182L12.0543 14.4306L12.0543 14.4307C12.5161 14.8923 13.2645 14.8923 13.7262 14.4307Z" fill="#002655" stroke="#002655" stroke-width="0.5"/>
</svg>
