<svg width="60" height="60" viewBox="0 0 60 60" fill="none" xmlns="http://www.w3.org/2000/svg">
<path d="M60 53.9628C60 56.9255 57.54 59.355 54.54 59.355L16.38 59.355C13.38 59.355 10.92 56.9255 10.92 53.9628L10.92 32.3939C10.92 31.8014 11.04 31.2681 11.22 30.6755C10.14 29.4904 9.3 28.1868 8.4 26.7647C6.72 24.0389 4.98 21.1947 0.659999 18.706C0.239999 18.469 -5.56637e-07 17.9949 -5.35691e-07 17.5209C2.98544e-08 4.72178 11.64 0.159134 11.76 0.0998791C12.18 -0.0778862 12.72 -0.0186293 13.08 0.277646C13.14 0.336901 18.18 4.18848 22.2 5.43284C23.16 5.72911 24.48 6.08465 26.04 6.55869C33.42 8.63262 39.72 10.4695 41.82 12.5435C44.1 14.7951 45.6 23.3871 46.14 26.9424L54.54 26.9424C57.54 26.9424 60 29.3719 60 32.3347C60 32.3939 60 53.9628 60 53.9628ZM57.3 53.9628L13.68 53.9628C13.68 55.4441 14.88 56.6292 16.38 56.6292L54.54 56.6292C56.04 56.6885 57.3 55.4441 57.3 53.9628ZM57.3 43.8894L57.3 32.4532C57.3 30.9718 56.1 29.7867 54.6 29.7867L38.22 29.7867C40.74 31.4458 43.68 34.2901 44.22 36.8973C44.52 38.2009 44.16 39.3268 43.26 40.2156C39.96 43.4746 34.38 41.5785 30.6 39.0305C27.6 36.9566 24 35.4159 21.72 35.2382C21.36 35.1789 21 35.1789 20.64 35.1789C18.84 35.1196 16.92 35.0011 13.68 32.8679L13.68 43.8894C13.62 43.8894 57.3 43.8894 57.3 43.8894ZM43.44 27.061C42.66 22.1428 41.22 15.8025 39.96 14.5581C38.22 12.8397 30.18 10.588 25.38 9.28442C23.82 8.86963 22.44 8.45485 21.42 8.15857C17.82 7.03273 13.68 4.18848 12.12 3.06263C9.96 4.12923 3.12 8.15857 2.76 16.9283C7.2 19.5948 9.18 22.7946 10.74 25.4611C11.88 27.298 12.84 28.8979 14.4 30.0237C17.46 32.2161 18.9 32.3347 20.7 32.3939C21.12 32.3939 21.48 32.4532 21.96 32.4532C24.72 32.6902 28.74 34.4086 32.16 36.7195C35.22 38.7935 39.36 40.1563 41.34 38.2009C41.52 38.0231 41.64 37.8454 41.52 37.3713C41.1 35.2382 37.14 31.8606 34.98 30.9718C32.4 29.9644 26.22 27.1795 24.66 23.5056C24.48 23.0909 24.54 22.6168 24.78 22.2613C25.68 20.8984 27.12 20.3059 28.14 19.8318C28.44 19.7133 28.86 19.5356 28.86 19.5356C29.22 19.0023 30 18.8245 30.6 19.1208C31.44 19.5356 33.66 20.1874 34.44 20.3651C34.86 20.4836 35.22 20.7799 35.34 21.1947L37.74 27.061C37.74 27.061 43.44 27.061 43.44 27.061ZM34.8 27.061L33.06 22.7946C32.34 22.5576 31.14 22.2613 30.18 21.9058C29.88 22.0835 29.58 22.202 29.22 22.3798C28.68 22.6168 28.02 22.9131 27.54 23.2686C28.5 24.6315 30.6 25.9944 32.76 27.1202C32.82 27.0609 34.8 27.061 34.8 27.061Z" fill="#35B1B8"/>
</svg>
