<svg width="48" height="48" viewBox="0 0 48 48" fill="none" xmlns="http://www.w3.org/2000/svg">
<path d="M22.148 5.26893C22.788 3.58093 25.21 3.58093 25.852 5.26893L29.992 16.7369C30.282 17.4969 31.02 18.0029 31.844 18.0029H42.018C43.898 18.0029 44.718 20.3429 43.24 21.4889L36 28.0029C35.6757 28.2522 35.4387 28.5979 35.323 28.9902C35.2073 29.3826 35.2189 29.8015 35.356 30.1869L38 41.3929C38.644 43.1929 36.56 44.7389 34.984 43.6309L25.15 37.3909C24.8133 37.1542 24.4117 37.0272 24 37.0272C23.5884 37.0272 23.1868 37.1542 22.85 37.3909L13.016 43.6309C11.442 44.7389 9.35603 43.1909 10 41.3929L12.644 30.1869C12.7812 29.8015 12.7927 29.3826 12.677 28.9902C12.5614 28.5979 12.3243 28.2522 12 28.0029L4.76003 21.4889C3.28003 20.3429 4.10403 18.0029 5.98003 18.0029H16.154C16.5546 18.0043 16.9462 17.8839 17.2769 17.6579C17.6076 17.4318 17.8618 17.1107 18.006 16.7369L22.146 5.26893H22.148Z" stroke="#35B1B8" stroke-width="1.6" stroke-linecap="round" stroke-linejoin="round"/>
</svg>
