<svg width="49" height="50" viewBox="0 0 49 50" fill="none" xmlns="http://www.w3.org/2000/svg">
<path d="M19.3802 39.0272C18.8934 39.0281 18.4217 38.8654 18.0469 38.5672C17.8359 38.3993 17.6615 38.1931 17.5337 37.9604C17.4059 37.7277 17.3272 37.4731 17.302 37.2112C17.2769 36.9492 17.3058 36.6851 17.3871 36.4339C17.4685 36.1827 17.6006 35.9493 17.776 35.7472L27.1094 25.0272L18.1094 14.2872C17.9363 14.0827 17.8071 13.8473 17.7291 13.5946C17.6511 13.3419 17.6259 13.0769 17.655 12.8149C17.684 12.5528 17.7667 12.2988 17.8983 12.0676C18.0299 11.8363 18.2079 11.6323 18.4219 11.4672C18.6374 11.2852 18.8899 11.1478 19.1633 11.0638C19.4368 10.9799 19.7254 10.9511 20.011 10.9792C20.2966 11.0074 20.5731 11.0919 20.823 11.2275C21.073 11.3631 21.2911 11.5469 21.4635 11.7672L31.526 23.7672C31.8325 24.1251 32 24.574 32 25.0372C32 25.5005 31.8325 25.9494 31.526 26.3072L21.1094 38.3072C20.9004 38.5493 20.6349 38.7406 20.3345 38.8657C20.034 38.9908 19.7071 39.0461 19.3802 39.0272Z" fill="#002655"/>
</svg>
