<svg width="22" height="22" viewBox="0 0 22 22" fill="none" xmlns="http://www.w3.org/2000/svg">
<path d="M16.6606 9.08614C15.749 9.99775 14.2743 9.99775 13.3627 9.08614C12.4511 8.17453 12.4511 6.69977 13.3627 5.78816C14.2743 4.87655 17.4851 4.96367 17.4851 4.96367C17.4851 4.96367 17.5722 8.17453 16.6606 9.08614Z" stroke="#002655" stroke-width="0.62226" stroke-miterlimit="10" stroke-linecap="round" stroke-linejoin="round"/>
<path d="M11.8879 12.1817C11.8879 12.1817 11.8848 12.1817 11.8879 12.1817C11.8848 11.1892 12.1493 10.234 12.6471 9.42198C12.9146 8.98329 13.2507 8.58816 13.6427 8.25214C14.0596 7.89123 14.545 7.59254 15.0863 7.3623H15.0894C15.0894 7.3623 15.0894 7.36542 15.0863 7.36542C14.5481 7.59565 14.0627 7.89434 13.6458 8.25214C13.2538 8.59127 12.9209 8.98329 12.6533 9.42198C12.1555 10.2371 11.891 11.1892 11.8879 12.1817ZM11.8879 12.1817C11.891 12.1817 11.891 12.1817 11.8879 12.1817Z" stroke="#002655" stroke-width="0.62226" stroke-miterlimit="10" stroke-linecap="round" stroke-linejoin="round"/>
<path d="M7.11519 8.12471C8.0268 9.03632 9.50156 9.03632 10.4132 8.12471C11.3248 7.2131 11.3248 5.73835 10.4132 4.82674C9.50156 3.91513 6.2907 4.00224 6.2907 4.00224C6.2907 4.00224 6.20358 7.2131 7.11519 8.12471Z" stroke="#002655" stroke-width="0.62226" stroke-miterlimit="10" stroke-linecap="round" stroke-linejoin="round"/>
<path d="M11.8879 12.1819C11.8879 12.1819 11.8848 12.1819 11.8879 12.1819L11.8848 11.2174C11.8848 10.228 11.6204 9.27594 11.1257 8.46389C10.8581 8.0252 10.5221 7.63318 10.1332 7.29405C9.71624 6.93314 9.23088 6.63445 8.69263 6.40733L8.68951 6.40421C8.68951 6.40421 8.69263 6.4011 8.69263 6.40421C9.23088 6.63445 9.71624 6.93314 10.1363 7.29405C10.5283 7.63318 10.8612 8.0252 11.1319 8.46389C11.6297 9.27906 11.8942 10.2311 11.8942 11.2205L11.8879 12.1819ZM11.8879 12.1819C11.891 12.1819 11.891 12.1819 11.8879 12.1819Z" stroke="#002655" stroke-width="0.62226" stroke-miterlimit="10" stroke-linecap="round" stroke-linejoin="round"/>
<path d="M5.3075 13.0746C6.11332 12.2688 7.22717 11.6092 8.45924 11.6092C9.26507 11.6092 9.77532 11.7865 10.2762 12.0323H14.1374C14.6632 12.0323 15.0925 12.4617 15.0925 12.9875C15.0925 13.5133 14.6632 13.9426 14.1374 13.9426H11.6452H14.1374C14.6632 13.9426 15.0925 13.5133 15.0925 12.9875L16.838 11.242C17.2082 10.8718 17.818 10.8718 18.1883 11.242C18.5585 11.6123 18.5585 12.2221 18.1883 12.5923L15.4877 15.2929C15.1423 15.6383 14.6632 15.853 14.1374 15.853H9.36152C9.00994 15.853 8.69259 15.9961 8.46235 16.2263L5.3075 13.0746Z" stroke="#002655" stroke-width="0.62226" stroke-miterlimit="10" stroke-linecap="round" stroke-linejoin="round"/>
<path d="M8.32235 17.2623L7.82765 17.757C7.50407 18.0806 6.97826 18.0806 6.65469 17.757L3.77674 14.8791C3.45316 14.5555 3.45316 14.0297 3.77674 13.7061L4.27144 13.2114C4.59501 12.8879 5.12082 12.8879 5.44439 13.2114L8.32235 16.0894C8.64592 16.413 8.64592 16.9388 8.32235 17.2623Z" stroke="#002655" stroke-width="0.62226" stroke-miterlimit="10" stroke-linecap="round" stroke-linejoin="round"/>
</svg>
