<svg width="22" height="22" viewBox="0 0 22 22" fill="none" xmlns="http://www.w3.org/2000/svg">
<path d="M16.6609 9.08614C15.7493 9.99775 14.2745 9.99775 13.3629 9.08614C12.4513 8.17453 12.4513 6.69977 13.3629 5.78816C14.2745 4.87655 17.4854 4.96367 17.4854 4.96367C17.4854 4.96367 17.5725 8.17453 16.6609 9.08614Z" stroke="#002655" stroke-width="0.62226" stroke-miterlimit="10" stroke-linecap="round" stroke-linejoin="round"/>
<path d="M11.8881 12.1817C11.8881 12.1817 11.885 12.1817 11.8881 12.1817C11.885 11.1892 12.1495 10.234 12.6473 9.42198C12.9148 8.98329 13.2509 8.58816 13.6429 8.25214C14.0598 7.89123 14.5452 7.59254 15.0865 7.3623H15.0896C15.0896 7.3623 15.0896 7.36542 15.0865 7.36542C14.5483 7.59565 14.0629 7.89434 13.646 8.25214C13.254 8.59127 12.9211 8.98329 12.6535 9.42198C12.1557 10.2371 11.8912 11.1892 11.8881 12.1817ZM11.8881 12.1817C11.8912 12.1817 11.8912 12.1817 11.8881 12.1817Z" stroke="#002655" stroke-width="0.62226" stroke-miterlimit="10" stroke-linecap="round" stroke-linejoin="round"/>
<path d="M7.11531 8.12471C8.02692 9.03632 9.50168 9.03632 10.4133 8.12471C11.3249 7.2131 11.3249 5.73835 10.4133 4.82674C9.50168 3.91513 6.29082 4.00224 6.29082 4.00224C6.29082 4.00224 6.2037 7.2131 7.11531 8.12471Z" stroke="#002655" stroke-width="0.62226" stroke-miterlimit="10" stroke-linecap="round" stroke-linejoin="round"/>
<path d="M11.8879 12.1819C11.8879 12.1819 11.8848 12.1819 11.8879 12.1819L11.8848 11.2174C11.8848 10.228 11.6203 9.27594 11.1256 8.46389C10.858 8.0252 10.522 7.63318 10.1331 7.29405C9.71618 6.93314 9.23082 6.63445 8.69256 6.40733L8.68945 6.40421C8.68945 6.40421 8.69256 6.4011 8.69256 6.40421C9.23082 6.63445 9.71618 6.93314 10.1362 7.29405C10.5282 7.63318 10.8611 8.0252 11.1318 8.46389C11.6296 9.27906 11.8941 10.2311 11.8941 11.2205L11.8879 12.1819ZM11.8879 12.1819C11.891 12.1819 11.891 12.1819 11.8879 12.1819Z" stroke="#002655" stroke-width="0.62226" stroke-miterlimit="10" stroke-linecap="round" stroke-linejoin="round"/>
<path d="M5.30762 13.0746C6.11344 12.2688 7.22729 11.6092 8.45936 11.6092C9.26519 11.6092 9.77544 11.7865 10.2764 12.0323H14.1375C14.6633 12.0323 15.0927 12.4617 15.0927 12.9875C15.0927 13.5133 14.6633 13.9426 14.1375 13.9426H11.6453H14.1375C14.6633 13.9426 15.0927 13.5133 15.0927 12.9875L16.8381 11.242C17.2083 10.8718 17.8181 10.8718 18.1884 11.242C18.5586 11.6123 18.5586 12.2221 18.1884 12.5923L15.4878 15.2929C15.1424 15.6383 14.6633 15.853 14.1375 15.853H9.36164C9.01006 15.853 8.69271 15.9961 8.46247 16.2263L5.30762 13.0746Z" stroke="#002655" stroke-width="0.62226" stroke-miterlimit="10" stroke-linecap="round" stroke-linejoin="round"/>
<path d="M8.32247 17.2623L7.82777 17.757C7.5042 18.0806 6.97839 18.0806 6.65481 17.757L3.77686 14.8791C3.45329 14.5555 3.45329 14.0297 3.77686 13.7061L4.27156 13.2114C4.59513 12.8879 5.12094 12.8879 5.44452 13.2114L8.32247 16.0894C8.64604 16.413 8.64604 16.9388 8.32247 17.2623Z" stroke="#002655" stroke-width="0.62226" stroke-miterlimit="10" stroke-linecap="round" stroke-linejoin="round"/>
</svg>
