<svg width="1080" height="176" viewBox="0 0 1080 176" fill="none" xmlns="http://www.w3.org/2000/svg">
<path d="M494.747 140.665C495.915 137.806 496.499 134.655 496.499 131.387C496.499 129.52 496.324 127.711 495.915 126.019C493.404 128.994 489.667 130.92 485.405 130.92C485.229 130.92 485.054 130.92 484.938 130.92C484.938 131.095 484.938 131.27 484.938 131.387C484.938 135.588 483.011 139.381 480.033 141.89C481.784 142.299 483.595 142.474 485.405 142.474C488.733 142.474 491.886 141.832 494.747 140.665Z" fill="#7A7A7A"/>
<path opacity="0.95" d="M522.367 158.462C522.367 157.587 522.951 157.12 523.71 157.12C524.469 157.12 525.053 157.587 525.053 158.462V158.929H525.111C525.461 157.704 526.98 157.12 527.68 157.12C528.615 157.12 529.082 157.704 529.082 158.521C529.082 159.629 528.381 159.979 527.622 159.979C526.804 159.979 525.286 159.629 525.286 163.247V166.631C525.286 167.39 524.994 168.09 523.826 168.09C522.659 168.09 522.367 167.39 522.367 166.631V158.462V158.462Z" fill="#002655"/>
<path opacity="0.95" d="M532.701 163.189C532.701 164.706 533.694 165.873 535.387 165.873C537.548 165.873 537.548 164.414 538.716 164.414C539.416 164.414 539.884 164.998 539.884 165.581C539.884 167.332 537.081 168.149 535.387 168.149C531.358 168.149 529.84 165.406 529.84 162.839C529.84 159.454 531.884 157.179 535.271 157.179C538.599 157.179 540.467 159.571 540.467 161.964C540.467 162.956 540.175 163.247 539.183 163.247H532.701V163.189ZM537.723 161.497C537.548 160.155 536.438 159.163 535.212 159.163C533.753 159.163 532.818 160.038 532.468 161.497H537.723Z" fill="#002655"/>
<path opacity="0.95" d="M552.729 170.541C552.729 171.475 552.145 172 551.269 172C550.394 172 549.81 171.475 549.81 170.541V166.631H549.751C549.226 167.565 548.233 168.09 546.89 168.09C543.795 168.09 542.394 165.464 542.394 162.664C542.394 158.871 544.555 157.12 547.007 157.12C548.408 157.12 549.634 157.704 550.102 158.987H550.16V158.521C550.16 157.645 550.627 157.12 551.503 157.12C552.379 157.12 552.846 157.587 552.846 158.521V170.541H552.729ZM547.649 165.814C549.401 165.814 549.985 164.064 549.985 162.547C549.985 160.913 549.343 159.396 547.649 159.396C546.073 159.454 545.314 160.855 545.314 162.547C545.314 163.947 545.781 165.814 547.649 165.814Z" fill="#002655"/>
<path opacity="0.95" d="M574.217 158.521C574.217 157.645 574.626 157.12 575.56 157.12C576.436 157.12 576.903 157.587 576.903 158.521V158.987H576.962C577.429 157.762 578.597 157.12 580.056 157.12C582.509 157.12 584.669 158.929 584.669 162.664C584.669 165.464 583.268 168.09 580.173 168.09C578.83 168.09 577.838 167.565 577.312 166.631H577.254V170.541C577.254 171.475 576.67 172 575.794 172C574.918 172 574.334 171.475 574.334 170.541V158.521H574.217ZM581.633 162.605C581.633 160.913 580.874 159.454 579.297 159.454C577.604 159.454 576.962 160.971 576.962 162.605C576.962 164.122 577.546 165.873 579.297 165.873C581.166 165.814 581.633 163.947 581.633 162.605Z" fill="#002655"/>
<path opacity="0.95" d="M565.05 166.632C565.05 167.507 564.641 168.09 563.707 168.09C562.773 168.09 562.364 167.507 562.364 166.632V166.282H562.305C561.488 167.39 560.437 168.149 558.744 168.149C556.992 168.149 555.065 167.274 555.065 164.298V158.637C555.065 157.879 555.357 157.179 556.525 157.179C557.693 157.179 557.984 157.879 557.984 158.637V163.714C557.984 164.881 558.568 165.756 559.795 165.756C560.787 165.756 562.013 164.939 562.013 163.481V158.637C562.013 157.879 562.305 157.179 563.473 157.179C564.641 157.179 564.933 157.879 564.933 158.637V166.632H565.05Z" fill="#002655"/>
<path opacity="0.95" d="M519.622 165.056C519.622 166.281 519.738 167.04 519.738 167.506C519.738 167.915 519.271 168.09 518.571 168.148C517.812 168.207 516.936 167.39 516.994 166.631C516.994 166.573 516.994 166.631 516.994 166.631C515.359 168.965 510.104 168.673 510.104 164.997C510.104 162.43 512.264 161.788 515.301 161.613C516.293 161.555 516.761 161.321 516.761 160.504C516.761 159.687 515.885 159.279 514.892 159.279C512.965 159.337 513.082 160.854 511.973 160.854C511.213 160.854 510.746 160.329 510.746 159.746C510.746 158.579 512.148 157.062 515.126 157.062C517.928 157.062 519.505 157.995 519.505 160.096V165.056H519.622ZM516.877 162.722C516.527 163.013 516.001 163.13 514.95 163.305C513.899 163.48 513.082 163.889 513.082 164.764C513.082 165.581 514.016 165.989 514.717 165.989C516.001 165.989 516.877 165.172 516.877 163.889V162.722Z" fill="#002655"/>
<path opacity="0.95" d="M595.413 165.056C595.413 166.281 595.53 167.04 595.53 167.506C595.53 167.915 595.062 168.09 594.362 168.148C593.603 168.207 592.727 167.39 592.785 166.631C592.785 166.573 592.785 166.631 592.785 166.631C591.15 168.965 585.895 168.673 585.895 164.997C585.895 162.43 588.055 161.788 591.092 161.613C592.084 161.555 592.552 161.321 592.552 160.504C592.552 159.687 591.676 159.279 590.683 159.279C588.756 159.337 588.931 160.854 587.764 160.854C587.004 160.854 586.537 160.329 586.537 159.746C586.537 158.579 587.939 157.062 590.917 157.062C593.719 157.062 595.296 157.995 595.296 160.096V165.056H595.413ZM592.668 162.722C592.376 163.013 591.793 163.13 590.741 163.305C589.69 163.48 588.873 163.889 588.873 164.764C588.873 165.581 589.807 165.989 590.508 165.989C591.793 165.989 592.668 165.172 592.668 163.889V162.722Z" fill="#002655"/>
<path opacity="0.95" d="M527.329 142.474C516.994 142.474 508.644 134.071 508.644 123.801C508.644 113.473 517.052 105.07 527.329 105.07C532.467 105.07 537.256 107.113 540.817 110.789C542.452 112.481 542.394 115.165 540.701 116.799C539.007 118.433 536.321 118.374 534.686 116.682C532.759 114.64 530.132 113.531 527.329 113.531C521.724 113.531 517.111 118.083 517.111 123.743C517.111 129.345 521.665 133.954 527.329 133.954C530.132 133.954 532.759 132.846 534.686 130.803C536.321 129.111 539.007 129.053 540.701 130.687C542.394 132.32 542.452 135.005 540.817 136.697C537.256 140.431 532.467 142.474 527.329 142.474Z" fill="#002655"/>
<path opacity="0.95" d="M578.012 132.088C578.012 136.172 578.421 138.74 578.421 140.257C578.421 141.599 576.845 142.299 574.626 142.416C571.531 142.591 569.195 139.848 569.371 137.398C569.371 137.222 569.371 137.339 569.312 137.456C563.882 145.275 546.306 144.283 546.306 132.029C546.306 123.51 553.488 121.293 563.765 120.592C567.093 120.359 568.728 119.659 568.728 116.799C568.728 113.999 565.867 112.656 562.539 112.773C555.999 113.007 556.583 118.142 552.671 118.142C550.16 118.142 548.525 116.391 548.525 114.407C548.525 110.497 553.196 105.421 563.239 105.421C572.64 105.421 578.012 108.572 578.012 115.632V132.088ZM568.67 124.21C567.619 125.202 565.809 125.669 562.247 126.252C558.685 126.836 556.057 128.178 556.057 131.096C556.057 133.896 559.211 135.122 561.488 135.122C565.809 135.122 568.67 132.321 568.67 128.003V124.21V124.21Z" fill="#002655"/>
<path opacity="0.95" d="M633.075 132.088C633.075 136.172 633.484 138.74 633.484 140.257C633.484 141.599 631.907 142.299 629.688 142.416C626.593 142.591 624.258 139.848 624.433 137.398C624.433 137.222 624.433 137.339 624.375 137.456C618.944 145.275 601.369 144.283 601.369 132.029C601.369 123.51 608.551 121.293 618.827 120.592C622.156 120.359 623.791 119.659 623.791 116.799C623.791 113.999 620.93 112.656 617.601 112.773C611.062 113.007 611.645 118.142 607.733 118.142C605.222 118.142 603.587 116.391 603.587 114.407C603.587 110.497 608.259 105.421 618.302 105.421C627.703 105.421 633.075 108.572 633.075 115.632V132.088V132.088ZM623.732 124.21C622.681 125.202 620.871 125.669 617.309 126.252C613.747 126.836 611.12 128.178 611.12 131.096C611.12 133.896 614.273 135.122 616.55 135.122C620.871 135.122 623.732 132.321 623.732 128.003V124.21Z" fill="#002655"/>
<g opacity="0.95">
<path opacity="0.95" d="M590.566 92.1162C593.544 92.1162 595.938 94.5086 595.938 97.4845C595.938 100.46 593.544 102.853 590.566 102.853C587.588 102.853 585.194 100.46 585.194 97.4845C585.194 94.5086 587.588 92.1162 590.566 92.1162Z" fill="#002655"/>
<path opacity="0.95" d="M590.508 105.887C586.596 105.887 585.428 108.104 585.428 111.022V111.138V140.022C585.428 147.083 581.165 145.216 580.581 147.491C579.822 150.701 583.092 151.868 585.194 151.868C592.201 151.809 595.529 146.033 595.529 140.081V111.08V111.022C595.588 108.162 594.42 105.887 590.508 105.887Z" fill="#002655"/>
</g>
<path opacity="0.95" d="M569.721 157.12C568.553 157.12 568.261 157.762 568.261 158.637V161.438V163.889V166.515C568.261 167.39 568.612 168.032 569.721 168.032C570.889 168.032 571.181 167.39 571.181 166.515V163.889V161.438V158.637C571.181 157.762 570.83 157.12 569.721 157.12Z" fill="#002655"/>
<g opacity="0.95">
<path opacity="0.95" d="M569.722 153.035C570.597 153.035 571.298 153.735 571.298 154.611C571.298 155.486 570.597 156.186 569.722 156.186C568.846 156.186 568.145 155.486 568.145 154.611C568.145 153.735 568.846 153.035 569.722 153.035Z" fill="#002655"/>
</g>
<path d="M448.326 140.781C447.158 137.922 446.516 134.771 446.516 131.445C446.516 129.578 446.75 127.769 447.1 126.019C449.611 129.053 453.406 130.978 457.669 130.978C457.844 130.978 458.019 130.978 458.136 130.978C458.136 131.153 458.136 131.329 458.136 131.445C458.136 135.705 460.063 139.439 463.099 142.007C461.347 142.415 459.537 142.59 457.669 142.59C454.34 142.59 451.187 141.949 448.326 140.781Z" fill="#56884D"/>
<path d="M495.331 140.781C496.499 137.922 497.141 134.771 497.141 131.445C497.141 129.578 496.966 127.769 496.557 126.019C494.046 129.053 490.251 130.978 485.988 130.978C485.813 130.978 485.638 130.978 485.521 130.978C485.521 131.153 485.521 131.329 485.521 131.445C485.521 135.705 483.594 139.439 480.558 142.007C482.31 142.415 484.12 142.59 485.988 142.59C489.317 142.59 492.47 141.949 495.331 140.781Z" fill="#477E9F"/>
<path d="M458.135 130.921C458.135 130.979 458.135 130.979 458.135 130.921C457.96 130.979 457.785 130.979 457.668 130.979C453.406 130.979 449.669 129.054 447.158 126.019C447.858 122.81 449.143 119.892 450.953 117.267C451.946 118.725 453.055 120.067 454.34 121.293C454.749 121.701 455.157 122.051 455.683 122.343C455.858 122.402 455.975 122.518 456.15 122.577C456.15 122.577 456.15 122.577 456.208 122.577C456.383 122.635 456.5 122.693 456.675 122.752H456.734C456.909 122.81 457.026 122.81 457.201 122.868C457.259 122.868 457.259 122.868 457.318 122.868C457.493 122.927 457.61 122.927 457.785 122.927C457.843 122.927 457.902 122.927 457.902 122.927C458.077 122.927 458.31 122.985 458.486 122.985C460.004 122.985 461.405 122.402 462.456 121.41C459.887 123.919 458.135 127.245 458.135 130.921Z" fill="#67B6B7"/>
<path d="M485.521 130.921C485.521 130.979 485.521 130.979 485.521 130.921C485.696 130.979 485.871 130.979 485.988 130.979C490.25 130.979 493.987 129.054 496.498 126.019C495.798 122.81 494.513 119.892 492.703 117.267C491.71 118.725 490.601 120.067 489.316 121.293C489.024 121.76 488.557 122.051 488.032 122.343C487.856 122.402 487.74 122.518 487.565 122.577C487.565 122.577 487.565 122.577 487.506 122.577C487.331 122.635 487.214 122.693 487.039 122.752H486.981C486.805 122.868 486.689 122.927 486.513 122.927C486.455 122.927 486.455 122.927 486.397 122.927C486.222 122.985 486.105 122.985 485.93 122.985C485.871 122.985 485.813 122.985 485.813 122.985C485.638 122.985 485.404 123.043 485.229 123.043C483.711 123.043 482.309 122.46 481.258 121.468C483.769 123.919 485.521 127.245 485.521 130.921Z" fill="#67B6B7"/>
<path d="M448.326 93.8089C447.158 96.6681 446.516 99.8191 446.516 103.145C446.516 105.012 446.75 106.821 447.1 108.572C449.611 105.538 453.406 103.612 457.669 103.612C457.844 103.612 458.019 103.612 458.136 103.612C458.136 103.437 458.136 103.262 458.136 103.145C458.136 98.8855 460.063 95.151 463.099 92.5835C461.347 92.1751 459.537 92 457.669 92C454.34 92 451.187 92.6419 448.326 93.8089Z" fill="#757844"/>
<path d="M458.194 130.978C458.135 130.978 458.135 130.978 458.194 130.978C458.135 131.153 458.135 131.328 458.135 131.445C458.135 135.705 460.062 139.439 463.098 141.948C466.31 141.248 469.229 139.964 471.857 138.155C470.397 137.163 469.054 136.055 467.828 134.771C467.419 134.363 467.069 133.954 466.777 133.429C466.719 133.254 466.602 133.137 466.544 132.962C466.544 132.962 466.544 132.962 466.544 132.904C466.485 132.729 466.427 132.612 466.368 132.437V132.379C466.31 132.204 466.31 132.087 466.252 131.912C466.252 131.853 466.252 131.853 466.252 131.795C466.193 131.62 466.193 131.503 466.193 131.328C466.193 131.27 466.193 131.212 466.193 131.212C466.193 131.037 466.135 130.803 466.135 130.628C466.135 129.111 466.719 127.71 467.711 126.66C465.201 129.228 461.872 130.978 458.194 130.978Z" fill="#E4A649"/>
<path d="M458.194 103.612C458.135 103.612 458.135 103.612 458.194 103.612C458.135 103.437 458.135 103.262 458.135 103.145C458.135 98.8852 460.062 95.1507 463.098 92.6416C466.31 93.3418 469.229 94.6256 471.857 96.4344C470.397 97.4264 469.054 98.5351 467.828 99.8188C467.419 100.227 467.069 100.636 466.777 101.161C466.719 101.336 466.602 101.453 466.544 101.628C466.544 101.628 466.544 101.628 466.544 101.686C466.485 101.861 466.427 101.978 466.368 102.153V102.211C466.31 102.386 466.31 102.503 466.252 102.678C466.252 102.736 466.252 102.736 466.252 102.795C466.193 102.97 466.193 103.087 466.193 103.262C466.193 103.32 466.193 103.378 466.193 103.378C466.193 103.553 466.135 103.787 466.135 103.962C466.135 105.479 466.719 106.879 467.711 107.93C465.201 105.362 461.872 103.612 458.194 103.612Z" fill="#E4A649"/>
<path d="M476.88 133.488C476.997 133.313 477.055 133.138 477.113 133.021C477.113 133.021 477.113 133.021 477.113 132.963C477.172 132.788 477.23 132.671 477.288 132.496V132.437C477.347 132.262 477.347 132.146 477.405 131.971C477.405 131.912 477.405 131.912 477.464 131.854C477.522 131.679 477.522 131.562 477.522 131.387C477.522 131.329 477.522 131.27 477.522 131.27C477.522 131.095 477.58 130.862 477.58 130.687C477.58 127.478 475.011 124.91 471.8 124.91C468.588 124.91 466.019 127.478 466.019 130.687C466.019 130.862 466.019 131.095 466.077 131.27C466.077 131.329 466.077 131.329 466.077 131.387C466.077 131.562 466.136 131.737 466.136 131.854V131.912C466.194 132.087 466.194 132.262 466.253 132.379V132.437C466.311 132.613 466.369 132.788 466.428 132.904C466.72 133.605 467.187 134.246 467.712 134.772C468.939 136.055 470.282 137.164 471.741 138.156C473.201 137.164 474.544 136.055 475.77 134.772C476.237 134.421 476.588 134.013 476.88 133.488Z" fill="#C42228"/>
<path d="M477.581 103.32C477.581 103.261 477.581 103.203 477.581 103.203C477.581 103.028 477.522 102.911 477.522 102.736C477.522 102.678 477.522 102.678 477.464 102.62C477.405 102.445 477.405 102.328 477.347 102.153C477.347 102.153 477.347 102.094 477.289 102.094C477.23 101.919 477.172 101.803 477.113 101.628C477.113 101.628 477.113 101.628 477.113 101.569C477.055 101.394 476.938 101.219 476.88 101.102C476.588 100.577 476.238 100.169 475.829 99.7604C474.603 98.4766 473.26 97.368 471.8 96.376C470.34 97.368 468.997 98.4766 467.771 99.7604C467.245 100.286 466.778 100.927 466.486 101.628C466.428 101.803 466.37 101.978 466.311 102.094V102.153C466.253 102.328 466.194 102.445 466.194 102.62C466.194 102.678 466.194 102.678 466.194 102.736C466.136 102.911 466.136 103.086 466.136 103.203C466.136 103.261 466.136 103.261 466.136 103.32C466.136 103.495 466.078 103.728 466.078 103.903C466.078 107.113 468.647 109.68 471.858 109.68C475.07 109.68 477.639 107.113 477.639 103.903C477.639 103.728 477.639 103.495 477.581 103.32Z" fill="#C42228"/>
<path d="M495.331 93.8089C496.499 96.7265 497.141 99.8191 497.141 103.145C497.141 105.012 496.966 106.821 496.557 108.572C494.046 105.538 490.251 103.612 485.988 103.612C485.813 103.612 485.638 103.612 485.521 103.612C485.521 103.437 485.521 103.262 485.521 103.145C485.521 98.8855 483.594 95.151 480.558 92.5835C482.31 92.1751 484.12 92 485.988 92C489.317 92 492.47 92.6419 495.331 93.8089Z" fill="#9C6F4B"/>
<path d="M485.463 130.978C485.521 130.978 485.521 130.978 485.463 130.978C485.521 131.153 485.521 131.328 485.521 131.445C485.521 135.705 483.594 139.439 480.558 141.948C477.346 141.248 474.427 139.964 471.799 138.155C473.259 137.163 474.602 136.055 475.828 134.771C476.237 134.363 476.587 133.954 476.879 133.429C476.938 133.254 477.054 133.137 477.113 132.962C477.113 132.962 477.113 132.962 477.113 132.904C477.171 132.729 477.23 132.612 477.288 132.437C477.288 132.437 477.288 132.379 477.346 132.379C477.405 132.204 477.405 132.087 477.463 131.912C477.463 131.853 477.463 131.853 477.522 131.795C477.58 131.62 477.58 131.503 477.58 131.328C477.58 131.27 477.58 131.212 477.58 131.212C477.58 131.037 477.638 130.803 477.638 130.628C477.638 129.111 477.054 127.71 476.062 126.66C478.456 129.228 481.784 130.978 485.463 130.978Z" fill="#D56F65"/>
<path d="M485.463 103.612C485.521 103.612 485.521 103.612 485.463 103.612C485.521 103.437 485.521 103.262 485.521 103.145C485.521 98.8852 483.594 95.1507 480.558 92.6416C477.346 93.3418 474.427 94.6256 471.799 96.4344C473.259 97.4264 474.602 98.5351 475.828 99.8188C476.237 100.227 476.587 100.636 476.879 101.161C476.938 101.336 477.054 101.453 477.113 101.628C477.113 101.628 477.113 101.628 477.113 101.686C477.171 101.861 477.23 101.978 477.288 102.153C477.288 102.153 477.288 102.211 477.346 102.211C477.405 102.386 477.405 102.503 477.463 102.678C477.463 102.736 477.463 102.736 477.522 102.795C477.58 102.97 477.58 103.087 477.58 103.262C477.58 103.32 477.58 103.378 477.58 103.378C477.58 103.553 477.638 103.787 477.638 103.962C477.638 105.479 477.054 106.879 476.062 107.93C478.456 105.362 481.784 103.612 485.463 103.612Z" fill="#D56F65"/>
<path d="M458.135 103.671C458.135 103.612 458.135 103.612 458.135 103.671C457.96 103.612 457.785 103.612 457.668 103.612C453.406 103.612 449.669 105.538 447.158 108.572C447.858 111.782 449.143 114.699 450.953 117.325C451.946 115.866 453.055 114.524 454.34 113.299C454.749 112.89 455.157 112.54 455.683 112.248C455.858 112.19 455.975 112.073 456.15 112.015C456.15 112.015 456.15 112.015 456.208 112.015C456.383 111.957 456.5 111.898 456.675 111.84H456.734C456.909 111.782 457.026 111.782 457.201 111.723C457.259 111.723 457.259 111.723 457.318 111.665C457.493 111.606 457.61 111.606 457.785 111.606C457.843 111.606 457.902 111.606 457.902 111.606C458.077 111.606 458.31 111.548 458.486 111.548C460.004 111.548 461.405 112.132 462.456 113.124C459.887 110.673 458.135 107.347 458.135 103.671Z" fill="#9CC352"/>
<path d="M485.521 103.671C485.521 103.612 485.521 103.612 485.521 103.671C485.696 103.612 485.871 103.612 485.988 103.612C490.25 103.612 493.987 105.538 496.498 108.572C495.797 111.782 494.513 114.699 492.703 117.325C491.71 115.866 490.601 114.524 489.316 113.299C488.907 112.89 488.499 112.54 487.973 112.248C487.798 112.19 487.681 112.073 487.506 112.015C487.506 112.015 487.506 112.015 487.448 112.015C487.272 111.957 487.156 111.898 486.98 111.84H486.922C486.747 111.782 486.63 111.782 486.455 111.723C486.396 111.723 486.396 111.723 486.338 111.665C486.163 111.606 486.046 111.606 485.871 111.606C485.813 111.606 485.754 111.606 485.754 111.606C485.579 111.606 485.345 111.548 485.17 111.548C483.652 111.548 482.251 112.132 481.2 113.124C483.769 110.673 485.521 107.347 485.521 103.671Z" fill="#9CC352"/>
<path d="M458.427 111.489C458.194 111.489 458.019 111.489 457.844 111.548C457.785 111.548 457.727 111.548 457.727 111.548C457.552 111.548 457.435 111.606 457.26 111.606C457.201 111.606 457.201 111.606 457.143 111.606C456.968 111.664 456.851 111.664 456.676 111.723H456.617C456.442 111.781 456.325 111.839 456.15 111.898C456.15 111.898 456.15 111.898 456.092 111.898C455.917 111.956 455.741 112.073 455.625 112.131C455.099 112.423 454.69 112.773 454.282 113.181C452.997 114.407 451.888 115.749 450.895 117.208C451.888 118.666 452.997 120.009 454.282 121.234C454.69 121.642 455.099 121.993 455.625 122.284C455.8 122.343 455.917 122.459 456.092 122.518C456.092 122.518 456.092 122.518 456.15 122.518C456.325 122.576 456.442 122.634 456.617 122.693H456.676C456.851 122.751 456.968 122.751 457.143 122.809C457.201 122.809 457.201 122.809 457.26 122.809C457.435 122.868 457.552 122.868 457.727 122.868C457.785 122.868 457.844 122.868 457.844 122.868C458.019 122.868 458.252 122.926 458.427 122.926C461.639 122.926 464.208 120.359 464.208 117.149C464.208 113.94 461.639 111.489 458.427 111.489Z" fill="#618B4C"/>
<path d="M492.761 117.266C491.768 115.807 490.659 114.465 489.374 113.24C488.965 112.831 488.557 112.481 488.031 112.189C487.856 112.131 487.739 112.014 487.564 111.956C487.564 111.956 487.564 111.956 487.506 111.956C487.331 111.898 487.214 111.839 487.039 111.781H486.98C486.863 111.723 486.688 111.723 486.513 111.664C486.455 111.664 486.455 111.664 486.396 111.606C486.279 111.548 486.104 111.548 485.929 111.548C485.871 111.548 485.812 111.548 485.812 111.548C485.637 111.548 485.404 111.489 485.228 111.489C482.017 111.489 479.448 114.057 479.448 117.266C479.448 120.475 482.017 123.043 485.228 123.043C485.404 123.043 485.637 123.043 485.812 122.984C485.871 122.984 485.929 122.984 485.929 122.984C486.104 122.984 486.221 122.926 486.396 122.926C486.455 122.926 486.455 122.926 486.513 122.868C486.688 122.809 486.805 122.809 486.98 122.751H487.039C487.214 122.693 487.331 122.634 487.506 122.576C487.506 122.576 487.506 122.576 487.564 122.576C487.739 122.518 487.856 122.401 488.031 122.343C488.498 122.051 488.965 121.701 489.374 121.292C490.659 120.125 491.768 118.725 492.761 117.266Z" fill="#618B4C"/>
</svg>
