<svg width="169" height="72" viewBox="0 0 169 72" fill="none" xmlns="http://www.w3.org/2000/svg">
<path d="M43.4076 43.7985C44.4586 41.2252 44.9841 38.3893 44.9841 35.4484C44.9841 33.7679 44.8265 32.1399 44.4586 30.6169C42.1989 33.2952 38.8356 35.0282 34.9993 35.0282C34.8416 35.0282 34.684 35.0282 34.5789 35.0282C34.5789 35.1858 34.5789 35.3433 34.5789 35.4484C34.5789 39.2295 32.8447 42.6431 30.1646 44.9013C31.7411 45.2689 33.3702 45.4265 34.9993 45.4265C37.9947 45.4265 40.8325 44.8488 43.4076 43.7985Z" fill="#7A7A7A"/>
<path opacity="0.95" d="M68.2646 59.8162C68.2646 59.0285 68.7902 58.6083 69.4733 58.6083C70.1565 58.6083 70.682 59.0285 70.682 59.8162V60.2363H70.7346C71.0499 59.1335 72.4162 58.6083 73.0469 58.6083C73.8877 58.6083 74.3081 59.1335 74.3081 59.8687C74.3081 60.8665 73.6775 61.1816 72.9943 61.1816C72.2586 61.1816 70.8922 60.8665 70.8922 64.1225V67.1685C70.8922 67.8512 70.6295 68.4814 69.5784 68.4814C68.5274 68.4814 68.2646 67.8512 68.2646 67.1685V59.8162V59.8162Z" fill="#002655"/>
<path opacity="0.95" d="M77.5662 64.0696C77.5662 65.435 78.4596 66.4854 79.9836 66.4854C81.928 66.4854 81.928 65.1724 82.9791 65.1724C83.6097 65.1724 84.0301 65.6976 84.0301 66.2228C84.0301 67.7983 81.5076 68.5335 79.9836 68.5335C76.3576 68.5335 74.9912 66.0652 74.9912 63.7545C74.9912 60.7086 76.8305 58.6604 79.8785 58.6604C82.874 58.6604 84.5556 60.8136 84.5556 62.9668C84.5556 63.8595 84.2928 64.1221 83.3995 64.1221H77.5662V64.0696ZM82.0857 62.5466C81.928 61.3388 80.9295 60.446 79.826 60.446C78.5122 60.446 77.6713 61.2337 77.356 62.5466H82.0857Z" fill="#002655"/>
<path opacity="0.95" d="M95.5914 70.6871C95.5914 71.5273 95.0659 72 94.2776 72C93.4894 72 92.9638 71.5273 92.9638 70.6871V67.1685H92.9113C92.4383 68.0088 91.545 68.4814 90.3363 68.4814C87.551 68.4814 86.2898 66.1182 86.2898 63.5974C86.2898 60.1838 88.2342 58.6083 90.4414 58.6083C91.7026 58.6083 92.8062 59.1335 93.2266 60.2889H93.2792V59.8687C93.2792 59.081 93.6996 58.6083 94.4878 58.6083C95.2761 58.6083 95.6965 59.0285 95.6965 59.8687V70.6871H95.5914ZM91.0194 66.4333C92.596 66.4333 93.1215 64.8578 93.1215 63.4924C93.1215 62.0219 92.5434 60.6565 91.0194 60.6565C89.6005 60.709 88.9174 61.9694 88.9174 63.4924C88.9174 64.7527 89.3378 66.4333 91.0194 66.4333Z" fill="#002655"/>
<path opacity="0.95" d="M114.93 59.8687C114.93 59.081 115.298 58.6083 116.139 58.6083C116.927 58.6083 117.348 59.0285 117.348 59.8687V60.2889H117.4C117.821 59.186 118.872 58.6083 120.186 58.6083C122.393 58.6083 124.337 60.2363 124.337 63.5974C124.337 66.1182 123.076 68.4814 120.291 68.4814C119.082 68.4814 118.189 68.0088 117.716 67.1685H117.663V70.6871C117.663 71.5273 117.138 72 116.349 72C115.561 72 115.036 71.5273 115.036 70.6871V59.8687H114.93ZM121.604 63.5449C121.604 62.0219 120.921 60.709 119.502 60.709C117.978 60.709 117.4 62.0744 117.4 63.5449C117.4 64.9103 117.926 66.4858 119.502 66.4858C121.184 66.4333 121.604 64.7527 121.604 63.5449Z" fill="#002655"/>
<path opacity="0.95" d="M106.68 67.1681C106.68 67.9558 106.312 68.481 105.471 68.481C104.63 68.481 104.262 67.9558 104.262 67.1681V66.853H104.21C103.474 67.8508 102.528 68.5335 101.004 68.5335C99.4276 68.5335 97.6934 67.7457 97.6934 65.0674V59.9733C97.6934 59.2906 97.9561 58.6604 99.0072 58.6604C100.058 58.6604 100.321 59.2906 100.321 59.9733V64.5423C100.321 65.5926 100.846 66.3803 101.95 66.3803C102.843 66.3803 103.947 65.6451 103.947 64.3322V59.9733C103.947 59.2906 104.21 58.6604 105.261 58.6604C106.312 58.6604 106.575 59.2906 106.575 59.9733V67.1681H106.68Z" fill="#002655"/>
<path opacity="0.95" d="M65.7947 65.7505C65.7947 66.8533 65.8998 67.536 65.8998 67.9562C65.8998 68.3238 65.4794 68.4813 64.8487 68.5338C64.1656 68.5864 63.3773 67.8511 63.4298 67.1684C63.4298 67.1159 63.4298 67.1684 63.4298 67.1684C61.9584 69.2691 57.2288 69.0065 57.2288 65.698C57.2288 63.3873 59.1732 62.8096 61.9059 62.652C62.7992 62.5995 63.2196 62.3894 63.2196 61.6542C63.2196 60.919 62.4314 60.5514 61.538 60.5514C59.8038 60.6039 59.9089 61.9693 58.9104 61.9693C58.2272 61.9693 57.8068 61.4967 57.8068 60.9715C57.8068 59.9212 59.0681 58.5558 61.7482 58.5558C64.2707 58.5558 65.6896 59.396 65.6896 61.2866V65.7505H65.7947ZM63.3247 63.6498C63.0094 63.9124 62.5365 64.0174 61.5905 64.175C60.6446 64.3325 59.9089 64.7002 59.9089 65.4879C59.9089 66.2231 60.7497 66.5907 61.3803 66.5907C62.5365 66.5907 63.3247 65.8555 63.3247 64.7002V63.6498Z" fill="#002655"/>
<path opacity="0.95" d="M134.007 65.7505C134.007 66.8533 134.112 67.536 134.112 67.9562C134.112 68.3238 133.691 68.4813 133.061 68.5338C132.378 68.5864 131.589 67.8511 131.642 67.1684C131.642 67.1159 131.642 67.1684 131.642 67.1684C130.17 69.2691 125.441 69.0065 125.441 65.698C125.441 63.3873 127.385 62.8096 130.118 62.652C131.011 62.5995 131.432 62.3894 131.432 61.6542C131.432 60.919 130.643 60.5514 129.75 60.5514C128.016 60.6039 128.173 61.9693 127.122 61.9693C126.439 61.9693 126.019 61.4967 126.019 60.9715C126.019 59.9212 127.28 58.5558 129.96 58.5558C132.483 58.5558 133.902 59.396 133.902 61.2866V65.7505H134.007ZM131.537 63.6498C131.274 63.9124 130.748 64.0174 129.802 64.175C128.857 64.3325 128.121 64.7002 128.121 65.4879C128.121 66.2231 128.962 66.5907 129.592 66.5907C130.748 66.5907 131.537 65.8555 131.537 64.7002V63.6498Z" fill="#002655"/>
<path opacity="0.95" d="M72.7316 45.4266C63.4299 45.4266 55.915 37.8643 55.915 28.6214C55.915 19.326 63.4825 11.7637 72.7316 11.7637C77.3561 11.7637 81.6653 13.6018 84.871 16.9103C86.3424 18.4333 86.2899 20.849 84.7659 22.3195C83.2419 23.7899 80.8245 23.7374 79.3531 22.2144C77.6189 20.3764 75.254 19.3786 72.7316 19.3786C67.6866 19.3786 63.535 23.4748 63.535 28.5689C63.535 33.6105 67.634 37.7593 72.7316 37.7593C75.254 37.7593 77.6189 36.7614 79.3531 34.9234C80.8245 33.4004 83.2419 33.3479 84.7659 34.8183C86.2899 36.2888 86.3424 38.7045 84.871 40.2275C81.6653 43.5886 77.3561 45.4266 72.7316 45.4266Z" fill="#002655"/>
<path opacity="0.95" d="M118.346 36.0785C118.346 39.7546 118.714 42.0653 118.714 43.4308C118.714 44.6386 117.295 45.2688 115.298 45.3739C112.513 45.5314 110.411 43.0632 110.569 40.8575C110.569 40.6999 110.569 40.805 110.516 40.91C105.629 47.9472 89.8108 47.0544 89.8108 36.026C89.8108 28.3586 96.2746 26.363 105.524 25.7328C108.519 25.5227 109.991 24.8925 109.991 22.3192C109.991 19.7984 107.416 18.5906 104.42 18.6956C98.5344 18.9057 99.0599 23.5271 95.5389 23.5271C93.2792 23.5271 91.8078 21.9516 91.8078 20.1661C91.8078 16.6475 96.0119 12.0786 105.051 12.0786C113.512 12.0786 118.346 14.9144 118.346 21.2689V36.0785ZM109.938 28.9888C108.992 29.8816 107.363 30.3017 104.157 30.8269C100.952 31.352 98.5869 32.5599 98.5869 35.1857C98.5869 37.7065 101.425 38.8093 103.474 38.8093C107.363 38.8093 109.938 36.2886 109.938 32.4023V28.9888V28.9888Z" fill="#002655"/>
<path opacity="0.95" d="M167.902 36.0785C167.902 39.7546 168.27 42.0653 168.27 43.4308C168.27 44.6386 166.851 45.2688 164.854 45.3739C162.069 45.5314 159.967 43.0632 160.125 40.8575C160.125 40.6999 160.125 40.805 160.072 40.91C155.185 47.9472 139.367 47.0544 139.367 36.026C139.367 28.3586 145.831 26.363 155.08 25.7328C158.075 25.5227 159.547 24.8925 159.547 22.3192C159.547 19.7984 156.972 18.5906 153.976 18.6956C148.091 18.9057 148.616 23.5271 145.095 23.5271C142.835 23.5271 141.364 21.9516 141.364 20.1661C141.364 16.6475 145.568 12.0786 154.607 12.0786C163.068 12.0786 167.902 14.9144 167.902 21.2689V36.0785V36.0785ZM159.494 28.9888C158.548 29.8816 156.919 30.3017 153.714 30.8269C150.508 31.352 148.143 32.5599 148.143 35.1857C148.143 37.7065 150.981 38.8093 153.03 38.8093C156.919 38.8093 159.494 36.2886 159.494 32.4023V28.9888Z" fill="#002655"/>
<g opacity="0.95">
<path opacity="0.95" d="M129.645 0.105042C132.325 0.105042 134.48 2.25821 134.48 4.93654C134.48 7.61487 132.325 9.76803 129.645 9.76803C126.965 9.76803 124.81 7.61487 124.81 4.93654C124.81 2.25821 126.965 0.105042 129.645 0.105042Z" fill="#002655"/>
<path opacity="0.95" d="M129.592 12.4989C126.071 12.4989 125.02 14.4945 125.02 17.1203V17.2254V43.2209C125.02 49.5754 121.184 47.8949 120.658 49.943C119.975 52.8314 122.918 53.8817 124.81 53.8817C131.116 53.8292 134.112 48.6301 134.112 43.2734V17.1729V17.1203C134.164 14.547 133.113 12.4989 129.592 12.4989Z" fill="#002655"/>
</g>
<path opacity="0.95" d="M110.884 58.6083C109.833 58.6083 109.57 59.186 109.57 59.9738V62.4945V64.7002V67.0635C109.57 67.8512 109.885 68.4289 110.884 68.4289C111.935 68.4289 112.198 67.8512 112.198 67.0635V64.7002V62.4945V59.9738C112.198 59.186 111.882 58.6083 110.884 58.6083Z" fill="#002655"/>
<g opacity="0.95">
<path opacity="0.95" d="M110.884 54.9317C111.672 54.9317 112.303 55.5619 112.303 56.3497C112.303 57.1374 111.672 57.7676 110.884 57.7676C110.096 57.7676 109.465 57.1374 109.465 56.3497C109.465 55.5619 110.096 54.9317 110.884 54.9317Z" fill="#002655"/>
</g>
<path d="M1.6291 43.9035C0.578068 41.3302 0 38.4943 0 35.5009C0 33.8204 0.210206 32.1924 0.525516 30.6169C2.78524 33.3477 6.20109 35.0808 10.0374 35.0808C10.195 35.0808 10.3527 35.0808 10.4578 35.0808C10.4578 35.2383 10.4578 35.3959 10.4578 35.5009C10.4578 39.3346 12.192 42.6956 14.9247 45.0063C13.3481 45.374 11.719 45.5315 10.0374 45.5315C7.04192 45.5315 4.20413 44.9538 1.6291 43.9035Z" fill="#56884D"/>
<path d="M43.9333 43.9035C44.9843 41.3302 45.5623 38.4943 45.5623 35.5009C45.5623 33.8204 45.4047 32.1924 45.0368 30.6169C42.7771 33.3477 39.3613 35.0808 35.525 35.0808C35.3673 35.0808 35.2097 35.0808 35.1046 35.0808C35.1046 35.2383 35.1046 35.3959 35.1046 35.5009C35.1046 39.3346 33.3704 42.6956 30.6377 45.0063C32.2142 45.374 33.8433 45.5315 35.525 45.5315C38.5204 45.5315 41.3582 44.9538 43.9333 43.9035Z" fill="#477E9F"/>
<path d="M10.4578 35.0282C10.4578 35.0808 10.4578 35.0808 10.4578 35.0282C10.3002 35.0808 10.1425 35.0808 10.0374 35.0808C6.20115 35.0808 2.83784 33.3477 0.578125 30.6169C1.20874 27.7285 2.36488 25.1027 3.99398 22.7394C4.88736 24.0523 5.88584 25.2602 7.04197 26.3631C7.40983 26.7307 7.7777 27.0458 8.25066 27.3084C8.40831 27.3609 8.51342 27.4659 8.67107 27.5184C8.67107 27.5184 8.67107 27.5184 8.72362 27.5184C8.88128 27.5709 8.98638 27.6235 9.14404 27.676H9.19659C9.35424 27.7285 9.45935 27.7285 9.617 27.781C9.66955 27.781 9.66955 27.781 9.7221 27.781C9.87976 27.8335 9.98486 27.8335 10.1425 27.8335C10.1951 27.8335 10.2476 27.8335 10.2476 27.8335C10.4053 27.8335 10.6155 27.886 10.7731 27.886C12.1395 27.886 13.4007 27.3609 14.3466 26.4681C12.0344 28.7263 10.4578 31.7197 10.4578 35.0282Z" fill="#67B6B7"/>
<path d="M35.1046 35.0282C35.1046 35.0808 35.1046 35.0808 35.1046 35.0282C35.2622 35.0808 35.4199 35.0808 35.525 35.0808C39.3613 35.0808 42.7246 33.3477 44.9843 30.6169C44.3537 27.7285 43.1975 25.1027 41.5684 22.7394C40.675 24.0523 39.6766 25.2602 38.5204 26.3631C38.2577 26.7832 37.8373 27.0458 37.3643 27.3084C37.2066 27.3609 37.1015 27.4659 36.9439 27.5184C36.9439 27.5184 36.9439 27.5184 36.8913 27.5184C36.7337 27.5709 36.6286 27.6235 36.4709 27.676H36.4184C36.2607 27.781 36.1556 27.8335 35.998 27.8335C35.9454 27.8335 35.9454 27.8335 35.8929 27.8335C35.7352 27.886 35.6301 27.886 35.4724 27.886C35.4199 27.886 35.3673 27.886 35.3673 27.886C35.2097 27.886 34.9995 27.9386 34.8418 27.9386C33.4755 27.9386 32.2142 27.4134 31.2683 26.5206C33.528 28.7263 35.1046 31.7197 35.1046 35.0282Z" fill="#67B6B7"/>
<path d="M1.6291 1.62794C0.578068 4.20124 0 7.03712 0 10.0305C0 11.7111 0.210206 13.3391 0.525516 14.9146C2.78524 12.1837 6.20109 10.4507 10.0374 10.4507C10.195 10.4507 10.3527 10.4507 10.4578 10.4507C10.4578 10.2931 10.4578 10.1356 10.4578 10.0305C10.4578 6.19686 12.192 2.83582 14.9247 0.525102C13.3481 0.157488 11.719 -6.10352e-05 10.0374 -6.10352e-05C7.04192 -6.10352e-05 4.20413 0.577618 1.6291 1.62794Z" fill="#757844"/>
<path d="M10.5103 35.0808C10.4578 35.0808 10.4578 35.0808 10.5103 35.0808C10.4578 35.2383 10.4578 35.3959 10.4578 35.5009C10.4578 39.3346 12.192 42.6956 14.9247 44.9538C17.815 44.3236 20.4426 43.1683 22.8074 41.5403C21.4936 40.6475 20.2849 39.6497 19.1813 38.4943C18.8135 38.1267 18.4982 37.7591 18.2354 37.2865C18.1829 37.1289 18.0777 37.0239 18.0252 36.8663C18.0252 36.8663 18.0252 36.8663 18.0252 36.8138C17.9726 36.6563 17.9201 36.5512 17.8675 36.3937V36.3412C17.815 36.1836 17.815 36.0786 17.7624 35.921C17.7624 35.8685 17.7624 35.8685 17.7624 35.816C17.7099 35.6585 17.7099 35.5534 17.7099 35.3959C17.7099 35.3434 17.7099 35.2908 17.7099 35.2908C17.7099 35.1333 17.6573 34.9232 17.6573 34.7657C17.6573 33.4003 18.1829 32.1399 19.0762 31.1946C16.8165 33.5053 13.8211 35.0808 10.5103 35.0808Z" fill="#E4A649"/>
<path d="M10.5103 10.4507C10.4578 10.4507 10.4578 10.4507 10.5103 10.4507C10.4578 10.2931 10.4578 10.1356 10.4578 10.0305C10.4578 6.19685 12.192 2.83581 14.9247 0.577606C17.815 1.2078 20.4426 2.36316 22.8074 3.99116C21.4936 4.88394 20.2849 5.88175 19.1813 7.03711C18.8135 7.40472 18.4982 7.77233 18.2354 8.24498C18.1829 8.40253 18.0777 8.50756 18.0252 8.66511C18.0252 8.66511 18.0252 8.66511 18.0252 8.71763C17.9726 8.87518 17.9201 8.98021 17.8675 9.13776V9.19027C17.815 9.34782 17.815 9.45285 17.7624 9.6104C17.7624 9.66292 17.7624 9.66292 17.7624 9.71544C17.7099 9.87298 17.7099 9.97802 17.7099 10.1356C17.7099 10.1881 17.7099 10.2406 17.7099 10.2406C17.7099 10.3981 17.6573 10.6082 17.6573 10.7658C17.6573 12.1312 18.1829 13.3916 19.0762 14.3369C16.8165 12.0262 13.8211 10.4507 10.5103 10.4507Z" fill="#E4A649"/>
<path d="M27.3268 37.3393C27.4319 37.1818 27.4845 37.0242 27.5371 36.9192C27.5371 36.9192 27.5371 36.9192 27.5371 36.8667C27.5896 36.7091 27.6422 36.6041 27.6947 36.4466V36.394C27.7473 36.2365 27.7473 36.1315 27.7998 35.9739C27.7998 35.9214 27.7998 35.9214 27.8524 35.8689C27.9049 35.7113 27.9049 35.6063 27.9049 35.4487C27.9049 35.3962 27.9049 35.3437 27.9049 35.3437C27.9049 35.1862 27.9575 34.9761 27.9575 34.8186C27.9575 31.9302 25.6452 29.6194 22.7549 29.6194C19.8645 29.6194 17.5522 31.9302 17.5522 34.8186C17.5522 34.9761 17.5522 35.1862 17.6048 35.3437C17.6048 35.3962 17.6048 35.3962 17.6048 35.4487C17.6048 35.6063 17.6573 35.7638 17.6573 35.8689V35.9214C17.7099 36.0789 17.7099 36.2365 17.7625 36.3415V36.394C17.815 36.5516 17.8676 36.7091 17.9201 36.8142C18.1829 37.4444 18.6033 38.022 19.0762 38.4947C20.1798 39.6501 21.3885 40.6479 22.7023 41.5406C24.0161 40.6479 25.2248 39.6501 26.3284 38.4947C26.7488 38.1796 27.0641 37.812 27.3268 37.3393Z" fill="#C42228"/>
<path d="M27.9574 10.1882C27.9574 10.1357 27.9574 10.0832 27.9574 10.0832C27.9574 9.92564 27.9049 9.8206 27.9049 9.66305C27.9049 9.61054 27.9049 9.61054 27.8523 9.55802C27.7998 9.40047 27.7998 9.29544 27.7472 9.13789C27.7472 9.13789 27.7472 9.08538 27.6946 9.08538C27.6421 8.92783 27.5895 8.82279 27.537 8.66525C27.537 8.66525 27.537 8.66525 27.537 8.61273C27.4844 8.45518 27.3793 8.29763 27.3268 8.1926C27.064 7.71995 26.7487 7.35234 26.3809 6.98473C25.2773 5.82937 24.0686 4.83156 22.7548 3.93878C21.441 4.83156 20.2323 5.82937 19.1287 6.98473C18.6558 7.45737 18.2354 8.03505 17.9726 8.66525C17.92 8.82279 17.8675 8.98034 17.8149 9.08538V9.13789C17.7624 9.29544 17.7098 9.40047 17.7098 9.55802C17.7098 9.61054 17.7098 9.61054 17.7098 9.66305C17.6573 9.8206 17.6573 9.97815 17.6573 10.0832C17.6573 10.1357 17.6573 10.1357 17.6573 10.1882C17.6573 10.3458 17.6047 10.5558 17.6047 10.7134C17.6047 13.6018 19.917 15.9125 22.8073 15.9125C25.6977 15.9125 28.01 13.6018 28.01 10.7134C28.01 10.5558 28.01 10.3458 27.9574 10.1882Z" fill="#C42228"/>
<path d="M43.9333 1.62794C44.9843 4.25376 45.5623 7.03712 45.5623 10.0305C45.5623 11.7111 45.4047 13.3391 45.0368 14.9146C42.7771 12.1837 39.3613 10.4507 35.525 10.4507C35.3673 10.4507 35.2097 10.4507 35.1046 10.4507C35.1046 10.2931 35.1046 10.1356 35.1046 10.0305C35.1046 6.19686 33.3704 2.83582 30.6377 0.525102C32.2142 0.157488 33.8433 -6.10352e-05 35.525 -6.10352e-05C38.5204 -6.10352e-05 41.3582 0.577618 43.9333 1.62794Z" fill="#9C6F4B"/>
<path d="M35.052 35.0808C35.1045 35.0808 35.1045 35.0808 35.052 35.0808C35.1045 35.2383 35.1045 35.3959 35.1045 35.5009C35.1045 39.3346 33.3703 42.6956 30.6376 44.9538C27.7473 44.3236 25.1197 43.1683 22.7549 41.5403C24.0687 40.6475 25.2774 39.6497 26.3809 38.4943C26.7488 38.1267 27.0641 37.7591 27.3269 37.2865C27.3794 37.1289 27.4845 37.0239 27.5371 36.8663C27.5371 36.8663 27.5371 36.8663 27.5371 36.8138C27.5896 36.6563 27.6422 36.5512 27.6947 36.3937C27.6947 36.3937 27.6947 36.3412 27.7473 36.3412C27.7998 36.1836 27.7998 36.0786 27.8524 35.921C27.8524 35.8685 27.8524 35.8685 27.9049 35.816C27.9575 35.6585 27.9575 35.5534 27.9575 35.3959C27.9575 35.3434 27.9575 35.2908 27.9575 35.2908C27.9575 35.1333 28.01 34.9232 28.01 34.7657C28.01 33.4003 27.4845 32.1399 26.5912 31.1946C28.7458 33.5053 31.7412 35.0808 35.052 35.0808Z" fill="#D56F65"/>
<path d="M35.052 10.4507C35.1045 10.4507 35.1045 10.4507 35.052 10.4507C35.1045 10.2931 35.1045 10.1356 35.1045 10.0305C35.1045 6.19685 33.3703 2.83581 30.6376 0.577606C27.7473 1.2078 25.1197 2.36316 22.7549 3.99116C24.0687 4.88394 25.2774 5.88175 26.3809 7.03711C26.7488 7.40472 27.0641 7.77233 27.3269 8.24498C27.3794 8.40253 27.4845 8.50756 27.5371 8.66511C27.5371 8.66511 27.5371 8.66511 27.5371 8.71763C27.5896 8.87518 27.6422 8.98021 27.6947 9.13776C27.6947 9.13776 27.6947 9.19027 27.7473 9.19027C27.7998 9.34782 27.7998 9.45285 27.8524 9.6104C27.8524 9.66292 27.8524 9.66292 27.9049 9.71544C27.9575 9.87298 27.9575 9.97802 27.9575 10.1356C27.9575 10.1881 27.9575 10.2406 27.9575 10.2406C27.9575 10.3981 28.01 10.6082 28.01 10.7658C28.01 12.1312 27.4845 13.3916 26.5912 14.3369C28.7458 12.0262 31.7412 10.4507 35.052 10.4507Z" fill="#D56F65"/>
<path d="M10.4578 10.5031C10.4578 10.4506 10.4578 10.4506 10.4578 10.5031C10.3002 10.4506 10.1425 10.4506 10.0374 10.4506C6.20115 10.4506 2.83784 12.1836 0.578125 14.9145C1.20874 17.8029 2.36488 20.4287 3.99398 22.7919C4.88736 21.479 5.88584 20.2711 7.04197 19.1683C7.40983 18.8007 7.7777 18.4856 8.25066 18.223C8.40831 18.1705 8.51342 18.0655 8.67107 18.0129C8.67107 18.0129 8.67107 18.0129 8.72362 18.0129C8.88128 17.9604 8.98638 17.9079 9.14404 17.8554H9.19659C9.35424 17.8029 9.45935 17.8029 9.617 17.7504C9.66955 17.7504 9.66955 17.7504 9.7221 17.6978C9.87976 17.6453 9.98486 17.6453 10.1425 17.6453C10.1951 17.6453 10.2476 17.6453 10.2476 17.6453C10.4053 17.6453 10.6155 17.5928 10.7731 17.5928C12.1395 17.5928 13.4007 18.118 14.3466 19.0107C12.0344 16.8051 10.4578 13.8116 10.4578 10.5031Z" fill="#9CC352"/>
<path d="M35.1046 10.5031C35.1046 10.4506 35.1046 10.4506 35.1046 10.5031C35.2623 10.4506 35.4199 10.4506 35.5251 10.4506C39.3613 10.4506 42.7246 12.1836 44.9843 14.9144C44.3537 17.8028 43.1976 20.4287 41.5685 22.7919C40.6751 21.479 39.6766 20.2711 38.5205 19.1683C38.1526 18.8006 37.7848 18.4856 37.3118 18.223C37.1542 18.1705 37.049 18.0654 36.8914 18.0129C36.8914 18.0129 36.8914 18.0129 36.8388 18.0129C36.6812 17.9604 36.5761 17.9079 36.4184 17.8554H36.3659C36.2082 17.8028 36.1031 17.8028 35.9455 17.7503C35.8929 17.7503 35.8929 17.7503 35.8404 17.6978C35.6827 17.6453 35.5776 17.6453 35.4199 17.6453C35.3674 17.6453 35.3148 17.6453 35.3148 17.6453C35.1572 17.6453 34.947 17.5928 34.7893 17.5928C33.423 17.5928 32.1617 18.1179 31.2158 19.0107C33.5281 16.805 35.1046 13.8116 35.1046 10.5031Z" fill="#9CC352"/>
<path d="M10.7206 17.5404C10.5104 17.5404 10.3527 17.5404 10.195 17.5929C10.1425 17.5929 10.0899 17.5929 10.0899 17.5929C9.93229 17.5929 9.82719 17.6454 9.66953 17.6454C9.61698 17.6454 9.61698 17.6454 9.56443 17.6454C9.40677 17.698 9.30167 17.698 9.14402 17.7505H9.09146C8.93381 17.803 8.82871 17.8555 8.67105 17.908C8.67105 17.908 8.67105 17.908 8.6185 17.908C8.46084 17.9605 8.30319 18.0656 8.19809 18.1181C7.72512 18.3807 7.35726 18.6958 6.9894 19.0634C5.83326 20.1662 4.83478 21.3741 3.94141 22.687C4.83478 23.9999 5.83326 25.2078 6.9894 26.3106C7.35726 26.6782 7.72512 26.9933 8.19809 27.2559C8.35574 27.3084 8.46084 27.4135 8.6185 27.466C8.6185 27.466 8.6185 27.466 8.67105 27.466C8.82871 27.5185 8.93381 27.571 9.09146 27.6235H9.14402C9.30167 27.676 9.40677 27.676 9.56443 27.7286C9.61698 27.7286 9.61698 27.7286 9.66953 27.7286C9.82719 27.7811 9.93229 27.7811 10.0899 27.7811C10.1425 27.7811 10.195 27.7811 10.195 27.7811C10.3527 27.7811 10.5629 27.8336 10.7206 27.8336C13.6109 27.8336 15.9232 25.5229 15.9232 22.6345C15.9232 19.7461 13.6109 17.5404 10.7206 17.5404Z" fill="#618B4C"/>
<path d="M41.6209 22.7395C40.7275 21.4265 39.7291 20.2187 38.5729 19.1158C38.2051 18.7482 37.8372 18.4331 37.3642 18.1705C37.2066 18.118 37.1015 18.013 36.9438 17.9605C36.9438 17.9605 36.9438 17.9605 36.8913 17.9605C36.7336 17.908 36.6285 17.8554 36.4709 17.8029H36.4183C36.3132 17.7504 36.1556 17.7504 35.9979 17.6979C35.9454 17.6979 35.9454 17.6979 35.8928 17.6454C35.7877 17.5929 35.63 17.5929 35.4724 17.5929C35.4198 17.5929 35.3673 17.5929 35.3673 17.5929C35.2096 17.5929 34.9994 17.5403 34.8418 17.5403C31.9514 17.5403 29.6392 19.8511 29.6392 22.7395C29.6392 25.6278 31.9514 27.9386 34.8418 27.9386C34.9994 27.9386 35.2096 27.9386 35.3673 27.886C35.4198 27.886 35.4724 27.886 35.4724 27.886C35.63 27.886 35.7351 27.8335 35.8928 27.8335C35.9454 27.8335 35.9454 27.8335 35.9979 27.781C36.1556 27.7285 36.2607 27.7285 36.4183 27.676H36.4709C36.6285 27.6235 36.7336 27.571 36.8913 27.5184C36.8913 27.5184 36.8913 27.5184 36.9438 27.5184C37.1015 27.4659 37.2066 27.3609 37.3642 27.3084C37.7847 27.0458 38.2051 26.7307 38.5729 26.3631C39.7291 25.3128 40.7275 24.0524 41.6209 22.7395Z" fill="#618B4C"/>
</svg>
