<svg width="54" height="60" viewBox="0 0 54 60" fill="none" xmlns="http://www.w3.org/2000/svg">
<path d="M38.6942 24.8362C36.2345 27.2958 32.2555 27.2958 29.7959 24.8362C27.3363 22.3765 27.3363 18.3975 29.7959 15.9379C32.2555 13.4783 40.9187 13.7133 40.9187 13.7133C40.9187 13.7133 41.1538 22.3765 38.6942 24.8362Z" stroke="#002655" stroke-width="2.22128" stroke-miterlimit="10" stroke-linecap="round" stroke-linejoin="round"/>
<path d="M25.8167 33.1888C25.8167 33.1888 25.8083 33.1888 25.8167 33.1888C25.8083 30.5109 26.5219 27.9338 27.865 25.7428C28.5869 24.5592 29.4936 23.493 30.5513 22.5864C31.6762 21.6127 32.9857 20.8068 34.4464 20.1856H34.4548C34.4548 20.1856 34.4548 20.194 34.4464 20.194C32.9941 20.8152 31.6845 21.6211 30.5597 22.5864C29.5019 23.5014 28.6037 24.5592 27.8818 25.7428C26.5387 27.9422 25.8251 30.5109 25.8167 33.1888ZM25.8167 33.1888C25.8251 33.1888 25.8251 33.1888 25.8167 33.1888Z" stroke="#002655" stroke-width="2.22128" stroke-miterlimit="10" stroke-linecap="round" stroke-linejoin="round"/>
<path d="M12.9394 22.2422C15.399 24.7018 19.378 24.7018 21.8376 22.2422C24.2973 19.7826 24.2973 15.8036 21.8376 13.3439C19.378 10.8843 10.7148 11.1194 10.7148 11.1194C10.7148 11.1194 10.4797 19.7826 12.9394 22.2422Z" stroke="#002655" stroke-width="2.22128" stroke-miterlimit="10" stroke-linecap="round" stroke-linejoin="round"/>
<path d="M25.8169 33.1888C25.8169 33.1888 25.8085 33.1888 25.8169 33.1888L25.8085 30.5865C25.8085 27.917 25.095 25.3483 23.7602 23.1573C23.0383 21.9736 22.1317 20.9159 21.0823 20.0009C19.9575 19.0271 18.6479 18.2212 17.1957 17.6084L17.1873 17.6C17.1873 17.6 17.1957 17.5916 17.1957 17.6C18.6479 18.2212 19.9575 19.0271 21.0907 20.0009C22.1485 20.9159 23.0467 21.9736 23.777 23.1573C25.1202 25.3566 25.8337 27.9254 25.8337 30.5949L25.8169 33.1888ZM25.8169 33.1888C25.8253 33.1888 25.8253 33.1888 25.8169 33.1888Z" stroke="#002655" stroke-width="2.22128" stroke-miterlimit="10" stroke-linecap="round" stroke-linejoin="round"/>
<path d="M8.06201 35.598C10.2362 33.4238 13.2415 31.6441 16.5657 31.6441C18.7399 31.6441 20.1167 32.1226 21.4682 32.7858H31.8859C33.3046 32.7858 34.463 33.9443 34.463 35.3629C34.463 36.7816 33.3046 37.9401 31.8859 37.9401H25.1618H31.8859C33.3046 37.9401 34.463 36.7816 34.463 35.3629L39.1724 30.6536C40.1714 29.6546 41.8167 29.6546 42.8156 30.6536C43.8146 31.6525 43.8146 33.2979 42.8156 34.2968L35.5291 41.5833C34.5973 42.5151 33.3046 43.0944 31.8859 43.0944H19.0002C18.0516 43.0944 17.1953 43.4805 16.5741 44.1017L8.06201 35.598Z" stroke="#002655" stroke-width="2.22128" stroke-miterlimit="10" stroke-linecap="round" stroke-linejoin="round"/>
<path d="M16.1964 46.8972L14.8616 48.2319C13.9886 49.1049 12.5699 49.1049 11.6969 48.2319L3.93188 40.4669C3.05884 39.5939 3.05884 38.1752 3.93188 37.3021L5.26662 35.9674C6.13966 35.0943 7.55834 35.0943 8.43138 35.9674L16.1964 43.7324C17.0694 44.6054 17.0694 46.0241 16.1964 46.8972Z" stroke="#002655" stroke-width="2.22128" stroke-miterlimit="10" stroke-linecap="round" stroke-linejoin="round"/>
</svg>
