<svg width="48" height="48" viewBox="0 0 48 48" fill="none" xmlns="http://www.w3.org/2000/svg">
<path d="M37.8107 33.7724C37.6386 33.4862 37.3953 33.2494 37.1044 33.0851C36.8134 32.9209 36.4849 32.8349 36.1507 32.8354V32.8354C35.8166 32.8349 35.4881 32.9209 35.1971 33.0851C34.9062 33.2494 34.6629 33.4862 34.4908 33.7724L31.6764 38.3784C31.1876 39.1715 30.9137 40.078 30.8818 41.0089C30.8498 41.9398 31.0608 42.8629 31.4941 43.6876C31.8979 44.484 32.5018 45.1618 33.2466 45.6548C33.9914 46.1478 34.8516 46.4391 35.7429 46.5H36.527C37.419 46.4397 38.28 46.1487 39.0256 45.6557C39.7712 45.1627 40.3758 44.4845 40.7801 43.6876C41.2131 42.8647 41.4247 41.9436 41.3943 41.0144C41.3638 40.0852 41.0923 39.1799 40.6064 38.3871L37.792 33.7796L37.8107 33.7724ZM38.2802 42.3818C38.0998 42.7499 37.826 43.0643 37.4862 43.2936C37.1463 43.523 36.7522 43.6593 36.3432 43.689C36.2122 43.6982 36.0807 43.6982 35.9497 43.689C35.5405 43.6627 35.1454 43.5296 34.8037 43.303C34.4621 43.0764 34.1858 42.7642 34.0026 42.3976C33.7946 42.0026 33.6925 41.5605 33.7063 41.1144C33.7202 40.6683 33.8495 40.2334 34.0816 39.8521L36.145 36.4629L38.2098 39.8564C38.4411 40.236 38.5703 40.6689 38.5852 41.113C38.6 41.5572 38.4999 41.9977 38.2946 42.3919L38.2802 42.3818ZM16.3969 9.9114C15.5297 9.91568 14.6908 10.2201 14.023 10.7729C13.3551 11.3257 12.8996 12.0927 12.7339 12.9433H8.46495C7.4701 12.9437 6.51613 13.3389 5.81279 14.042C5.10946 14.7451 4.71436 15.6986 4.71436 16.6927V16.6927V19.102C4.71436 20.0961 5.10946 21.0495 5.81279 21.7526C6.51613 22.4558 7.4701 22.8509 8.46495 22.8513H12.7339C12.9007 23.7011 13.3567 24.4669 14.0244 25.0188C14.6921 25.5707 15.5304 25.8746 16.3969 25.879H24.6893C25.5596 25.8785 26.4026 25.5758 27.0742 25.0227C27.7458 24.4697 28.2042 23.7006 28.371 22.847H31.1796V23.8601C30.5304 24.1602 29.9806 24.6395 29.5949 25.2415C29.2092 25.8435 29.0038 26.5431 29.0028 27.2579V27.6884C29.0032 28.6827 29.3986 29.6361 30.1022 30.3392C30.8057 31.0423 31.7598 31.4374 32.7548 31.4378H39.528C40.0215 31.4384 40.5103 31.3417 40.9664 31.1533C41.4225 30.9648 41.8369 30.6884 42.1859 30.3397C42.5349 29.9911 42.8118 29.5771 43.0005 29.1214C43.1892 28.6657 43.2862 28.1773 43.2858 27.6841V27.2536C43.2848 26.5388 43.0794 25.8392 42.6937 25.2372C42.308 24.6352 41.7582 24.1559 41.1089 23.8558V16.6813C41.1089 15.6869 40.7136 14.7332 40.01 14.0301C39.3064 13.3269 38.352 12.9318 37.3569 12.9318H28.3652C28.199 12.0781 27.7407 11.3087 27.069 10.7555C26.3973 10.2023 25.554 9.89985 24.6836 9.89989H24.3504V8.99878H25.3398C26.3349 8.99878 27.2892 8.60377 27.9929 7.90062C28.6965 7.19747 29.0918 6.24377 29.0918 5.24937C29.0918 4.25497 28.6965 3.30131 27.9929 2.59816C27.2892 1.89501 26.3349 1.5 25.3398 1.5H15.8714C14.8763 1.5 13.9219 1.89501 13.2183 2.59816C12.5147 3.30131 12.1193 4.25497 12.1193 5.24937C12.1193 6.24377 12.5147 7.19747 13.2183 7.90062C13.9219 8.60377 14.8763 8.99878 15.8714 8.99878H16.8607V9.91281L16.3969 9.9114ZM18.2722 6.18065H15.8714C15.7483 6.18065 15.6263 6.1564 15.5126 6.10931C15.3988 6.06222 15.2954 5.99322 15.2084 5.90622C15.1213 5.81921 15.0522 5.71591 15.0051 5.60223C14.958 5.48855 14.9337 5.36668 14.9337 5.24363C14.9337 5.12058 14.958 4.99876 15.0051 4.88508C15.0522 4.7714 15.1213 4.6681 15.2084 4.58109C15.2954 4.49409 15.3988 4.42508 15.5126 4.378C15.6263 4.33091 15.7483 4.30666 15.8714 4.30666H25.3484C25.4715 4.30666 25.5935 4.33091 25.7072 4.378C25.821 4.42508 25.9243 4.49409 26.0114 4.58109C26.0985 4.6681 26.1675 4.7714 26.2147 4.88508C26.2618 4.99876 26.286 5.12058 26.286 5.24363C26.286 5.36668 26.2618 5.48855 26.2147 5.60223C26.1675 5.71591 26.0985 5.81921 26.0114 5.90622C25.9243 5.99322 25.821 6.06222 25.7072 6.10931C25.5935 6.1564 25.4715 6.18065 25.3484 6.18065H22.949C22.5758 6.18065 22.2178 6.32877 21.9539 6.59249C21.69 6.8562 21.5418 7.21387 21.5418 7.58682V11.3176C21.5418 11.5022 21.5782 11.6851 21.6489 11.8557C21.7196 12.0263 21.8233 12.1813 21.9539 12.3119C22.0846 12.4425 22.2398 12.5461 22.4105 12.6167C22.5812 12.6874 22.7642 12.7238 22.949 12.7238H24.6893C24.8124 12.7238 24.9344 12.748 25.0481 12.7951C25.1619 12.8422 25.2653 12.9112 25.3523 12.9982C25.4394 13.0852 25.5085 13.1885 25.5556 13.3022C25.6027 13.4159 25.627 13.5377 25.627 13.6608V14.3495C25.6273 14.7222 25.7758 15.0796 26.0396 15.343C26.3035 15.6064 26.6612 15.7543 27.0341 15.7543H37.354C37.6027 15.7543 37.8412 15.853 38.0171 16.0287C38.1929 16.2045 38.2917 16.4428 38.2917 16.6913V24.9391C38.2912 25.2957 38.4261 25.6391 38.6691 25.9001C38.9122 26.1612 39.2453 26.3202 39.6012 26.3453C39.8365 26.3645 40.0559 26.4716 40.2156 26.6453C40.3753 26.819 40.4636 27.0465 40.4628 27.2823V27.7128C40.4628 27.9613 40.364 28.1996 40.1882 28.3754C40.0123 28.5511 39.7738 28.6498 39.5251 28.6498H32.7591C32.636 28.6498 32.5141 28.6256 32.4003 28.5785C32.2865 28.5314 32.1832 28.4624 32.0961 28.3754C32.009 28.2884 31.94 28.1851 31.8929 28.0714C31.8457 27.9577 31.8215 27.8358 31.8215 27.7128V27.2823C31.8207 27.0465 31.909 26.819 32.0687 26.6453C32.2284 26.4716 32.4478 26.3645 32.683 26.3453C33.0389 26.3202 33.3721 26.1612 33.6151 25.9001C33.8582 25.6391 33.9931 25.2957 33.9926 24.9391V21.4394C33.9926 21.0665 33.8443 20.7088 33.5804 20.4451C33.3165 20.1814 32.9586 20.0332 32.5854 20.0332H27.0284C26.6554 20.0336 26.2979 20.1819 26.0343 20.4456C25.7707 20.7092 25.6227 21.0667 25.6227 21.4394V22.1281C25.6227 22.3766 25.5239 22.615 25.348 22.7907C25.1722 22.9664 24.9337 23.0652 24.685 23.0652H16.3969C16.1482 23.0652 15.9098 22.9664 15.7339 22.7907C15.5581 22.615 15.4593 22.3766 15.4593 22.1281V21.4394C15.4593 21.0665 15.311 20.7088 15.0471 20.4451C14.7832 20.1814 14.4253 20.0332 14.0521 20.0332H8.42331C8.30018 20.0332 8.17825 20.0089 8.06449 19.9619C7.95073 19.9148 7.84737 19.8458 7.7603 19.7588C7.67323 19.6718 7.60416 19.5685 7.55704 19.4548C7.50991 19.3411 7.48566 19.2193 7.48566 19.0962V16.6927C7.48604 16.4443 7.58495 16.2062 7.76071 16.0306C7.93647 15.855 8.17475 15.7561 8.42331 15.7558H14.0506C14.2354 15.7558 14.4184 15.7194 14.5892 15.6487C14.7599 15.578 14.915 15.4745 15.0457 15.3439C15.1764 15.2133 15.28 15.0583 15.3507 14.8877C15.4214 14.7171 15.4578 14.5342 15.4578 14.3495V13.6608C15.4578 13.4123 15.5566 13.174 15.7325 12.9982C15.9083 12.8225 16.1468 12.7238 16.3955 12.7238H18.2708C18.4556 12.7238 18.6386 12.6874 18.8093 12.6167C18.98 12.5461 19.1352 12.4425 19.2658 12.3119C19.3965 12.1813 19.5001 12.0263 19.5709 11.8557C19.6416 11.6851 19.678 11.5022 19.678 11.3176V7.60548C19.678 7.23253 19.5297 6.87486 19.2658 6.61114C19.0019 6.34743 18.644 6.1993 18.2708 6.1993L18.2722 6.18065Z" fill="#35B1B8"/>
</svg>
