<svg width="45" height="46" viewBox="0 0 45 46" fill="none" xmlns="http://www.w3.org/2000/svg">
<path d="M36.9464 17.8361C34.4867 20.2958 30.5077 20.2958 28.0481 17.8361C25.5885 15.3765 25.5885 11.3975 28.0481 8.93787C30.5077 6.47825 39.1709 6.7133 39.1709 6.7133C39.1709 6.7133 39.406 15.3765 36.9464 17.8361Z" stroke="#002655" stroke-width="2.22128" stroke-miterlimit="10" stroke-linecap="round" stroke-linejoin="round"/>
<path d="M24.0691 26.1888C24.0691 26.1888 24.0607 26.1888 24.0691 26.1888C24.0607 23.5109 24.7742 20.9338 26.1174 18.7428C26.8393 17.5591 27.7459 16.493 28.8037 15.5864C29.9285 14.6126 31.2381 13.8068 32.6987 13.1856H32.7071C32.7071 13.1856 32.7071 13.194 32.6987 13.194C31.2465 13.8152 29.9369 14.621 28.812 15.5864C27.7543 16.5014 26.8561 17.5591 26.1342 18.7428C24.791 20.9422 24.0775 23.5109 24.0691 26.1888ZM24.0691 26.1888C24.0775 26.1888 24.0775 26.1888 24.0691 26.1888Z" stroke="#002655" stroke-width="2.22128" stroke-miterlimit="10" stroke-linecap="round" stroke-linejoin="round"/>
<path d="M11.1918 15.2422C13.6514 17.7018 17.6305 17.7018 20.0901 15.2422C22.5497 12.7826 22.5497 8.80353 20.0901 6.34392C17.6305 3.8843 8.96723 4.11935 8.96723 4.11935C8.96723 4.11935 8.73219 12.7826 11.1918 15.2422Z" stroke="#002655" stroke-width="2.22128" stroke-miterlimit="10" stroke-linecap="round" stroke-linejoin="round"/>
<path d="M24.0691 26.1888C24.0691 26.1888 24.0607 26.1888 24.0691 26.1888L24.0607 23.5865C24.0607 20.917 23.3472 18.3482 22.0124 16.1572C21.2905 14.9736 20.3839 13.9159 19.3345 13.0009C18.2097 12.0271 16.9001 11.2212 15.4478 10.6084L15.4395 10.6C15.4395 10.6 15.4478 10.5916 15.4478 10.6C16.9001 11.2212 18.2097 12.0271 19.3429 13.0009C20.4007 13.9159 21.2989 14.9736 22.0292 16.1572C23.3723 18.3566 24.0859 20.9254 24.0859 23.5949L24.0691 26.1888ZM24.0691 26.1888C24.0775 26.1888 24.0775 26.1888 24.0691 26.1888Z" stroke="#002655" stroke-width="2.22128" stroke-miterlimit="10" stroke-linecap="round" stroke-linejoin="round"/>
<path d="M6.31451 28.598C8.48872 26.4238 11.494 24.6441 14.8182 24.6441C16.9924 24.6441 18.3692 25.1226 19.7207 25.7858H30.1384C31.5571 25.7858 32.7155 26.9442 32.7155 28.3629C32.7155 29.7816 31.5571 30.9401 30.1384 30.9401H23.4143H30.1384C31.5571 30.9401 32.7155 29.7816 32.7155 28.3629L37.4249 23.6536C38.4239 22.6546 40.0692 22.6546 41.0682 23.6536C42.0671 24.6525 42.0671 26.2979 41.0682 27.2968L33.7816 34.5833C32.8498 35.5151 31.5571 36.0944 30.1384 36.0944H17.2527C16.3041 36.0944 15.4478 36.4805 14.8266 37.1017L6.31451 28.598Z" stroke="#002655" stroke-width="2.22128" stroke-miterlimit="10" stroke-linecap="round" stroke-linejoin="round"/>
<path d="M14.4488 39.8971L13.1141 41.2319C12.241 42.1049 10.8224 42.1049 9.94932 41.2319L2.18432 33.4669C1.31128 32.5938 1.31128 31.1751 2.18432 30.3021L3.51906 28.9674C4.3921 28.0943 5.81079 28.0943 6.68382 28.9674L14.4488 36.7324C15.3219 37.6054 15.3219 39.0241 14.4488 39.8971Z" stroke="#002655" stroke-width="2.22128" stroke-miterlimit="10" stroke-linecap="round" stroke-linejoin="round"/>
</svg>
