<svg width="22" height="22" viewBox="0 0 22 22" fill="none" xmlns="http://www.w3.org/2000/svg">
<path d="M16.6606 9.08614C15.749 9.99775 14.2743 9.99775 13.3627 9.08614C12.4511 8.17453 12.4511 6.69977 13.3627 5.78816C14.2743 4.87655 17.4851 4.96367 17.4851 4.96367C17.4851 4.96367 17.5722 8.17453 16.6606 9.08614Z" stroke="#002655" stroke-width="0.62226" stroke-miterlimit="10" stroke-linecap="round" stroke-linejoin="round"/>
<path d="M11.8879 12.1817C11.8879 12.1817 11.8847 12.1817 11.8879 12.1817C11.8847 11.1892 12.1492 10.234 12.647 9.42198C12.9146 8.98329 13.2506 8.58816 13.6426 8.25214C14.0595 7.89123 14.5449 7.59254 15.0863 7.3623H15.0894C15.0894 7.3623 15.0894 7.36542 15.0863 7.36542C14.548 7.59565 14.0627 7.89434 13.6457 8.25214C13.2537 8.59127 12.9208 8.98329 12.6532 9.42198C12.1554 10.2371 11.891 11.1892 11.8879 12.1817ZM11.8879 12.1817C11.891 12.1817 11.891 12.1817 11.8879 12.1817Z" stroke="#002655" stroke-width="0.62226" stroke-miterlimit="10" stroke-linecap="round" stroke-linejoin="round"/>
<path d="M7.11507 8.12471C8.02668 9.03632 9.50143 9.03632 10.413 8.12471C11.3247 7.2131 11.3247 5.73835 10.413 4.82674C9.50143 3.91513 6.29057 4.00224 6.29057 4.00224C6.29057 4.00224 6.20346 7.2131 7.11507 8.12471Z" stroke="#002655" stroke-width="0.62226" stroke-miterlimit="10" stroke-linecap="round" stroke-linejoin="round"/>
<path d="M11.8879 12.1819C11.8879 12.1819 11.8848 12.1819 11.8879 12.1819L11.8848 11.2174C11.8848 10.228 11.6203 9.27594 11.1256 8.46389C10.858 8.0252 10.522 7.63318 10.1331 7.29405C9.71618 6.93314 9.23082 6.63445 8.69256 6.40733L8.68945 6.40421C8.68945 6.40421 8.69256 6.4011 8.69256 6.40421C9.23082 6.63445 9.71618 6.93314 10.1362 7.29405C10.5282 7.63318 10.8611 8.0252 11.1318 8.46389C11.6296 9.27906 11.8941 10.2311 11.8941 11.2205L11.8879 12.1819ZM11.8879 12.1819C11.891 12.1819 11.891 12.1819 11.8879 12.1819Z" stroke="#002655" stroke-width="0.62226" stroke-miterlimit="10" stroke-linecap="round" stroke-linejoin="round"/>
<path d="M5.30737 13.0746C6.1132 12.2688 7.22704 11.6092 8.45912 11.6092C9.26494 11.6092 9.7752 11.7865 10.2761 12.0323H14.1372C14.663 12.0323 15.0924 12.4617 15.0924 12.9875C15.0924 13.5133 14.663 13.9426 14.1372 13.9426H11.6451H14.1372C14.663 13.9426 15.0924 13.5133 15.0924 12.9875L16.8378 11.242C17.2081 10.8718 17.8179 10.8718 18.1881 11.242C18.5584 11.6123 18.5584 12.2221 18.1881 12.5923L15.4875 15.2929C15.1422 15.6383 14.663 15.853 14.1372 15.853H9.3614C9.00982 15.853 8.69247 15.9961 8.46223 16.2263L5.30737 13.0746Z" stroke="#002655" stroke-width="0.62226" stroke-miterlimit="10" stroke-linecap="round" stroke-linejoin="round"/>
<path d="M8.32222 17.2623L7.82753 17.757C7.50395 18.0806 6.97814 18.0806 6.65457 17.757L3.77662 14.8791C3.45304 14.5555 3.45304 14.0297 3.77662 13.7061L4.27131 13.2114C4.59489 12.8879 5.1207 12.8879 5.44427 13.2114L8.32222 16.0894C8.6458 16.413 8.6458 16.9388 8.32222 17.2623Z" stroke="#002655" stroke-width="0.62226" stroke-miterlimit="10" stroke-linecap="round" stroke-linejoin="round"/>
</svg>
