<svg width="45" height="46" viewBox="0 0 45 46" fill="none" xmlns="http://www.w3.org/2000/svg">
<path d="M36.9466 17.8361C34.487 20.2957 30.5079 20.2957 28.0483 17.8361C25.5887 15.3765 25.5887 11.3975 28.0483 8.93785C30.5079 6.47823 39.1712 6.71328 39.1712 6.71328C39.1712 6.71328 39.4062 15.3765 36.9466 17.8361Z" stroke="#002655" stroke-width="2.22128" stroke-miterlimit="10" stroke-linecap="round" stroke-linejoin="round"/>
<path d="M24.0692 26.1888C24.0692 26.1888 24.0608 26.1888 24.0692 26.1888C24.0608 23.5109 24.7743 20.9338 26.1174 18.7428C26.8394 17.5591 27.746 16.493 28.8037 15.5864C29.9286 14.6126 31.2381 13.8067 32.6988 13.1855H32.7072C32.7072 13.1855 32.7072 13.1939 32.6988 13.1939C31.2465 13.8151 29.937 14.621 28.8121 15.5864C27.7544 16.5014 26.8562 17.5591 26.1342 18.7428C24.7911 20.9422 24.0776 23.5109 24.0692 26.1888ZM24.0692 26.1888C24.0776 26.1888 24.0776 26.1888 24.0692 26.1888Z" stroke="#002655" stroke-width="2.22128" stroke-miterlimit="10" stroke-linecap="round" stroke-linejoin="round"/>
<path d="M11.1918 15.2422C13.6514 17.7018 17.6305 17.7018 20.0901 15.2422C22.5497 12.7826 22.5497 8.80353 20.0901 6.34391C17.6305 3.88429 8.96723 4.11934 8.96723 4.11934C8.96723 4.11934 8.73219 12.7826 11.1918 15.2422Z" stroke="#002655" stroke-width="2.22128" stroke-miterlimit="10" stroke-linecap="round" stroke-linejoin="round"/>
<path d="M24.0691 26.1888C24.0691 26.1888 24.0607 26.1888 24.0691 26.1888L24.0607 23.5864C24.0607 20.917 23.3472 18.3482 22.0124 16.1572C21.2905 14.9736 20.3839 13.9159 19.3345 13.0009C18.2097 12.0271 16.9001 11.2212 15.4478 10.6084L15.4395 10.6C15.4395 10.6 15.4478 10.5916 15.4478 10.6C16.9001 11.2212 18.2097 12.0271 19.3429 13.0009C20.4007 13.9159 21.2989 14.9736 22.0292 16.1572C23.3723 18.3566 24.0859 20.9254 24.0859 23.5948L24.0691 26.1888ZM24.0691 26.1888C24.0775 26.1888 24.0775 26.1888 24.0691 26.1888Z" stroke="#002655" stroke-width="2.22128" stroke-miterlimit="10" stroke-linecap="round" stroke-linejoin="round"/>
<path d="M6.31445 28.598C8.48865 26.4238 11.4939 24.6441 14.8182 24.6441C16.9924 24.6441 18.3691 25.1226 19.7206 25.7858H30.1383C31.557 25.7858 32.7155 26.9442 32.7155 28.3629C32.7155 29.7816 31.557 30.9401 30.1383 30.9401H23.4143H30.1383C31.557 30.9401 32.7155 29.7816 32.7155 28.3629L37.4248 23.6535C38.4238 22.6546 40.0691 22.6546 41.0681 23.6535C42.067 24.6525 42.067 26.2978 41.0681 27.2968L33.7816 34.5833C32.8498 35.5151 31.557 36.0943 30.1383 36.0943H17.2526C16.304 36.0943 15.4478 36.4805 14.8266 37.1017L6.31445 28.598Z" stroke="#002655" stroke-width="2.22128" stroke-miterlimit="10" stroke-linecap="round" stroke-linejoin="round"/>
<path d="M14.4488 39.8971L13.1141 41.2319C12.241 42.1049 10.8224 42.1049 9.94932 41.2319L2.18432 33.4669C1.31128 32.5938 1.31128 31.1751 2.18432 30.3021L3.51906 28.9674C4.3921 28.0943 5.81079 28.0943 6.68382 28.9674L14.4488 36.7324C15.3219 37.6054 15.3219 39.0241 14.4488 39.8971Z" stroke="#002655" stroke-width="2.22128" stroke-miterlimit="10" stroke-linecap="round" stroke-linejoin="round"/>
</svg>
