<svg width="30" height="30" viewBox="0 0 30 30" fill="none" xmlns="http://www.w3.org/2000/svg">
<path d="M8.79883 12.5967C8.73317 12.5261 8.65423 12.4691 8.56653 12.4289C8.47883 12.3888 8.38405 12.3663 8.28766 12.3628C8.19127 12.3592 8.09516 12.3747 8.00476 12.4084C7.91436 12.442 7.83146 12.4931 7.76081 12.5588C7.69016 12.6244 7.63317 12.7034 7.59302 12.7911C7.55288 12.8788 7.53039 12.9735 7.52686 13.0699C7.52333 13.1663 7.53883 13.2624 7.57245 13.3528C7.60608 13.4432 7.65718 13.5261 7.72284 13.5967L13.3928 19.7148C13.4599 19.7871 13.5408 19.8452 13.6309 19.8856C13.7209 19.926 13.8182 19.9478 13.9168 19.9497H13.9308C14.1255 19.9497 14.3122 19.8724 14.4498 19.7347L28.6618 5.52274C28.7309 5.45478 28.7858 5.37384 28.8234 5.28455C28.861 5.19527 28.8805 5.09942 28.8809 5.00254C28.8813 4.90566 28.8625 4.80968 28.8256 4.7201C28.7887 4.63052 28.7345 4.54913 28.666 4.48063C28.5975 4.41212 28.516 4.35786 28.4265 4.32096C28.3369 4.28406 28.2409 4.26525 28.144 4.26563C28.0472 4.26602 27.9513 4.28558 27.862 4.32319C27.7727 4.36079 27.6918 4.4157 27.6238 4.48475L13.9508 18.1578L8.79883 12.5967Z" fill="#35B1B8" stroke="#35B1B8" stroke-width="2" stroke-miterlimit="10"/>
<path d="M17.102 1.21094H3.93396C3.15606 1.21173 2.41029 1.52111 1.86023 2.07117C1.31017 2.62123 1.00079 3.36703 1 4.14493V25.8549C1.00106 26.6328 1.31053 27.3784 1.86053 27.9284C2.41054 28.4784 3.15614 28.7879 3.93396 28.7889H25.644C26.4218 28.7879 27.1675 28.4784 27.7175 27.9284C28.2675 27.3784 28.5769 26.6328 28.578 25.8549V18.6549C28.5816 18.5563 28.5654 18.458 28.5302 18.3658C28.4949 18.2737 28.4415 18.1895 28.373 18.1185C28.3045 18.0475 28.2224 17.9909 28.1316 17.9523C28.0408 17.9137 27.9432 17.8939 27.8445 17.8939C27.7458 17.8939 27.6482 17.9137 27.5574 17.9523C27.4666 17.9909 27.3845 18.0475 27.316 18.1185C27.2475 18.1895 27.194 18.2737 27.1588 18.3658C27.1236 18.458 27.1073 18.5563 27.111 18.6549V25.8549C27.1104 26.2439 26.9557 26.6167 26.6807 26.8917C26.4057 27.1667 26.0329 27.3214 25.644 27.3219H3.93396C3.54505 27.3214 3.17222 27.1667 2.89722 26.8917C2.62222 26.6167 2.46751 26.2439 2.46698 25.8549V4.14493C2.46751 3.75602 2.62222 3.38319 2.89722 3.10818C3.17222 2.83318 3.54505 2.67848 3.93396 2.67795H17.102C17.2965 2.67795 17.4831 2.60066 17.6207 2.4631C17.7582 2.32555 17.8355 2.13896 17.8355 1.94443C17.8355 1.74989 17.7582 1.56334 17.6207 1.42578C17.4831 1.28822 17.2965 1.21094 17.102 1.21094Z" fill="#35B1B8" stroke="#35B1B8" stroke-width="2" stroke-miterlimit="10"/>
</svg>
