<svg width="29" height="39" viewBox="0 0 29 39" fill="none" xmlns="http://www.w3.org/2000/svg">
<path d="M18.8195 33.7975H15.9788V5.26121H18.8195V16.645H20.0864V4.91508C20.0864 4.41512 19.7025 3.99207 19.2034 3.99207H15.9788V1.33843C15.9788 0.876926 15.5949 0.569257 15.0959 0.723092L1.42951 4.41512C0.968847 4.53049 0.584961 5.03046 0.584961 5.53042V33.6052C0.584961 34.0667 0.968847 34.5667 1.42951 34.7205L15.0959 38.4125C15.5565 38.5279 15.9788 38.2587 15.9788 37.7972V35.1435H19.2034C19.6641 35.1435 20.0864 34.7205 20.0864 34.2205V22.4522H18.8195V33.7975ZM12.9077 20.2985C12.4854 20.2985 12.1399 19.9524 12.1399 19.5293C12.1399 19.1063 12.4854 18.7602 12.9077 18.7602C13.33 18.7602 13.6755 19.1063 13.6755 19.5293C13.6755 19.9524 13.33 20.2985 12.9077 20.2985Z" fill="#35B1B8"/>
<path d="M28.0333 19.4141L24.3096 15.6837C24.1944 15.5683 24.0025 15.6452 24.0025 15.799V17.9143H17.438C17.3229 17.9143 17.2461 17.9912 17.2461 18.1066V20.9909C17.2461 21.1063 17.3229 21.1832 17.438 21.1832H24.0025V23.2985C24.0025 23.4523 24.1944 23.5292 24.3096 23.4138L28.0333 19.6834C28.1101 19.568 28.1101 19.4911 28.0333 19.4141Z" fill="#35B1B8"/>
</svg>
