<svg width="11" height="19" viewBox="0 0 11 19" fill="none" xmlns="http://www.w3.org/2000/svg">
<path d="M3.28419 12.7557V11.9987C3.28419 11.1314 3.44189 10.4099 3.75729 9.83426C4.0727 9.25865 4.62465 8.66332 5.41316 8.04829C6.35148 7.30709 6.95469 6.73148 7.22278 6.32146C7.49876 5.91144 7.63675 5.42256 7.63675 4.85484C7.63675 4.19249 7.41597 3.6839 6.9744 3.32908C6.53284 2.97425 5.89809 2.79683 5.07016 2.79683C4.32108 2.79683 3.62719 2.90328 2.9885 3.11618C2.34981 3.32908 1.72689 3.58534 1.11974 3.88497L0.126221 1.80332C1.72689 0.912303 3.44189 0.466797 5.27123 0.466797C6.8167 0.466797 8.04283 0.84528 8.94961 1.60225C9.85639 2.35921 10.3098 3.40398 10.3098 4.73656C10.3098 5.32794 10.2231 5.85624 10.0496 6.32146C9.87611 6.77879 9.61196 7.21641 9.25713 7.63432C8.91019 8.05223 8.30698 8.5963 7.44751 9.26653C6.7142 9.84214 6.22138 10.3192 5.96906 10.6977C5.72462 11.0762 5.6024 11.5847 5.6024 12.2234V12.7557H3.28419ZM2.79926 16.5287C2.79926 15.338 3.37881 14.7427 4.53792 14.7427C5.10564 14.7427 5.53932 14.9004 5.83895 15.2158C6.13859 15.5233 6.2884 15.961 6.2884 16.5287C6.2884 17.0885 6.13464 17.534 5.82713 17.8652C5.52749 18.1885 5.09776 18.3501 4.53792 18.3501C3.97808 18.3501 3.54834 18.1924 3.24871 17.877C2.94908 17.5537 2.79926 17.1043 2.79926 16.5287Z" fill="white"/>
</svg>
