<svg width="66" height="58" viewBox="0 0 66 58" fill="none" xmlns="http://www.w3.org/2000/svg">
<path opacity="0.95" d="M34.112 3.52506C35.4687 3.52506 36.4378 4.49415 36.4378 5.85088C36.4378 7.2076 35.4687 8.17669 34.112 8.17669C17.4436 8.37051 12.2105 19.2243 10.66 23.6821C10.4662 24.2636 10.2723 24.845 10.2723 25.4265C10.0785 26.5894 9.10944 27.3647 7.94653 27.3647H2.32582C0.96909 27.3647 0 26.3956 0 25.0388C0 23.6821 0.96909 22.713 2.32582 22.713H6.20217C6.20217 22.5192 6.39599 22.5192 6.39599 22.3254C7.75272 17.8676 13.9549 3.71888 34.112 3.52506ZM60.4712 36.4741C63.1846 36.4741 65.5105 34.1483 65.5105 31.4348V24.845C65.5105 22.1316 63.1846 19.8058 60.4712 19.8058H60.0836C58.533 16.1232 56.2072 13.0221 53.2999 10.5025C52.9123 8.95196 53.2999 7.40142 54.269 6.0447C55.0443 4.68797 55.0443 3.13743 54.269 1.7807C53.4937 0.423977 51.9432 -0.157477 50.3927 0.0363409C46.3225 0.423977 42.6399 2.36216 40.5079 5.85088C39.7327 7.01378 40.1203 8.37051 41.0894 9.14578C42.2523 9.92105 43.609 9.53342 44.3843 8.56433C45.5472 6.81997 47.4854 5.46324 49.6174 5.07561C48.4545 7.2076 48.2607 9.72724 48.8421 12.0531C48.8421 12.6345 49.2298 13.216 49.8112 13.7974C52.9123 16.1232 55.0443 19.4181 56.401 23.1007C56.7886 24.0698 57.5639 24.6512 58.7268 24.6512H60.665C60.8588 24.6512 61.0526 24.845 61.0526 25.0388V31.8225C61.0526 32.0163 60.8588 32.2101 60.665 32.2101H58.7268C57.7577 32.2101 56.7887 32.7916 56.5948 33.9545C55.4319 37.4432 53.4937 40.5443 50.7803 42.8701C50.5865 42.8701 50.5865 43.0639 50.3927 43.0639C48.0668 45.0021 46.7101 47.9094 46.5163 51.0104V52.3672H39.1512V49.8475C39.1512 49.2661 38.9574 48.4908 38.3759 48.1032C37.7945 47.7155 37.213 47.5217 36.6316 47.5217C34.4996 47.7155 32.3676 47.7155 30.0418 47.5217C29.2665 47.5217 28.6851 47.7155 28.1036 48.1032C27.5221 48.4908 27.3283 49.0723 27.3283 49.8475V52.561H20.1571C19.9632 49.0723 18.6065 45.7774 16.0869 43.0639C14.5363 41.3196 13.1796 39.3814 12.2105 37.2494C11.6291 35.8927 11.0476 34.5359 10.66 33.1792C10.2723 32.0163 9.10944 31.241 7.75272 31.4348C7.36508 31.4348 7.17126 31.6287 6.97744 31.8225C6.20217 32.0163 5.81454 32.9854 5.81454 33.9545C6.20217 35.6988 6.97744 37.4432 7.75272 38.9937C8.91562 41.7072 10.4662 44.033 12.5982 46.165C14.1487 47.9094 15.1178 50.2352 15.3116 52.561V53.5301C15.5054 55.4683 17.2498 57.0188 19.188 57.0188H28.1036C30.2356 57.0188 31.7861 55.2744 31.98 53.1424V52.1734C32.7552 52.1734 33.5305 52.1734 34.4996 52.1734V53.1424C34.4996 55.2744 36.2439 57.0188 38.3759 57.0188H47.2916C49.4236 57.0188 51.1679 55.2744 51.1679 53.1424V51.0104C51.3617 49.2661 52.137 47.7155 53.4937 46.5526C53.6876 46.5526 53.6876 46.3588 53.8814 46.3588L54.0752 46.165C56.9825 43.6454 59.1145 40.3505 60.665 36.8617V36.4741H60.4712ZM48.4545 23.6821C49.8112 23.6821 50.9741 22.5192 50.9741 21.1625C50.9741 19.8058 49.8112 18.6429 48.4545 18.6429C47.0978 18.6429 45.9348 19.8058 45.9348 21.1625C45.9348 22.5192 47.0978 23.6821 48.4545 23.6821Z" fill="#35B1B8"/>
</svg>
