<svg width="30" height="30" viewBox="0 0 30 30" fill="none" xmlns="http://www.w3.org/2000/svg">
<path d="M8.79883 12.388C8.73317 12.3174 8.65423 12.2603 8.56653 12.2202C8.47883 12.18 8.38405 12.1576 8.28766 12.154C8.19127 12.1505 8.09516 12.166 8.00476 12.1996C7.91436 12.2332 7.83146 12.2844 7.76081 12.35C7.69016 12.4157 7.63317 12.4946 7.59302 12.5823C7.55288 12.67 7.53039 12.7648 7.52686 12.8612C7.52333 12.9575 7.53883 13.0537 7.57245 13.1441C7.60608 13.2345 7.65718 13.3174 7.72284 13.388L13.3928 19.506C13.4599 19.5784 13.5408 19.6365 13.6309 19.6769C13.7209 19.7173 13.8182 19.7391 13.9168 19.741H13.9308C14.1255 19.741 14.3122 19.6637 14.4498 19.526L28.6618 5.314C28.7309 5.24604 28.7858 5.1651 28.8234 5.07581C28.861 4.98653 28.8805 4.89068 28.8809 4.7938C28.8813 4.69692 28.8625 4.60094 28.8256 4.51136C28.7887 4.42178 28.7345 4.34039 28.666 4.27189C28.5975 4.20338 28.516 4.14912 28.4265 4.11222C28.3369 4.07532 28.2409 4.05651 28.144 4.05689C28.0472 4.05728 27.9513 4.07684 27.862 4.11445C27.7727 4.15205 27.6918 4.20696 27.6238 4.27601L13.9508 17.949L8.79883 12.388Z" fill="#35B1B8" stroke="#35B1B8" stroke-width="2" stroke-miterlimit="10"/>
<path d="M17.102 1H3.93396C3.15606 1.00079 2.41029 1.31017 1.86023 1.86023C1.31017 2.41029 1.00079 3.15609 1 3.93399V25.644C1.00106 26.4218 1.31053 27.1675 1.86053 27.7175C2.41054 28.2675 3.15614 28.5769 3.93396 28.578H25.644C26.4218 28.5769 27.1675 28.2675 27.7175 27.7175C28.2675 27.1675 28.5769 26.4218 28.578 25.644V18.444C28.5816 18.3454 28.5654 18.2471 28.5302 18.1549C28.4949 18.0627 28.4415 17.9786 28.373 17.9076C28.3045 17.8365 28.2224 17.78 28.1316 17.7414C28.0408 17.7028 27.9432 17.6829 27.8445 17.6829C27.7458 17.6829 27.6482 17.7028 27.5574 17.7414C27.4666 17.78 27.3845 17.8365 27.316 17.9076C27.2475 17.9786 27.194 18.0627 27.1588 18.1549C27.1236 18.2471 27.1073 18.3454 27.111 18.444V25.644C27.1104 26.0329 26.9557 26.4058 26.6807 26.6808C26.4057 26.9558 26.0329 27.1105 25.644 27.111H3.93396C3.54505 27.1105 3.17222 26.9558 2.89722 26.6808C2.62222 26.4058 2.46751 26.0329 2.46698 25.644V3.93399C2.46751 3.54508 2.62222 3.17225 2.89722 2.89725C3.17222 2.62225 3.54505 2.46754 3.93396 2.46701H17.102C17.2965 2.46701 17.4831 2.38972 17.6207 2.25217C17.7582 2.11461 17.8355 1.92803 17.8355 1.73349C17.8355 1.53895 17.7582 1.3524 17.6207 1.21484C17.4831 1.07729 17.2965 1 17.102 1Z" fill="#35B1B8" stroke="#35B1B8" stroke-width="2" stroke-miterlimit="10"/>
</svg>
