<svg width="49" height="48" viewBox="0 0 49 48" fill="none" xmlns="http://www.w3.org/2000/svg">
<path opacity="0.95" d="M25.3099 9.19729C26.1199 9.19729 26.6984 9.7737 26.6984 10.5807C26.6984 11.3877 26.1199 11.9641 25.3099 11.9641C15.3585 12.0793 12.2343 18.5352 11.4243 21.1867C11.1929 21.7631 11.1929 22.2242 11.1929 22.2242C11.0771 22.9159 10.4986 23.377 9.8043 23.377H6.3329C5.5229 23.377 4.94434 22.8006 4.94434 21.9936C4.94434 21.1867 5.5229 20.6103 6.3329 20.6103H8.64716C8.64716 20.495 8.64716 20.495 8.76288 20.3797C9.57287 17.7282 13.2757 9.31257 25.3099 9.19729ZM41.0469 28.7953C42.6669 28.7953 44.0554 27.4119 44.0554 25.798V21.8784C44.0554 20.2644 42.6669 18.881 41.0469 18.881H40.8155C39.8898 16.8059 38.5012 14.8461 36.7655 13.3475C36.5341 12.5405 36.7655 11.6182 37.3441 10.696C37.8069 9.88898 37.8069 8.96672 37.3441 8.15974C36.8812 7.35277 35.9555 7.00692 35.0298 7.1222C31.7898 7.46805 29.9384 9.19729 29.1284 10.5807C28.6656 11.1571 28.897 12.0793 29.4756 12.5405C30.0541 13.0016 30.9798 12.771 31.4427 12.1946C32.137 11.1571 33.1784 10.4654 34.567 10.1195C33.8727 11.5029 33.757 12.8863 34.1041 14.2697C34.1041 14.6156 34.3355 15.0767 34.567 15.3073C36.4184 16.8059 37.8069 18.7657 38.5012 20.8408C38.7326 21.4172 39.3112 21.8784 39.8898 21.7631H41.0469C41.1626 21.7631 41.2783 21.8784 41.2783 21.9936V26.0285C41.2783 26.1438 41.1626 26.2591 41.0469 26.2591H39.8898C39.3112 26.2591 38.7326 26.6049 38.6169 27.2966C38.0384 29.2564 36.7655 31.101 35.1455 32.5996C35.0298 32.5996 35.0298 32.7149 34.9141 32.7149C32.8313 34.5594 32.5998 36.7498 32.5998 37.4415V38.2485H28.2027V36.7498C28.2027 36.404 28.087 35.9428 27.7399 35.7123C27.3927 35.4817 27.0456 35.3664 26.6984 35.3664C25.4256 35.4817 24.037 35.4817 22.7642 35.3664C22.4171 35.3664 21.9542 35.4817 21.6071 35.7123C21.2599 35.9428 21.1442 36.2887 21.1442 36.7498V38.3638H16.8628C16.8628 37.3262 16.5157 34.79 14.4328 32.7149C13.5071 31.7927 12.8128 30.6398 12.1186 29.1412C11.7714 28.3342 11.4243 27.5272 11.1929 26.7202C11.0771 26.3744 10.9614 26.1438 10.6143 25.9132C10.1514 25.5674 9.45716 25.5674 8.9943 25.9132C8.64716 26.1438 8.41574 26.7202 8.53145 27.1814C8.76288 28.2189 9.11002 29.2564 9.68858 30.1787C10.4986 31.9079 11.4243 33.2913 12.5814 34.4442C13.97 35.8275 14.2014 37.5568 14.2014 38.2485V38.5943C14.2014 38.5943 14.2014 38.5943 14.2014 38.7096V38.8249C14.3171 39.9777 15.3585 40.9 16.5157 40.9H21.8385C23.1113 40.9 24.1528 39.8624 24.1528 38.5943V38.0179C24.6156 38.0179 25.0785 38.0179 25.657 38.0179V38.5943C25.657 39.8624 26.6984 40.9 27.9713 40.9H33.2941C34.567 40.9 35.6084 39.8624 35.6084 38.5943V37.3262C35.6084 37.0957 35.7241 35.8275 36.9969 34.6747C37.1126 34.6747 37.1126 34.5594 37.2284 34.5594C37.2284 34.5594 37.2284 34.5594 37.3441 34.4442C39.0798 32.8302 40.4683 30.9857 41.2783 28.9106H41.394V28.7953H41.0469ZM33.9884 21.1867C34.7984 21.1867 35.4927 20.495 35.4927 19.688C35.4927 18.881 34.7984 18.1893 33.9884 18.1893C33.1784 18.1893 32.4841 18.881 32.4841 19.688C32.3684 20.6103 33.0627 21.1867 33.9884 21.1867Z" fill="#002655"/>
</svg>
