<svg width="56" height="56" viewBox="0 0 56 56" fill="none" xmlns="http://www.w3.org/2000/svg">
<path fill-rule="evenodd" clip-rule="evenodd" d="M11.6468 36.8503H18.1561V34.0527H11.6468V36.8503ZM10.4134 39.457H19.3895C19.5514 39.4573 19.7118 39.4238 19.8614 39.3583C20.0111 39.2929 20.147 39.1968 20.2616 39.0756C20.3762 38.9545 20.467 38.8107 20.5291 38.6523C20.5911 38.4939 20.623 38.3241 20.623 38.1526V32.758C20.6225 32.4118 20.4923 32.0801 20.2611 31.8355C20.0298 31.591 19.7164 31.4536 19.3895 31.4536H10.4134C10.0866 31.4536 9.77313 31.591 9.54186 31.8355C9.3106 32.0801 9.18045 32.4118 9.17997 32.758V38.1526C9.17996 38.3241 9.21188 38.4939 9.27389 38.6523C9.3359 38.8107 9.42678 38.9545 9.54134 39.0756C9.6559 39.1968 9.79188 39.2929 9.94152 39.3583C10.0912 39.4238 10.2515 39.4573 10.4134 39.457ZM50.5313 17.0343H5.46143V16.5276C5.46383 15.4894 5.85496 14.4946 6.54898 13.7614C7.24301 13.0282 8.18329 12.6165 9.16359 12.6165H46.8219C47.8023 12.616 48.7429 13.0275 49.437 13.7608C50.1311 14.4941 50.5221 15.4892 50.524 16.5276L50.5313 17.0343ZM5.46143 23.6062H50.5313V19.6412H27.9964H5.46143V23.6062ZM50.5313 39.4841C50.5294 40.5224 50.1384 41.5174 49.4443 42.2507C48.7501 42.984 47.8096 43.3957 46.8291 43.3951H9.17086C8.19056 43.3952 7.25028 42.9835 6.55626 42.2502C5.86223 41.517 5.47112 40.5222 5.46871 39.4841V26.2053H50.5313V39.4841ZM46.8291 10.0058H9.17086C7.53693 10.0052 5.96954 10.6913 4.81265 11.9133C3.65575 13.1352 3.00385 14.7933 3 16.5237V39.482C3.00385 41.2125 3.65575 42.8706 4.81265 44.0926C5.96954 45.3146 7.53693 46.0005 9.17086 46H46.8291C48.4631 46.0005 50.0304 45.3146 51.1873 44.0926C52.3442 42.8706 52.9961 41.2125 53 39.482V16.5179C52.9961 14.7875 52.3442 13.1295 51.1873 11.9075C50.0304 10.6855 48.4631 9.99949 46.8291 10V10.0058Z" fill="#35B1B8"/>
</svg>
