<svg width="48" height="48" viewBox="0 0 48 48" fill="none" xmlns="http://www.w3.org/2000/svg">
<path fill-rule="evenodd" clip-rule="evenodd" d="M40.6828 20.1433C40.7949 20.1887 40.9149 20.2115 41.0358 20.2105C41.1568 20.2095 41.2763 20.1847 41.3877 20.1375C41.4991 20.0903 41.6 20.0216 41.6848 19.9354C41.7696 19.8491 41.8366 19.747 41.882 19.6349C41.9273 19.5228 41.9502 19.4028 41.9492 19.2819C41.9482 19.1609 41.9233 19.0414 41.8761 18.93C41.8289 18.8187 41.7602 18.7177 41.674 18.6329C41.5878 18.5481 41.4857 18.4811 41.3736 18.4357L36.2483 16.366C36.1356 16.3175 36.0143 16.292 35.8916 16.291C35.769 16.2901 35.6473 16.3136 35.5339 16.3603C35.4204 16.407 35.3174 16.4759 35.231 16.5629C35.1445 16.65 35.0763 16.7534 35.0304 16.8672C34.9844 16.9809 34.9617 17.1027 34.9635 17.2254C34.9653 17.3481 34.9915 17.4692 35.0408 17.5815C35.09 17.6939 35.1612 17.7953 35.2501 17.8798C35.3391 17.9643 35.444 18.0302 35.5588 18.0736L40.6828 20.1433Z" fill="#35B1B8" stroke="#35B1B8" stroke-width="1.23077"/>
<path fill-rule="evenodd" clip-rule="evenodd" d="M43.9522 14.51C44.0268 14.2877 44.0139 14.0453 43.9159 13.8322C43.818 13.6192 43.6424 13.4515 43.4251 13.3634C43.2078 13.2753 42.965 13.2734 42.7464 13.3581C42.5277 13.4428 42.3496 13.6077 42.2483 13.8193L40.1773 18.9445C40.0857 19.171 40.0878 19.4245 40.1832 19.6494C40.2785 19.8743 40.4593 20.0521 40.6857 20.1437C40.9122 20.2353 41.1657 20.2332 41.3906 20.1379C41.6155 20.0425 41.7933 19.8617 41.8849 19.6353L43.9522 14.51Z" fill="#35B1B8" stroke="#35B1B8" stroke-width="1.23077"/>
<path fill-rule="evenodd" clip-rule="evenodd" d="M42.5048 26.7226C42.5254 26.6012 42.5214 26.4769 42.4931 26.3571C42.4648 26.2373 42.4128 26.1243 42.3401 26.0249C42.2674 25.9256 42.1755 25.8418 42.0698 25.7785C41.9642 25.7153 41.8469 25.6739 41.725 25.6567C41.6031 25.6396 41.4789 25.647 41.3599 25.6787C41.2409 25.7104 41.1295 25.7656 41.0322 25.841C40.9349 25.9165 40.8538 26.0107 40.7935 26.1181C40.7333 26.2255 40.6952 26.3439 40.6815 26.4663C40.0731 30.7365 37.9085 34.6315 34.6034 37.403C31.2983 40.1746 27.0857 41.6273 22.7748 41.4821C18.4638 41.337 14.3585 39.6042 11.2473 36.6167C8.13604 33.6291 6.23832 29.5974 5.91857 25.2958C5.59882 20.9943 6.87961 16.7263 9.51492 13.3116C12.1502 9.89687 15.9543 7.57618 20.1964 6.79526C24.4385 6.01434 28.8195 6.82826 32.4981 9.08068C36.1767 11.3331 38.8933 14.8652 40.1264 18.9986C40.1583 19.1174 40.2137 19.2287 40.2893 19.3258C40.3649 19.4228 40.4591 19.5038 40.5666 19.5638C40.674 19.6238 40.7923 19.6617 40.9146 19.6752C41.0369 19.6888 41.1606 19.6776 41.2786 19.6426C41.3965 19.6075 41.5062 19.5491 41.6012 19.4709C41.6962 19.3927 41.7746 19.2963 41.8317 19.1873C41.8888 19.0783 41.9235 18.959 41.9337 18.8364C41.9439 18.7138 41.9295 18.5903 41.8912 18.4734C40.5283 13.9008 37.5239 9.99295 33.4551 7.50067C29.3863 5.00839 24.5401 4.10742 19.8474 4.97084C15.1548 5.83425 10.9466 8.40115 8.03139 12.1784C5.11614 15.9557 3.69941 20.677 4.05333 25.4353C4.40726 30.1936 6.50689 34.6533 9.94889 37.9577C13.3909 41.2621 17.9325 43.1782 22.7012 43.3379C27.47 43.4975 32.1296 41.8895 35.7849 38.8227C39.4402 35.7559 41.8334 31.4466 42.5048 26.7226V26.7226Z" fill="#35B1B8" stroke="#35B1B8" stroke-width="1.23077"/>
<path fill-rule="evenodd" clip-rule="evenodd" d="M15.294 34.1031H31.8361C32.08 34.104 32.3218 34.0566 32.5474 33.9639C32.773 33.8711 32.9781 33.7348 33.151 33.5626C33.3238 33.3905 33.461 33.1859 33.5547 32.9607C33.6483 32.7354 33.6966 32.4939 33.6968 32.2499V30.0196C33.6968 26.241 29.5373 23.0498 23.5644 23.0498C17.5916 23.0498 13.4333 26.2372 13.4333 30.0196V32.2599C13.4366 32.7508 13.6343 33.2203 13.983 33.5658C14.3318 33.9113 14.8032 34.1045 15.294 34.1031ZM15.2754 30.0196C15.2754 27.381 18.5188 24.8968 23.5657 24.8968C28.6126 24.8968 31.856 27.386 31.856 30.0196V32.2599H15.294C15.2816 32.2599 15.2754 30.0196 15.2754 30.0196Z" fill="#35B1B8" stroke="#35B1B8" stroke-width="1.23077"/>
<path fill-rule="evenodd" clip-rule="evenodd" d="M30.014 18.4432C30.014 17.168 29.6359 15.9216 28.9275 14.8614C28.2191 13.8011 27.2122 12.9748 26.0341 12.4868C24.8561 11.9989 23.5598 11.8712 22.3092 12.12C21.0586 12.3687 19.9098 12.9828 19.0082 13.8844C18.1065 14.786 17.4925 15.9348 17.2438 17.1854C16.995 18.436 17.1227 19.7323 17.6106 20.9103C18.0986 22.0884 18.9249 23.0953 19.9851 23.8037C21.0454 24.5121 22.2918 24.8902 23.5669 24.8902C25.2768 24.8902 26.9166 24.211 28.1257 23.0019C29.3347 21.7929 30.014 20.153 30.014 18.4432V18.4432ZM18.9606 18.4432C18.9606 17.5324 19.2307 16.642 19.7367 15.8847C20.2427 15.1274 20.962 14.5372 21.8034 14.1887C22.6449 13.8401 23.5708 13.7489 24.4641 13.9266C25.3574 14.1043 26.1779 14.5429 26.8219 15.1869C27.466 15.8309 27.9046 16.6515 28.0822 17.5448C28.2599 18.438 28.1687 19.364 27.8202 20.2054C27.4716 21.0469 26.8814 21.7661 26.1241 22.2721C25.3668 22.7781 24.4765 23.0482 23.5657 23.0482C22.3444 23.0482 21.173 22.563 20.3094 21.6994C19.4458 20.8358 18.9606 19.6645 18.9606 18.4432V18.4432Z" fill="#35B1B8" stroke="#35B1B8" stroke-width="1.23077"/>
</svg>
