<svg width="60" height="72" viewBox="0 0 60 72" fill="none" xmlns="http://www.w3.org/2000/svg">
<path d="M30.245 34.8494C28.0807 34.8494 25.9651 34.2076 24.1655 33.0052C22.366 31.8028 20.9634 30.0938 20.1352 28.0943C19.307 26.0948 19.0903 23.8945 19.5125 21.7718C19.9347 19.6492 20.9769 17.6994 22.5073 16.169C24.0377 14.6386 25.9875 13.5963 28.1102 13.1741C30.2328 12.7519 32.4331 12.9687 34.4326 13.7969C36.4321 14.6252 38.1411 16.0277 39.3436 17.8273C40.546 19.6268 41.1877 21.7424 41.1877 23.9066C41.1814 26.8069 40.0264 29.5865 37.9756 31.6373C35.9249 33.6881 33.1452 34.843 30.245 34.8494V34.8494ZM30.245 15.0129C28.486 15.0129 26.7665 15.5345 25.3039 16.5118C23.8414 17.489 22.7014 18.8781 22.0283 20.5032C21.3552 22.1283 21.179 23.9166 21.5222 25.6418C21.8654 27.367 22.7124 28.9517 23.9562 30.1955C25.2 31.4393 26.7847 32.2863 28.5099 32.6294C30.2351 32.9726 32.0234 32.7964 33.6485 32.1233C35.2736 31.4501 36.6626 30.3103 37.6398 28.8478C38.6171 27.3852 39.1387 25.6656 39.1387 23.9066C39.1396 22.7384 38.9102 21.5815 38.4636 20.5021C38.017 19.4226 37.362 18.4418 36.5359 17.6157C35.7099 16.7897 34.729 16.1347 33.6496 15.6881C32.5701 15.2414 31.4132 15.012 30.245 15.0129V15.0129Z" fill="#35B1B8" stroke="#35B1B8" stroke-width="0.833336" stroke-miterlimit="10"/>
<path d="M44.0573 59.0369C41.893 59.0369 39.7773 58.3951 37.9778 57.1927C36.1783 55.9903 34.7757 54.2813 33.9475 52.2818C33.1192 50.2823 32.9025 48.082 33.3248 45.9593C33.747 43.8367 34.7892 41.8867 36.3196 40.3564C37.8499 38.826 39.7997 37.7838 41.9224 37.3616C44.0451 36.9394 46.2453 37.1562 48.2449 37.9844C50.2444 38.8127 51.9534 40.2151 53.1558 42.0146C54.3582 43.8141 55 45.9299 55 48.0941C54.9936 50.9944 53.8387 53.774 51.7879 55.8248C49.7371 57.8756 46.9575 59.0305 44.0573 59.0369V59.0369ZM44.0573 39.2004C42.2982 39.2004 40.5787 39.722 39.1162 40.6993C37.6536 41.6765 36.5137 43.0655 35.8406 44.6906C35.1674 46.3157 34.9913 48.1041 35.3344 49.8293C35.6776 51.5545 36.5247 53.1392 37.7685 54.383C39.0123 55.6268 40.597 56.4738 42.3222 56.8169C44.0474 57.1601 45.8356 56.9839 47.4607 56.3108C49.0858 55.6376 50.4748 54.4978 51.4521 53.0353C52.4293 51.5727 52.9509 49.8531 52.9509 48.0941C52.9522 46.9258 52.723 45.7687 52.2765 44.6891C51.83 43.6095 51.175 42.6286 50.3489 41.8025C49.5228 40.9764 48.5418 40.3213 47.4622 39.8748C46.3826 39.4283 45.2255 39.1992 44.0573 39.2004V39.2004Z" fill="#35B1B8" stroke="#35B1B8" stroke-width="0.833336" stroke-miterlimit="10"/>
<path d="M15.9428 59.0369C13.7785 59.0369 11.6628 58.3951 9.86328 57.1927C8.06376 55.9903 6.6612 54.2813 5.83297 52.2818C5.00474 50.2823 4.78804 48.082 5.21027 45.9593C5.63249 43.8367 6.67469 41.8867 8.20506 40.3564C9.73543 38.826 11.6852 37.7838 13.8079 37.3616C15.9306 36.9394 18.1308 37.1562 20.1304 37.9844C22.1299 38.8127 23.8389 40.2151 25.0413 42.0146C26.2437 43.8141 26.8855 45.9299 26.8855 48.0941C26.8791 50.9944 25.7242 53.774 23.6734 55.8248C21.6226 57.8756 18.843 59.0305 15.9428 59.0369V59.0369ZM15.9428 39.2004C14.1837 39.2004 12.4642 39.722 11.0017 40.6993C9.53912 41.6765 8.3992 43.0655 7.72606 44.6906C7.05291 46.3157 6.87678 48.1041 7.21994 49.8293C7.56311 51.5545 8.41015 53.1392 9.65396 54.383C10.8978 55.6268 12.4825 56.4738 14.2077 56.8169C15.9329 57.1601 17.7211 56.9839 19.3462 56.3108C20.9713 55.6376 22.3603 54.4978 23.3376 53.0353C24.3148 51.5727 24.8364 49.8531 24.8364 48.0941C24.8377 46.9258 24.6085 45.7687 24.162 44.6891C23.7155 43.6095 23.0605 42.6286 22.2344 41.8025C21.4083 40.9764 20.4273 40.3213 19.3477 39.8748C18.2681 39.4283 17.111 39.1992 15.9428 39.2004V39.2004Z" fill="#35B1B8" stroke="#35B1B8" stroke-width="0.833336" stroke-miterlimit="10"/>
</svg>
