<svg width="33" height="34" viewBox="0 0 33 34" fill="none" xmlns="http://www.w3.org/2000/svg">
<path d="M19.2764 17.1318L32.4271 1.45628C32.6475 1.19577 32.4621 0.800003 32.1215 0.800003H28.1237C27.8882 0.800003 27.6628 0.905208 27.5075 1.08556L16.6614 14.0158L5.81522 1.08556C5.66493 0.905208 5.43949 0.800003 5.19902 0.800003H1.20123C0.860568 0.800003 0.675206 1.19577 0.895636 1.45628L14.0463 17.1318L0.895636 32.8074C0.846257 32.8655 0.814579 32.9365 0.804361 33.012C0.794143 33.0875 0.805814 33.1644 0.83799 33.2335C0.870166 33.3026 0.921495 33.361 0.985882 33.4018C1.05027 33.4426 1.12501 33.4641 1.20123 33.4637H5.19902C5.43448 33.4637 5.65992 33.3585 5.81522 33.1781L16.6614 20.2479L27.5075 33.1781C27.6578 33.3585 27.8832 33.4637 28.1237 33.4637H32.1215C32.4621 33.4637 32.6475 33.0679 32.4271 32.8074L19.2764 17.1318Z" fill="#35B1B8"/>
</svg>
