<svg width="26" height="16" viewBox="0 0 26 16" fill="none" xmlns="http://www.w3.org/2000/svg">
<path d="M14.2262 14.4307L14.2262 14.4306L25.4151 3.24182L25.4151 3.24185L25.4181 3.23872C25.8718 2.769 25.8587 2.02048 25.389 1.56682C24.9308 1.12427 24.2044 1.12425 23.7462 1.56684L23.7462 1.56681L23.7431 1.56987L13.3903 11.9227L3.03742 1.56987L3.03741 1.56986C2.57571 1.10822 1.82718 1.10822 1.36548 1.56986L1.36544 1.5699C0.903833 2.03164 0.903814 2.7801 1.36545 3.24181L1.36547 3.24182L12.5543 14.4306L12.5543 14.4307C13.0161 14.8923 13.7645 14.8923 14.2262 14.4307Z" fill="#002655" stroke="#002655" stroke-width="0.5"/>
</svg>
