<svg width="26" height="16" viewBox="0 0 26 16" fill="none" xmlns="http://www.w3.org/2000/svg">
<path d="M13.7262 14.4304L13.7262 14.4304L24.9151 3.24158L24.9151 3.24161L24.9181 3.23848C25.3718 2.76875 25.3587 2.02024 24.889 1.56658C24.4308 1.12402 23.7044 1.124 23.2462 1.56659L23.2462 1.56657L23.2431 1.56963L12.8903 11.9225L2.53742 1.56963L2.53741 1.56961C2.07571 1.10798 1.32718 1.10798 0.86548 1.56961L0.86544 1.56965C0.403833 2.0314 0.403814 2.77986 0.865454 3.24157L0.865467 3.24158L12.0543 14.4304L12.0543 14.4304C12.5161 14.892 13.2645 14.892 13.7262 14.4304Z" fill="#002655" stroke="#002655" stroke-width="0.5"/>
</svg>
