<svg width="48" height="86" viewBox="0 0 48 86" fill="none" xmlns="http://www.w3.org/2000/svg">
<path d="M29.957 42.1585L29.957 42.1585L18.7682 30.9697L18.7682 30.9697L18.7651 30.9667C18.2954 30.513 17.5468 30.526 17.0932 30.9958C16.6506 31.454 16.6506 32.1804 17.0932 32.6386L17.0932 32.6386L17.0962 32.6417L27.4491 42.9945L17.0962 53.3473L17.0962 53.3474C16.6346 53.8091 16.6346 54.5576 17.0962 55.0193L17.0963 55.0193C17.558 55.4809 18.3065 55.481 18.7682 55.0193L18.7682 55.0193L29.957 43.8305L29.957 43.8305C30.4186 43.3687 30.4187 42.6203 29.957 42.1585Z" fill="#002655" stroke="#002655" stroke-width="0.5"/>
</svg>
