<svg width="48" height="48" viewBox="0 0 48 48" fill="none" xmlns="http://www.w3.org/2000/svg">
<path d="M25.0091 20.2075L20.4442 24.433C21.152 26.3011 21.2349 28.3483 20.6807 30.2676C20.6445 30.3976 20.5831 30.5194 20.4999 30.6257C20.4167 30.732 20.3134 30.8208 20.1959 30.8872C20.0783 30.9535 19.9489 30.9961 19.8149 31.0125C19.6809 31.0288 19.5451 31.0185 19.415 30.9823C19.285 30.9461 19.1634 30.8848 19.0571 30.8016C18.9508 30.7184 18.8619 30.615 18.7955 30.4975C18.7292 30.38 18.6866 30.2506 18.6703 30.1166C18.6539 29.9827 18.6641 29.8467 18.7003 29.7167C19.1946 28.0229 19.0495 26.2065 18.2924 24.6127C18.2001 24.4169 18.1725 24.1968 18.2135 23.9843C18.2545 23.7718 18.3621 23.5778 18.5206 23.4304L23.6246 18.7012C23.9165 18.4316 24.0895 18.0571 24.1055 17.66C24.1214 17.2629 23.9791 16.8758 23.7097 16.5836L23.6731 16.5458C23.4063 16.2771 23.0481 16.1187 22.6697 16.102C22.2914 16.0854 21.9207 16.2117 21.6313 16.4559L13.6093 23.2826C13.5111 23.3738 13.3959 23.4447 13.2703 23.4914C13.1446 23.5381 13.011 23.5597 12.8771 23.5548C12.7431 23.5498 12.6115 23.5185 12.4896 23.4627C12.3678 23.4069 12.2581 23.3275 12.1669 23.2293C12.0757 23.1311 12.0047 23.0159 11.958 22.8903C11.9113 22.7647 11.8898 22.6311 11.8948 22.4972C11.8997 22.3632 11.931 22.2315 11.9868 22.1097C12.0426 21.9878 12.1219 21.8782 12.2201 21.787C12.2426 21.7657 12.2662 21.7455 12.291 21.7266L20.3307 14.9165C21.029 14.3237 21.93 14.0245 22.8442 14.0819C23.7585 14.1393 24.6149 14.5487 25.2336 15.2242C25.8524 15.8997 26.1852 16.7888 26.1623 17.7046C26.1394 18.6204 25.7625 19.4916 25.1108 20.1353L25.0257 20.2168L25.0091 20.2075ZM24.0089 26.4736H32.1396C32.4103 26.4736 32.67 26.366 32.8615 26.1746C33.0529 25.9831 33.1605 25.7234 33.1605 25.4526C33.1605 25.1819 33.0529 24.9223 32.8615 24.7309C32.67 24.5394 32.4103 24.4318 32.1396 24.4318H24.0089C23.7381 24.4318 23.4784 24.5394 23.287 24.7309C23.0955 24.9223 22.9879 25.1819 22.9879 25.4526C22.9879 25.7234 23.0955 25.9831 23.287 26.1746C23.4784 26.366 23.7381 26.4736 24.0089 26.4736ZM37.8418 20.1578C38.2631 20.1573 38.6751 20.2813 39.0261 20.5144C39.377 20.7475 39.6511 21.0792 39.8139 21.4677C39.9217 21.7123 40.1211 21.9049 40.3694 22.004C40.6176 22.1031 40.8948 22.1008 41.1414 21.9977C41.388 21.8945 41.5842 21.6987 41.688 21.4524C41.7917 21.2061 41.7946 20.9287 41.6962 20.6803C41.4472 20.0788 41.0609 19.5441 40.5682 19.1187C40.0754 18.6933 39.49 18.3892 38.8586 18.2307V17.3451C38.8586 17.0743 38.7511 16.8146 38.5596 16.6232C38.3681 16.4317 38.1085 16.3241 37.8377 16.3241C37.5669 16.3241 37.3073 16.4317 37.1158 16.6232C36.9243 16.8146 36.8168 17.0743 36.8168 17.3451V18.227C35.93 18.3926 35.1291 18.8631 34.5528 19.5571C33.9765 20.2511 33.6611 21.1249 33.6612 22.027C33.6612 23.1371 34.1708 25.1188 37.5723 25.9097H37.6089C39.9735 26.4489 39.9735 27.4727 39.9735 27.8073C39.9655 28.0736 39.9027 28.3355 39.7891 28.5765C39.6755 28.8176 39.5135 29.0326 39.3132 29.2084C39.113 29.3842 38.8787 29.5169 38.6249 29.5982C38.3712 29.6796 38.1034 29.7078 37.8383 29.6812C37.4147 29.6865 36.999 29.5657 36.6443 29.3341C36.2895 29.1025 36.0117 28.7707 35.8461 28.3807C35.7383 28.1361 35.5389 27.9436 35.2906 27.8445C35.0424 27.7455 34.7652 27.7477 34.5186 27.8509C34.2721 27.954 34.0758 28.1498 33.9721 28.3961C33.8683 28.6425 33.8654 28.9197 33.9639 29.1681C34.2127 29.7697 34.599 30.3045 35.0918 30.7299C35.5845 31.1553 36.17 31.4595 36.8014 31.6179V32.5152C36.8014 32.7859 36.909 33.0456 37.1004 33.2371C37.2919 33.4285 37.5516 33.5361 37.8223 33.5361C38.0931 33.5361 38.3528 33.4285 38.5442 33.2371C38.7357 33.0456 38.8433 32.7859 38.8433 32.5152V31.6214C39.7303 31.4558 40.5315 30.9852 41.1081 30.291C41.6846 29.5968 42.0001 28.7227 42 27.8203C42 26.7101 41.4892 24.7297 38.0889 23.9375H38.0511C35.6865 23.3984 35.6865 22.3734 35.6865 22.0388C35.6958 21.7709 35.76 21.5078 35.8752 21.2657C35.9903 21.0236 36.1539 20.8077 36.3558 20.6313C36.5577 20.455 36.7937 20.322 37.0491 20.2405C37.3045 20.1591 37.5751 20.131 37.8418 20.1578ZM6.00118 42.9833V36.7573C6.00118 36.6231 6.0276 36.4904 6.07894 36.3665C6.13027 36.2425 6.20552 36.1298 6.30038 36.0349C6.39523 35.9401 6.50784 35.8649 6.63178 35.8135C6.75571 35.7622 6.88854 35.7358 7.02269 35.7358H7.79355V20.5361C7.79058 19.4377 8.00558 18.3496 8.42608 17.3348C8.84659 16.3201 9.46425 15.3989 10.2433 14.6246L13.309 11.5588V6.53519C13.3099 5.86308 13.5773 5.21877 14.0524 4.7434C14.5276 4.26804 15.1718 4.00052 15.8439 3.99927H39.2039C39.8762 4.00021 40.5207 4.26757 40.9961 4.74297C41.4715 5.21837 41.739 5.86288 41.7399 6.53519V15.3292C41.7399 15.5999 41.6323 15.8596 41.4409 16.0511C41.2494 16.2425 40.9897 16.3501 40.719 16.3501C40.4482 16.3501 40.1885 16.2425 39.9971 16.0511C39.8056 15.8596 39.6981 15.5999 39.6981 15.3292V11.3484H15.3508V16.6073C15.3508 16.8781 15.2433 17.1377 15.0518 17.3292C14.8604 17.5207 14.6007 17.6282 14.3299 17.6282C14.0592 17.6282 13.7995 17.5207 13.608 17.3292C13.4166 17.1377 13.309 16.8781 13.309 16.6073V14.4556L11.6751 16.0895C11.087 16.6739 10.6207 17.3692 10.3033 18.1351C9.9859 18.901 9.82364 19.7224 9.82593 20.5515V35.7382H22.9271V34.1255C22.9263 33.9531 22.9693 33.7831 23.052 33.6318C23.1347 33.4804 23.2544 33.3525 23.4 33.26C24.2044 32.7561 24.8869 32.0798 25.398 31.2799C25.9092 30.48 26.2363 29.5766 26.3557 28.6349C26.3904 28.3641 26.5312 28.1182 26.7471 27.9512C26.8541 27.8685 26.9762 27.8078 27.1067 27.7724C27.2371 27.7369 27.3732 27.7275 27.5073 27.7447C27.6414 27.7618 27.7708 27.8052 27.8881 27.8724C28.0054 27.9395 28.1083 28.0291 28.1909 28.1361C28.2736 28.243 28.3344 28.3652 28.3699 28.4956C28.4053 28.626 28.4147 28.7622 28.3976 28.8962C28.2521 30.0401 27.8738 31.1419 27.2862 32.134C26.6985 33.1261 25.9139 33.9873 24.9807 34.6646V35.7287H26.5485C26.8191 35.7287 27.0786 35.8362 27.2699 36.0276C27.4613 36.2189 27.5688 36.4784 27.5688 36.7491V42.9798C27.5688 43.2506 27.4612 43.5103 27.2698 43.7017C27.0783 43.8932 26.8186 44.0008 26.5479 44.0008C26.2771 44.0008 26.0174 43.8932 25.826 43.7017C25.6345 43.5103 25.5269 43.2506 25.5269 42.9798V37.7777H8.04184V42.9798C8.04184 43.2506 7.93428 43.5103 7.74282 43.7017C7.55136 43.8932 7.29168 44.0008 7.02092 44.0008C6.75015 44.0008 6.49048 43.8932 6.29902 43.7017C6.10756 43.5103 6 43.2506 6 42.9798L6.00118 42.9833ZM15.3508 9.30189H39.7063V6.53519C39.7051 6.40369 39.652 6.27804 39.5585 6.18549C39.4651 6.09295 39.3389 6.04102 39.2074 6.04102H15.8439C15.7133 6.04226 15.5884 6.09478 15.4962 6.18722C15.404 6.27967 15.3518 6.40461 15.3508 6.53519V9.30189ZM20.7433 40.5337C20.7433 40.7354 20.8032 40.9325 20.9152 41.1003C21.0273 41.2681 21.1866 41.3989 21.3729 41.4761C21.5593 41.5534 21.7644 41.5737 21.9623 41.5344C22.1602 41.4951 22.342 41.398 22.4847 41.2554C22.6275 41.1129 22.7247 40.9313 22.7642 40.7334C22.8038 40.5356 22.7837 40.3305 22.7067 40.144C22.6296 39.9575 22.499 39.798 22.3314 39.6858C22.1638 39.5735 21.9666 39.5135 21.7649 39.5133C21.6306 39.5131 21.4976 39.5394 21.3736 39.5907C21.2495 39.6419 21.1368 39.7172 21.0418 39.8121C20.9468 39.9069 20.8714 40.0196 20.82 40.1436C20.7686 40.2676 20.7422 40.4006 20.7422 40.5348L20.7433 40.5337Z" fill="#162754"/>
</svg>
