<svg width="49" height="56" viewBox="0 0 49 56" fill="none" xmlns="http://www.w3.org/2000/svg">
<path d="M35.6756 23.2239C33.4007 25.4988 29.7204 25.4988 27.4455 23.2239C25.1706 20.949 25.1706 17.2687 27.4455 14.9938C29.7204 12.7189 37.7331 12.9363 37.7331 12.9363C37.7331 12.9363 37.9505 20.949 35.6756 23.2239Z" stroke="#002655" stroke-width="2.05448" stroke-miterlimit="10" stroke-linecap="round" stroke-linejoin="round"/>
<path d="M23.7653 30.9493C23.7653 30.9493 23.7575 30.9493 23.7653 30.9493C23.7575 28.4725 24.4175 26.0889 25.6598 24.0624C26.3275 22.9677 27.166 21.9816 28.1443 21.1431C29.1847 20.2424 30.3959 19.497 31.7469 18.9225H31.7547C31.7547 18.9225 31.7547 18.9302 31.7469 18.9302C30.4037 19.5048 29.1925 20.2502 28.1521 21.1431C27.1738 21.9894 26.343 22.9677 25.6753 24.0624C24.433 26.0966 23.7731 28.4725 23.7653 30.9493ZM23.7653 30.9493C23.7731 30.9493 23.7731 30.9493 23.7653 30.9493Z" stroke="#002655" stroke-width="2.05448" stroke-miterlimit="10" stroke-linecap="round" stroke-linejoin="round"/>
<path d="M11.855 20.8247C14.1299 23.0996 17.8102 23.0996 20.0851 20.8247C22.36 18.5498 22.36 14.8695 20.0851 12.5946C17.8102 10.3197 9.79747 10.5371 9.79747 10.5371C9.79747 10.5371 9.58007 18.5498 11.855 20.8247Z" stroke="#002655" stroke-width="2.05448" stroke-miterlimit="10" stroke-linecap="round" stroke-linejoin="round"/>
<path d="M23.7653 30.9492C23.7653 30.9492 23.7576 30.9492 23.7653 30.9492L23.7576 28.5423C23.7576 26.0733 23.0976 23.6974 21.8631 21.671C21.1954 20.5762 20.3568 19.5979 19.3863 18.7516C18.3459 17.851 17.1347 17.1056 15.7915 16.5388L15.7837 16.531C15.7837 16.531 15.7915 16.5233 15.7915 16.531C17.1347 17.1056 18.3459 17.851 19.3941 18.7516C20.3724 19.5979 21.2031 20.5762 21.8786 21.671C23.1209 23.7052 23.7809 26.081 23.7809 28.5501L23.7653 30.9492ZM23.7653 30.9492C23.7731 30.9492 23.7731 30.9492 23.7653 30.9492Z" stroke="#002655" stroke-width="2.05448" stroke-miterlimit="10" stroke-linecap="round" stroke-linejoin="round"/>
<path d="M7.34387 33.1776C9.35481 31.1667 12.1344 29.5206 15.209 29.5206C17.22 29.5206 18.4933 29.9632 19.7434 30.5766H29.3788C30.6909 30.5766 31.7624 31.648 31.7624 32.9602C31.7624 34.2723 30.6909 35.3438 29.3788 35.3438H23.1596H29.3788C30.6909 35.3438 31.7624 34.2723 31.7624 32.9602L36.1181 28.6045C37.0421 27.6805 38.5639 27.6805 39.4878 28.6045C40.4117 29.5284 40.4117 31.0502 39.4878 31.9741L32.7484 38.7135C31.8866 39.5753 30.6909 40.111 29.3788 40.111H17.4607C16.5833 40.111 15.7914 40.4682 15.2168 41.0428L7.34387 33.1776Z" stroke="#002655" stroke-width="2.05448" stroke-miterlimit="10" stroke-linecap="round" stroke-linejoin="round"/>
<path d="M14.8674 43.6283L13.6329 44.8629C12.8254 45.6703 11.5133 45.6703 10.7058 44.8629L3.52388 37.6809C2.7164 36.8735 2.7164 35.5613 3.52388 34.7538L4.7584 33.5193C5.56588 32.7118 6.87803 32.7118 7.68551 33.5193L14.8674 40.7012C15.6749 41.5087 15.6749 42.8209 14.8674 43.6283Z" stroke="#002655" stroke-width="2.05448" stroke-miterlimit="10" stroke-linecap="round" stroke-linejoin="round"/>
</svg>
