<svg width="22" height="22" viewBox="0 0 22 22" fill="none" xmlns="http://www.w3.org/2000/svg">
<path d="M16.6606 9.08565C15.749 9.99726 14.2743 9.99726 13.3627 9.08565C12.4511 8.17404 12.4511 6.69929 13.3627 5.78767C14.2743 4.87606 17.4851 4.96318 17.4851 4.96318C17.4851 4.96318 17.5722 8.17404 16.6606 9.08565Z" stroke="#002655" stroke-width="0.62226" stroke-miterlimit="10" stroke-linecap="round" stroke-linejoin="round"/>
<path d="M11.8879 12.1817C11.8879 12.1817 11.8847 12.1817 11.8879 12.1817C11.8847 11.1892 12.1492 10.234 12.647 9.42198C12.9146 8.98329 13.2506 8.58816 13.6426 8.25214C14.0595 7.89123 14.5449 7.59254 15.0863 7.3623H15.0894C15.0894 7.3623 15.0894 7.36542 15.0863 7.36542C14.548 7.59565 14.0627 7.89434 13.6457 8.25214C13.2537 8.59127 12.9208 8.98329 12.6532 9.42198C12.1554 10.2371 11.891 11.1892 11.8879 12.1817ZM11.8879 12.1817C11.891 12.1817 11.891 12.1817 11.8879 12.1817Z" stroke="#002655" stroke-width="0.62226" stroke-miterlimit="10" stroke-linecap="round" stroke-linejoin="round"/>
<path d="M7.11507 8.12471C8.02668 9.03632 9.50143 9.03632 10.413 8.12471C11.3247 7.2131 11.3247 5.73835 10.413 4.82674C9.50143 3.91513 6.29057 4.00224 6.29057 4.00224C6.29057 4.00224 6.20346 7.2131 7.11507 8.12471Z" stroke="#002655" stroke-width="0.62226" stroke-miterlimit="10" stroke-linecap="round" stroke-linejoin="round"/>
<path d="M11.8879 12.1814C11.8879 12.1814 11.8848 12.1814 11.8879 12.1814L11.8848 11.2169C11.8848 10.2275 11.6203 9.27546 11.1256 8.46341C10.858 8.02471 10.522 7.63269 10.1331 7.29356C9.71618 6.93265 9.23082 6.63396 8.69256 6.40684L8.68945 6.40373C8.68945 6.40373 8.69256 6.40062 8.69256 6.40373C9.23082 6.63396 9.71618 6.93265 10.1362 7.29356C10.5282 7.63269 10.8611 8.02471 11.1318 8.46341C11.6296 9.27857 11.8941 10.2306 11.8941 11.22L11.8879 12.1814ZM11.8879 12.1814C11.891 12.1814 11.891 12.1814 11.8879 12.1814Z" stroke="#002655" stroke-width="0.62226" stroke-miterlimit="10" stroke-linecap="round" stroke-linejoin="round"/>
<path d="M5.30737 13.0751C6.1132 12.2693 7.22704 11.6097 8.45912 11.6097C9.26494 11.6097 9.7752 11.787 10.2761 12.0328H14.1372C14.663 12.0328 15.0924 12.4622 15.0924 12.988C15.0924 13.5138 14.663 13.9431 14.1372 13.9431H11.6451H14.1372C14.663 13.9431 15.0924 13.5138 15.0924 12.988L16.8378 11.2425C17.2081 10.8723 17.8179 10.8723 18.1881 11.2425C18.5584 11.6128 18.5584 12.2226 18.1881 12.5928L15.4875 15.2934C15.1422 15.6388 14.663 15.8535 14.1372 15.8535H9.3614C9.00982 15.8535 8.69247 15.9966 8.46223 16.2268L5.30737 13.0751Z" stroke="#002655" stroke-width="0.62226" stroke-miterlimit="10" stroke-linecap="round" stroke-linejoin="round"/>
<path d="M8.32222 17.2633L7.82753 17.758C7.50395 18.0816 6.97814 18.0816 6.65457 17.758L3.77662 14.8801C3.45304 14.5565 3.45304 14.0307 3.77662 13.7071L4.27131 13.2124C4.59489 12.8888 5.1207 12.8888 5.44427 13.2124L8.32222 16.0904C8.6458 16.4139 8.6458 16.9397 8.32222 17.2633Z" stroke="#002655" stroke-width="0.62226" stroke-miterlimit="10" stroke-linecap="round" stroke-linejoin="round"/>
</svg>
