<svg width="169" height="72" viewBox="0 0 169 72" fill="none" xmlns="http://www.w3.org/2000/svg">
<path d="M43.4077 43.7988C44.4587 41.2255 44.9842 38.3896 44.9842 35.4487C44.9842 33.7682 44.8266 32.1402 44.4587 30.6172C42.199 33.2955 38.8357 35.0286 34.9994 35.0286C34.8418 35.0286 34.6841 35.0286 34.579 35.0286C34.579 35.1861 34.579 35.3437 34.579 35.4487C34.579 39.2299 32.8448 42.6434 30.1647 44.9016C31.7412 45.2692 33.3703 45.4268 34.9994 45.4268C37.9949 45.4268 40.8327 44.8491 43.4077 43.7988Z" fill="#7A7A7A"/>
<path opacity="0.95" d="M68.2645 59.8163C68.2645 59.0285 68.79 58.6084 69.4732 58.6084C70.1564 58.6084 70.6819 59.0285 70.6819 59.8163V60.2364H70.7345C71.0498 59.1336 72.4161 58.6084 73.0467 58.6084C73.8876 58.6084 74.308 59.1336 74.308 59.8688C74.308 60.8666 73.6773 61.1817 72.9942 61.1817C72.2585 61.1817 70.8921 60.8666 70.8921 64.1226V67.1686C70.8921 67.8513 70.6293 68.4815 69.5783 68.4815C68.5273 68.4815 68.2645 67.8513 68.2645 67.1686V59.8163V59.8163Z" fill="#002655"/>
<path opacity="0.95" d="M77.5662 64.0698C77.5662 65.4352 78.4596 66.4856 79.9836 66.4856C81.928 66.4856 81.928 65.1727 82.9791 65.1727C83.6097 65.1727 84.0301 65.6978 84.0301 66.223C84.0301 67.7985 81.5076 68.5337 79.9836 68.5337C76.3576 68.5337 74.9912 66.0654 74.9912 63.7547C74.9912 60.7088 76.8305 58.6606 79.8785 58.6606C82.874 58.6606 84.5556 60.8138 84.5556 62.967C84.5556 63.8598 84.2928 64.1223 83.3995 64.1223H77.5662V64.0698ZM82.0857 62.5468C81.928 61.339 80.9295 60.4462 79.826 60.4462C78.5122 60.4462 77.6713 61.2339 77.356 62.5468H82.0857Z" fill="#002655"/>
<path opacity="0.95" d="M95.5914 70.6871C95.5914 71.5274 95.0659 72.0001 94.2776 72.0001C93.4894 72.0001 92.9638 71.5274 92.9638 70.6871V67.1686H92.9113C92.4383 68.0088 91.545 68.4815 90.3363 68.4815C87.551 68.4815 86.2898 66.1182 86.2898 63.5974C86.2898 60.1839 88.2342 58.6084 90.4414 58.6084C91.7026 58.6084 92.8062 59.1336 93.2266 60.2889H93.2792V59.8688C93.2792 59.081 93.6996 58.6084 94.4878 58.6084C95.2761 58.6084 95.6965 59.0285 95.6965 59.8688V70.6871H95.5914ZM91.0194 66.4333C92.596 66.4333 93.1215 64.8578 93.1215 63.4924C93.1215 62.022 92.5434 60.6565 91.0194 60.6565C89.6005 60.7091 88.9174 61.9694 88.9174 63.4924C88.9174 64.7528 89.3378 66.4333 91.0194 66.4333Z" fill="#002655"/>
<path opacity="0.95" d="M114.93 59.8688C114.93 59.081 115.298 58.6084 116.139 58.6084C116.927 58.6084 117.348 59.0285 117.348 59.8688V60.2889H117.4C117.821 59.1861 118.872 58.6084 120.186 58.6084C122.393 58.6084 124.337 60.2364 124.337 63.5974C124.337 66.1182 123.076 68.4815 120.291 68.4815C119.082 68.4815 118.189 68.0088 117.716 67.1686H117.663V70.6871C117.663 71.5274 117.138 72.0001 116.349 72.0001C115.561 72.0001 115.036 71.5274 115.036 70.6871V59.8688H114.93ZM121.604 63.5449C121.604 62.022 120.921 60.709 119.502 60.709C117.978 60.709 117.4 62.0745 117.4 63.5449C117.4 64.9104 117.926 66.4858 119.502 66.4858C121.184 66.4333 121.604 64.7528 121.604 63.5449Z" fill="#002655"/>
<path opacity="0.95" d="M106.68 67.1683C106.68 67.956 106.312 68.4812 105.471 68.4812C104.63 68.4812 104.262 67.956 104.262 67.1683V66.8532H104.21C103.474 67.851 102.528 68.5337 101.004 68.5337C99.4277 68.5337 97.6935 67.746 97.6935 65.0676V59.9736C97.6935 59.2908 97.9562 58.6606 99.0073 58.6606C100.058 58.6606 100.321 59.2908 100.321 59.9736V64.5425C100.321 65.5928 100.847 66.3805 101.95 66.3805C102.844 66.3805 103.947 65.6453 103.947 64.3324V59.9736C103.947 59.2908 104.21 58.6606 105.261 58.6606C106.312 58.6606 106.575 59.2908 106.575 59.9736V67.1683H106.68Z" fill="#002655"/>
<path opacity="0.95" d="M65.7947 65.7504C65.7947 66.8532 65.8998 67.5359 65.8998 67.9561C65.8998 68.3237 65.4794 68.4812 64.8487 68.5338C64.1656 68.5863 63.3773 67.851 63.4298 67.1683C63.4298 67.1158 63.4298 67.1683 63.4298 67.1683C61.9584 69.269 57.2288 69.0064 57.2288 65.6979C57.2288 63.3872 59.1732 62.8095 61.9059 62.6519C62.7992 62.5994 63.2196 62.3894 63.2196 61.6541C63.2196 60.9189 62.4314 60.5513 61.538 60.5513C59.8038 60.6038 59.9089 61.9692 58.9104 61.9692C58.2272 61.9692 57.8068 61.4966 57.8068 60.9714C57.8068 59.9211 59.0681 58.5557 61.7482 58.5557C64.2707 58.5557 65.6896 59.3959 65.6896 61.2865V65.7504H65.7947ZM63.3247 63.6497C63.0094 63.9123 62.5365 64.0174 61.5905 64.1749C60.6446 64.3325 59.9089 64.7001 59.9089 65.4878C59.9089 66.223 60.7497 66.5907 61.3803 66.5907C62.5365 66.5907 63.3247 65.8554 63.3247 64.7001V63.6497Z" fill="#002655"/>
<path opacity="0.95" d="M134.007 65.7504C134.007 66.8532 134.112 67.5359 134.112 67.9561C134.112 68.3237 133.691 68.4812 133.061 68.5338C132.378 68.5863 131.589 67.851 131.642 67.1683C131.642 67.1158 131.642 67.1683 131.642 67.1683C130.17 69.269 125.441 69.0064 125.441 65.6979C125.441 63.3872 127.385 62.8095 130.118 62.6519C131.011 62.5994 131.432 62.3894 131.432 61.6541C131.432 60.9189 130.643 60.5513 129.75 60.5513C128.016 60.6038 128.173 61.9692 127.122 61.9692C126.439 61.9692 126.019 61.4966 126.019 60.9714C126.019 59.9211 127.28 58.5557 129.96 58.5557C132.483 58.5557 133.902 59.3959 133.902 61.2865V65.7504H134.007ZM131.537 63.6497C131.274 63.9123 130.748 64.0174 129.802 64.1749C128.857 64.3325 128.121 64.7001 128.121 65.4878C128.121 66.223 128.962 66.5907 129.592 66.5907C130.748 66.5907 131.537 65.8554 131.537 64.7001V63.6497Z" fill="#002655"/>
<path opacity="0.95" d="M72.7316 45.4266C63.4299 45.4266 55.915 37.8643 55.915 28.6214C55.915 19.326 63.4825 11.7637 72.7316 11.7637C77.3561 11.7637 81.6653 13.6017 84.871 16.9103C86.3424 18.4332 86.2899 20.849 84.7659 22.3194C83.2419 23.7899 80.8245 23.7374 79.3531 22.2144C77.6189 20.3763 75.254 19.3785 72.7316 19.3785C67.6866 19.3785 63.535 23.4748 63.535 28.5689C63.535 33.6104 67.634 37.7592 72.7316 37.7592C75.254 37.7592 77.6189 36.7614 79.3531 34.9233C80.8245 33.4004 83.2419 33.3479 84.7659 34.8183C86.2899 36.2888 86.3424 38.7045 84.871 40.2275C81.6653 43.5885 77.3561 45.4266 72.7316 45.4266Z" fill="#002655"/>
<path opacity="0.95" d="M118.346 36.0785C118.346 39.7547 118.714 42.0654 118.714 43.4308C118.714 44.6387 117.295 45.2689 115.298 45.3739C112.513 45.5315 110.411 43.0632 110.569 40.8575C110.569 40.7 110.569 40.805 110.516 40.91C105.629 47.9472 89.8108 47.0544 89.8108 36.026C89.8108 28.3587 96.2746 26.363 105.524 25.7328C108.519 25.5228 109.991 24.8926 109.991 22.3193C109.991 19.7985 107.416 18.5906 104.42 18.6957C98.5344 18.9057 99.0599 23.5272 95.5389 23.5272C93.2792 23.5272 91.8078 21.9517 91.8078 20.1661C91.8078 16.6475 96.0119 12.0786 105.051 12.0786C113.512 12.0786 118.346 14.9145 118.346 21.269V36.0785ZM109.938 28.9889C108.992 29.8816 107.363 30.3018 104.157 30.8269C100.952 31.3521 98.5869 32.56 98.5869 35.1858C98.5869 37.7066 101.425 38.8094 103.474 38.8094C107.363 38.8094 109.938 36.2886 109.938 32.4024V28.9889V28.9889Z" fill="#002655"/>
<path opacity="0.95" d="M167.902 36.0785C167.902 39.7547 168.27 42.0654 168.27 43.4308C168.27 44.6387 166.851 45.2689 164.854 45.3739C162.069 45.5315 159.967 43.0632 160.125 40.8575C160.125 40.7 160.125 40.805 160.072 40.91C155.185 47.9472 139.367 47.0544 139.367 36.026C139.367 28.3587 145.831 26.363 155.08 25.7328C158.075 25.5228 159.547 24.8926 159.547 22.3193C159.547 19.7985 156.972 18.5906 153.976 18.6957C148.09 18.9057 148.616 23.5272 145.095 23.5272C142.835 23.5272 141.364 21.9517 141.364 20.1661C141.364 16.6475 145.568 12.0786 154.607 12.0786C163.068 12.0786 167.902 14.9145 167.902 21.269V36.0785V36.0785ZM159.494 28.9889C158.548 29.8816 156.919 30.3018 153.713 30.8269C150.508 31.3521 148.143 32.56 148.143 35.1858C148.143 37.7066 150.981 38.8094 153.03 38.8094C156.919 38.8094 159.494 36.2886 159.494 32.4024V28.9889Z" fill="#002655"/>
<g opacity="0.95">
<path opacity="0.95" d="M129.645 0.10498C132.325 0.10498 134.479 2.25815 134.479 4.93648C134.479 7.61481 132.325 9.76797 129.645 9.76797C126.965 9.76797 124.81 7.61481 124.81 4.93648C124.81 2.25815 126.965 0.10498 129.645 0.10498Z" fill="#002655"/>
<path opacity="0.95" d="M129.592 12.499C126.071 12.499 125.02 14.4946 125.02 17.1205V17.2255V43.221C125.02 49.5755 121.184 47.895 120.658 49.9431C119.975 52.8315 122.918 53.8818 124.81 53.8818C131.116 53.8293 134.112 48.6302 134.112 43.2736V17.173V17.1205C134.164 14.5472 133.113 12.499 129.592 12.499Z" fill="#002655"/>
</g>
<path opacity="0.95" d="M110.884 58.6084C109.833 58.6084 109.57 59.1861 109.57 59.9738V62.4946V64.7003V67.0635C109.57 67.8513 109.885 68.4289 110.884 68.4289C111.935 68.4289 112.198 67.8513 112.198 67.0635V64.7003V62.4946V59.9738C112.198 59.1861 111.882 58.6084 110.884 58.6084Z" fill="#002655"/>
<g opacity="0.95">
<path opacity="0.95" d="M110.884 54.9316C111.672 54.9316 112.303 55.5618 112.303 56.3496C112.303 57.1373 111.672 57.7675 110.884 57.7675C110.096 57.7675 109.465 57.1373 109.465 56.3496C109.465 55.5618 110.096 54.9316 110.884 54.9316Z" fill="#002655"/>
</g>
<path d="M1.6291 43.9038C0.578068 41.3305 0 38.4946 0 35.5012C0 33.8207 0.210206 32.1927 0.525516 30.6172C2.78524 33.348 6.20109 35.0811 10.0374 35.0811C10.195 35.0811 10.3527 35.0811 10.4578 35.0811C10.4578 35.2386 10.4578 35.3962 10.4578 35.5012C10.4578 39.3349 12.192 42.6959 14.9247 45.0066C13.3481 45.3743 11.719 45.5318 10.0374 45.5318C7.04192 45.5318 4.20413 44.9541 1.6291 43.9038Z" fill="#56884D"/>
<path d="M43.9331 43.9038C44.9842 41.3305 45.5622 38.4946 45.5622 35.5012C45.5622 33.8207 45.4046 32.1927 45.0367 30.6172C42.777 33.348 39.3611 35.0811 35.5249 35.0811C35.3672 35.0811 35.2096 35.0811 35.1045 35.0811C35.1045 35.2386 35.1045 35.3962 35.1045 35.5012C35.1045 39.3349 33.3703 42.6959 30.6376 45.0066C32.2141 45.3743 33.8432 45.5318 35.5249 45.5318C38.5203 45.5318 41.3581 44.9541 43.9331 43.9038Z" fill="#477E9F"/>
<path d="M10.4577 35.0281C10.4577 35.0806 10.4577 35.0806 10.4577 35.0281C10.3001 35.0806 10.1424 35.0806 10.0373 35.0806C6.20103 35.0806 2.83772 33.3475 0.578003 30.6167C1.20862 27.7283 2.36476 25.1025 3.99386 22.7393C4.88723 24.0522 5.88572 25.26 7.04185 26.3629C7.40971 26.7305 7.77757 27.0456 8.25054 27.3082C8.40819 27.3607 8.5133 27.4657 8.67095 27.5182C8.67095 27.5182 8.67095 27.5182 8.7235 27.5182C8.88116 27.5708 8.98626 27.6233 9.14391 27.6758H9.19647C9.35412 27.7283 9.45922 27.7283 9.61688 27.7808C9.66943 27.7808 9.66943 27.7808 9.72198 27.7808C9.87964 27.8333 9.98474 27.8333 10.1424 27.8333C10.1949 27.8333 10.2475 27.8333 10.2475 27.8333C10.4052 27.8333 10.6154 27.8858 10.773 27.8858C12.1394 27.8858 13.4006 27.3607 14.3465 26.4679C12.0343 28.7261 10.4577 31.7195 10.4577 35.0281Z" fill="#67B6B7"/>
<path d="M35.1045 35.0281C35.1045 35.0806 35.1045 35.0806 35.1045 35.0281C35.2621 35.0806 35.4198 35.0806 35.5249 35.0806C39.3611 35.0806 42.7244 33.3475 44.9842 30.6167C44.3535 27.7283 43.1974 25.1025 41.5683 22.7393C40.6749 24.0522 39.6764 25.26 38.5203 26.3629C38.2576 26.783 37.8371 27.0456 37.3642 27.3082C37.2065 27.3607 37.1014 27.4657 36.9438 27.5182C36.9438 27.5182 36.9438 27.5182 36.8912 27.5182C36.7336 27.5708 36.6285 27.6233 36.4708 27.6758H36.4182C36.2606 27.7808 36.1555 27.8333 35.9978 27.8333C35.9453 27.8333 35.9453 27.8333 35.8927 27.8333C35.7351 27.8859 35.63 27.8858 35.4723 27.8858C35.4198 27.8858 35.3672 27.8858 35.3672 27.8858C35.2096 27.8858 34.9994 27.9384 34.8417 27.9384C33.4754 27.9384 32.2141 27.4132 31.2682 26.5204C33.5279 28.7261 35.1045 31.7195 35.1045 35.0281Z" fill="#67B6B7"/>
<path d="M1.6291 1.628C0.578068 4.2013 0 7.03718 0 10.0306C0 11.7111 0.210206 13.3391 0.525516 14.9146C2.78524 12.1838 6.20109 10.4507 10.0374 10.4507C10.195 10.4507 10.3527 10.4507 10.4578 10.4507C10.4578 10.2932 10.4578 10.1356 10.4578 10.0306C10.4578 6.19692 12.192 2.83588 14.9247 0.525163C13.3481 0.157549 11.719 0 10.0374 0C7.04192 0 4.20413 0.577679 1.6291 1.628Z" fill="#757844"/>
<path d="M10.5103 35.081C10.4578 35.081 10.4578 35.081 10.5103 35.081C10.4578 35.2386 10.4578 35.3961 10.4578 35.5012C10.4578 39.3348 12.192 42.6959 14.9247 44.9541C17.815 44.3239 20.4426 43.1685 22.8074 41.5405C21.4936 40.6478 20.2849 39.6499 19.1813 38.4946C18.8135 38.127 18.4982 37.7594 18.2354 37.2867C18.1829 37.1292 18.0777 37.0241 18.0252 36.8666C18.0252 36.8666 18.0252 36.8666 18.0252 36.8141C17.9726 36.6565 17.9201 36.5515 17.8675 36.3939V36.3414C17.815 36.1839 17.815 36.0788 17.7624 35.9213C17.7624 35.8688 17.7624 35.8688 17.7624 35.8163C17.7099 35.6587 17.7099 35.5537 17.7099 35.3961C17.7099 35.3436 17.7099 35.2911 17.7099 35.2911C17.7099 35.1335 17.6573 34.9235 17.6573 34.7659C17.6573 33.4005 18.1829 32.1401 19.0762 31.1948C16.8165 33.5055 13.8211 35.081 10.5103 35.081Z" fill="#E4A649"/>
<path d="M10.5103 10.4507C10.4578 10.4507 10.4578 10.4507 10.5103 10.4507C10.4578 10.2931 10.4578 10.1356 10.4578 10.0306C10.4578 6.19688 12.192 2.83584 14.9247 0.577637C17.815 1.20783 20.4426 2.36319 22.8074 3.99119C21.4936 4.88397 20.2849 5.88178 19.1813 7.03714C18.8135 7.40475 18.4982 7.77236 18.2354 8.24501C18.1829 8.40256 18.0777 8.50759 18.0252 8.66514C18.0252 8.66514 18.0252 8.66514 18.0252 8.71766C17.9726 8.87521 17.9201 8.98024 17.8675 9.13779V9.1903C17.815 9.34785 17.815 9.45288 17.7624 9.61043C17.7624 9.66295 17.7624 9.66295 17.7624 9.71547C17.7099 9.87302 17.7099 9.97805 17.7099 10.1356C17.7099 10.1881 17.7099 10.2406 17.7099 10.2406C17.7099 10.3982 17.6573 10.6082 17.6573 10.7658C17.6573 12.1312 18.1829 13.3916 19.0762 14.3369C16.8165 12.0262 13.8211 10.4507 10.5103 10.4507Z" fill="#E4A649"/>
<path d="M27.327 37.3395C27.4321 37.182 27.4846 37.0244 27.5372 36.9194C27.5372 36.9194 27.5372 36.9194 27.5372 36.8669C27.5897 36.7093 27.6423 36.6043 27.6948 36.4467V36.3942C27.7474 36.2367 27.7474 36.1316 27.7999 35.9741C27.7999 35.9216 27.7999 35.9216 27.8525 35.8691C27.905 35.7115 27.905 35.6065 27.905 35.4489C27.905 35.3964 27.905 35.3439 27.905 35.3439C27.905 35.1864 27.9576 34.9763 27.9576 34.8187C27.9576 31.9303 25.6453 29.6196 22.755 29.6196C19.8646 29.6196 17.5524 31.9303 17.5524 34.8187C17.5524 34.9763 17.5524 35.1864 17.6049 35.3439C17.6049 35.3964 17.6049 35.3964 17.6049 35.4489C17.6049 35.6065 17.6575 35.764 17.6575 35.8691V35.9216C17.71 36.0791 17.71 36.2367 17.7626 36.3417V36.3942C17.8151 36.5518 17.8677 36.7093 17.9202 36.8144C18.183 37.4445 18.6034 38.0222 19.0764 38.4949C20.1799 39.6502 21.3886 40.648 22.7024 41.5408C24.0162 40.648 25.2249 39.6502 26.3285 38.4949C26.7489 38.1798 27.0642 37.8122 27.327 37.3395Z" fill="#C42228"/>
<path d="M27.9577 10.1884C27.9577 10.1359 27.9577 10.0834 27.9577 10.0834C27.9577 9.92582 27.9051 9.82079 27.9051 9.66324C27.9051 9.61072 27.9051 9.61072 27.8525 9.55821C27.8 9.40066 27.8 9.29562 27.7474 9.13807C27.7474 9.13807 27.7474 9.08556 27.6949 9.08556C27.6423 8.92801 27.5898 8.82298 27.5372 8.66543C27.5372 8.66543 27.5372 8.66543 27.5372 8.61291C27.4847 8.45536 27.3796 8.29781 27.327 8.19278C27.0643 7.72014 26.749 7.35252 26.3811 6.98491C25.2775 5.82955 24.0688 4.83174 22.755 3.93896C21.4412 4.83174 20.2326 5.82955 19.129 6.98491C18.656 7.45755 18.2356 8.03523 17.9728 8.66543C17.9203 8.82298 17.8677 8.98053 17.8152 9.08556V9.13807C17.7626 9.29562 17.7101 9.40066 17.7101 9.55821C17.7101 9.61072 17.7101 9.61072 17.7101 9.66324C17.6575 9.82079 17.6575 9.97834 17.6575 10.0834C17.6575 10.1359 17.6575 10.1359 17.6575 10.1884C17.6575 10.3459 17.605 10.556 17.605 10.7136C17.605 13.602 19.9173 15.9127 22.8076 15.9127C25.6979 15.9127 28.0102 13.602 28.0102 10.7136C28.0102 10.556 28.0102 10.3459 27.9577 10.1884Z" fill="#C42228"/>
<path d="M43.9331 1.628C44.9842 4.25382 45.5622 7.03718 45.5622 10.0306C45.5622 11.7111 45.4046 13.3391 45.0367 14.9146C42.777 12.1838 39.3611 10.4507 35.5249 10.4507C35.3672 10.4507 35.2096 10.4507 35.1045 10.4507C35.1045 10.2932 35.1045 10.1356 35.1045 10.0306C35.1045 6.19692 33.3703 2.83588 30.6376 0.525163C32.2141 0.157549 33.8432 0 35.5249 0C38.5203 0 41.3581 0.577679 43.9331 1.628Z" fill="#9C6F4B"/>
<path d="M35.052 35.081C35.1045 35.081 35.1045 35.081 35.052 35.081C35.1045 35.2386 35.1045 35.3961 35.1045 35.5012C35.1045 39.3348 33.3703 42.6959 30.6376 44.9541C27.7473 44.3239 25.1197 43.1685 22.7549 41.5405C24.0687 40.6478 25.2774 39.6499 26.3809 38.4946C26.7488 38.127 27.0641 37.7594 27.3269 37.2867C27.3794 37.1292 27.4845 37.0241 27.5371 36.8666C27.5371 36.8666 27.5371 36.8666 27.5371 36.8141C27.5896 36.6565 27.6422 36.5515 27.6947 36.3939C27.6947 36.3939 27.6947 36.3414 27.7473 36.3414C27.7998 36.1839 27.7998 36.0788 27.8524 35.9213C27.8524 35.8688 27.8524 35.8688 27.9049 35.8163C27.9575 35.6587 27.9575 35.5537 27.9575 35.3961C27.9575 35.3436 27.9575 35.2911 27.9575 35.2911C27.9575 35.1335 28.01 34.9235 28.01 34.7659C28.01 33.4005 27.4845 32.1401 26.5912 31.1948C28.7458 33.5055 31.7412 35.081 35.052 35.081Z" fill="#D56F65"/>
<path d="M35.052 10.4507C35.1045 10.4507 35.1045 10.4507 35.052 10.4507C35.1045 10.2931 35.1045 10.1356 35.1045 10.0306C35.1045 6.19688 33.3703 2.83584 30.6376 0.577637C27.7473 1.20783 25.1197 2.36319 22.7549 3.99119C24.0687 4.88397 25.2774 5.88178 26.3809 7.03714C26.7488 7.40475 27.0641 7.77236 27.3269 8.24501C27.3794 8.40256 27.4845 8.50759 27.5371 8.66514C27.5371 8.66514 27.5371 8.66514 27.5371 8.71766C27.5896 8.87521 27.6422 8.98024 27.6947 9.13779C27.6947 9.13779 27.6947 9.1903 27.7473 9.1903C27.7998 9.34785 27.7998 9.45288 27.8524 9.61043C27.8524 9.66295 27.8524 9.66295 27.9049 9.71547C27.9575 9.87302 27.9575 9.97805 27.9575 10.1356C27.9575 10.1881 27.9575 10.2406 27.9575 10.2406C27.9575 10.3982 28.01 10.6082 28.01 10.7658C28.01 12.1312 27.4845 13.3916 26.5912 14.3369C28.7458 12.0262 31.7412 10.4507 35.052 10.4507Z" fill="#D56F65"/>
<path d="M10.4577 10.5032C10.4577 10.4507 10.4577 10.4507 10.4577 10.5032C10.3001 10.4507 10.1424 10.4507 10.0373 10.4507C6.20103 10.4507 2.83772 12.1837 0.578003 14.9146C1.20862 17.803 2.36476 20.4288 3.99386 22.792C4.88723 21.4791 5.88572 20.2712 7.04185 19.1684C7.40971 18.8008 7.77757 18.4857 8.25054 18.2231C8.40819 18.1706 8.5133 18.0655 8.67095 18.013C8.67095 18.013 8.67095 18.013 8.7235 18.013C8.88116 17.9605 8.98626 17.908 9.14391 17.8555H9.19647C9.35412 17.803 9.45922 17.803 9.61688 17.7504C9.66943 17.7504 9.66943 17.7504 9.72198 17.6979C9.87964 17.6454 9.98474 17.6454 10.1424 17.6454C10.1949 17.6454 10.2475 17.6454 10.2475 17.6454C10.4052 17.6454 10.6154 17.5929 10.773 17.5929C12.1394 17.5929 13.4006 18.1181 14.3465 19.0108C12.0343 16.8052 10.4577 13.8117 10.4577 10.5032Z" fill="#9CC352"/>
<path d="M35.1044 10.5032C35.1044 10.4507 35.1044 10.4507 35.1044 10.5032C35.2621 10.4507 35.4197 10.4507 35.5248 10.4507C39.3611 10.4507 42.7244 12.1837 44.9841 14.9146C44.3535 17.803 43.1973 20.4288 41.5682 22.792C40.6749 21.4791 39.6764 20.2712 38.5203 19.1684C38.1524 18.8008 37.7845 18.4857 37.3116 18.2231C37.1539 18.1706 37.0488 18.0655 36.8911 18.013C36.8911 18.013 36.8911 18.013 36.8386 18.013C36.6809 17.9605 36.5758 17.908 36.4182 17.8555H36.3656C36.208 17.803 36.1029 17.803 35.9452 17.7504C35.8927 17.7504 35.8927 17.7504 35.8401 17.6979C35.6825 17.6454 35.5774 17.6454 35.4197 17.6454C35.3672 17.6454 35.3146 17.6454 35.3146 17.6454C35.1569 17.6454 34.9467 17.5929 34.7891 17.5929C33.4227 17.5929 32.1615 18.1181 31.2156 19.0108C33.5278 16.8052 35.1044 13.8117 35.1044 10.5032Z" fill="#9CC352"/>
<path d="M10.7206 17.5405C10.5104 17.5405 10.3527 17.5405 10.195 17.593C10.1425 17.593 10.0899 17.593 10.0899 17.593C9.93229 17.593 9.82719 17.6456 9.66953 17.6456C9.61698 17.6456 9.61698 17.6456 9.56443 17.6456C9.40677 17.6981 9.30167 17.6981 9.14402 17.7506H9.09146C8.93381 17.8031 8.82871 17.8556 8.67105 17.9081C8.67105 17.9081 8.67105 17.9081 8.6185 17.9081C8.46084 17.9607 8.30319 18.0657 8.19809 18.1182C7.72512 18.3808 7.35726 18.6959 6.9894 19.0635C5.83326 20.1663 4.83478 21.3742 3.94141 22.6871C4.83478 24 5.83326 25.2079 6.9894 26.3107C7.35726 26.6784 7.72512 26.9935 8.19809 27.256C8.35574 27.3086 8.46084 27.4136 8.6185 27.4661C8.6185 27.4661 8.6185 27.4661 8.67105 27.4661C8.82871 27.5186 8.93381 27.5711 9.09146 27.6236H9.14402C9.30167 27.6762 9.40677 27.6762 9.56443 27.7287C9.61698 27.7287 9.61698 27.7287 9.66953 27.7287C9.82719 27.7812 9.93229 27.7812 10.0899 27.7812C10.1425 27.7812 10.195 27.7812 10.195 27.7812C10.3527 27.7812 10.5629 27.8337 10.7206 27.8337C13.6109 27.8337 15.9232 25.523 15.9232 22.6346C15.9232 19.7462 13.6109 17.5405 10.7206 17.5405Z" fill="#618B4C"/>
<path d="M41.6209 22.7396C40.7275 21.4267 39.7291 20.2189 38.5729 19.116C38.2051 18.7484 37.8372 18.4333 37.3642 18.1707C37.2066 18.1182 37.1015 18.0132 36.9438 17.9607C36.9438 17.9607 36.9438 17.9607 36.8913 17.9607C36.7336 17.9081 36.6285 17.8556 36.4709 17.8031H36.4183C36.3132 17.7506 36.1556 17.7506 35.9979 17.6981C35.9454 17.6981 35.9454 17.6981 35.8928 17.6456C35.7877 17.593 35.63 17.593 35.4724 17.593C35.4198 17.593 35.3673 17.593 35.3673 17.593C35.2096 17.593 34.9994 17.5405 34.8418 17.5405C31.9514 17.5405 29.6392 19.8512 29.6392 22.7396C29.6392 25.628 31.9514 27.9387 34.8418 27.9387C34.9994 27.9387 35.2096 27.9387 35.3673 27.8862C35.4198 27.8862 35.4724 27.8862 35.4724 27.8862C35.63 27.8862 35.7351 27.8337 35.8928 27.8337C35.9454 27.8337 35.9454 27.8337 35.9979 27.7812C36.1556 27.7287 36.2607 27.7287 36.4183 27.6762H36.4709C36.6285 27.6236 36.7336 27.5711 36.8913 27.5186C36.8913 27.5186 36.8913 27.5186 36.9438 27.5186C37.1015 27.4661 37.2066 27.3611 37.3642 27.3086C37.7847 27.046 38.2051 26.7309 38.5729 26.3633C39.7291 25.3129 40.7275 24.0525 41.6209 22.7396Z" fill="#618B4C"/>
</svg>
