<svg width="22" height="22" viewBox="0 0 22 22" fill="none" xmlns="http://www.w3.org/2000/svg">
<path d="M5.69737 4.2359V6.05172C5.69737 6.11894 5.6705 6.1834 5.62265 6.23094C5.57481 6.27847 5.50991 6.30517 5.44225 6.30517C5.37459 6.30517 5.3097 6.27847 5.26185 6.23094C5.21401 6.1834 5.18713 6.11894 5.18713 6.05172V4.8482L4.99422 5.03984C4.20075 5.81658 3.57205 6.74344 3.14529 7.76566C2.71852 8.78787 2.50235 9.8847 2.50953 10.9913C2.50883 13.2313 3.40319 15.38 4.99614 16.9653C5.02125 16.9881 5.04131 17.0158 5.05503 17.0467C5.06875 17.0776 5.07584 17.111 5.07584 17.1448C5.07584 17.1785 5.06875 17.2119 5.05503 17.2428C5.04131 17.2737 5.02125 17.3014 4.99614 17.3242C4.97323 17.3491 4.94534 17.369 4.91424 17.3827C4.88314 17.3963 4.84952 17.4033 4.81553 17.4033C4.78154 17.4033 4.74792 17.3963 4.71683 17.3827C4.68573 17.369 4.65783 17.3491 4.63492 17.3242C3.79964 16.4958 3.13698 15.5119 2.68485 14.4288C2.23272 13.3457 2 12.1847 2 11.0122C2 9.83964 2.23272 8.67862 2.68485 7.59554C3.13698 6.51246 3.79964 5.52856 4.63492 4.70016L4.82783 4.50851H3.61442C3.54676 4.50851 3.48187 4.48181 3.43402 4.43428C3.38618 4.38675 3.3593 4.32228 3.3593 4.25506C3.3593 4.18785 3.38618 4.12338 3.43402 4.07585C3.48187 4.02832 3.54676 4.00162 3.61442 4.00162H5.44225C5.47505 3.9977 5.50832 4.00091 5.53976 4.01103C5.57119 4.02115 5.60003 4.03793 5.62429 4.06021C5.64856 4.08249 5.66766 4.10974 5.68028 4.14007C5.69289 4.17041 5.69873 4.2031 5.69737 4.2359V4.2359ZM16.5558 17.9997H18.3836C18.4175 18.0011 18.4513 17.9954 18.4829 17.9832C18.5144 17.9709 18.5431 17.9523 18.5671 17.9285C18.591 17.9047 18.6098 17.8762 18.6221 17.8448C18.6345 17.8135 18.6401 17.7799 18.6388 17.7463C18.6401 17.7126 18.6345 17.6791 18.6221 17.6477C18.6098 17.6163 18.591 17.5879 18.5671 17.5641C18.5431 17.5402 18.5144 17.5216 18.4829 17.5094C18.4513 17.4971 18.4175 17.4915 18.3836 17.4928H17.1722L17.3651 17.3012C18.2004 16.4728 18.863 15.4889 19.3151 14.4058C19.7673 13.3227 20 12.1617 20 10.9892C20 9.81664 19.7673 8.65563 19.3151 7.57254C18.863 6.48946 18.2004 5.50557 17.3651 4.67716C17.3166 4.6325 17.2526 4.60824 17.1865 4.60947C17.1204 4.61071 17.0573 4.63735 17.0105 4.6838C16.9638 4.73025 16.937 4.79289 16.9357 4.85857C16.9345 4.92424 16.9589 4.98784 17.0039 5.03601C17.7939 5.81578 18.4204 6.74346 18.8471 7.76535C19.2739 8.78725 19.4924 9.88307 19.49 10.9894C19.4908 13.2303 18.5959 15.3798 17.0019 16.9653L16.809 17.157V15.952C16.809 15.8848 16.7821 15.8203 16.7343 15.7728C16.6864 15.7253 16.6216 15.6986 16.5539 15.6986C16.4862 15.6986 16.4213 15.7253 16.3735 15.7728C16.3256 15.8203 16.2988 15.8848 16.2988 15.952V17.7463C16.2974 17.7801 16.3031 17.8138 16.3156 17.8453C16.328 17.8768 16.3469 17.9054 16.3711 17.9292C16.3953 17.9531 16.4242 17.9716 16.456 17.9838C16.4878 17.9959 16.5218 18.0013 16.5558 17.9997V17.9997ZM10.0109 8.64801C10.6375 8.39467 11.3389 8.39467 11.9655 8.64801C12.4319 8.83976 12.8305 9.1649 13.1105 9.58213C13.3905 9.99936 13.5394 10.4899 13.5382 10.9913C13.5379 11.3243 13.4724 11.6539 13.3453 11.962C13.222 12.2725 13.0358 12.5546 12.7981 12.7906C12.5605 13.0266 12.2766 13.2117 11.9641 13.3342C11.3375 13.5875 10.636 13.5875 10.0094 13.3342C9.54306 13.1424 9.14458 12.8174 8.86457 12.4002C8.58455 11.9831 8.43563 11.4927 8.4367 10.9913C8.43695 10.6582 8.50247 10.3284 8.62961 10.0202C8.90435 9.4095 9.39614 8.92094 10.0109 8.64801ZM10.2038 9.13334C9.95526 9.23393 9.72951 9.38285 9.53977 9.57135C9.35002 9.75984 9.20012 9.98411 9.09887 10.231C8.89759 10.7268 8.90063 11.2814 9.10735 11.775C9.31406 12.2686 9.70786 12.6617 10.2038 12.8694C10.4488 12.9739 10.7126 13.0278 10.9793 13.0278C11.2459 13.0278 11.5097 12.9739 11.7548 12.8694C12.003 12.7686 12.2285 12.6195 12.418 12.431C12.6075 12.2424 12.7572 12.0181 12.8582 11.7713C13.0596 11.2754 13.0567 10.7207 12.8499 10.227C12.6432 9.73325 12.2493 9.34009 11.7533 9.13239C11.5082 9.02807 11.2444 8.97436 10.9777 8.97452C10.7111 8.97468 10.4473 9.02872 10.2023 9.13334H10.2038ZM9.99108 5.48158L10.225 6.0086C10.7385 5.92417 11.2625 5.92417 11.776 6.0086L12.0099 5.48158C12.0913 5.2984 12.2398 5.15285 12.4253 5.07446C12.6108 4.99607 12.8194 4.99072 13.0087 5.05949L13.7948 5.37618C13.9335 5.43311 14.0521 5.52974 14.1354 5.65378C14.2187 5.77783 14.263 5.92369 14.2626 6.0728V6.0728C14.262 6.17463 14.2403 6.27524 14.1989 6.36841L13.965 6.89543C14.3844 7.2068 14.7564 7.57665 15.0694 7.99355L15.6 7.76118C15.6935 7.71943 15.7949 7.69784 15.8975 7.69784C16.0001 7.69784 16.1015 7.71943 16.1951 7.76118C16.3849 7.84414 16.5365 7.99474 16.62 8.18327L16.9387 8.96422C16.9822 9.05671 17.004 9.15778 17.0024 9.25983C17.0043 9.4092 16.9606 9.55565 16.8772 9.67996C16.7938 9.80427 16.6746 9.90065 16.5351 9.95645L16.0046 10.1888C16.0896 10.699 16.0896 11.2195 16.0046 11.7296L16.5351 11.962C16.6281 11.9997 16.7125 12.0555 16.7834 12.1262C16.8543 12.1969 16.9102 12.2809 16.9478 12.3734C16.9855 12.4659 17.0041 12.565 17.0025 12.6647C17.0009 12.7645 16.9793 12.8629 16.9387 12.9542L16.6195 13.7357C16.536 13.9242 16.3844 14.0748 16.1946 14.1578C16.101 14.1995 15.9996 14.2211 15.897 14.2211C15.7945 14.2211 15.693 14.1995 15.5995 14.1578L15.0694 13.9273C14.7562 14.3441 14.3841 14.7138 13.9646 15.0249L14.1985 15.552C14.2419 15.6444 14.2637 15.7455 14.2621 15.8476C14.2639 15.997 14.2202 16.1435 14.1367 16.2678C14.0533 16.3921 13.9339 16.4885 13.7943 16.5442L12.987 16.903C12.8934 16.9448 12.792 16.9664 12.6894 16.9664C12.5868 16.9664 12.4854 16.9448 12.3918 16.903C12.2021 16.82 12.0506 16.6694 11.967 16.4809L11.7331 15.9539C11.2196 16.0384 10.6956 16.0384 10.1821 15.9539L9.94816 16.4809C9.8646 16.6694 9.71302 16.82 9.52327 16.903C9.4297 16.9448 9.32828 16.9664 9.22571 16.9664C9.12313 16.9664 9.02172 16.9448 8.92814 16.903L8.14203 16.5864C8.04901 16.5486 7.96456 16.4926 7.89367 16.4219C7.82278 16.3511 7.76689 16.2669 7.7293 16.1743C7.69171 16.0818 7.67319 15.9826 7.67483 15.8828C7.67647 15.783 7.69824 15.6845 7.73885 15.5932L7.97275 15.0661C7.55249 14.7548 7.1797 14.3848 6.86593 13.9675L6.33543 14.1999C6.24185 14.2417 6.14044 14.2632 6.03786 14.2632C5.93528 14.2632 5.83387 14.2417 5.7403 14.1999C5.55055 14.1169 5.39896 13.9663 5.31541 13.7778L4.99663 12.9969C4.95314 12.9044 4.93137 12.8033 4.93297 12.7013C4.93112 12.5519 4.97476 12.4054 5.05815 12.2811C5.14154 12.1568 5.2608 12.0604 5.40029 12.0046L5.9308 11.7713C5.84571 11.2612 5.84571 10.7406 5.9308 10.2305L5.40029 9.99813C5.30731 9.96044 5.22287 9.90461 5.15197 9.83394C5.08108 9.76328 5.02516 9.67921 4.98753 9.58671C4.94989 9.4942 4.93131 9.39515 4.93287 9.29539C4.93444 9.19563 4.95612 9.09719 4.99663 9.0059L5.31541 8.22495C5.39489 8.04067 5.5445 7.89508 5.73162 7.81996C5.91873 7.74483 6.12815 7.74626 6.31421 7.82394L6.84471 8.05631C7.15798 7.63957 7.53011 7.26989 7.9496 6.95867L7.7157 6.43165C7.67224 6.33917 7.65048 6.2381 7.65204 6.13604C7.65019 5.98667 7.69383 5.84022 7.77722 5.71591C7.86062 5.5916 7.97988 5.49522 8.11937 5.43942L8.90548 5.12273C8.99904 5.08095 9.10046 5.05935 9.20304 5.05935C9.30562 5.05935 9.40704 5.08095 9.5006 5.12273C9.70232 5.17887 9.87631 5.30655 9.98963 5.48158H9.99108ZM9.1823 5.54291L8.39619 5.8596C8.33435 5.88768 8.28505 5.93736 8.25766 5.9992C8.23027 6.06103 8.22671 6.1307 8.24765 6.19497L8.54521 6.91364C8.56303 6.96896 8.5645 7.0282 8.54945 7.08433C8.53441 7.14046 8.50348 7.19113 8.46033 7.23033C7.96647 7.56261 7.5409 7.98538 7.20642 8.47601C7.17519 8.52896 7.12418 8.56753 7.06449 8.58332C7.00479 8.59911 6.94123 8.59085 6.88763 8.56033L6.16422 8.26472C6.13249 8.25072 6.09816 8.24346 6.06344 8.2434C6.02872 8.24334 5.99437 8.25048 5.96259 8.26437C5.93081 8.27826 5.9023 8.2986 5.87888 8.32407C5.85547 8.34954 5.83767 8.37959 5.82662 8.41229L5.50784 9.19323C5.48422 9.25737 5.48649 9.3281 5.51418 9.39062C5.54186 9.45313 5.59282 9.50258 5.65638 9.52861L6.3798 9.82422C6.43159 9.84727 6.47424 9.8867 6.50111 9.93636C6.52798 9.98602 6.53756 10.0431 6.52834 10.0987C6.42215 10.678 6.42215 11.2716 6.52834 11.8508C6.54062 11.9067 6.53239 11.965 6.50515 12.0154C6.47791 12.0657 6.43345 12.1047 6.3798 12.1254L5.65638 12.421C5.59399 12.4491 5.5443 12.4992 5.51687 12.5616C5.48944 12.6239 5.48623 12.6942 5.50784 12.7588L5.8247 13.544C5.85696 13.6078 5.90904 13.6595 5.97324 13.6916C6.03572 13.7131 6.10366 13.7131 6.16615 13.6916L6.88956 13.396C6.94525 13.3783 7.00488 13.3768 7.06138 13.3918C7.11788 13.4067 7.16889 13.4374 7.20835 13.4803C7.54282 13.9709 7.96839 14.3937 8.46226 14.726C8.51557 14.757 8.55439 14.8077 8.57028 14.867C8.58618 14.9263 8.57786 14.9894 8.54714 15.0427L8.24958 15.7613C8.22523 15.8258 8.22712 15.8971 8.25486 15.9602C8.2826 16.0232 8.33399 16.0731 8.39812 16.0991L9.1823 16.4187C9.24478 16.4402 9.31273 16.4402 9.37521 16.4187C9.4394 16.3866 9.49149 16.3349 9.52375 16.2711L9.82132 15.5524C9.84452 15.501 9.88421 15.4586 9.9342 15.4319C9.98419 15.4052 10.0417 15.3957 10.0977 15.4049C10.6786 15.5316 11.2804 15.5316 11.8613 15.4049C11.9175 15.3932 11.9761 15.4016 12.0266 15.4286C12.0772 15.4556 12.1165 15.4994 12.1377 15.5524L12.4353 16.2711C12.4677 16.3349 12.5199 16.3867 12.5843 16.4187C12.6468 16.4402 12.7147 16.4402 12.7772 16.4187L13.5633 16.102C13.6257 16.0738 13.6754 16.0238 13.7028 15.9614C13.7302 15.899 13.7335 15.8288 13.7118 15.7642L13.4143 15.0455C13.3965 14.9902 13.395 14.931 13.41 14.8748C13.4251 14.8187 13.456 14.768 13.4992 14.7288C13.993 14.3966 14.4186 13.9738 14.7531 13.4832C14.7843 13.4302 14.8353 13.3916 14.895 13.3759C14.9547 13.3601 15.0183 13.3683 15.0719 13.3988L15.7953 13.6945C15.8578 13.7159 15.9257 13.7159 15.9882 13.6945C16.0503 13.6604 16.1001 13.6078 16.1305 13.544L16.4492 12.7631C16.4736 12.6986 16.4716 12.6272 16.4438 12.5641C16.4159 12.501 16.3644 12.4512 16.3002 12.4253L15.5768 12.1297C15.525 12.1066 15.4824 12.0672 15.4555 12.0175C15.4286 11.9679 15.419 11.9108 15.4283 11.8552C15.5345 11.2759 15.5345 10.6823 15.4283 10.1031V10.0609C15.4286 10.0122 15.4427 9.96464 15.469 9.92355C15.4953 9.88247 15.5326 9.84954 15.5768 9.82853L16.3002 9.53292C16.3621 9.50492 16.4116 9.45527 16.439 9.39343C16.4665 9.33159 16.4701 9.26187 16.4492 9.19754L16.1305 8.41756C16.0982 8.35381 16.0461 8.30207 15.9819 8.26999C15.9194 8.24853 15.8515 8.24853 15.789 8.26999L15.0694 8.56129C15.0138 8.57898 14.9541 8.58045 14.8976 8.5655C14.8411 8.55055 14.7901 8.51983 14.7507 8.47697C14.4162 7.98636 13.9906 7.56359 13.4967 7.23128C13.4434 7.20026 13.4046 7.14959 13.3887 7.09029C13.3728 7.03098 13.3811 6.96784 13.4119 6.91459L13.7094 6.19593C13.7332 6.1318 13.731 6.06102 13.7033 5.99847C13.6756 5.93593 13.6245 5.88649 13.5609 5.86056L12.7733 5.54291C12.7415 5.5285 12.7069 5.52092 12.6719 5.52065C12.6369 5.52039 12.6023 5.52744 12.5702 5.54136C12.5381 5.55528 12.5094 5.57575 12.4858 5.60144C12.4622 5.62713 12.4443 5.65747 12.4333 5.69047L12.1358 6.40914C12.1126 6.46059 12.0729 6.50296 12.0229 6.52966C11.9729 6.55635 11.9154 6.56586 11.8594 6.5567C11.2784 6.43 10.6767 6.43 10.0957 6.5567C10.0396 6.5684 9.98102 6.56001 9.93046 6.53301C9.8799 6.50601 9.84056 6.46214 9.81939 6.40914L9.52182 5.69047C9.48956 5.6267 9.43747 5.57496 9.37328 5.54291C9.31139 5.52181 9.24419 5.52181 9.1823 5.54291V5.54291Z" fill="#002655" stroke="#002655" stroke-width="0.2" stroke-miterlimit="10"/>
</svg>
