<svg width="48" height="48" viewBox="0 0 48 48" fill="none" xmlns="http://www.w3.org/2000/svg">
<path d="M37.8105 33.7724C37.6385 33.4862 37.3952 33.2494 37.1042 33.0851C36.8133 32.9209 36.4847 32.8349 36.1506 32.8354V32.8354C35.8165 32.8349 35.4879 32.9209 35.197 33.0851C34.9061 33.2494 34.6627 33.4862 34.4907 33.7724L31.6763 38.3784C31.1875 39.1715 30.9136 40.078 30.8817 41.0089C30.8497 41.9398 31.0607 42.8629 31.494 43.6876C31.8978 44.484 32.5017 45.1618 33.2465 45.6548C33.9913 46.1478 34.8515 46.4391 35.7428 46.5H36.5268C37.4189 46.4397 38.2799 46.1487 39.0255 45.6557C39.7711 45.1627 40.3757 44.4845 40.78 43.6876C41.213 42.8647 41.4246 41.9436 41.3941 41.0144C41.3637 40.0852 41.0922 39.1799 40.6063 38.3871L37.7919 33.7796L37.8105 33.7724ZM38.2801 42.3818C38.0997 42.7499 37.8259 43.0643 37.4861 43.2936C37.1462 43.523 36.7521 43.6593 36.343 43.689C36.2121 43.6982 36.0806 43.6982 35.9496 43.689C35.5404 43.6627 35.1452 43.5296 34.8036 43.303C34.4619 43.0764 34.1857 42.7642 34.0025 42.3976C33.7945 42.0026 33.6924 41.5605 33.7062 41.1144C33.72 40.6683 33.8493 40.2334 34.0815 39.8521L36.1449 36.4629L38.2097 39.8564C38.4409 40.236 38.5702 40.6689 38.5851 41.113C38.5999 41.5572 38.4998 41.9977 38.2944 42.3919L38.2801 42.3818ZM16.3968 9.9114C15.5296 9.91568 14.6907 10.2201 14.0228 10.7729C13.355 11.3257 12.8995 12.0927 12.7338 12.9433H8.46483C7.46998 12.9437 6.516 13.3389 5.81267 14.042C5.10934 14.7451 4.71423 15.6986 4.71423 16.6927V16.6927V19.102C4.71423 20.0961 5.10934 21.0495 5.81267 21.7526C6.516 22.4558 7.46998 22.8509 8.46483 22.8513H12.7338C12.9006 23.7011 13.3566 24.4669 14.0243 25.0188C14.692 25.5707 15.5303 25.8746 16.3968 25.879H24.6892C25.5594 25.8785 26.4025 25.5758 27.0741 25.0227C27.7457 24.4697 28.2041 23.7006 28.3709 22.847H31.1795V23.8601C30.5303 24.1602 29.9804 24.6395 29.5948 25.2415C29.2091 25.8435 29.0036 26.5431 29.0027 27.2579V27.6884C29.003 28.6827 29.3985 29.6361 30.102 30.3392C30.8056 31.0423 31.7597 31.4374 32.7547 31.4378H39.5279C40.0214 31.4384 40.5102 31.3417 40.9663 31.1533C41.4223 30.9648 41.8368 30.6884 42.1858 30.3397C42.5348 29.9911 42.8116 29.5771 43.0004 29.1214C43.1891 28.6657 43.286 28.1773 43.2857 27.6841V27.2536C43.2847 26.5388 43.0792 25.8392 42.6936 25.2372C42.3079 24.6352 41.758 24.1559 41.1088 23.8558V16.6813C41.1088 15.6869 40.7135 14.7332 40.0099 14.0301C39.3062 13.3269 38.3519 12.9318 37.3568 12.9318H28.3651C28.1988 12.0781 27.7406 11.3087 27.0689 10.7555C26.3972 10.2023 25.5538 9.89985 24.6834 9.89989H24.3503V8.99878H25.3397C26.3348 8.99878 27.2891 8.60377 27.9927 7.90062C28.6964 7.19747 29.0917 6.24377 29.0917 5.24937C29.0917 4.25497 28.6964 3.30131 27.9927 2.59816C27.2891 1.89501 26.3348 1.5 25.3397 1.5H15.8713C14.8762 1.5 13.9218 1.89501 13.2182 2.59816C12.5145 3.30131 12.1192 4.25497 12.1192 5.24937C12.1192 6.24377 12.5145 7.19747 13.2182 7.90062C13.9218 8.60377 14.8762 8.99878 15.8713 8.99878H16.8606V9.91281L16.3968 9.9114ZM18.2721 6.18065H15.8713C15.7481 6.18065 15.6262 6.1564 15.5124 6.10931C15.3987 6.06222 15.2953 5.99322 15.2082 5.90622C15.1212 5.81921 15.0521 5.71591 15.005 5.60223C14.9579 5.48855 14.9336 5.36668 14.9336 5.24363C14.9336 5.12058 14.9579 4.99876 15.005 4.88508C15.0521 4.7714 15.1212 4.6681 15.2082 4.58109C15.2953 4.49409 15.3987 4.42508 15.5124 4.378C15.6262 4.33091 15.7481 4.30666 15.8713 4.30666H25.3483C25.4714 4.30666 25.5933 4.33091 25.7071 4.378C25.8209 4.42508 25.9242 4.49409 26.0113 4.58109C26.0984 4.6681 26.1674 4.7714 26.2145 4.88508C26.2617 4.99876 26.2859 5.12058 26.2859 5.24363C26.2859 5.36668 26.2617 5.48855 26.2145 5.60223C26.1674 5.71591 26.0984 5.81921 26.0113 5.90622C25.9242 5.99322 25.8209 6.06222 25.7071 6.10931C25.5933 6.1564 25.4714 6.18065 25.3483 6.18065H22.9489C22.5756 6.18065 22.2177 6.32877 21.9538 6.59249C21.6899 6.8562 21.5417 7.21387 21.5417 7.58682V11.3176C21.5417 11.5022 21.5781 11.6851 21.6488 11.8557C21.7195 12.0263 21.8232 12.1813 21.9538 12.3119C22.0845 12.4425 22.2396 12.5461 22.4104 12.6167C22.5811 12.6874 22.7641 12.7238 22.9489 12.7238H24.6892C24.8123 12.7238 24.9343 12.748 25.048 12.7951C25.1618 12.8422 25.2651 12.9112 25.3522 12.9982C25.4393 13.0852 25.5083 13.1885 25.5555 13.3022C25.6026 13.4159 25.6268 13.5377 25.6268 13.6608V14.3495C25.6272 14.7222 25.7756 15.0796 26.0395 15.343C26.3034 15.6064 26.6611 15.7543 27.034 15.7543H37.3539C37.6026 15.7543 37.8411 15.853 38.0169 16.0287C38.1928 16.2045 38.2916 16.4428 38.2916 16.6913V24.9391C38.2911 25.2957 38.4259 25.6391 38.669 25.9001C38.9121 26.1612 39.2452 26.3202 39.6011 26.3453C39.8364 26.3645 40.0558 26.4716 40.2155 26.6453C40.3752 26.819 40.4634 27.0465 40.4627 27.2823V27.7128C40.4627 27.9613 40.3639 28.1996 40.188 28.3754C40.0122 28.5511 39.7737 28.6498 39.525 28.6498H32.759C32.6359 28.6498 32.5139 28.6256 32.4002 28.5785C32.2864 28.5314 32.1831 28.4624 32.096 28.3754C32.0089 28.2884 31.9399 28.1851 31.8927 28.0714C31.8456 27.9577 31.8214 27.8358 31.8214 27.7128V27.2823C31.8206 27.0465 31.9089 26.819 32.0686 26.6453C32.2283 26.4716 32.4476 26.3645 32.6829 26.3453C33.0388 26.3202 33.3719 26.1612 33.615 25.9001C33.8581 25.6391 33.993 25.2957 33.9924 24.9391V21.4394C33.9924 21.0665 33.8442 20.7088 33.5803 20.4451C33.3164 20.1814 32.9585 20.0332 32.5853 20.0332H27.0283C26.6553 20.0336 26.2978 20.1819 26.0342 20.4456C25.7706 20.7092 25.6225 21.0667 25.6225 21.4394V22.1281C25.6225 22.3766 25.5237 22.615 25.3479 22.7907C25.1721 22.9664 24.9336 23.0652 24.6849 23.0652H16.3968C16.1481 23.0652 15.9096 22.9664 15.7338 22.7907C15.5579 22.615 15.4592 22.3766 15.4592 22.1281V21.4394C15.4592 21.0665 15.3109 20.7088 15.047 20.4451C14.7831 20.1814 14.4252 20.0332 14.052 20.0332H8.42319C8.30006 20.0332 8.17813 20.0089 8.06437 19.9619C7.95061 19.9148 7.84724 19.8458 7.76018 19.7588C7.67311 19.6718 7.60404 19.5685 7.55691 19.4548C7.50979 19.3411 7.48554 19.2193 7.48554 19.0962V16.6927C7.48592 16.4443 7.58483 16.2062 7.76059 16.0306C7.93635 15.855 8.17463 15.7561 8.42319 15.7558H14.0505C14.2353 15.7558 14.4183 15.7194 14.589 15.6487C14.7598 15.578 14.9149 15.4745 15.0456 15.3439C15.1762 15.2133 15.2799 15.0583 15.3506 14.8877C15.4213 14.7171 15.4577 14.5342 15.4577 14.3495V13.6608C15.4577 13.4123 15.5565 13.174 15.7324 12.9982C15.9082 12.8225 16.1467 12.7238 16.3954 12.7238H18.2707C18.4555 12.7238 18.6384 12.6874 18.8092 12.6167C18.9799 12.5461 19.135 12.4425 19.2657 12.3119C19.3964 12.1813 19.5 12.0263 19.5707 11.8557C19.6415 11.6851 19.6779 11.5022 19.6779 11.3176V7.60548C19.6779 7.23253 19.5296 6.87486 19.2657 6.61114C19.0018 6.34743 18.6439 6.1993 18.2707 6.1993L18.2721 6.18065Z" fill="#35B1B8"/>
</svg>
