<svg width="52" height="52" viewBox="0 0 52 52" fill="none" xmlns="http://www.w3.org/2000/svg">
<g clip-path="url(#clip0_7_6139)">
<path d="M17.5093 46.6999C17.5093 47.3963 16.9607 47.9599 16.283 47.9599C15.6052 47.9599 15.0566 47.3963 15.0566 46.6999C15.0566 46.0036 15.6052 45.4399 16.283 45.4399C16.9607 45.4399 17.5093 46.0036 17.5093 46.6999Z" fill="#002655"/>
<path d="M32.4004 28.1599C32.4004 28.8562 31.8518 29.4199 31.1741 29.4199C30.4963 29.4199 29.9478 28.8562 29.9478 28.1599C29.9478 27.4636 30.4963 26.8999 31.1741 26.8999C31.8518 26.8999 32.4004 27.4636 32.4004 28.1599Z" fill="#002655"/>
<path d="M32.4004 5.83959C32.4004 6.53593 31.8518 7.09959 31.1741 7.09959C30.4963 7.09959 29.9478 6.53593 29.9478 5.83959C29.9478 5.14325 30.4963 4.57959 31.1741 4.57959C31.8518 4.57959 32.4004 5.14325 32.4004 5.83959Z" fill="#002655"/>
<path d="M13.6552 51.1998H29.422C30.8705 51.1998 32.0498 49.9881 32.0498 48.4998V44.8998C32.0498 43.4115 30.8705 42.1998 29.422 42.1998H29.0876C30.4371 40.2414 31.1739 37.9127 31.1739 35.4647V33.1998H39.9332C40.4167 33.1998 40.8092 32.7966 40.8092 32.2998V1.6998C40.8092 1.203 40.4167 0.799805 39.9332 0.799805H22.4145C21.931 0.799805 21.5386 1.203 21.5386 1.6998V17.5275L14.2758 24.9897C13.4229 25.8661 12.7792 27.4614 12.7792 28.6998V42.3654C11.7611 42.7377 11.0273 43.7283 11.0273 44.8998V48.4998C11.0273 49.9892 12.2066 51.1998 13.6552 51.1998ZM39.0573 31.3998H36.7048C37.1042 30.2787 37.9661 29.3931 39.0573 28.9827V31.3998ZM39.0573 2.5998V5.01695C37.9661 4.60655 37.1042 3.72095 36.7048 2.5998H39.0573ZM23.2904 2.5998H25.643C25.2435 3.72095 24.3816 4.60655 23.2904 5.01695V2.5998ZM23.2904 6.52895C25.1564 6.02803 26.628 4.51603 27.1165 2.5998H35.2332C35.7197 4.51706 37.1923 6.02906 39.0593 6.52895V27.4696C37.1933 27.9695 35.7217 29.4825 35.2332 31.3988H25.3837C25.4868 31.2095 25.6109 31.0264 25.7731 30.8608L28.3488 28.2164C29.466 27.0685 29.466 25.1996 28.3488 24.0507C27.2297 22.9028 25.4147 22.9028 24.2965 24.0507L23.2904 25.0803V6.52895ZM14.5311 28.6998C14.5311 27.9397 14.9906 26.8011 15.5141 26.2621L21.5386 20.0721V26.8401H21.5786L18.0539 30.4638C17.7125 30.8145 17.7125 31.3854 18.0539 31.7361C18.3952 32.0869 18.9508 32.0869 19.2922 31.7361L25.5328 25.323C25.9693 24.8745 26.6751 24.8787 27.1075 25.323C27.3177 25.539 27.4329 25.827 27.4329 26.1335C27.4329 26.44 27.3188 26.727 27.1075 26.944L24.5318 29.5885C23.5858 30.5605 23.1163 32.0869 23.4146 33.2142C23.5167 33.5999 23.5667 33.9939 23.5667 34.3847C23.5667 35.474 23.2003 36.5139 22.5066 37.3871C22.2003 37.7728 22.2563 38.3396 22.6327 38.6543C22.7959 38.7911 22.9901 38.8559 23.1843 38.8559C23.4386 38.8559 23.6909 38.7428 23.8641 38.5247C24.8151 37.3244 25.3176 35.8926 25.3176 34.3847C25.3176 33.9887 25.2686 33.5948 25.1945 33.1998H29.42V35.4627C29.42 37.9919 28.481 40.3587 26.8082 42.1977H14.5301L14.5311 28.6998ZM12.7792 44.8998C12.7792 44.403 13.1736 43.9998 13.6552 43.9998H29.422C29.9035 43.9998 30.2979 44.403 30.2979 44.8998V48.4998C30.2979 48.9966 29.9035 49.3998 29.422 49.3998H13.6552C13.1736 49.3998 12.7792 48.9966 12.7792 48.4998V44.8998Z" fill="#002655" stroke="#002655" stroke-width="0.4"/>
<path d="M31.1741 24.02C34.9401 24.02 38.0064 20.8705 38.0064 17C38.0064 13.1295 34.9411 9.97998 31.1741 9.97998C27.4071 9.97998 24.3418 13.1305 24.3418 17C24.3418 20.8695 27.4071 24.02 31.1741 24.02ZM31.1741 11.42C34.1683 11.42 36.6049 13.9235 36.6049 17C36.6049 20.0764 34.1683 22.58 31.1741 22.58C28.1799 22.58 25.7433 20.0764 25.7433 17C25.7433 13.9235 28.1799 11.42 31.1741 11.42Z" fill="#002655" stroke="#002655" stroke-width="0.4"/>
</g>
<defs>
<clipPath id="clip0_7_6139">
<rect width="29.7818" height="50.4" fill="white" transform="translate(11.0273 0.799805)"/>
</clipPath>
</defs>
</svg>
