<svg width="22" height="22" viewBox="0 0 22 22" fill="none" xmlns="http://www.w3.org/2000/svg">
<g clip-path="url(#clip0_7_9963)">
<path d="M2.81175 19.5H4.45508C4.53765 19.5 4.61699 19.467 4.67527 19.4087C4.73356 19.3504 4.76659 19.2711 4.76659 19.1885V18.9334H11.3457L15.1537 17.1456C15.427 17.0219 15.6401 16.7949 15.746 16.5145C15.8522 16.2341 15.8431 15.9229 15.7204 15.6496C15.5993 15.3776 15.3759 15.1639 15.0987 15.0554C14.8212 14.9466 14.5123 14.9515 14.2387 15.0687L11.1728 16.032C11.2428 15.875 11.2803 15.7053 11.2832 15.5334C11.2832 14.9071 10.8497 14.4 10.3199 14.4H7.3535C7.19969 14.3599 7.05657 14.2864 6.93417 14.1847L6.36167 13.6122C6.16641 13.4467 5.93586 13.3282 5.6875 13.2664H4.76659V13.0112C4.76659 12.9286 4.73356 12.8493 4.67527 12.791C4.61699 12.7327 4.53765 12.6997 4.45508 12.6997H2.81175C2.72918 12.6997 2.64984 12.7327 2.59156 12.791C2.53327 12.8493 2.50024 12.9286 2.50024 13.0112V19.1879C2.50024 19.2704 2.53327 19.3498 2.59156 19.4081C2.64984 19.467 2.72918 19.5 2.81175 19.5ZM5.57967 13.8334C5.73218 13.8729 5.87466 13.9454 5.99609 14.0458L6.30209 14.3518C6.53458 14.5843 6.543 14.5953 6.56567 14.6154C6.7619 14.7837 6.99472 14.9042 7.24567 14.9667H10.3199C10.5352 14.9667 10.7166 15.2274 10.7166 15.5334C10.7166 15.8394 10.5352 16.1 10.3199 16.1H8.73325C8.57685 16.1 8.44992 16.227 8.44992 16.3834C8.44992 16.5398 8.57685 16.6667 8.73325 16.6667H10.9999L14.4339 15.6043H14.465C14.6033 15.5389 14.7623 15.5321 14.9057 15.5855C15.0491 15.6389 15.1647 15.748 15.2263 15.8883C15.2878 16.0285 15.2904 16.1875 15.2327 16.3293C15.1754 16.4711 15.0631 16.5838 14.9212 16.6414L11.2208 18.3667H4.76659V13.8334H5.57967ZM3.06659 13.2667H4.19992V18.9334H3.06659V13.2667Z" fill="white"/>
<path d="M19.1885 2.5H17.5452C17.4626 2.5 17.3833 2.53303 17.325 2.59131C17.2667 2.6496 17.2337 2.72893 17.2337 2.8115V3.06667H10.6234L7.22341 5.61667H2.8115C2.63924 5.61667 2.5 5.75623 2.5 5.92817V12.1048C2.5 12.1874 2.53303 12.2667 2.59131 12.325C2.6496 12.3833 2.72893 12.4163 2.8115 12.4163H13.8048C13.8874 12.4163 13.9667 12.3833 14.025 12.325C14.0833 12.2667 14.1163 12.1874 14.1163 12.1048V10.1979C14.2274 10.2106 14.3391 10.217 14.4505 10.2177C14.8132 10.2216 15.1726 10.1484 15.5045 10.0023C15.9235 9.81583 16.2975 9.54156 16.6009 9.19768C16.6518 9.13518 16.6945 9.07592 16.7369 9.01634C16.8561 8.85217 16.9238 8.76409 17.0458 8.71876C17.1048 8.69771 17.1673 8.688 17.2301 8.69027V8.98785C17.2301 9.07107 17.2631 9.15072 17.3224 9.20933C17.3813 9.26794 17.4616 9.30032 17.5445 9.29968H19.1878C19.2704 9.29968 19.3498 9.26665 19.408 9.20836C19.4663 9.15008 19.4994 9.07074 19.4994 8.98817V2.8115C19.4994 2.72893 19.4663 2.6496 19.408 2.59131C19.3501 2.53303 19.2711 2.5 19.1885 2.5ZM9.88933 6.18333L9.11284 6.95983C8.51509 6.68524 7.82731 6.68362 7.22827 6.95594C6.62922 7.22827 6.17815 7.74733 5.99229 8.37844C5.8061 9.00954 5.90356 9.69019 6.25878 10.2439C6.61432 10.7976 7.19265 11.1697 7.84383 11.2633C8.49501 11.3568 9.15461 11.1629 9.65166 10.7319C10.1487 10.3009 10.4337 9.67497 10.433 9.01699V8.85832L11.3426 7.95166C11.8196 8.20034 12.3487 8.33246 12.8868 8.33699C13.1099 8.33569 13.3324 8.31011 13.55 8.26057V10.7568C13.2893 10.8187 13.0523 10.955 12.8677 11.1493C12.6832 11.3436 12.5588 11.5871 12.5102 11.8506H4.17733C4.12714 11.5744 3.99406 11.3202 3.79556 11.1218C3.59707 10.9233 3.34288 10.7902 3.06667 10.74V7.22017C3.3296 7.1716 3.5731 7.0479 3.76707 6.86398C3.96135 6.68006 4.09768 6.44368 4.16017 6.18333H9.88933ZM8.20909 9.46709C8.42118 9.67627 8.7071 9.79381 9.00533 9.79381C9.30356 9.79381 9.58949 9.67659 9.80158 9.46709C9.68048 9.90455 9.38937 10.2753 8.99335 10.4971C8.59733 10.7186 8.12878 10.7727 7.69261 10.647C7.25644 10.5214 6.88859 10.2264 6.67099 9.82781C6.45371 9.4292 6.4045 8.96032 6.53499 8.52545C6.66516 8.09057 6.96404 7.72596 7.36459 7.51257C7.76547 7.29918 8.23499 7.25514 8.66825 7.38985L8.20358 7.85451C7.9889 8.06823 7.86876 8.35901 7.86973 8.66177C7.8707 8.96518 7.9931 9.25499 8.20909 9.46709ZM3.06667 6.18333H3.56825C3.47467 6.40061 3.29204 6.56705 3.06667 6.63958V6.18333ZM3.06667 11.85V11.3202C3.31891 11.4002 3.51676 11.5978 3.59642 11.85H3.06667ZM13.55 11.85H13.0938C13.166 11.6246 13.3327 11.442 13.55 11.3484V11.85ZM16.8509 8.1835C16.6145 8.28518 16.416 8.45842 16.2842 8.67926C16.2473 8.73009 16.2107 8.78417 16.168 8.83501C15.9193 9.1096 15.6162 9.32947 15.2782 9.48101C14.9142 9.63709 14.5133 9.68728 14.1222 9.62543V8.07276C14.8961 7.71916 15.5 7.0764 15.805 6.2821C15.8364 6.21086 15.8374 6.12958 15.807 6.0577C15.7768 5.98581 15.7182 5.92947 15.645 5.90227C15.5722 5.87507 15.4909 5.87895 15.421 5.91328C15.351 5.9476 15.2982 6.00912 15.2753 6.0836C15.001 6.78627 14.4453 7.34225 13.7423 7.61651C12.9749 7.87491 12.1327 7.78036 11.4417 7.35876H11.419L11.3653 7.33901H11.2095L11.1587 7.36168L11.1133 7.39276L11.0907 7.40701L9.41884 9.07301C9.3123 9.17954 9.16821 9.23912 9.01796 9.23912C8.86771 9.23912 8.7233 9.17922 8.61709 9.07301C8.51055 8.9668 8.45097 8.82238 8.45097 8.67213C8.45097 8.52189 8.51055 8.37747 8.61709 8.27126L10.7788 6.1095C10.8886 5.99909 10.8886 5.82034 10.7788 5.70992C10.7047 5.63577 10.5959 5.60857 10.4955 5.63901C10.4758 5.62897 10.4547 5.62152 10.433 5.61634H8.16634L10.8102 3.63333H17.2333V8.12133C17.1032 8.11809 16.9733 8.13914 16.8509 8.1835ZM18.9337 8.73333H17.8003V3.06667H18.9337V8.73333Z" fill="white"/>
<path d="M4.20167 9.02046C4.20231 9.17686 4.32925 9.30314 4.48565 9.30314H4.48629H4.48824C4.64399 9.30152 4.76963 9.17492 4.76963 9.01916V9.01787C4.76963 8.86114 4.64237 8.73389 4.48565 8.73389C4.32827 8.73389 4.20069 8.86179 4.20167 9.01916V9.02046Z" fill="white"/>
<path d="M12.1362 9.30314H12.1381C12.2939 9.30152 12.4195 9.17492 12.4195 9.01916V9.01787C12.4195 8.86114 12.2923 8.73389 12.1355 8.73389C11.9782 8.73389 11.8506 8.86179 11.8516 9.01916V9.02046C11.8522 9.17686 11.9791 9.30314 12.1355 9.30314H12.1362V9.30314Z" fill="white"/>
</g>
<defs>
<clipPath id="clip0_7_9963">
<rect width="17" height="17" fill="white" transform="translate(2.5 2.5)"/>
</clipPath>
</defs>
</svg>
