<svg width="22" height="22" viewBox="0 0 22 22" fill="none" xmlns="http://www.w3.org/2000/svg">
<path d="M16.6609 9.08565C15.7493 9.99726 14.2745 9.99726 13.3629 9.08565C12.4513 8.17404 12.4513 6.69929 13.3629 5.78767C14.2745 4.87606 17.4854 4.96318 17.4854 4.96318C17.4854 4.96318 17.5725 8.17404 16.6609 9.08565Z" stroke="#002655" stroke-width="0.62226" stroke-miterlimit="10" stroke-linecap="round" stroke-linejoin="round"/>
<path d="M11.8881 12.1817C11.8881 12.1817 11.885 12.1817 11.8881 12.1817C11.885 11.1892 12.1495 10.234 12.6473 9.42198C12.9148 8.98329 13.2509 8.58816 13.6429 8.25214C14.0598 7.89123 14.5452 7.59254 15.0865 7.3623H15.0896C15.0896 7.3623 15.0896 7.36542 15.0865 7.36542C14.5483 7.59565 14.0629 7.89434 13.646 8.25214C13.254 8.59127 12.9211 8.98329 12.6535 9.42198C12.1557 10.2371 11.8912 11.1892 11.8881 12.1817ZM11.8881 12.1817C11.8912 12.1817 11.8912 12.1817 11.8881 12.1817Z" stroke="#002655" stroke-width="0.62226" stroke-miterlimit="10" stroke-linecap="round" stroke-linejoin="round"/>
<path d="M7.11531 8.12471C8.02692 9.03632 9.50168 9.03632 10.4133 8.12471C11.3249 7.2131 11.3249 5.73835 10.4133 4.82674C9.50168 3.91513 6.29082 4.00224 6.29082 4.00224C6.29082 4.00224 6.2037 7.2131 7.11531 8.12471Z" stroke="#002655" stroke-width="0.62226" stroke-miterlimit="10" stroke-linecap="round" stroke-linejoin="round"/>
<path d="M11.8879 12.1814C11.8879 12.1814 11.8848 12.1814 11.8879 12.1814L11.8848 11.2169C11.8848 10.2275 11.6203 9.27546 11.1256 8.46341C10.858 8.02471 10.522 7.63269 10.1331 7.29356C9.71618 6.93265 9.23082 6.63396 8.69256 6.40684L8.68945 6.40373C8.68945 6.40373 8.69256 6.40062 8.69256 6.40373C9.23082 6.63396 9.71618 6.93265 10.1362 7.29356C10.5282 7.63269 10.8611 8.02471 11.1318 8.46341C11.6296 9.27857 11.8941 10.2306 11.8941 11.22L11.8879 12.1814ZM11.8879 12.1814C11.891 12.1814 11.891 12.1814 11.8879 12.1814Z" stroke="#002655" stroke-width="0.62226" stroke-miterlimit="10" stroke-linecap="round" stroke-linejoin="round"/>
<path d="M5.30762 13.0751C6.11344 12.2693 7.22729 11.6097 8.45936 11.6097C9.26519 11.6097 9.77544 11.787 10.2764 12.0328H14.1375C14.6633 12.0328 15.0927 12.4622 15.0927 12.988C15.0927 13.5138 14.6633 13.9431 14.1375 13.9431H11.6453H14.1375C14.6633 13.9431 15.0927 13.5138 15.0927 12.988L16.8381 11.2425C17.2083 10.8723 17.8181 10.8723 18.1884 11.2425C18.5586 11.6128 18.5586 12.2226 18.1884 12.5928L15.4878 15.2934C15.1424 15.6388 14.6633 15.8535 14.1375 15.8535H9.36164C9.01006 15.8535 8.69271 15.9966 8.46247 16.2268L5.30762 13.0751Z" stroke="#002655" stroke-width="0.62226" stroke-miterlimit="10" stroke-linecap="round" stroke-linejoin="round"/>
<path d="M8.32247 17.2633L7.82777 17.758C7.5042 18.0816 6.97839 18.0816 6.65481 17.758L3.77686 14.8801C3.45329 14.5565 3.45329 14.0307 3.77686 13.7071L4.27156 13.2124C4.59513 12.8888 5.12094 12.8888 5.44452 13.2124L8.32247 16.0904C8.64604 16.4139 8.64604 16.9397 8.32247 17.2633Z" stroke="#002655" stroke-width="0.62226" stroke-miterlimit="10" stroke-linecap="round" stroke-linejoin="round"/>
</svg>
