<svg width="45" height="46" viewBox="0 0 45 46" fill="none" xmlns="http://www.w3.org/2000/svg">
<path d="M36.9466 17.8361C34.487 20.2958 30.5079 20.2958 28.0483 17.8361C25.5887 15.3765 25.5887 11.3975 28.0483 8.93787C30.5079 6.47825 39.1712 6.7133 39.1712 6.7133C39.1712 6.7133 39.4062 15.3765 36.9466 17.8361Z" stroke="#002655" stroke-width="2.22128" stroke-miterlimit="10" stroke-linecap="round" stroke-linejoin="round"/>
<path d="M24.0692 26.1888C24.0692 26.1888 24.0608 26.1888 24.0692 26.1888C24.0608 23.5109 24.7743 20.9338 26.1174 18.7428C26.8394 17.5591 27.746 16.493 28.8037 15.5864C29.9286 14.6126 31.2381 13.8068 32.6988 13.1856H32.7072C32.7072 13.1856 32.7072 13.194 32.6988 13.194C31.2465 13.8152 29.937 14.621 28.8121 15.5864C27.7544 16.5014 26.8562 17.5591 26.1342 18.7428C24.7911 20.9422 24.0776 23.5109 24.0692 26.1888ZM24.0692 26.1888C24.0776 26.1888 24.0776 26.1888 24.0692 26.1888Z" stroke="#002655" stroke-width="2.22128" stroke-miterlimit="10" stroke-linecap="round" stroke-linejoin="round"/>
<path d="M11.192 15.2422C13.6517 17.7018 17.6307 17.7018 20.0903 15.2422C22.5499 12.7826 22.5499 8.80353 20.0903 6.34392C17.6307 3.8843 8.96748 4.11935 8.96748 4.11935C8.96748 4.11935 8.73243 12.7826 11.192 15.2422Z" stroke="#002655" stroke-width="2.22128" stroke-miterlimit="10" stroke-linecap="round" stroke-linejoin="round"/>
<path d="M24.0696 26.1888C24.0696 26.1888 24.0612 26.1888 24.0696 26.1888L24.0612 23.5865C24.0612 20.917 23.3477 18.3482 22.0129 16.1572C21.291 14.9736 20.3844 13.9159 19.335 13.0009C18.2102 12.0271 16.9006 11.2212 15.4483 10.6084L15.4399 10.6C15.4399 10.6 15.4483 10.5916 15.4483 10.6C16.9006 11.2212 18.2102 12.0271 19.3434 13.0009C20.4011 13.9159 21.2994 14.9736 22.0297 16.1572C23.3728 18.3566 24.0864 20.9254 24.0864 23.5949L24.0696 26.1888ZM24.0696 26.1888C24.078 26.1888 24.078 26.1888 24.0696 26.1888Z" stroke="#002655" stroke-width="2.22128" stroke-miterlimit="10" stroke-linecap="round" stroke-linejoin="round"/>
<path d="M6.31494 28.598C8.48914 26.4238 11.4944 24.6441 14.8187 24.6441C16.9929 24.6441 18.3696 25.1226 19.7211 25.7858H30.1388C31.5575 25.7858 32.716 26.9442 32.716 28.3629C32.716 29.7816 31.5575 30.9401 30.1388 30.9401H23.4147H30.1388C31.5575 30.9401 32.716 29.7816 32.716 28.3629L37.4253 23.6536C38.4243 22.6546 40.0696 22.6546 41.0686 23.6536C42.0675 24.6525 42.0675 26.2979 41.0686 27.2968L33.7821 34.5833C32.8503 35.5151 31.5575 36.0944 30.1388 36.0944H17.2531C16.3045 36.0944 15.4483 36.4805 14.8271 37.1017L6.31494 28.598Z" stroke="#002655" stroke-width="2.22128" stroke-miterlimit="10" stroke-linecap="round" stroke-linejoin="round"/>
<path d="M14.4491 39.8971L13.1143 41.2319C12.2413 42.1049 10.8226 42.1049 9.94957 41.2319L2.18456 33.4669C1.31153 32.5938 1.31153 31.1751 2.18456 30.3021L3.5193 28.9674C4.39234 28.0943 5.81103 28.0943 6.68407 28.9674L14.4491 36.7324C15.3221 37.6054 15.3221 39.0241 14.4491 39.8971Z" stroke="#002655" stroke-width="2.22128" stroke-miterlimit="10" stroke-linecap="round" stroke-linejoin="round"/>
</svg>
