<svg width="50" height="48" viewBox="0 0 50 48" fill="none" xmlns="http://www.w3.org/2000/svg">
<path d="M15.6539 20.4991C15.4982 20.4898 15.3422 20.5135 15.1964 20.5689C15.0505 20.6242 14.918 20.71 14.8077 20.8203C14.6973 20.9307 14.6117 21.063 14.5563 21.2089C14.5009 21.3548 14.4772 21.5108 14.4865 21.6665V40.3486C14.4769 40.5044 14.5006 40.6605 14.5558 40.8065C14.6111 40.9526 14.6968 41.0853 14.8071 41.1958C14.9175 41.3063 15.05 41.3919 15.196 41.4474C15.342 41.5028 15.4981 41.5267 15.6539 41.5173H48.3637C48.5196 41.5267 48.6757 41.5028 48.8217 41.4474C48.9677 41.3919 49.1002 41.3063 49.2106 41.1958C49.3209 41.0853 49.4066 40.9526 49.4618 40.8065C49.5171 40.6605 49.5407 40.5044 49.5312 40.3486V21.6594C49.5405 21.5036 49.5167 21.3478 49.4614 21.2019C49.406 21.056 49.3203 20.9235 49.21 20.8132C49.0997 20.7029 48.9672 20.6171 48.8213 20.5618C48.6754 20.5064 48.5195 20.4826 48.3637 20.492L15.6539 20.4991ZM47.192 27.3897V34.6325C46.0616 34.847 45.022 35.3968 44.2085 36.2104C43.3949 37.0239 42.8451 38.0635 42.6306 39.1939H21.3771C21.1628 38.0634 20.613 37.0238 19.7994 36.2102C18.9859 35.3966 17.9461 34.8468 16.8157 34.6325V27.3897C17.9461 27.1754 18.9859 26.6256 19.7994 25.812C20.613 24.9984 21.1628 23.9588 21.3771 22.8283H42.6363C42.8504 23.9579 43.3994 24.997 44.2118 25.8104C45.0243 26.6239 46.0627 27.1742 47.192 27.3897V27.3897ZM18.9254 22.8283C18.7384 23.3046 18.4551 23.737 18.0934 24.0988C17.7316 24.4605 17.2991 24.7439 16.8228 24.9308V22.8283H18.9254ZM16.8228 37.0828C17.299 37.27 17.7314 37.5532 18.0932 37.9149C18.4549 38.2767 18.7382 38.7092 18.9254 39.1853H16.8228V37.0828ZM45.0895 39.1853C45.2766 38.7092 45.5599 38.2767 45.9217 37.9149C46.2834 37.5532 46.7159 37.27 47.192 37.0828V39.1853H45.0895ZM47.192 24.9308C46.7158 24.7439 46.2832 24.4605 45.9215 24.0988C45.5597 23.737 45.2765 23.3046 45.0895 22.8283H47.192V24.9308Z" fill="#162754"/>
<path d="M32.0073 36.8515C33.1632 36.8515 34.2931 36.5088 35.2542 35.8666C36.2153 35.2244 36.9644 34.3116 37.4067 33.2437C37.8491 32.1758 37.9648 31.0008 37.7393 29.8671C37.5138 28.7334 36.9572 27.6919 36.1398 26.8746C35.3225 26.0572 34.2811 25.5006 33.1474 25.2751C32.0138 25.0496 30.8386 25.1655 29.7707 25.6078C28.7028 26.0502 27.7901 26.7992 27.1479 27.7603C26.5057 28.7213 26.1629 29.8513 26.1629 31.0072C26.1547 31.777 26.3003 32.5406 26.5911 33.2534C26.8819 33.9662 27.3121 34.6137 27.8564 35.1581C28.4007 35.7024 29.0483 36.1326 29.7611 36.4234C30.4738 36.7142 31.2375 36.8597 32.0073 36.8515ZM32.0073 27.5064C32.7002 27.5064 33.3777 27.7118 33.9538 28.0968C34.53 28.4818 34.9791 29.029 35.2443 29.6693C35.5095 30.3095 35.5789 31.014 35.4437 31.6936C35.3085 32.3733 34.9748 32.9976 34.4848 33.4876C33.9948 33.9776 33.3705 34.3114 32.6908 34.4466C32.0111 34.5818 31.3067 34.5123 30.6664 34.2472C30.0262 33.982 29.479 33.5328 29.094 32.9566C28.709 32.3804 28.5035 31.7029 28.5035 31.01C28.4954 30.5477 28.5805 30.0885 28.7537 29.6599C28.9269 29.2312 29.1847 28.8418 29.5117 28.5149C29.8388 28.188 30.2283 27.9303 30.657 27.7573C31.0858 27.5842 31.545 27.4995 32.0073 27.5078V27.5064Z" fill="#162754"/>
<path d="M44.8549 15.8264H10.982C10.826 15.8168 10.6697 15.8405 10.5236 15.8958C10.3774 15.9512 10.2447 16.0369 10.1342 16.1475C10.0237 16.258 9.9379 16.3907 9.88255 16.5369C9.8272 16.683 9.80353 16.8392 9.81311 16.9952V36.8518C9.81311 37.1616 9.93618 37.4587 10.1553 37.6778C10.3743 37.8969 10.6715 38.0199 10.9813 38.0199C11.2911 38.0199 11.5882 37.8969 11.8073 37.6778C12.0263 37.4587 12.1494 37.1616 12.1494 36.8518V18.1626H44.8549C45.1647 18.1626 45.4619 18.0396 45.6809 17.8205C45.9 17.6014 46.0231 17.3043 46.0231 16.9945C46.0231 16.6847 45.9 16.3876 45.6809 16.1685C45.4619 15.9494 45.1647 15.8264 44.8549 15.8264Z" fill="#162754"/>
<path d="M40.183 11.1555H6.30859C6.15284 11.1462 5.99688 11.17 5.851 11.2253C5.70512 11.2807 5.57264 11.3663 5.46231 11.4766C5.35198 11.5869 5.26631 11.7194 5.21095 11.8653C5.15559 12.0112 5.13179 12.1672 5.14114 12.3229V32.1809C5.14114 32.4907 5.26422 32.7879 5.48329 33.0069C5.70236 33.226 5.99948 33.349 6.3093 33.349C6.61911 33.349 6.91624 33.226 7.13531 33.0069C7.35438 32.7879 7.47745 32.4907 7.47745 32.1809V13.4917H40.183C40.4928 13.4917 40.7899 13.3687 41.009 13.1496C41.228 12.9306 41.3511 12.6335 41.3511 12.3236C41.3511 12.0138 41.228 11.7167 41.009 11.4976C40.7899 11.2786 40.4928 11.1555 40.183 11.1555Z" fill="#162754"/>
<path d="M35.5106 6.48266H1.63768C1.48169 6.47307 1.32544 6.49691 1.17928 6.55226C1.03312 6.60761 0.900395 6.69336 0.789884 6.80387C0.679372 6.91438 0.593597 7.04714 0.538245 7.19329C0.482894 7.33945 0.45923 7.49563 0.468812 7.65162V27.508C0.468812 27.8178 0.591883 28.1151 0.810955 28.3342C1.03003 28.5533 1.32715 28.6763 1.63697 28.6763C1.94678 28.6763 2.2439 28.5533 2.46297 28.3342C2.68205 28.1151 2.80512 27.8178 2.80512 27.508V8.81902H35.5106C35.8204 8.81902 36.1176 8.696 36.3366 8.47693C36.5557 8.25786 36.6788 7.96074 36.6788 7.65093C36.6788 7.34111 36.5557 7.044 36.3366 6.82493C36.1176 6.60585 35.8204 6.48266 35.5106 6.48266V6.48266Z" fill="#162754"/>
</svg>
