<svg width="956" height="112" viewBox="0 0 956 112" fill="none" xmlns="http://www.w3.org/2000/svg">
<path d="M432.747 64.6653C433.915 61.806 434.499 58.6551 434.499 55.3874C434.499 53.5201 434.323 51.7112 433.915 50.019C431.404 52.995 427.667 54.9206 423.404 54.9206C423.229 54.9206 423.054 54.9206 422.937 54.9206C422.937 55.0956 422.937 55.2707 422.937 55.3874C422.937 59.5887 421.01 63.3815 418.032 65.8907C419.784 66.2991 421.594 66.4742 423.404 66.4742C426.733 66.4742 429.886 65.8323 432.747 64.6653Z" fill="#7A7A7A"/>
<path opacity="0.95" d="M460.366 82.4627C460.366 81.5874 460.95 81.1206 461.709 81.1206C462.468 81.1206 463.052 81.5874 463.052 82.4627V82.9295H463.11C463.461 81.7041 464.979 81.1206 465.68 81.1206C466.614 81.1206 467.081 81.7041 467.081 82.521C467.081 83.6297 466.38 83.9798 465.621 83.9798C464.804 83.9798 463.286 83.6297 463.286 87.2475V90.6319C463.286 91.3905 462.994 92.0907 461.826 92.0907C460.658 92.0907 460.366 91.3905 460.366 90.6319V82.4627V82.4627Z" fill="#002655"/>
<path opacity="0.95" d="M470.701 87.1884C470.701 88.7056 471.694 89.8726 473.387 89.8726C475.548 89.8726 475.548 88.4138 476.715 88.4138C477.416 88.4138 477.883 88.9973 477.883 89.5808C477.883 91.3314 475.081 92.1483 473.387 92.1483C469.358 92.1483 467.84 89.4058 467.84 86.8383C467.84 83.4539 469.884 81.1782 473.27 81.1782C476.599 81.1782 478.467 83.5706 478.467 85.963C478.467 86.955 478.175 87.2468 477.183 87.2468H470.701V87.1884ZM475.723 85.4962C475.548 84.1541 474.438 83.1622 473.212 83.1622C471.752 83.1622 470.818 84.0374 470.468 85.4962H475.723Z" fill="#002655"/>
<path opacity="0.95" d="M490.729 94.5415C490.729 95.4751 490.145 96.0002 489.269 96.0002C488.393 96.0002 487.809 95.4751 487.809 94.5415V90.6319H487.751C487.226 91.5655 486.233 92.0907 484.89 92.0907C481.795 92.0907 480.394 89.4649 480.394 86.664C480.394 82.8712 482.554 81.1206 485.007 81.1206C486.408 81.1206 487.634 81.7041 488.101 82.9879H488.16V82.521C488.16 81.6458 488.627 81.1206 489.503 81.1206C490.379 81.1206 490.846 81.5874 490.846 82.521V94.5415H490.729ZM485.649 89.815C487.401 89.815 487.985 88.0644 487.985 86.5473C487.985 84.9135 487.342 83.3963 485.649 83.3963C484.072 83.4547 483.313 84.8551 483.313 86.5473C483.313 87.9477 483.78 89.815 485.649 89.815Z" fill="#002655"/>
<path opacity="0.95" d="M512.217 82.521C512.217 81.6458 512.626 81.1206 513.56 81.1206C514.436 81.1206 514.903 81.5874 514.903 82.521V82.9879H514.961C515.429 81.7625 516.596 81.1206 518.056 81.1206C520.509 81.1206 522.669 82.9295 522.669 86.664C522.669 89.4649 521.268 92.0907 518.173 92.0907C516.83 92.0907 515.837 91.5655 515.312 90.6319H515.253V94.5415C515.253 95.4751 514.669 96.0002 513.794 96.0002C512.918 96.0002 512.334 95.4751 512.334 94.5415V82.521H512.217ZM519.633 86.6056C519.633 84.9135 518.874 83.4547 517.297 83.4547C515.604 83.4547 514.961 84.9718 514.961 86.6056C514.961 88.1228 515.545 89.8733 517.297 89.8733C519.166 89.815 519.633 87.9477 519.633 86.6056Z" fill="#002655"/>
<path opacity="0.95" d="M503.05 90.6312C503.05 91.5064 502.641 92.0899 501.707 92.0899C500.772 92.0899 500.364 91.5064 500.364 90.6312V90.2811H500.305C499.488 91.3897 498.437 92.1483 496.743 92.1483C494.992 92.1483 493.065 91.273 493.065 88.2971V82.637C493.065 81.8784 493.357 81.1782 494.524 81.1782C495.692 81.1782 495.984 81.8784 495.984 82.637V87.7136C495.984 88.8806 496.568 89.7559 497.794 89.7559C498.787 89.7559 500.013 88.939 500.013 87.4802V82.637C500.013 81.8784 500.305 81.1782 501.473 81.1782C502.641 81.1782 502.933 81.8784 502.933 82.637V90.6312H503.05Z" fill="#002655"/>
<path opacity="0.95" d="M457.621 89.0562C457.621 90.2815 457.738 91.0401 457.738 91.5069C457.738 91.9154 457.271 92.0904 456.57 92.1488C455.811 92.2071 454.935 91.3902 454.994 90.6317C454.994 90.5733 454.994 90.6317 454.994 90.6317C453.359 92.9657 448.104 92.674 448.104 88.9978C448.104 86.4303 450.264 85.7885 453.301 85.6134C454.293 85.5551 454.76 85.3217 454.76 84.5048C454.76 83.6878 453.884 83.2794 452.892 83.2794C450.965 83.3377 451.082 84.8549 449.972 84.8549C449.213 84.8549 448.746 84.3297 448.746 83.7462C448.746 82.5791 450.147 81.062 453.125 81.062C455.928 81.062 457.505 81.9956 457.505 84.0963V89.0562H457.621ZM454.877 86.7221C454.527 87.0139 454.001 87.1306 452.95 87.3056C451.899 87.4807 451.082 87.8891 451.082 88.7644C451.082 89.5813 452.016 89.9898 452.717 89.9898C454.001 89.9898 454.877 89.1729 454.877 87.8891V86.7221Z" fill="#002655"/>
<path opacity="0.95" d="M533.413 89.0562C533.413 90.2815 533.53 91.0401 533.53 91.5069C533.53 91.9154 533.063 92.0904 532.362 92.1488C531.603 92.2071 530.727 91.3902 530.785 90.6317C530.785 90.5733 530.785 90.6317 530.785 90.6317C529.15 92.9657 523.895 92.674 523.895 88.9978C523.895 86.4303 526.056 85.7885 529.092 85.6134C530.085 85.5551 530.552 85.3217 530.552 84.5048C530.552 83.6878 529.676 83.2794 528.683 83.2794C526.756 83.3377 526.932 84.8549 525.764 84.8549C525.005 84.8549 524.538 84.3297 524.538 83.7462C524.538 82.5791 525.939 81.062 528.917 81.062C531.72 81.062 533.296 81.9956 533.296 84.0963V89.0562H533.413ZM530.669 86.7221C530.377 87.0139 529.793 87.1306 528.742 87.3056C527.691 87.4807 526.873 87.8891 526.873 88.7644C526.873 89.5813 527.807 89.9898 528.508 89.9898C529.793 89.9898 530.669 89.1729 530.669 87.8891V86.7221Z" fill="#002655"/>
<path opacity="0.95" d="M465.329 66.4741C454.994 66.4741 446.644 58.0715 446.644 47.8016C446.644 37.4734 455.053 29.0708 465.329 29.0708C470.468 29.0708 475.256 31.1131 478.818 34.7892C480.453 36.4814 480.394 39.1656 478.701 40.7995C477.007 42.4333 474.322 42.3749 472.687 40.6828C470.76 38.6404 468.132 37.5318 465.329 37.5318C459.724 37.5318 455.111 42.0832 455.111 47.7433C455.111 53.345 459.665 57.9548 465.329 57.9548C468.132 57.9548 470.76 56.8461 472.687 54.8038C474.322 53.1116 477.007 53.0533 478.701 54.6871C480.394 56.321 480.453 59.0051 478.818 60.6973C475.256 64.4318 470.468 66.4741 465.329 66.4741Z" fill="#002655"/>
<path opacity="0.95" d="M516.012 56.0875C516.012 60.1721 516.421 62.7396 516.421 64.2567C516.421 65.5988 514.844 66.2991 512.625 66.4158C509.531 66.5908 507.195 63.8483 507.37 61.3975C507.37 61.2225 507.37 61.3392 507.312 61.4559C501.882 69.275 484.306 68.283 484.306 56.0292C484.306 47.5099 491.488 45.2925 501.765 44.5923C505.093 44.3589 506.728 43.6587 506.728 40.7994C506.728 37.9986 503.867 36.6565 500.539 36.7732C493.999 37.0066 494.583 42.1415 490.671 42.1415C488.16 42.1415 486.525 40.391 486.525 38.407C486.525 34.4975 491.196 29.4209 501.239 29.4209C510.64 29.4209 516.012 32.5719 516.012 39.6324V56.0875ZM506.67 48.2101C505.619 49.2021 503.808 49.6689 500.247 50.2524C496.685 50.8359 494.057 52.178 494.057 55.0956C494.057 57.8964 497.21 59.1218 499.488 59.1218C503.808 59.1218 506.67 56.3209 506.67 52.0029V48.2101V48.2101Z" fill="#002655"/>
<path opacity="0.95" d="M571.075 56.0875C571.075 60.1721 571.484 62.7396 571.484 64.2567C571.484 65.5988 569.907 66.2991 567.688 66.4158C564.594 66.5908 562.258 63.8483 562.433 61.3975C562.433 61.2225 562.433 61.3392 562.375 61.4559C556.945 69.275 539.369 68.283 539.369 56.0292C539.369 47.5099 546.551 45.2925 556.828 44.5923C560.156 44.3589 561.791 43.6587 561.791 40.7994C561.791 37.9986 558.93 36.6565 555.602 36.7732C549.062 37.0066 549.646 42.1415 545.733 42.1415C543.223 42.1415 541.588 40.391 541.588 38.407C541.588 34.4975 546.259 29.4209 556.302 29.4209C565.703 29.4209 571.075 32.5719 571.075 39.6324V56.0875V56.0875ZM561.733 48.2101C560.682 49.2021 558.871 49.6689 555.31 50.2524C551.748 50.8359 549.12 52.178 549.12 55.0956C549.12 57.8964 552.273 59.1218 554.551 59.1218C558.871 59.1218 561.733 56.3209 561.733 52.0029V48.2101Z" fill="#002655"/>
<g opacity="0.95">
<path opacity="0.95" d="M528.566 16.1167C531.544 16.1167 533.938 18.5091 533.938 21.485C533.938 24.461 531.544 26.8534 528.566 26.8534C525.588 26.8534 523.194 24.461 523.194 21.485C523.194 18.5091 525.588 16.1167 528.566 16.1167Z" fill="#002655"/>
<path opacity="0.95" d="M528.508 29.8877C524.596 29.8877 523.428 32.1051 523.428 35.0226V35.1393V64.0233C523.428 71.0839 519.165 69.2166 518.582 71.4923C517.822 74.7016 521.092 75.8687 523.194 75.8687C530.201 75.8103 533.53 70.0335 533.53 64.0817V35.081V35.0226C533.588 32.1634 532.42 29.8877 528.508 29.8877Z" fill="#002655"/>
</g>
<path opacity="0.95" d="M507.721 81.1206C506.553 81.1206 506.261 81.7625 506.261 82.6377V85.4386V87.8894V90.5152C506.261 91.3905 506.611 92.0323 507.721 92.0323C508.889 92.0323 509.181 91.3905 509.181 90.5152V87.8894V85.4386V82.6377C509.181 81.7625 508.83 81.1206 507.721 81.1206Z" fill="#002655"/>
<g opacity="0.95">
<path opacity="0.95" d="M507.721 77.0352C508.597 77.0352 509.297 77.7354 509.297 78.6106C509.297 79.4859 508.597 80.1861 507.721 80.1861C506.845 80.1861 506.144 79.4859 506.144 78.6106C506.144 77.7354 506.845 77.0352 507.721 77.0352Z" fill="#002655"/>
</g>
<path d="M386.326 64.782C385.159 61.9228 384.516 58.7718 384.516 55.4457C384.516 53.5785 384.75 51.7696 385.1 50.019C387.611 53.0533 391.406 54.9789 395.669 54.9789C395.844 54.9789 396.019 54.9789 396.136 54.9789C396.136 55.154 396.136 55.329 396.136 55.4457C396.136 59.7054 398.063 63.4399 401.099 66.0074C399.348 66.4158 397.538 66.5909 395.669 66.5909C392.341 66.5909 389.188 65.949 386.326 64.782Z" fill="#56884D"/>
<path d="M433.331 64.782C434.499 61.9228 435.141 58.7718 435.141 55.4457C435.141 53.5785 434.966 51.7696 434.557 50.019C432.047 53.0533 428.251 54.9789 423.989 54.9789C423.814 54.9789 423.638 54.9789 423.522 54.9789C423.522 55.154 423.522 55.329 423.522 55.4457C423.522 59.7054 421.595 63.4399 418.558 66.0074C420.31 66.4158 422.12 66.5909 423.989 66.5909C427.317 66.5909 430.47 65.949 433.331 64.782Z" fill="#477E9F"/>
<path d="M396.136 54.9204C396.136 54.9787 396.136 54.9787 396.136 54.9204C395.961 54.9787 395.786 54.9787 395.669 54.9787C391.406 54.9787 387.669 53.0531 385.158 50.0188C385.859 46.8095 387.144 43.8919 388.954 41.2661C389.946 42.7249 391.056 44.067 392.341 45.2924C392.749 45.7008 393.158 46.0509 393.684 46.3427C393.859 46.401 393.975 46.5177 394.151 46.5761C394.151 46.5761 394.151 46.5761 394.209 46.5761C394.384 46.6345 394.501 46.6928 394.676 46.7512H394.735C394.91 46.8095 395.026 46.8095 395.202 46.8679C395.26 46.8679 395.26 46.8679 395.318 46.8679C395.494 46.9262 395.61 46.9262 395.786 46.9262C395.844 46.9262 395.902 46.9262 395.902 46.9262C396.078 46.9262 396.311 46.9846 396.486 46.9846C398.004 46.9846 399.406 46.401 400.457 45.4091C397.888 47.9182 396.136 51.2442 396.136 54.9204Z" fill="#67B6B7"/>
<path d="M423.522 54.9204C423.522 54.9787 423.522 54.9787 423.522 54.9204C423.697 54.9787 423.872 54.9787 423.989 54.9787C428.251 54.9787 431.988 53.0531 434.499 50.0188C433.798 46.8095 432.514 43.8919 430.704 41.2661C429.711 42.7249 428.602 44.067 427.317 45.2924C427.025 45.7592 426.558 46.0509 426.032 46.3427C425.857 46.401 425.74 46.5177 425.565 46.5761C425.565 46.5761 425.565 46.5761 425.507 46.5761C425.332 46.6345 425.215 46.6928 425.04 46.7512H424.981C424.806 46.8679 424.689 46.9262 424.514 46.9262C424.456 46.9262 424.456 46.9262 424.397 46.9262C424.222 46.9846 424.105 46.9846 423.93 46.9846C423.872 46.9846 423.814 46.9846 423.814 46.9846C423.638 46.9846 423.405 47.0429 423.23 47.0429C421.711 47.0429 420.31 46.4594 419.259 45.4674C421.77 47.9182 423.522 51.2442 423.522 54.9204Z" fill="#67B6B7"/>
<path d="M386.326 17.8089C385.159 20.6681 384.516 23.8191 384.516 27.1451C384.516 29.0124 384.75 30.8213 385.1 32.5718C387.611 29.5375 391.406 27.6119 395.669 27.6119C395.844 27.6119 396.019 27.6119 396.136 27.6119C396.136 27.4369 396.136 27.2618 396.136 27.1451C396.136 22.8855 398.063 19.151 401.099 16.5835C399.348 16.1751 397.538 16 395.669 16C392.341 16 389.188 16.6419 386.326 17.8089Z" fill="#757844"/>
<path d="M396.194 54.9791C396.136 54.9791 396.136 54.9791 396.194 54.9791C396.136 55.1542 396.136 55.3293 396.136 55.446C396.136 59.7056 398.063 63.4401 401.099 65.9492C404.311 65.249 407.23 63.9653 409.858 62.1564C408.398 61.1644 407.055 60.0557 405.829 58.772C405.42 58.3635 405.07 57.9551 404.778 57.4299C404.719 57.2549 404.603 57.1381 404.544 56.9631C404.544 56.9631 404.544 56.9631 404.544 56.9047C404.486 56.7297 404.427 56.613 404.369 56.4379V56.3796C404.311 56.2045 404.311 56.0878 404.252 55.9128C404.252 55.8544 404.252 55.8544 404.252 55.7961C404.194 55.621 404.194 55.5043 404.194 55.3293C404.194 55.2709 404.194 55.2125 404.194 55.2125C404.194 55.0375 404.136 54.8041 404.136 54.629C404.136 53.1119 404.719 51.7115 405.712 50.6611C403.201 53.2286 399.873 54.9791 396.194 54.9791Z" fill="#E4A649"/>
<path d="M396.194 27.6122C396.136 27.6122 396.136 27.6122 396.194 27.6122C396.136 27.4371 396.136 27.2621 396.136 27.1454C396.136 22.8857 398.063 19.1512 401.099 16.6421C404.311 17.3423 407.23 18.626 409.858 20.4349C408.398 21.4269 407.055 22.5356 405.829 23.8193C405.42 24.2278 405.07 24.6362 404.778 25.1614C404.719 25.3365 404.603 25.4532 404.544 25.6282C404.544 25.6282 404.544 25.6282 404.544 25.6866C404.486 25.8616 404.427 25.9783 404.369 26.1534V26.2117C404.311 26.3868 404.311 26.5035 404.252 26.6785C404.252 26.7369 404.252 26.7369 404.252 26.7953C404.194 26.9703 404.194 27.087 404.194 27.2621C404.194 27.3204 404.194 27.3788 404.194 27.3788C404.194 27.5538 404.136 27.7872 404.136 27.9623C404.136 29.4794 404.719 30.8799 405.712 31.9302C403.201 29.3627 399.873 27.6122 396.194 27.6122Z" fill="#E4A649"/>
<path d="M414.879 57.4878C414.996 57.3128 415.055 57.1377 415.113 57.021C415.113 57.021 415.113 57.021 415.113 56.9627C415.171 56.7876 415.23 56.6709 415.288 56.4959V56.4375C415.347 56.2624 415.347 56.1457 415.405 55.9707C415.405 55.9123 415.405 55.9123 415.463 55.854C415.522 55.6789 415.522 55.5622 415.522 55.3872C415.522 55.3288 415.522 55.2705 415.522 55.2705C415.522 55.0954 415.58 54.862 415.58 54.687C415.58 51.4776 413.011 48.9102 409.799 48.9102C406.588 48.9102 404.019 51.4776 404.019 54.687C404.019 54.862 404.019 55.0954 404.077 55.2705C404.077 55.3288 404.077 55.3288 404.077 55.3872C404.077 55.5622 404.136 55.7373 404.136 55.854V55.9123C404.194 56.0874 404.194 56.2624 404.252 56.3791V56.4375C404.311 56.6126 404.369 56.7876 404.428 56.9043C404.719 57.6045 405.187 58.2464 405.712 58.7716C406.938 60.0553 408.281 61.164 409.741 62.1559C411.201 61.164 412.544 60.0553 413.77 58.7716C414.237 58.4215 414.588 58.013 414.879 57.4878Z" fill="#C42228"/>
<path d="M415.58 27.3203C415.58 27.2619 415.58 27.2036 415.58 27.2036C415.58 27.0285 415.521 26.9118 415.521 26.7368C415.521 26.6784 415.521 26.6784 415.463 26.6201C415.405 26.445 415.405 26.3283 415.346 26.1533C415.346 26.1533 415.346 26.0949 415.288 26.0949C415.23 25.9199 415.171 25.8032 415.113 25.6281C415.113 25.6281 415.113 25.6281 415.113 25.5697C415.054 25.3947 414.938 25.2196 414.879 25.1029C414.587 24.5778 414.237 24.1693 413.828 23.7609C412.602 22.4771 411.259 21.3684 409.799 20.3765C408.339 21.3684 406.996 22.4771 405.77 23.7609C405.245 24.286 404.778 24.9279 404.486 25.6281C404.427 25.8032 404.369 25.9782 404.31 26.0949V26.1533C404.252 26.3283 404.194 26.445 404.194 26.6201C404.194 26.6784 404.194 26.6784 404.194 26.7368C404.135 26.9118 404.135 27.0869 404.135 27.2036C404.135 27.2619 404.135 27.2619 404.135 27.3203C404.135 27.4953 404.077 27.7288 404.077 27.9038C404.077 31.1131 406.646 33.6806 409.858 33.6806C413.069 33.6806 415.638 31.1131 415.638 27.9038C415.638 27.7288 415.638 27.4953 415.58 27.3203Z" fill="#C42228"/>
<path d="M433.331 17.8089C434.499 20.7265 435.141 23.8191 435.141 27.1451C435.141 29.0124 434.966 30.8213 434.557 32.5718C432.047 29.5375 428.251 27.6119 423.989 27.6119C423.814 27.6119 423.638 27.6119 423.522 27.6119C423.522 27.4369 423.522 27.2618 423.522 27.1451C423.522 22.8855 421.595 19.151 418.558 16.5835C420.31 16.1751 422.12 16 423.989 16C427.317 16 430.47 16.6419 433.331 17.8089Z" fill="#9C6F4B"/>
<path d="M423.463 54.9791C423.521 54.9791 423.521 54.9791 423.463 54.9791C423.521 55.1542 423.521 55.3293 423.521 55.446C423.521 59.7056 421.594 63.4401 418.558 65.9492C415.347 65.249 412.427 63.9653 409.8 62.1564C411.259 61.1644 412.602 60.0557 413.829 58.772C414.237 58.3635 414.588 57.9551 414.88 57.4299C414.938 57.2549 415.055 57.1381 415.113 56.9631C415.113 56.9631 415.113 56.9631 415.113 56.9047C415.172 56.7297 415.23 56.613 415.288 56.4379C415.288 56.4379 415.288 56.3796 415.347 56.3796C415.405 56.2045 415.405 56.0878 415.463 55.9128C415.463 55.8544 415.463 55.8544 415.522 55.7961C415.58 55.621 415.58 55.5043 415.58 55.3293C415.58 55.2709 415.58 55.2125 415.58 55.2125C415.58 55.0375 415.639 54.8041 415.639 54.629C415.639 53.1119 415.055 51.7115 414.062 50.6611C416.456 53.2286 419.784 54.9791 423.463 54.9791Z" fill="#D56F65"/>
<path d="M423.463 27.6122C423.521 27.6122 423.521 27.6122 423.463 27.6122C423.521 27.4371 423.521 27.2621 423.521 27.1454C423.521 22.8857 421.594 19.1512 418.558 16.6421C415.347 17.3423 412.427 18.626 409.8 20.4349C411.259 21.4269 412.602 22.5356 413.829 23.8193C414.237 24.2278 414.588 24.6362 414.88 25.1614C414.938 25.3365 415.055 25.4532 415.113 25.6282C415.113 25.6282 415.113 25.6282 415.113 25.6866C415.172 25.8616 415.23 25.9783 415.288 26.1534C415.288 26.1534 415.288 26.2117 415.347 26.2117C415.405 26.3868 415.405 26.5035 415.463 26.6785C415.463 26.7369 415.463 26.7369 415.522 26.7953C415.58 26.9703 415.58 27.087 415.58 27.2621C415.58 27.3204 415.58 27.3788 415.58 27.3788C415.58 27.5538 415.639 27.7872 415.639 27.9623C415.639 29.4794 415.055 30.8799 414.062 31.9302C416.456 29.3627 419.784 27.6122 423.463 27.6122Z" fill="#D56F65"/>
<path d="M396.136 27.6702C396.136 27.6118 396.136 27.6118 396.136 27.6702C395.961 27.6118 395.786 27.6118 395.669 27.6118C391.407 27.6118 387.67 29.5374 385.159 32.5717C385.86 35.781 387.144 38.6986 388.954 41.3244C389.947 39.8656 391.056 38.5235 392.341 37.2982C392.75 36.8897 393.158 36.5396 393.684 36.2478C393.859 36.1895 393.976 36.0728 394.151 36.0144C394.151 36.0144 394.151 36.0144 394.21 36.0144C394.385 35.9561 394.501 35.8977 394.677 35.8394H394.735C394.91 35.781 395.027 35.781 395.202 35.7227C395.261 35.7227 395.261 35.7227 395.319 35.6643C395.494 35.606 395.611 35.606 395.786 35.606C395.844 35.606 395.903 35.606 395.903 35.606C396.078 35.606 396.312 35.5476 396.487 35.5476C398.005 35.5476 399.406 36.1311 400.457 37.1231C397.888 34.6723 396.136 31.3463 396.136 27.6702Z" fill="#9CC352"/>
<path d="M423.522 27.6702C423.522 27.6118 423.522 27.6118 423.522 27.6702C423.697 27.6118 423.872 27.6118 423.989 27.6118C428.251 27.6118 431.989 29.5374 434.499 32.5717C433.799 35.781 432.514 38.6986 430.704 41.3244C429.711 39.8656 428.602 38.5235 427.317 37.2982C426.909 36.8897 426.5 36.5396 425.974 36.2478C425.799 36.1895 425.682 36.0728 425.507 36.0144C425.507 36.0144 425.507 36.0144 425.449 36.0144C425.274 35.9561 425.157 35.8977 424.982 35.8394H424.923C424.748 35.781 424.631 35.781 424.456 35.7227C424.398 35.7227 424.398 35.7227 424.339 35.6643C424.164 35.606 424.047 35.606 423.872 35.606C423.814 35.606 423.755 35.606 423.755 35.606C423.58 35.606 423.347 35.5476 423.171 35.5476C421.653 35.5476 420.252 36.1311 419.201 37.1231C421.77 34.6723 423.522 31.3463 423.522 27.6702Z" fill="#9CC352"/>
<path d="M396.428 35.4893C396.195 35.4893 396.019 35.4893 395.844 35.5476C395.786 35.5476 395.727 35.5476 395.727 35.5476C395.552 35.5476 395.436 35.606 395.26 35.606C395.202 35.606 395.202 35.606 395.144 35.606C394.968 35.6643 394.852 35.6643 394.676 35.7227H394.618C394.443 35.781 394.326 35.8394 394.151 35.8977C394.151 35.8977 394.151 35.8977 394.093 35.8977C393.917 35.9561 393.742 36.0728 393.625 36.1311C393.1 36.4229 392.691 36.773 392.282 37.1814C390.998 38.4068 389.888 39.7489 388.896 41.2077C389.888 42.6665 390.998 44.0086 392.282 45.234C392.691 45.6424 393.1 45.9925 393.625 46.2843C393.801 46.3426 393.917 46.4593 394.093 46.5177C394.093 46.5177 394.093 46.5177 394.151 46.5177C394.326 46.576 394.443 46.6344 394.618 46.6927H394.676C394.852 46.7511 394.968 46.7511 395.144 46.8094C395.202 46.8094 395.202 46.8094 395.26 46.8094C395.436 46.8678 395.552 46.8678 395.727 46.8678C395.786 46.8678 395.844 46.8678 395.844 46.8678C396.019 46.8678 396.253 46.9261 396.428 46.9261C399.64 46.9261 402.209 44.3587 402.209 41.1494C402.209 37.94 399.64 35.4893 396.428 35.4893Z" fill="#618B4C"/>
<path d="M430.762 41.2661C429.769 39.8073 428.66 38.4652 427.375 37.2398C426.967 36.8313 426.558 36.4812 426.032 36.1895C425.857 36.1311 425.74 36.0144 425.565 35.9561C425.565 35.9561 425.565 35.9561 425.507 35.9561C425.332 35.8977 425.215 35.8394 425.04 35.781H424.981C424.865 35.7227 424.689 35.7227 424.514 35.6643C424.456 35.6643 424.456 35.6643 424.397 35.606C424.281 35.5476 424.106 35.5476 423.93 35.5476C423.872 35.5476 423.814 35.5476 423.814 35.5476C423.638 35.5476 423.405 35.4893 423.23 35.4893C420.018 35.4893 417.449 38.0567 417.449 41.2661C417.449 44.4754 420.018 47.0429 423.23 47.0429C423.405 47.0429 423.638 47.0429 423.814 46.9845C423.872 46.9845 423.93 46.9845 423.93 46.9845C424.106 46.9845 424.222 46.9262 424.397 46.9262C424.456 46.9262 424.456 46.9262 424.514 46.8678C424.689 46.8094 424.806 46.8094 424.981 46.7511H425.04C425.215 46.6927 425.332 46.6344 425.507 46.576C425.507 46.576 425.507 46.576 425.565 46.576C425.74 46.5177 425.857 46.401 426.032 46.3426C426.5 46.0509 426.967 45.7008 427.375 45.2923C428.66 44.1253 429.769 42.7248 430.762 41.2661Z" fill="#618B4C"/>
</svg>
