<svg width="169" height="72" viewBox="0 0 169 72" fill="none" xmlns="http://www.w3.org/2000/svg">
<path d="M43.4077 43.7985C44.4587 41.2252 44.9842 38.3894 44.9842 35.4484C44.9842 33.7679 44.8266 32.1399 44.4587 30.6169C42.199 33.2953 38.8357 35.0283 34.9994 35.0283C34.8418 35.0283 34.6841 35.0283 34.579 35.0283C34.579 35.1859 34.579 35.3434 34.579 35.4484C34.579 39.2296 32.8448 42.6432 30.1647 44.9014C31.7412 45.269 33.3703 45.4265 34.9994 45.4265C37.9949 45.4265 40.8327 44.8489 43.4077 43.7985Z" fill="#7A7A7A"/>
<path opacity="0.95" d="M68.2645 59.8163C68.2645 59.0285 68.79 58.6084 69.4732 58.6084C70.1564 58.6084 70.6819 59.0285 70.6819 59.8163V60.2364H70.7345C71.0498 59.1336 72.4161 58.6084 73.0467 58.6084C73.8876 58.6084 74.308 59.1336 74.308 59.8688C74.308 60.8666 73.6773 61.1817 72.9942 61.1817C72.2585 61.1817 70.8921 60.8666 70.8921 64.1226V67.1686C70.8921 67.8513 70.6293 68.4815 69.5783 68.4815C68.5273 68.4815 68.2645 67.8513 68.2645 67.1686V59.8163V59.8163Z" fill="#002655"/>
<path opacity="0.95" d="M77.5662 64.0696C77.5662 65.435 78.4596 66.4853 79.9836 66.4853C81.928 66.4853 81.928 65.1724 82.9791 65.1724C83.6097 65.1724 84.0301 65.6976 84.0301 66.2227C84.0301 67.7982 81.5076 68.5335 79.9836 68.5335C76.3576 68.5335 74.9912 66.0652 74.9912 63.7545C74.9912 60.7085 76.8305 58.6604 79.8785 58.6604C82.874 58.6604 84.5556 60.8136 84.5556 62.9667C84.5556 63.8595 84.2928 64.1221 83.3995 64.1221H77.5662V64.0696ZM82.0857 62.5466C81.928 61.3387 80.9295 60.446 79.826 60.446C78.5122 60.446 77.6713 61.2337 77.356 62.5466H82.0857Z" fill="#002655"/>
<path opacity="0.95" d="M95.5914 70.6871C95.5914 71.5274 95.0659 72.0001 94.2776 72.0001C93.4894 72.0001 92.9638 71.5274 92.9638 70.6871V67.1686H92.9113C92.4383 68.0088 91.545 68.4815 90.3363 68.4815C87.551 68.4815 86.2898 66.1182 86.2898 63.5974C86.2898 60.1839 88.2342 58.6084 90.4414 58.6084C91.7026 58.6084 92.8062 59.1336 93.2266 60.2889H93.2792V59.8688C93.2792 59.081 93.6996 58.6084 94.4878 58.6084C95.2761 58.6084 95.6965 59.0285 95.6965 59.8688V70.6871H95.5914ZM91.0194 66.4333C92.596 66.4333 93.1215 64.8578 93.1215 63.4924C93.1215 62.022 92.5434 60.6565 91.0194 60.6565C89.6005 60.7091 88.9174 61.9694 88.9174 63.4924C88.9174 64.7528 89.3378 66.4333 91.0194 66.4333Z" fill="#002655"/>
<path opacity="0.95" d="M114.93 59.8688C114.93 59.081 115.298 58.6084 116.139 58.6084C116.927 58.6084 117.348 59.0285 117.348 59.8688V60.2889H117.4C117.821 59.1861 118.872 58.6084 120.186 58.6084C122.393 58.6084 124.337 60.2364 124.337 63.5974C124.337 66.1182 123.076 68.4815 120.291 68.4815C119.082 68.4815 118.189 68.0088 117.716 67.1686H117.663V70.6871C117.663 71.5274 117.138 72.0001 116.349 72.0001C115.561 72.0001 115.036 71.5274 115.036 70.6871V59.8688H114.93ZM121.604 63.5449C121.604 62.022 120.921 60.709 119.502 60.709C117.978 60.709 117.4 62.0745 117.4 63.5449C117.4 64.9104 117.926 66.4858 119.502 66.4858C121.184 66.4333 121.604 64.7528 121.604 63.5449Z" fill="#002655"/>
<path opacity="0.95" d="M106.68 67.168C106.68 67.9558 106.312 68.4809 105.471 68.4809C104.63 68.4809 104.262 67.9558 104.262 67.168V66.8529H104.21C103.474 67.8507 102.528 68.5335 101.004 68.5335C99.4277 68.5335 97.6935 67.7457 97.6935 65.0674V59.9733C97.6935 59.2906 97.9562 58.6604 99.0073 58.6604C100.058 58.6604 100.321 59.2906 100.321 59.9733V64.5422C100.321 65.5925 100.847 66.3803 101.95 66.3803C102.844 66.3803 103.947 65.6451 103.947 64.3322V59.9733C103.947 59.2906 104.21 58.6604 105.261 58.6604C106.312 58.6604 106.575 59.2906 106.575 59.9733V67.168H106.68Z" fill="#002655"/>
<path opacity="0.95" d="M65.7947 65.7506C65.7947 66.8535 65.8998 67.5362 65.8998 67.9563C65.8998 68.3239 65.4794 68.4815 64.8487 68.534C64.1656 68.5865 63.3773 67.8513 63.4298 67.1686C63.4298 67.1161 63.4298 67.1686 63.4298 67.1686C61.9584 69.2692 57.2288 69.0066 57.2288 65.6981C57.2288 63.3874 59.1732 62.8097 61.9059 62.6522C62.7992 62.5997 63.2196 62.3896 63.2196 61.6544C63.2196 60.9191 62.4314 60.5515 61.538 60.5515C59.8038 60.604 59.9089 61.9695 58.9104 61.9695C58.2272 61.9695 57.8068 61.4968 57.8068 60.9717C57.8068 59.9213 59.0681 58.5559 61.7482 58.5559C64.2707 58.5559 65.6896 59.3962 65.6896 61.2868V65.7506H65.7947ZM63.3247 63.65C63.0094 63.9126 62.5365 64.0176 61.5905 64.1751C60.6446 64.3327 59.9089 64.7003 59.9089 65.4881C59.9089 66.2233 60.7497 66.5909 61.3803 66.5909C62.5365 66.5909 63.3247 65.8557 63.3247 64.7003V63.65Z" fill="#002655"/>
<path opacity="0.95" d="M134.007 65.7506C134.007 66.8535 134.112 67.5362 134.112 67.9563C134.112 68.3239 133.691 68.4815 133.061 68.534C132.378 68.5865 131.589 67.8513 131.642 67.1686C131.642 67.1161 131.642 67.1686 131.642 67.1686C130.17 69.2692 125.441 69.0066 125.441 65.6981C125.441 63.3874 127.385 62.8097 130.118 62.6522C131.011 62.5997 131.432 62.3896 131.432 61.6544C131.432 60.9191 130.643 60.5515 129.75 60.5515C128.016 60.604 128.173 61.9695 127.122 61.9695C126.439 61.9695 126.019 61.4968 126.019 60.9717C126.019 59.9213 127.28 58.5559 129.96 58.5559C132.483 58.5559 133.902 59.3962 133.902 61.2868V65.7506H134.007ZM131.537 63.65C131.274 63.9126 130.748 64.0176 129.802 64.1751C128.857 64.3327 128.121 64.7003 128.121 65.4881C128.121 66.2233 128.962 66.5909 129.592 66.5909C130.748 66.5909 131.537 65.8557 131.537 64.7003V63.65Z" fill="#002655"/>
<path opacity="0.95" d="M72.7316 45.4266C63.4299 45.4266 55.915 37.8643 55.915 28.6214C55.915 19.326 63.4825 11.7637 72.7316 11.7637C77.3561 11.7637 81.6653 13.6017 84.871 16.9103C86.3424 18.4332 86.2899 20.849 84.7659 22.3194C83.2419 23.7899 80.8245 23.7374 79.3531 22.2144C77.6189 20.3763 75.254 19.3785 72.7316 19.3785C67.6866 19.3785 63.535 23.4748 63.535 28.5689C63.535 33.6104 67.634 37.7592 72.7316 37.7592C75.254 37.7592 77.6189 36.7614 79.3531 34.9233C80.8245 33.4004 83.2419 33.3479 84.7659 34.8183C86.2899 36.2888 86.3424 38.7045 84.871 40.2275C81.6653 43.5885 77.3561 45.4266 72.7316 45.4266Z" fill="#002655"/>
<path opacity="0.95" d="M118.346 36.0785C118.346 39.7547 118.714 42.0654 118.714 43.4308C118.714 44.6387 117.295 45.2689 115.298 45.3739C112.513 45.5315 110.411 43.0632 110.569 40.8575C110.569 40.7 110.569 40.805 110.516 40.91C105.629 47.9472 89.8108 47.0544 89.8108 36.026C89.8108 28.3587 96.2746 26.363 105.524 25.7328C108.519 25.5228 109.991 24.8926 109.991 22.3193C109.991 19.7985 107.416 18.5906 104.42 18.6957C98.5344 18.9057 99.0599 23.5272 95.5389 23.5272C93.2792 23.5272 91.8078 21.9517 91.8078 20.1661C91.8078 16.6475 96.0119 12.0786 105.051 12.0786C113.512 12.0786 118.346 14.9145 118.346 21.269V36.0785ZM109.938 28.9889C108.992 29.8816 107.363 30.3018 104.157 30.8269C100.952 31.3521 98.5869 32.56 98.5869 35.1858C98.5869 37.7066 101.425 38.8094 103.474 38.8094C107.363 38.8094 109.938 36.2886 109.938 32.4024V28.9889V28.9889Z" fill="#002655"/>
<path opacity="0.95" d="M167.902 36.0785C167.902 39.7547 168.27 42.0654 168.27 43.4308C168.27 44.6387 166.851 45.2689 164.854 45.3739C162.069 45.5315 159.967 43.0632 160.125 40.8575C160.125 40.7 160.125 40.805 160.072 40.91C155.185 47.9472 139.367 47.0544 139.367 36.026C139.367 28.3587 145.831 26.363 155.08 25.7328C158.075 25.5228 159.547 24.8926 159.547 22.3193C159.547 19.7985 156.972 18.5906 153.976 18.6957C148.09 18.9057 148.616 23.5272 145.095 23.5272C142.835 23.5272 141.364 21.9517 141.364 20.1661C141.364 16.6475 145.568 12.0786 154.607 12.0786C163.068 12.0786 167.902 14.9145 167.902 21.269V36.0785V36.0785ZM159.494 28.9889C158.548 29.8816 156.919 30.3018 153.713 30.8269C150.508 31.3521 148.143 32.56 148.143 35.1858C148.143 37.7066 150.981 38.8094 153.03 38.8094C156.919 38.8094 159.494 36.2886 159.494 32.4024V28.9889Z" fill="#002655"/>
<g opacity="0.95">
<path opacity="0.95" d="M129.645 0.105225C132.325 0.105225 134.479 2.25839 134.479 4.93672C134.479 7.61505 132.325 9.76822 129.645 9.76822C126.965 9.76822 124.81 7.61505 124.81 4.93672C124.81 2.25839 126.965 0.105225 129.645 0.105225Z" fill="#002655"/>
<path opacity="0.95" d="M129.592 12.499C126.071 12.499 125.02 14.4946 125.02 17.1205V17.2255V43.221C125.02 49.5755 121.184 47.895 120.658 49.9431C119.975 52.8315 122.918 53.8818 124.81 53.8818C131.116 53.8293 134.112 48.6302 134.112 43.2736V17.173V17.1205C134.164 14.5472 133.113 12.499 129.592 12.499Z" fill="#002655"/>
</g>
<path opacity="0.95" d="M110.884 58.6084C109.833 58.6084 109.57 59.1861 109.57 59.9738V62.4946V64.7003V67.0635C109.57 67.8513 109.885 68.4289 110.884 68.4289C111.935 68.4289 112.198 67.8513 112.198 67.0635V64.7003V62.4946V59.9738C112.198 59.1861 111.882 58.6084 110.884 58.6084Z" fill="#002655"/>
<g opacity="0.95">
<path opacity="0.95" d="M110.884 54.9319C111.672 54.9319 112.303 55.5621 112.303 56.3498C112.303 57.1376 111.672 57.7678 110.884 57.7678C110.096 57.7678 109.465 57.1376 109.465 56.3498C109.465 55.5621 110.096 54.9319 110.884 54.9319Z" fill="#002655"/>
</g>
<path d="M1.6291 43.9036C0.578068 41.3303 0 38.4944 0 35.501C0 33.8204 0.210206 32.1924 0.525516 30.6169C2.78524 33.3478 6.20109 35.0808 10.0374 35.0808C10.195 35.0808 10.3527 35.0808 10.4578 35.0808C10.4578 35.2384 10.4578 35.3959 10.4578 35.501C10.4578 39.3346 12.192 42.6957 14.9247 45.0064C13.3481 45.374 11.719 45.5316 10.0374 45.5316C7.04192 45.5316 4.20413 44.9539 1.6291 43.9036Z" fill="#56884D"/>
<path d="M43.9331 43.9036C44.9842 41.3303 45.5622 38.4944 45.5622 35.501C45.5622 33.8204 45.4046 32.1924 45.0367 30.6169C42.777 33.3478 39.3611 35.0808 35.5249 35.0808C35.3672 35.0808 35.2096 35.0808 35.1045 35.0808C35.1045 35.2384 35.1045 35.3959 35.1045 35.501C35.1045 39.3346 33.3703 42.6957 30.6376 45.0064C32.2141 45.374 33.8432 45.5316 35.5249 45.5316C38.5203 45.5316 41.3581 44.9539 43.9331 43.9036Z" fill="#477E9F"/>
<path d="M10.4577 35.0283C10.4577 35.0808 10.4577 35.0808 10.4577 35.0283C10.3001 35.0808 10.1424 35.0808 10.0373 35.0808C6.20103 35.0808 2.83772 33.3478 0.578003 30.6169C1.20862 27.7285 2.36476 25.1027 3.99386 22.7395C4.88723 24.0524 5.88572 25.2603 7.04185 26.3631C7.40971 26.7307 7.77757 27.0458 8.25054 27.3084C8.40819 27.3609 8.5133 27.466 8.67095 27.5185C8.67095 27.5185 8.67095 27.5185 8.7235 27.5185C8.88116 27.571 8.98626 27.6235 9.14391 27.676H9.19647C9.35412 27.7285 9.45922 27.7285 9.61688 27.7811C9.66943 27.7811 9.66943 27.7811 9.72198 27.7811C9.87964 27.8336 9.98474 27.8336 10.1424 27.8336C10.1949 27.8336 10.2475 27.8336 10.2475 27.8336C10.4052 27.8336 10.6154 27.8861 10.773 27.8861C12.1394 27.8861 13.4006 27.3609 14.3465 26.4682C12.0343 28.7264 10.4577 31.7198 10.4577 35.0283Z" fill="#67B6B7"/>
<path d="M35.1045 35.0283C35.1045 35.0808 35.1045 35.0808 35.1045 35.0283C35.2621 35.0808 35.4198 35.0808 35.5249 35.0808C39.3611 35.0808 42.7244 33.3478 44.9842 30.6169C44.3535 27.7285 43.1974 25.1027 41.5683 22.7395C40.6749 24.0524 39.6764 25.2603 38.5203 26.3631C38.2576 26.7833 37.8371 27.0458 37.3642 27.3084C37.2065 27.3609 37.1014 27.466 36.9438 27.5185C36.9438 27.5185 36.9438 27.5185 36.8912 27.5185C36.7336 27.571 36.6285 27.6235 36.4708 27.676H36.4182C36.2606 27.7811 36.1555 27.8336 35.9978 27.8336C35.9453 27.8336 35.9453 27.8336 35.8927 27.8336C35.7351 27.8861 35.63 27.8861 35.4723 27.8861C35.4198 27.8861 35.3672 27.8861 35.3672 27.8861C35.2096 27.8861 34.9994 27.9386 34.8417 27.9386C33.4754 27.9386 32.2141 27.4134 31.2682 26.5207C33.5279 28.7264 35.1045 31.7198 35.1045 35.0283Z" fill="#67B6B7"/>
<path d="M1.6291 1.628C0.578068 4.2013 0 7.03718 0 10.0306C0 11.7111 0.210206 13.3391 0.525516 14.9146C2.78524 12.1838 6.20109 10.4507 10.0374 10.4507C10.195 10.4507 10.3527 10.4507 10.4578 10.4507C10.4578 10.2932 10.4578 10.1356 10.4578 10.0306C10.4578 6.19692 12.192 2.83588 14.9247 0.525163C13.3481 0.157549 11.719 0 10.0374 0C7.04192 0 4.20413 0.577679 1.6291 1.628Z" fill="#757844"/>
<path d="M10.5103 35.0808C10.4578 35.0808 10.4578 35.0808 10.5103 35.0808C10.4578 35.2383 10.4578 35.3959 10.4578 35.5009C10.4578 39.3346 12.192 42.6956 14.9247 44.9538C17.815 44.3236 20.4426 43.1683 22.8074 41.5403C21.4936 40.6475 20.2849 39.6497 19.1813 38.4943C18.8135 38.1267 18.4982 37.7591 18.2354 37.2865C18.1829 37.1289 18.0777 37.0239 18.0252 36.8663C18.0252 36.8663 18.0252 36.8663 18.0252 36.8138C17.9726 36.6563 17.9201 36.5512 17.8675 36.3937V36.3412C17.815 36.1836 17.815 36.0786 17.7624 35.921C17.7624 35.8685 17.7624 35.8685 17.7624 35.816C17.7099 35.6585 17.7099 35.5534 17.7099 35.3959C17.7099 35.3434 17.7099 35.2908 17.7099 35.2908C17.7099 35.1333 17.6573 34.9232 17.6573 34.7657C17.6573 33.4003 18.1829 32.1399 19.0762 31.1946C16.8165 33.5053 13.8211 35.0808 10.5103 35.0808Z" fill="#E4A649"/>
<path d="M10.5103 10.4507C10.4578 10.4507 10.4578 10.4507 10.5103 10.4507C10.4578 10.2931 10.4578 10.1356 10.4578 10.0306C10.4578 6.19688 12.192 2.83584 14.9247 0.577637C17.815 1.20783 20.4426 2.36319 22.8074 3.99119C21.4936 4.88397 20.2849 5.88178 19.1813 7.03714C18.8135 7.40475 18.4982 7.77236 18.2354 8.24501C18.1829 8.40256 18.0777 8.50759 18.0252 8.66514C18.0252 8.66514 18.0252 8.66514 18.0252 8.71766C17.9726 8.87521 17.9201 8.98024 17.8675 9.13779V9.1903C17.815 9.34785 17.815 9.45288 17.7624 9.61043C17.7624 9.66295 17.7624 9.66295 17.7624 9.71547C17.7099 9.87302 17.7099 9.97805 17.7099 10.1356C17.7099 10.1881 17.7099 10.2406 17.7099 10.2406C17.7099 10.3982 17.6573 10.6082 17.6573 10.7658C17.6573 12.1312 18.1829 13.3916 19.0762 14.3369C16.8165 12.0262 13.8211 10.4507 10.5103 10.4507Z" fill="#E4A649"/>
<path d="M27.327 37.3393C27.4321 37.1817 27.4846 37.0242 27.5372 36.9191C27.5372 36.9191 27.5372 36.9191 27.5372 36.8666C27.5897 36.7091 27.6423 36.604 27.6948 36.4465V36.394C27.7474 36.2364 27.7474 36.1314 27.7999 35.9739C27.7999 35.9213 27.7999 35.9213 27.8525 35.8688C27.905 35.7113 27.905 35.6062 27.905 35.4487C27.905 35.3962 27.905 35.3437 27.905 35.3437C27.905 35.1861 27.9576 34.976 27.9576 34.8185C27.9576 31.9301 25.6453 29.6194 22.755 29.6194C19.8646 29.6194 17.5524 31.9301 17.5524 34.8185C17.5524 34.976 17.5524 35.1861 17.6049 35.3437C17.6049 35.3962 17.6049 35.3962 17.6049 35.4487C17.6049 35.6062 17.6575 35.7638 17.6575 35.8688V35.9213C17.71 36.0789 17.71 36.2364 17.7626 36.3415V36.394C17.8151 36.5515 17.8677 36.7091 17.9202 36.8141C18.183 37.4443 18.6034 38.022 19.0764 38.4946C20.1799 39.65 21.3886 40.6478 22.7024 41.5406C24.0162 40.6478 25.2249 39.65 26.3285 38.4946C26.7489 38.1795 27.0642 37.8119 27.327 37.3393Z" fill="#C42228"/>
<path d="M27.9577 10.1882C27.9577 10.1356 27.9577 10.0831 27.9577 10.0831C27.9577 9.92558 27.9051 9.82054 27.9051 9.66299C27.9051 9.61048 27.9051 9.61048 27.8525 9.55796C27.8 9.40041 27.8 9.29538 27.7474 9.13783C27.7474 9.13783 27.7474 9.08531 27.6949 9.08531C27.6423 8.92777 27.5898 8.82273 27.5372 8.66518C27.5372 8.66518 27.5372 8.66518 27.5372 8.61267C27.4847 8.45512 27.3796 8.29757 27.327 8.19254C27.0643 7.71989 26.749 7.35228 26.3811 6.98466C25.2775 5.82931 24.0688 4.8315 22.755 3.93872C21.4412 4.8315 20.2326 5.82931 19.129 6.98466C18.656 7.45731 18.2356 8.03499 17.9728 8.66518C17.9203 8.82273 17.8677 8.98028 17.8152 9.08531V9.13783C17.7626 9.29538 17.7101 9.40041 17.7101 9.55796C17.7101 9.61048 17.7101 9.61048 17.7101 9.66299C17.6575 9.82054 17.6575 9.97809 17.6575 10.0831C17.6575 10.1356 17.6575 10.1356 17.6575 10.1882C17.6575 10.3457 17.605 10.5558 17.605 10.7133C17.605 13.6017 19.9173 15.9124 22.8076 15.9124C25.6979 15.9124 28.0102 13.6017 28.0102 10.7133C28.0102 10.5558 28.0102 10.3457 27.9577 10.1882Z" fill="#C42228"/>
<path d="M43.9331 1.628C44.9842 4.25382 45.5622 7.03718 45.5622 10.0306C45.5622 11.7111 45.4046 13.3391 45.0367 14.9146C42.777 12.1838 39.3611 10.4507 35.5249 10.4507C35.3672 10.4507 35.2096 10.4507 35.1045 10.4507C35.1045 10.2932 35.1045 10.1356 35.1045 10.0306C35.1045 6.19692 33.3703 2.83588 30.6376 0.525163C32.2141 0.157549 33.8432 0 35.5249 0C38.5203 0 41.3581 0.577679 43.9331 1.628Z" fill="#9C6F4B"/>
<path d="M35.052 35.0808C35.1045 35.0808 35.1045 35.0808 35.052 35.0808C35.1045 35.2383 35.1045 35.3959 35.1045 35.5009C35.1045 39.3346 33.3703 42.6956 30.6376 44.9538C27.7473 44.3236 25.1197 43.1683 22.7549 41.5403C24.0687 40.6475 25.2774 39.6497 26.3809 38.4943C26.7488 38.1267 27.0641 37.7591 27.3269 37.2865C27.3794 37.1289 27.4845 37.0239 27.5371 36.8663C27.5371 36.8663 27.5371 36.8663 27.5371 36.8138C27.5896 36.6563 27.6422 36.5512 27.6947 36.3937C27.6947 36.3937 27.6947 36.3412 27.7473 36.3412C27.7998 36.1836 27.7998 36.0786 27.8524 35.921C27.8524 35.8685 27.8524 35.8685 27.9049 35.816C27.9575 35.6585 27.9575 35.5534 27.9575 35.3959C27.9575 35.3434 27.9575 35.2908 27.9575 35.2908C27.9575 35.1333 28.01 34.9232 28.01 34.7657C28.01 33.4003 27.4845 32.1399 26.5912 31.1946C28.7458 33.5053 31.7412 35.0808 35.052 35.0808Z" fill="#D56F65"/>
<path d="M35.052 10.4507C35.1045 10.4507 35.1045 10.4507 35.052 10.4507C35.1045 10.2931 35.1045 10.1356 35.1045 10.0306C35.1045 6.19688 33.3703 2.83584 30.6376 0.577637C27.7473 1.20783 25.1197 2.36319 22.7549 3.99119C24.0687 4.88397 25.2774 5.88178 26.3809 7.03714C26.7488 7.40475 27.0641 7.77236 27.3269 8.24501C27.3794 8.40256 27.4845 8.50759 27.5371 8.66514C27.5371 8.66514 27.5371 8.66514 27.5371 8.71766C27.5896 8.87521 27.6422 8.98024 27.6947 9.13779C27.6947 9.13779 27.6947 9.1903 27.7473 9.1903C27.7998 9.34785 27.7998 9.45288 27.8524 9.61043C27.8524 9.66295 27.8524 9.66295 27.9049 9.71547C27.9575 9.87302 27.9575 9.97805 27.9575 10.1356C27.9575 10.1881 27.9575 10.2406 27.9575 10.2406C27.9575 10.3982 28.01 10.6082 28.01 10.7658C28.01 12.1312 27.4845 13.3916 26.5912 14.3369C28.7458 12.0262 31.7412 10.4507 35.052 10.4507Z" fill="#D56F65"/>
<path d="M10.4577 10.5032C10.4577 10.4507 10.4577 10.4507 10.4577 10.5032C10.3001 10.4507 10.1424 10.4507 10.0373 10.4507C6.20103 10.4507 2.83772 12.1837 0.578003 14.9146C1.20862 17.803 2.36476 20.4288 3.99386 22.792C4.88723 21.4791 5.88572 20.2712 7.04185 19.1684C7.40971 18.8008 7.77757 18.4857 8.25054 18.2231C8.40819 18.1706 8.5133 18.0655 8.67095 18.013C8.67095 18.013 8.67095 18.013 8.7235 18.013C8.88116 17.9605 8.98626 17.908 9.14391 17.8555H9.19647C9.35412 17.803 9.45922 17.803 9.61688 17.7504C9.66943 17.7504 9.66943 17.7504 9.72198 17.6979C9.87964 17.6454 9.98474 17.6454 10.1424 17.6454C10.1949 17.6454 10.2475 17.6454 10.2475 17.6454C10.4052 17.6454 10.6154 17.5929 10.773 17.5929C12.1394 17.5929 13.4006 18.1181 14.3465 19.0108C12.0343 16.8052 10.4577 13.8117 10.4577 10.5032Z" fill="#9CC352"/>
<path d="M35.1044 10.5032C35.1044 10.4507 35.1044 10.4507 35.1044 10.5032C35.2621 10.4507 35.4197 10.4507 35.5248 10.4507C39.3611 10.4507 42.7244 12.1837 44.9841 14.9146C44.3535 17.803 43.1973 20.4288 41.5682 22.792C40.6749 21.4791 39.6764 20.2712 38.5203 19.1684C38.1524 18.8008 37.7845 18.4857 37.3116 18.2231C37.1539 18.1706 37.0488 18.0655 36.8911 18.013C36.8911 18.013 36.8911 18.013 36.8386 18.013C36.6809 17.9605 36.5758 17.908 36.4182 17.8555H36.3656C36.208 17.803 36.1029 17.803 35.9452 17.7504C35.8927 17.7504 35.8927 17.7504 35.8401 17.6979C35.6825 17.6454 35.5774 17.6454 35.4197 17.6454C35.3672 17.6454 35.3146 17.6454 35.3146 17.6454C35.1569 17.6454 34.9467 17.5929 34.7891 17.5929C33.4227 17.5929 32.1615 18.1181 31.2156 19.0108C33.5278 16.8052 35.1044 13.8117 35.1044 10.5032Z" fill="#9CC352"/>
<path d="M10.7206 17.5405C10.5104 17.5405 10.3527 17.5405 10.195 17.593C10.1425 17.593 10.0899 17.593 10.0899 17.593C9.93229 17.593 9.82719 17.6456 9.66953 17.6456C9.61698 17.6456 9.61698 17.6456 9.56443 17.6456C9.40677 17.6981 9.30167 17.6981 9.14402 17.7506H9.09146C8.93381 17.8031 8.82871 17.8556 8.67105 17.9081C8.67105 17.9081 8.67105 17.9081 8.6185 17.9081C8.46084 17.9607 8.30319 18.0657 8.19809 18.1182C7.72512 18.3808 7.35726 18.6959 6.9894 19.0635C5.83326 20.1663 4.83478 21.3742 3.94141 22.6871C4.83478 24 5.83326 25.2079 6.9894 26.3107C7.35726 26.6784 7.72512 26.9935 8.19809 27.256C8.35574 27.3086 8.46084 27.4136 8.6185 27.4661C8.6185 27.4661 8.6185 27.4661 8.67105 27.4661C8.82871 27.5186 8.93381 27.5711 9.09146 27.6236H9.14402C9.30167 27.6762 9.40677 27.6762 9.56443 27.7287C9.61698 27.7287 9.61698 27.7287 9.66953 27.7287C9.82719 27.7812 9.93229 27.7812 10.0899 27.7812C10.1425 27.7812 10.195 27.7812 10.195 27.7812C10.3527 27.7812 10.5629 27.8337 10.7206 27.8337C13.6109 27.8337 15.9232 25.523 15.9232 22.6346C15.9232 19.7462 13.6109 17.5405 10.7206 17.5405Z" fill="#618B4C"/>
<path d="M41.6209 22.7396C40.7275 21.4267 39.7291 20.2189 38.5729 19.116C38.2051 18.7484 37.8372 18.4333 37.3642 18.1707C37.2066 18.1182 37.1015 18.0132 36.9438 17.9607C36.9438 17.9607 36.9438 17.9607 36.8913 17.9607C36.7336 17.9081 36.6285 17.8556 36.4709 17.8031H36.4183C36.3132 17.7506 36.1556 17.7506 35.9979 17.6981C35.9454 17.6981 35.9454 17.6981 35.8928 17.6456C35.7877 17.593 35.63 17.593 35.4724 17.593C35.4198 17.593 35.3673 17.593 35.3673 17.593C35.2096 17.593 34.9994 17.5405 34.8418 17.5405C31.9514 17.5405 29.6392 19.8512 29.6392 22.7396C29.6392 25.628 31.9514 27.9387 34.8418 27.9387C34.9994 27.9387 35.2096 27.9387 35.3673 27.8862C35.4198 27.8862 35.4724 27.8862 35.4724 27.8862C35.63 27.8862 35.7351 27.8337 35.8928 27.8337C35.9454 27.8337 35.9454 27.8337 35.9979 27.7812C36.1556 27.7287 36.2607 27.7287 36.4183 27.6762H36.4709C36.6285 27.6236 36.7336 27.5711 36.8913 27.5186C36.8913 27.5186 36.8913 27.5186 36.9438 27.5186C37.1015 27.4661 37.2066 27.3611 37.3642 27.3086C37.7847 27.046 38.2051 26.7309 38.5729 26.3633C39.7291 25.3129 40.7275 24.0525 41.6209 22.7396Z" fill="#618B4C"/>
</svg>
