<svg width="22" height="22" viewBox="0 0 22 22" fill="none" xmlns="http://www.w3.org/2000/svg">
<path d="M16.6609 9.08611C15.7493 9.99772 14.2745 9.99772 13.3629 9.08611C12.4513 8.1745 12.4513 6.69974 13.3629 5.78813C14.2745 4.87652 17.4854 4.96364 17.4854 4.96364C17.4854 4.96364 17.5725 8.1745 16.6609 9.08611Z" stroke="white" stroke-width="0.62226" stroke-miterlimit="10" stroke-linecap="round" stroke-linejoin="round"/>
<path d="M11.8881 12.1819C11.8881 12.1819 11.885 12.1819 11.8881 12.1819C11.885 11.1894 12.1495 10.2342 12.6473 9.42214C12.9148 8.98344 13.2509 8.58831 13.6429 8.25229C14.0598 7.89138 14.5452 7.59269 15.0865 7.36246H15.0896C15.0896 7.36246 15.0896 7.36557 15.0865 7.36557C14.5483 7.5958 14.0629 7.89449 13.646 8.25229C13.254 8.59142 12.9211 8.98344 12.6535 9.42214C12.1557 10.2373 11.8912 11.1894 11.8881 12.1819ZM11.8881 12.1819C11.8912 12.1819 11.8912 12.1819 11.8881 12.1819Z" stroke="white" stroke-width="0.62226" stroke-miterlimit="10" stroke-linecap="round" stroke-linejoin="round"/>
<path d="M7.11531 8.12471C8.02692 9.03632 9.50168 9.03632 10.4133 8.12471C11.3249 7.2131 11.3249 5.73835 10.4133 4.82674C9.50168 3.91513 6.29082 4.00224 6.29082 4.00224C6.29082 4.00224 6.2037 7.2131 7.11531 8.12471Z" stroke="white" stroke-width="0.62226" stroke-miterlimit="10" stroke-linecap="round" stroke-linejoin="round"/>
<path d="M11.8879 12.1819C11.8879 12.1819 11.8848 12.1819 11.8879 12.1819L11.8848 11.2174C11.8848 10.228 11.6203 9.27591 11.1256 8.46386C10.858 8.02517 10.522 7.63315 10.1331 7.29402C9.71618 6.93311 9.23082 6.63442 8.69256 6.4073L8.68945 6.40418C8.68945 6.40418 8.69256 6.40107 8.69256 6.40418C9.23082 6.63442 9.71618 6.93311 10.1362 7.29402C10.5282 7.63315 10.8611 8.02517 11.1318 8.46386C11.6296 9.27902 11.8941 10.2311 11.8941 11.2205L11.8879 12.1819ZM11.8879 12.1819C11.891 12.1819 11.891 12.1819 11.8879 12.1819Z" stroke="white" stroke-width="0.62226" stroke-miterlimit="10" stroke-linecap="round" stroke-linejoin="round"/>
<path d="M5.30762 13.0748C6.11344 12.269 7.22729 11.6094 8.45936 11.6094C9.26519 11.6094 9.77544 11.7867 10.2764 12.0325H14.1375C14.6633 12.0325 15.0927 12.4619 15.0927 12.9877C15.0927 13.5135 14.6633 13.9428 14.1375 13.9428H11.6453H14.1375C14.6633 13.9428 15.0927 13.5135 15.0927 12.9877L16.8381 11.2422C17.2083 10.872 17.8181 10.872 18.1884 11.2422C18.5586 11.6125 18.5586 12.2223 18.1884 12.5925L15.4878 15.2931C15.1424 15.6385 14.6633 15.8532 14.1375 15.8532H9.36164C9.01006 15.8532 8.69271 15.9963 8.46247 16.2265L5.30762 13.0748Z" stroke="white" stroke-width="0.62226" stroke-miterlimit="10" stroke-linecap="round" stroke-linejoin="round"/>
<path d="M8.32247 17.2626L7.82777 17.7573C7.5042 18.0809 6.97839 18.0809 6.65481 17.7573L3.77686 14.8793C3.45329 14.5558 3.45329 14.0299 3.77686 13.7064L4.27156 13.2117C4.59513 12.8881 5.12094 12.8881 5.44452 13.2117L8.32247 16.0896C8.64604 16.4132 8.64604 16.939 8.32247 17.2626Z" stroke="white" stroke-width="0.62226" stroke-miterlimit="10" stroke-linecap="round" stroke-linejoin="round"/>
</svg>
