<svg width="48" height="48" viewBox="0 0 48 48" fill="none" xmlns="http://www.w3.org/2000/svg">
<path opacity="0.95" d="M24.8238 8.94385C25.6477 8.94385 26.2361 9.53012 26.2361 10.3509C26.2361 11.1717 25.6477 11.758 24.8238 11.758C14.7022 11.8752 11.5245 18.4415 10.7007 21.1383C10.4653 21.7246 10.4653 22.1936 10.4653 22.1936C10.3476 22.8972 9.75912 23.3662 9.05297 23.3662H5.52218C4.69833 23.3662 4.10986 22.7799 4.10986 21.9591C4.10986 21.1383 4.69833 20.5521 5.52218 20.5521H7.87604C7.87604 20.4348 7.87604 20.4348 7.99373 20.3176C8.81758 17.6207 12.5838 9.0611 24.8238 8.94385ZM40.8301 28.8772C42.4778 28.8772 43.8901 27.4701 43.8901 25.8285V21.8419C43.8901 20.2003 42.4778 18.7932 40.8301 18.7932H40.5947C39.6531 16.6827 38.2408 14.6893 36.4754 13.165C36.24 12.3442 36.4754 11.4062 37.0639 10.4682C37.5347 9.64738 37.5347 8.70934 37.0639 7.88856C36.5931 7.06777 35.6516 6.71601 34.71 6.83326C31.4146 7.18503 29.5315 8.94385 28.7077 10.3509C28.2369 10.9372 28.4723 11.8752 29.0608 12.3442C29.6492 12.8133 30.5908 12.5787 31.0615 11.9925C31.7677 10.9372 32.8269 10.2337 34.2393 9.88189C33.5331 11.2889 33.4154 12.696 33.7685 14.1031C33.7685 14.4548 34.0039 14.9238 34.2393 15.1584C36.1223 16.6827 37.5347 18.676 38.2408 20.7866C38.4762 21.3729 39.0647 21.8419 39.6531 21.7246H40.8301C40.9478 21.7246 41.0654 21.8419 41.0654 21.9591V26.063C41.0654 26.1803 40.9478 26.2976 40.8301 26.2976H39.6531C39.0647 26.2976 38.4762 26.6493 38.3585 27.3528C37.77 29.3462 36.4754 31.2223 34.8277 32.7466C34.71 32.7466 34.71 32.8638 34.5923 32.8638C32.4739 34.7399 32.2385 36.9677 32.2385 37.6713V38.492H27.7661V36.9677C27.7661 36.616 27.6485 36.1469 27.2954 35.9124C26.9423 35.6779 26.5892 35.5607 26.2361 35.5607C24.9415 35.6779 23.5292 35.6779 22.2346 35.5607C21.8815 35.5607 21.4107 35.6779 21.0576 35.9124C20.7046 36.1469 20.5869 36.4987 20.5869 36.9677V38.6093H16.2322C16.2322 37.554 15.8792 34.9744 13.7607 32.8638C12.8191 31.9258 12.113 30.7532 11.4068 29.2289C11.0537 28.4081 10.7007 27.5874 10.4653 26.7666C10.3476 26.4148 10.2299 26.1803 9.87682 25.9458C9.40605 25.594 8.69989 25.594 8.22912 25.9458C7.87604 26.1803 7.64065 26.7666 7.75834 27.2356C7.99373 28.2909 8.34681 29.3462 8.93527 30.2842C9.75912 32.043 10.7007 33.4501 11.8776 34.6226C13.2899 36.0297 13.5253 37.7885 13.5253 38.492V38.8438C13.5253 38.8438 13.5253 38.8438 13.5253 38.9611V39.0783C13.643 40.2509 14.7022 41.1889 15.8792 41.1889H21.293C22.5877 41.1889 23.6469 40.1336 23.6469 38.8438V38.2575C24.1177 38.2575 24.5884 38.2575 25.1769 38.2575V38.8438C25.1769 40.1336 26.2361 41.1889 27.5308 41.1889H32.9446C34.2393 41.1889 35.2985 40.1336 35.2985 38.8438V37.554C35.2985 37.3195 35.4162 36.0297 36.7108 34.8571C36.8285 34.8571 36.8285 34.7399 36.9462 34.7399C36.9462 34.7399 36.9462 34.7399 37.0639 34.6226C38.8293 32.9811 40.2416 31.105 41.0654 28.9944H41.1831V28.8772H40.8301ZM33.6508 21.1383C34.4746 21.1383 35.1808 20.4348 35.1808 19.614C35.1808 18.7932 34.4746 18.0897 33.6508 18.0897C32.8269 18.0897 32.1208 18.7932 32.1208 19.614C32.0031 20.5521 32.7092 21.1383 33.6508 21.1383Z" fill="#002655"/>
</svg>
