<svg width="22" height="22" viewBox="0 0 22 22" fill="none" xmlns="http://www.w3.org/2000/svg">
<path d="M16.6606 9.08614C15.749 9.99775 14.2743 9.99775 13.3627 9.08614C12.4511 8.17453 12.4511 6.69977 13.3627 5.78816C14.2743 4.87655 17.4851 4.96367 17.4851 4.96367C17.4851 4.96367 17.5722 8.17453 16.6606 9.08614Z" stroke="#002655" stroke-width="0.62226" stroke-miterlimit="10" stroke-linecap="round" stroke-linejoin="round"/>
<path d="M11.8879 12.182C11.8879 12.182 11.8848 12.182 11.8879 12.182C11.8848 11.1894 12.1493 10.2343 12.6471 9.42223C12.9146 8.98354 13.2507 8.5884 13.6427 8.25238C14.0596 7.89147 14.545 7.59278 15.0863 7.36255H15.0894C15.0894 7.36255 15.0894 7.36566 15.0863 7.36566C14.5481 7.5959 14.0627 7.89458 13.6458 8.25238C13.2538 8.59151 12.9209 8.98354 12.6533 9.42223C12.1555 10.2374 11.891 11.1894 11.8879 12.182ZM11.8879 12.182C11.891 12.182 11.891 12.182 11.8879 12.182Z" stroke="#002655" stroke-width="0.62226" stroke-miterlimit="10" stroke-linecap="round" stroke-linejoin="round"/>
<path d="M7.11519 8.12471C8.0268 9.03632 9.50156 9.03632 10.4132 8.12471C11.3248 7.2131 11.3248 5.73835 10.4132 4.82674C9.50156 3.91513 6.2907 4.00224 6.2907 4.00224C6.2907 4.00224 6.20358 7.2131 7.11519 8.12471Z" stroke="#002655" stroke-width="0.62226" stroke-miterlimit="10" stroke-linecap="round" stroke-linejoin="round"/>
<path d="M11.8879 12.1819C11.8879 12.1819 11.8848 12.1819 11.8879 12.1819L11.8848 11.2174C11.8848 10.228 11.6204 9.27594 11.1257 8.46389C10.8581 8.0252 10.5221 7.63318 10.1332 7.29405C9.71624 6.93314 9.23088 6.63445 8.69263 6.40733L8.68951 6.40421C8.68951 6.40421 8.69263 6.4011 8.69263 6.40421C9.23088 6.63445 9.71624 6.93314 10.1363 7.29405C10.5283 7.63318 10.8612 8.0252 11.1319 8.46389C11.6297 9.27906 11.8942 10.2311 11.8942 11.2205L11.8879 12.1819ZM11.8879 12.1819C11.891 12.1819 11.891 12.1819 11.8879 12.1819Z" stroke="#002655" stroke-width="0.62226" stroke-miterlimit="10" stroke-linecap="round" stroke-linejoin="round"/>
<path d="M5.3075 13.0748C6.11332 12.269 7.22717 11.6094 8.45924 11.6094C9.26507 11.6094 9.77532 11.7868 10.2762 12.0326H14.1374C14.6632 12.0326 15.0925 12.4619 15.0925 12.9877C15.0925 13.5135 14.6632 13.9429 14.1374 13.9429H11.6452H14.1374C14.6632 13.9429 15.0925 13.5135 15.0925 12.9877L16.838 11.2423C17.2082 10.872 17.818 10.872 18.1883 11.2423C18.5585 11.6125 18.5585 12.2223 18.1883 12.5926L15.4877 15.2932C15.1423 15.6385 14.6632 15.8532 14.1374 15.8532H9.36152C9.00994 15.8532 8.69259 15.9963 8.46235 16.2266L5.3075 13.0748Z" stroke="#002655" stroke-width="0.62226" stroke-miterlimit="10" stroke-linecap="round" stroke-linejoin="round"/>
<path d="M8.32235 17.2626L7.82765 17.7573C7.50407 18.0809 6.97826 18.0809 6.65469 17.7573L3.77674 14.8793C3.45316 14.5558 3.45316 14.0299 3.77674 13.7064L4.27144 13.2117C4.59501 12.8881 5.12082 12.8881 5.44439 13.2117L8.32235 16.0896C8.64592 16.4132 8.64592 16.939 8.32235 17.2626Z" stroke="#002655" stroke-width="0.62226" stroke-miterlimit="10" stroke-linecap="round" stroke-linejoin="round"/>
</svg>
