<svg width="22" height="22" viewBox="0 0 22 22" fill="none" xmlns="http://www.w3.org/2000/svg">
<g clip-path="url(#clip0_7_9941)">
<path d="M7.32938 20.0358C7.32938 20.3398 7.08992 20.5858 6.79408 20.5858C6.49825 20.5858 6.25879 20.3398 6.25879 20.0358C6.25879 19.7319 6.49825 19.4858 6.79408 19.4858C7.08992 19.4858 7.32938 19.7319 7.32938 20.0358Z" fill="#002655"/>
<path d="M13.8294 11.9431C13.8294 12.247 13.5899 12.4931 13.2941 12.4931C12.9983 12.4931 12.7588 12.247 12.7588 11.9431C12.7588 11.6391 12.9983 11.3931 13.2941 11.3931C13.5899 11.3931 13.8294 11.6391 13.8294 11.9431Z" fill="#002655"/>
<path d="M13.8294 2.1999C13.8294 2.50386 13.5899 2.7499 13.2941 2.7499C12.9983 2.7499 12.7588 2.50386 12.7588 2.1999C12.7588 1.89594 12.9983 1.6499 13.2941 1.6499C13.5899 1.6499 13.8294 1.89594 13.8294 2.1999Z" fill="#002655"/>
<path d="M5.64706 22H12.5294C13.1617 22 13.6765 21.4711 13.6765 20.8214V19.25C13.6765 18.6003 13.1617 18.0714 12.5294 18.0714H12.3835C12.9725 17.2166 13.2941 16.2001 13.2941 15.1315V14.1429H17.1176C17.3287 14.1429 17.5 13.9669 17.5 13.75V0.392857C17.5 0.176 17.3287 0 17.1176 0H9.47059C9.25953 0 9.08824 0.176 9.08824 0.392857V7.30176L5.91798 10.5591C5.54568 10.9416 5.26471 11.638 5.26471 12.1786V18.1437C4.8203 18.3062 4.5 18.7386 4.5 19.25V20.8214C4.5 21.4716 5.01476 22 5.64706 22ZM16.7353 13.3571H15.7084C15.8828 12.8678 16.259 12.4812 16.7353 12.302V13.3571ZM16.7353 0.785714V1.84082C16.259 1.66167 15.8828 1.2751 15.7084 0.785714H16.7353ZM9.85294 0.785714H10.8798C10.7055 1.2751 10.3292 1.66167 9.85294 1.84082V0.785714ZM9.85294 2.50082C10.6675 2.28216 11.3098 1.62216 11.5231 0.785714H15.0661C15.2784 1.62261 15.9212 2.28261 16.7362 2.50082V11.6416C15.9216 11.8598 15.2793 12.5202 15.0661 13.3567H10.7667C10.8117 13.2741 10.8658 13.1942 10.9366 13.1219L12.061 11.9676C12.5486 11.4665 12.5486 10.6507 12.061 10.1492C11.5724 9.64812 10.7802 9.64812 10.2921 10.1492L9.85294 10.5986V2.50082ZM6.02941 12.1786C6.02941 11.8468 6.22998 11.3498 6.45852 11.1145L9.08824 8.41253V11.3668H9.10571L7.56713 12.9486C7.41812 13.1017 7.41812 13.3509 7.56713 13.504C7.71613 13.6571 7.95866 13.6571 8.10766 13.504L10.8318 10.7046C11.0223 10.5088 11.3304 10.5106 11.5191 10.7046C11.6109 10.7989 11.6611 10.9246 11.6611 11.0584C11.6611 11.1922 11.6113 11.3174 11.5191 11.4122L10.3948 12.5665C9.98185 12.9908 9.77691 13.6571 9.90713 14.1491C9.9517 14.3175 9.97355 14.4895 9.97355 14.6601C9.97355 15.1356 9.81361 15.5895 9.51079 15.9707C9.37708 16.139 9.40155 16.3864 9.56585 16.5238C9.63708 16.5835 9.72185 16.6118 9.80662 16.6118C9.91761 16.6118 10.0277 16.5624 10.1033 16.4672C10.5185 15.9433 10.7378 15.3183 10.7378 14.6601C10.7378 14.4872 10.7164 14.3153 10.6841 14.1429H12.5285V15.1306C12.5285 16.2347 12.1187 17.2678 11.3885 18.0705H6.02897L6.02941 12.1786ZM5.26471 19.25C5.26471 19.0331 5.43687 18.8571 5.64706 18.8571H12.5294C12.7396 18.8571 12.9118 19.0331 12.9118 19.25V20.8214C12.9118 21.0383 12.7396 21.2143 12.5294 21.2143H5.64706C5.43687 21.2143 5.26471 21.0383 5.26471 20.8214V19.25Z" fill="#002655"/>
<path d="M13.2941 10.1359C14.938 10.1359 16.2765 8.76112 16.2765 7.07161C16.2765 5.3821 14.9385 4.00732 13.2941 4.00732C11.6498 4.00732 10.3118 5.38255 10.3118 7.07161C10.3118 8.76067 11.6498 10.1359 13.2941 10.1359ZM13.2941 4.6359C14.6011 4.6359 15.6647 5.72871 15.6647 7.07161C15.6647 8.41451 14.6011 9.50732 13.2941 9.50732C11.9871 9.50732 10.9235 8.41451 10.9235 7.07161C10.9235 5.72871 11.9871 4.6359 13.2941 4.6359Z" fill="#002655"/>
</g>
<defs>
<clipPath id="clip0_7_9941">
<rect width="13" height="22" fill="white" transform="translate(4.5)"/>
</clipPath>
</defs>
</svg>
