<svg width="56" height="56" viewBox="0 0 56 56" fill="none" xmlns="http://www.w3.org/2000/svg">
<g clip-path="url(#clip0_7_9578)">
<path d="M6.38111 50.4425H10.72C10.938 50.4425 11.1474 50.3553 11.3013 50.2014C11.4552 50.0475 11.5424 49.8381 11.5424 49.6201V48.9464H28.9132L38.9674 44.2262C39.6889 43.8996 40.2515 43.3003 40.5311 42.5599C40.8115 41.8195 40.7875 40.9979 40.4635 40.2764C40.1438 39.5582 39.5539 38.9939 38.822 38.7075C38.0893 38.4203 37.2737 38.4331 36.5513 38.7426L28.4567 41.286C28.6413 40.8714 28.7405 40.4234 28.7482 39.9694C28.7482 38.316 27.6034 36.9771 26.2047 36.9771H18.3726C17.9665 36.8711 17.5886 36.677 17.2654 36.4086L15.7539 34.897C15.2384 34.4602 14.6296 34.1472 13.9739 33.9839H11.5424V33.3103C11.5424 33.0922 11.4552 32.8828 11.3013 32.7289C11.1474 32.575 10.938 32.4878 10.72 32.4878H6.38111C6.1631 32.4878 5.95364 32.575 5.79975 32.7289C5.64586 32.8828 5.55865 33.0922 5.55865 33.3103V49.6183C5.55865 49.8364 5.64586 50.0458 5.79975 50.1997C5.95364 50.3553 6.1631 50.4425 6.38111 50.4425ZM13.6892 35.481C14.0919 35.5853 14.468 35.7768 14.7886 36.0418L15.5966 36.8497C16.2104 37.4636 16.2327 37.4926 16.2925 37.5457C16.8106 37.9902 17.4253 38.3083 18.0879 38.4733H26.2047C26.7733 38.4733 27.252 39.1615 27.252 39.9694C27.252 40.7774 26.7733 41.4656 26.2047 41.4656H22.0155C21.6026 41.4656 21.2674 41.8007 21.2674 42.2137C21.2674 42.6266 21.6026 42.9617 22.0155 42.9617H28.0001L37.0668 40.1567H37.1489C37.514 39.984 37.9337 39.966 38.3125 40.1071C38.6912 40.2481 38.9964 40.5363 39.1589 40.9064C39.3213 41.2766 39.3282 41.6964 39.176 42.0709C39.0246 42.4454 38.728 42.7429 38.3535 42.8951L28.5832 47.4502H11.5424V35.481H13.6892ZM7.05395 33.9848H10.0463V48.9464H7.05395V33.9848Z" fill="#002655" stroke="#002655" stroke-width="0.355629"/>
<path d="M49.6199 5.55762H45.281C45.063 5.55762 44.8536 5.64482 44.6997 5.79871C44.5458 5.9526 44.4586 6.16206 44.4586 6.38008V7.05377H27.0057L18.0288 13.7865H6.38014C5.92531 13.7865 5.55768 14.155 5.55768 14.6089V30.917C5.55768 31.135 5.64488 31.3445 5.79877 31.4984C5.95266 31.6523 6.16213 31.7395 6.38014 31.7395H35.4056C35.6236 31.7395 35.833 31.6523 35.9869 31.4984C36.1408 31.3445 36.228 31.135 36.228 30.917V25.8823C36.5213 25.9156 36.8162 25.9327 37.1103 25.9344C38.0679 25.9447 39.0169 25.7514 39.8932 25.3659C40.9995 24.8734 41.9869 24.1493 42.788 23.2413C42.9222 23.0763 43.0351 22.9199 43.1471 22.7626C43.4617 22.3291 43.6404 22.0966 43.9627 21.9769C44.1183 21.9213 44.2833 21.8956 44.4492 21.9016V22.6873C44.4492 22.907 44.5364 23.1174 44.6928 23.2721C44.8484 23.4268 45.0605 23.5123 45.2793 23.5106H49.6182C49.8362 23.5106 50.0457 23.4234 50.1995 23.2695C50.3534 23.1156 50.4406 22.9062 50.4406 22.6882V6.38008C50.4406 6.16206 50.3534 5.9526 50.1995 5.79871C50.0465 5.64482 49.8379 5.55762 49.6199 5.55762ZM25.0676 15.2826L23.0174 17.3328C21.4392 16.6078 19.6233 16.6035 18.0416 17.3225C16.46 18.0415 15.269 19.412 14.7783 21.0783C14.2867 22.7446 14.544 24.5417 15.4819 26.0037C16.4206 27.4656 17.9476 28.4479 19.6669 28.695C21.3862 28.9421 23.1277 28.43 24.44 27.2921C25.7524 26.1541 26.5047 24.5015 26.503 22.7643V22.3453L28.9045 19.9515C30.1639 20.6081 31.5609 20.9569 32.9818 20.9689C33.5708 20.9655 34.1582 20.8979 34.7327 20.7671V27.3579C34.0445 27.5212 33.4187 27.8811 32.9313 28.3941C32.444 28.9071 32.1157 29.55 31.9875 30.2459H9.9863C9.85378 29.5166 9.5024 28.8455 8.97832 28.3214C8.45424 27.7973 7.7831 27.446 7.05383 27.3134V18.0202C7.74805 17.8919 8.39097 17.5653 8.90308 17.0797C9.41605 16.5941 9.77598 15.97 9.94099 15.2826H25.0676ZM20.6312 23.9526C21.1912 24.5049 21.9461 24.8153 22.7335 24.8153C23.521 24.8153 24.2759 24.5058 24.8359 23.9526C24.5161 25.1077 23.7475 26.0866 22.7019 26.6722C21.6563 27.257 20.4192 27.3998 19.2676 27.0681C18.116 26.7363 17.1448 25.9575 16.5702 24.9051C15.9966 23.8526 15.8666 22.6146 16.2112 21.4665C16.5549 20.3183 17.344 19.3556 18.4015 18.7922C19.46 18.2288 20.6996 18.1125 21.8435 18.4682L20.6167 19.695C20.0499 20.2593 19.7327 21.027 19.7353 21.8264C19.7378 22.6275 20.061 23.3927 20.6312 23.9526ZM7.05383 15.2826H8.37815C8.13107 15.8563 7.64888 16.2957 7.05383 16.4872V15.2826ZM7.05383 30.2442V28.8455C7.71984 29.0567 8.24221 29.5782 8.45253 30.2442H7.05383ZM34.7327 30.2442H33.5281C33.7188 29.6491 34.159 29.167 34.7327 28.9199V30.2442ZM43.448 20.5636C42.8239 20.8321 42.2998 21.2895 41.9519 21.8726C41.8544 22.0068 41.7578 22.1496 41.645 22.2838C40.9884 23.0088 40.1881 23.5893 39.2956 23.9894C38.3346 24.4015 37.2762 24.534 36.2434 24.3707V20.2712C38.2867 19.3376 39.8812 17.6406 40.6866 15.5434C40.7695 15.3553 40.7721 15.1407 40.6917 14.9509C40.6122 14.7611 40.4574 14.6124 40.2642 14.5405C40.0719 14.4687 39.8573 14.479 39.6726 14.5696C39.4879 14.6602 39.3486 14.8227 39.2879 15.0193C38.5637 16.8745 37.0966 18.3425 35.2406 19.0666C33.2143 19.7489 30.9906 19.4992 29.1662 18.3861H29.1063L28.9644 18.3339H28.5532L28.4189 18.3938L28.2992 18.4759L28.2394 18.5135L23.8253 22.9122C23.544 23.1934 23.1636 23.3508 22.7669 23.3508C22.3702 23.3508 21.9889 23.1926 21.7085 22.9122C21.4272 22.6317 21.2699 22.2504 21.2699 21.8537C21.2699 21.4571 21.4272 21.0757 21.7085 20.7953L27.4161 15.0877C27.7059 14.7962 27.7059 14.3242 27.4161 14.0327C27.2203 13.8369 26.933 13.7651 26.668 13.8455C26.6159 13.819 26.5603 13.7993 26.503 13.7856H20.5184L27.499 8.54993H44.4577V20.3995C44.114 20.3909 43.7712 20.4465 43.448 20.5636ZM48.9471 22.0153H45.9547V7.05377H48.9471V22.0153Z" fill="#002655" stroke="#002655" stroke-width="0.355629"/>
<path d="M10.0506 22.7727C10.0523 23.1857 10.3874 23.5191 10.8003 23.5191H10.802H10.8072C11.2184 23.5148 11.5501 23.1806 11.5501 22.7693V22.7659C11.5501 22.3521 11.2141 22.0161 10.8003 22.0161C10.3848 22.0161 10.048 22.3538 10.0506 22.7693V22.7727Z" fill="#002655"/>
<path d="M30.9999 23.5191H31.005C31.4162 23.5148 31.7479 23.1806 31.7479 22.7693V22.7659C31.7479 22.3521 31.4119 22.0161 30.9981 22.0161C30.5826 22.0161 30.2458 22.3538 30.2484 22.7693V22.7727C30.2501 23.1857 30.5852 23.5191 30.9981 23.5191H30.9999V23.5191Z" fill="#002655"/>
</g>
<defs>
<clipPath id="clip0_7_9578">
<rect width="44.8847" height="44.8847" fill="white" transform="translate(5.55768 5.55762)"/>
</clipPath>
</defs>
</svg>
