<svg width="54" height="54" viewBox="0 0 54 54" fill="none" xmlns="http://www.w3.org/2000/svg">
<path d="M9.38825 8.55876C12.9216 5.18315 17.4213 2.81407 22.4305 1.9081C19.9287 4.46713 17.2043 8.16774 15.243 12.9249C12.666 11.5199 10.668 9.87873 9.38825 8.55876ZM7.34261 10.7558C8.88648 12.3224 11.2232 14.2038 14.2072 15.7735C13.2844 18.6886 12.6657 21.9359 12.5287 25.5H1.54336C1.86732 19.9117 3.98987 14.808 7.34261 10.7558ZM15.5312 25.5C15.6604 22.4121 16.1825 19.5891 16.9564 17.0425C19.4807 18.051 22.3494 18.779 25.5 18.9576V25.5H15.5312ZM1.54336 28.5H12.5227C12.6526 32.7594 13.3318 36.4735 14.3493 39.6763C11.8037 41.1706 9.72678 42.8836 8.28994 44.326C4.39177 40.1187 1.89686 34.5974 1.54336 28.5ZM17.0533 38.269C16.2121 35.4669 15.645 32.2226 15.5241 28.5H25.5V36.0525C22.4142 36.268 19.559 37.1273 17.0533 38.269ZM15.4016 42.5434C17.1276 46.6608 19.408 49.7582 21.6298 51.9338C17.4271 51.0332 13.6092 49.097 10.4544 46.4041C11.6203 45.2399 13.313 43.8248 15.4016 42.5434ZM18.0546 41.1109C20.2973 40.0603 22.8151 39.2788 25.5 39.0611V51.3232C23.1143 49.5188 20.1375 46.2181 18.0546 41.1109ZM25.5 15.9519C22.7211 15.7733 20.1875 15.1124 17.9598 14.2111C20.0237 9.13496 23.0231 5.39192 25.5 3.10289V15.9519ZM28.5 15.9345V3.10659C30.8173 5.28636 33.6063 8.85974 35.5609 13.7948C33.4944 14.8916 31.1225 15.7051 28.5 15.9345ZM38.1446 12.1805C36.3059 7.7388 33.8386 4.30256 31.5428 1.90326C35.8964 2.68582 39.8653 4.57326 43.1512 7.26602C42.0595 8.75065 40.3558 10.5802 38.1446 12.1805ZM28.5 18.9449C31.4962 18.7241 34.1949 17.8573 36.5493 16.6651C37.3242 19.2942 37.8475 22.2404 37.9716 25.5H28.5V18.9449ZM40.9737 25.5C40.8375 21.6391 40.1817 18.169 39.2081 15.0978C41.9151 13.2665 44.0024 11.0986 45.3658 9.30966C49.4611 13.56 52.0928 19.2251 52.4566 25.5H40.9737ZM28.5 28.5H37.9731C37.8402 32.1755 37.2245 35.4323 36.3228 38.2772C33.9714 37.1434 31.3251 36.2902 28.5 36.0611V28.5ZM38.9979 39.7521C40.0903 36.492 40.8322 32.7423 40.9749 28.5H52.4566C52.0889 34.8435 49.4032 40.5638 45.231 44.8293C43.7683 43.274 41.643 41.4053 39.0595 39.7905C39.039 39.7777 39.0185 39.7649 38.9979 39.7521ZM28.5 39.0729C30.8994 39.3045 33.1942 40.0695 35.2818 41.1077C33.3429 45.7111 30.7002 48.9893 28.5 50.9835V39.0729ZM37.9023 42.6107C40.0458 44.0064 41.8035 45.5695 43.0111 46.8479C39.7888 49.4509 35.9212 51.2844 31.685 52.0708C33.8449 49.839 36.1339 46.6883 37.9023 42.6107Z" stroke="white" stroke-width="3"/>
</svg>
