<svg width="31" height="30" viewBox="0 0 31 30" fill="none" xmlns="http://www.w3.org/2000/svg">
<path d="M9.29883 12.5987C9.23317 12.528 9.15423 12.471 9.06653 12.4309C8.97883 12.3907 8.88405 12.3682 8.78766 12.3647C8.69127 12.3612 8.59516 12.3767 8.50476 12.4103C8.41436 12.4439 8.33146 12.495 8.26081 12.5607C8.19016 12.6264 8.13317 12.7053 8.09302 12.793C8.05288 12.8807 8.03039 12.9755 8.02686 13.0718C8.02333 13.1682 8.03883 13.2644 8.07245 13.3548C8.10608 13.4452 8.15718 13.528 8.22284 13.5987L13.8928 19.7167C13.9599 19.7891 14.0408 19.8472 14.1309 19.8876C14.2209 19.928 14.3182 19.9498 14.4168 19.9517H14.4308C14.6255 19.9517 14.8122 19.8744 14.9498 19.7367L29.1618 5.52469C29.2309 5.45674 29.2858 5.37579 29.3234 5.2865C29.361 5.19722 29.3805 5.10137 29.3809 5.00449C29.3813 4.90761 29.3625 4.81163 29.3256 4.72205C29.2887 4.63247 29.2345 4.55109 29.166 4.48258C29.0975 4.41408 29.016 4.35981 28.9265 4.32291C28.8369 4.28602 28.7409 4.2672 28.644 4.26758C28.5472 4.26797 28.4513 4.28753 28.362 4.32514C28.2727 4.36275 28.1918 4.41765 28.1238 4.4867L14.4508 18.1597L9.29883 12.5987Z" fill="#6A9F09" stroke="#689D05" stroke-width="2" stroke-miterlimit="10"/>
<path d="M17.602 1.21094H4.43396C3.65606 1.21173 2.91029 1.52111 2.36023 2.07117C1.81017 2.62123 1.50079 3.36703 1.5 4.14493V25.8549C1.50106 26.6328 1.81053 27.3784 2.36053 27.9284C2.91054 28.4784 3.65614 28.7879 4.43396 28.7889H26.144C26.9218 28.7879 27.6675 28.4784 28.2175 27.9284C28.7675 27.3784 29.0769 26.6328 29.078 25.8549V18.6549C29.0816 18.5563 29.0654 18.458 29.0302 18.3658C28.9949 18.2737 28.9415 18.1895 28.873 18.1185C28.8045 18.0475 28.7224 17.9909 28.6316 17.9523C28.5408 17.9137 28.4432 17.8939 28.3445 17.8939C28.2458 17.8939 28.1482 17.9137 28.0574 17.9523C27.9666 17.9909 27.8845 18.0475 27.816 18.1185C27.7475 18.1895 27.694 18.2737 27.6588 18.3658C27.6236 18.458 27.6073 18.5563 27.611 18.6549V25.8549C27.6104 26.2439 27.4557 26.6167 27.1807 26.8917C26.9057 27.1667 26.5329 27.3214 26.144 27.3219H4.43396C4.04505 27.3214 3.67222 27.1667 3.39722 26.8917C3.12222 26.6167 2.96751 26.2439 2.96698 25.8549V4.14493C2.96751 3.75602 3.12222 3.38319 3.39722 3.10818C3.67222 2.83318 4.04505 2.67848 4.43396 2.67795H17.602C17.7965 2.67795 17.9831 2.60066 18.1207 2.4631C18.2582 2.32555 18.3355 2.13896 18.3355 1.94443C18.3355 1.74989 18.2582 1.56334 18.1207 1.42578C17.9831 1.28822 17.7965 1.21094 17.602 1.21094Z" fill="#6A9F09" stroke="#689D05" stroke-width="2" stroke-miterlimit="10"/>
</svg>
