<svg width="61" height="45" viewBox="0 0 61 45" fill="none" xmlns="http://www.w3.org/2000/svg">
<g clip-path="url(#clip0_7_10585)">
<path d="M55.756 0H4.97354C2.225 0 0 2.46623 0 5.45166V38.8106C0 41.7961 2.225 44.2623 4.97354 44.2623H55.756C58.5045 44.2623 60.7295 41.7961 60.7295 38.8106V5.45166C60.7295 2.46623 58.5045 0 55.756 0ZM57.8501 10.3841H46.856C48.4265 12.5907 49.6045 15.1868 50.2589 18.0424H57.8501V38.8106C57.8501 40.1086 56.9339 41.0173 55.756 41.0173H37.0398C34.9456 41.7961 32.7206 42.1855 30.3648 42.1855C28.0089 42.1855 25.7839 41.7961 23.6897 41.0173H4.97354C3.79559 41.0173 2.87942 39.9788 2.87942 38.8106V18.0424H10.4706C11.125 15.3166 12.1721 12.7205 13.8736 10.3841H2.87942V5.45166C2.87942 4.28345 3.79559 3.24504 4.97354 3.24504H23.6897C25.7839 2.59603 28.0089 2.20662 30.2339 2.20662C32.4589 2.20662 34.8148 2.59603 36.778 3.24504H55.4942C56.6721 3.24504 57.5883 4.28345 57.5883 5.45166V10.3841H57.8501Z" fill="#35B1B8"/>
<path d="M46.4633 18.0426C45.678 15.1869 44.1074 12.4611 42.0133 10.3843C39.003 7.52865 34.9456 5.71143 30.3648 5.71143C25.7839 5.71143 21.7265 7.52865 18.7162 10.3843C16.6221 12.4611 15.0515 15.0571 14.2662 18.0426C13.8736 19.3406 13.7427 20.7684 13.7427 22.1962C13.7427 31.2823 21.203 38.681 30.3648 38.681C39.5265 38.681 46.9868 31.2823 46.9868 22.1962C46.9868 20.6386 46.7251 19.3406 46.4633 18.0426ZM30.3648 35.0466C23.1662 35.0466 17.2765 29.2055 17.2765 22.0664C17.2765 20.6386 17.5383 19.2108 17.9309 17.9128C18.4544 16.4849 19.1089 15.0571 20.1559 13.8889L23.9515 17.9128L37.9559 32.5803C35.8618 34.138 33.2442 35.0466 30.3648 35.0466ZM40.5736 30.2439L28.7942 18.0426L22.7736 11.6823C23.428 11.1631 24.0824 10.7737 24.8677 10.5141C26.5692 9.73527 28.4015 9.21607 30.4956 9.21607C32.4589 9.21607 34.4221 9.60547 36.1236 10.5141C39.2648 12.0717 41.7515 14.7975 42.9295 18.1724C43.3221 19.4704 43.5839 20.8982 43.5839 22.326C43.453 25.1816 42.4059 28.0373 40.5736 30.2439Z" fill="#35B1B8"/>
</g>
<defs>
<clipPath id="clip0_7_10585">
<rect width="60.7295" height="44.2623" fill="white"/>
</clipPath>
</defs>
</svg>
