<svg width="40" height="40" viewBox="0 0 40 40" fill="none" xmlns="http://www.w3.org/2000/svg">
<path d="M33.8604 40H6.13957C4.51179 39.9982 2.95119 39.3508 1.80018 38.1996C0.649164 37.0484 0.00175376 35.4876 0 33.8596V6.14043C0.00175376 4.51237 0.649164 2.95157 1.80018 1.80036C2.95119 0.64915 4.51179 0.00175406 6.13957 0H33.8604C35.4882 0.00175406 37.0488 0.64915 38.1998 1.80036C39.3508 2.95157 39.9982 4.51237 40 6.14043V33.8596C39.9982 35.4876 39.3508 37.0484 38.1998 38.1996C37.0488 39.3508 35.4882 39.9982 33.8604 40V40ZM6.13957 4.03538C5.58156 4.03596 5.04656 4.25793 4.65198 4.65257C4.25741 5.04722 4.03548 5.58231 4.03489 6.14043V33.8596C4.03548 34.4177 4.25741 34.9528 4.65198 35.3474C5.04656 35.7421 5.58156 35.964 6.13957 35.9646H33.8604C34.4184 35.964 34.9534 35.7421 35.348 35.3474C35.7426 34.9528 35.9645 34.4177 35.9651 33.8596V6.14043C35.9645 5.58231 35.7426 5.04722 35.348 4.65257C34.9534 4.25793 34.4184 4.03596 33.8604 4.03538H6.13957Z" fill="#002655"/>
</svg>
