<svg width="40" height="41" viewBox="0 0 40 41" fill="none" xmlns="http://www.w3.org/2000/svg">
<path d="M33.8604 40.5H6.13957C4.51179 40.4982 2.95119 39.8508 1.80018 38.6996C0.649164 37.5484 0.00175376 35.9876 0 34.3596V6.64043C0.00175376 5.01237 0.649164 3.45157 1.80018 2.30036C2.95119 1.14915 4.51179 0.501754 6.13957 0.5H33.8604C35.4882 0.501754 37.0488 1.14915 38.1998 2.30036C39.3508 3.45157 39.9982 5.01237 40 6.64043V34.3596C39.9982 35.9876 39.3508 37.5484 38.1998 38.6996C37.0488 39.8508 35.4882 40.4982 33.8604 40.5V40.5ZM6.13957 4.53538C5.58156 4.53596 5.04656 4.75793 4.65198 5.15257C4.25741 5.54722 4.03548 6.08231 4.03489 6.64043V34.3596C4.03548 34.9177 4.25741 35.4528 4.65198 35.8474C5.04656 36.2421 5.58156 36.464 6.13957 36.4646H33.8604C34.4184 36.464 34.9534 36.2421 35.348 35.8474C35.7426 35.4528 35.9645 34.9177 35.9651 34.3596V6.64043C35.9645 6.08231 35.7426 5.54722 35.348 5.15257C34.9534 4.75793 34.4184 4.53596 33.8604 4.53538H6.13957Z" fill="#002655"/>
</svg>
