<svg width="56" height="56" viewBox="0 0 56 56" fill="none" xmlns="http://www.w3.org/2000/svg">
<path d="M42.0357 37.7291C41.8608 37.4441 41.6135 37.2083 41.3179 37.0448C41.0222 36.8814 40.6883 36.7957 40.3487 36.7962V36.7962C40.0091 36.7957 39.6752 36.8814 39.3796 37.0448C39.0839 37.2083 38.8366 37.4441 38.6617 37.7291L35.8015 42.3146C35.3047 43.1042 35.0264 44.0067 34.9939 44.9334C34.9614 45.8601 35.1758 46.7792 35.6162 47.6002C36.0266 48.393 36.6403 49.0678 37.3973 49.5587C38.1542 50.0495 39.0284 50.3394 39.9343 50.4001H40.7311C41.6376 50.34 42.5127 50.0504 43.2704 49.5595C44.0282 49.0687 44.6426 48.3935 45.0535 47.6002C45.4936 46.781 45.7086 45.8639 45.6777 44.9388C45.6467 44.0138 45.3708 43.1125 44.877 42.3232L42.0167 37.7362L42.0357 37.7291ZM42.5129 46.3002C42.3295 46.6667 42.0513 46.9796 41.7059 47.208C41.3605 47.4363 40.96 47.572 40.5443 47.6016C40.4111 47.6108 40.2775 47.6108 40.1444 47.6016C39.7285 47.5754 39.3269 47.4429 38.9797 47.2173C38.6325 46.9917 38.3518 46.6809 38.1656 46.3159C37.9541 45.9227 37.8504 45.4826 37.8645 45.0385C37.8785 44.5943 38.0099 44.1614 38.2459 43.7817L40.3429 40.4076L42.4414 43.786C42.6764 44.164 42.8077 44.5949 42.8228 45.0371C42.8379 45.4793 42.7362 45.9178 42.5275 46.3102L42.5129 46.3002ZM20.273 13.9741C19.3917 13.9784 18.5391 14.2815 17.8603 14.8318C17.1816 15.3822 16.7186 16.1457 16.5503 16.9926H12.2117C11.2007 16.9929 10.2312 17.3864 9.51636 18.0864C8.80157 18.7863 8.40002 19.7356 8.40002 20.7253V20.7253V23.1238C8.40002 24.1136 8.80157 25.0627 9.51636 25.7627C10.2312 26.4627 11.2007 26.8562 12.2117 26.8565H16.5503C16.7198 27.7025 17.1832 28.4649 17.8618 29.0144C18.5404 29.5638 19.3923 29.8664 20.273 29.8707H28.7005C29.5849 29.8702 30.4417 29.5689 31.1243 29.0183C31.8068 28.4677 32.2727 27.702 32.4422 26.8523H35.2966V27.8608C34.6368 28.1595 34.078 28.6367 33.686 29.236C33.294 29.8354 33.0853 30.5319 33.0843 31.2436V31.6721C33.0847 32.662 33.4865 33.6112 34.2016 34.3111C34.9166 35.0111 35.8862 35.4045 36.8974 35.4048H43.781C44.2826 35.4054 44.7793 35.3091 45.2428 35.1216C45.7063 34.934 46.1275 34.6588 46.4822 34.3117C46.837 33.9645 47.1183 33.5524 47.3101 33.0987C47.5019 32.645 47.6004 32.1588 47.6 31.6678V31.2393C47.599 30.5276 47.3902 29.8311 46.9983 29.2318C46.6063 28.6324 46.0475 28.1553 45.3877 27.8565V20.7139C45.3877 19.7239 44.986 18.7745 44.2709 18.0745C43.5558 17.3744 42.5859 16.9811 41.5745 16.9811H32.4363C32.2673 16.1312 31.8016 15.3652 31.119 14.8145C30.4363 14.2638 29.5792 13.9626 28.6947 13.9627H28.3561V13.0656H29.3616C30.3729 13.0656 31.3428 12.6723 32.0579 11.9723C32.773 11.2722 33.1747 10.3228 33.1747 9.3328C33.1747 8.34282 32.773 7.3934 32.0579 6.69338C31.3428 5.99335 30.3729 5.6001 29.3616 5.6001H19.7389C18.7276 5.6001 17.7577 5.99335 17.0425 6.69338C16.3274 7.3934 15.9257 8.34282 15.9257 9.3328C15.9257 10.3228 16.3274 11.2722 17.0425 11.9723C17.7577 12.6723 18.7276 13.0656 19.7389 13.0656H20.7443V13.9755L20.273 13.9741ZM22.1788 10.2599H19.7389C19.6137 10.2599 19.4898 10.2358 19.3742 10.1889C19.2586 10.142 19.1535 10.0734 19.065 9.98673C18.9766 9.90011 18.9064 9.79727 18.8585 9.68409C18.8106 9.57092 18.7859 9.44959 18.7859 9.32709C18.7859 9.20459 18.8106 9.08331 18.8585 8.97013C18.9064 8.85696 18.9766 8.75412 19.065 8.6675C19.1535 8.58088 19.2586 8.51218 19.3742 8.4653C19.4898 8.41842 19.6137 8.39429 19.7389 8.39429H29.3703C29.4955 8.39429 29.6194 8.41842 29.735 8.4653C29.8506 8.51218 29.9557 8.58088 30.0441 8.6675C30.1326 8.75412 30.2028 8.85696 30.2507 8.97013C30.2986 9.08331 30.3233 9.20459 30.3233 9.32709C30.3233 9.44959 30.2986 9.57092 30.2507 9.68409C30.2028 9.79727 30.1326 9.90011 30.0441 9.98673C29.9557 10.0734 29.8506 10.142 29.735 10.1889C29.6194 10.2358 29.4955 10.2599 29.3703 10.2599H26.9318C26.5525 10.2599 26.1888 10.4074 25.9206 10.67C25.6524 10.9325 25.5017 11.2886 25.5017 11.6599V15.374C25.5017 15.5579 25.5387 15.7399 25.6106 15.9098C25.6824 16.0796 25.7878 16.234 25.9206 16.364C26.0534 16.494 26.211 16.5971 26.3845 16.6674C26.558 16.7378 26.744 16.774 26.9318 16.774H28.7005C28.8256 16.774 28.9496 16.7982 29.0652 16.845C29.1808 16.8919 29.2858 16.9606 29.3743 17.0472C29.4628 17.1338 29.533 17.2367 29.5809 17.3499C29.6288 17.463 29.6534 17.5843 29.6534 17.7068V18.3925C29.6538 18.7636 29.8047 19.1193 30.0728 19.3815C30.341 19.6438 30.7045 19.7911 31.0835 19.7911H41.5716C41.8244 19.7911 42.0667 19.8893 42.2454 20.0643C42.4241 20.2392 42.5245 20.4765 42.5245 20.7239V28.9351C42.524 29.29 42.6611 29.632 42.9081 29.8918C43.1552 30.1516 43.4937 30.31 43.8554 30.335C44.0945 30.354 44.3175 30.4607 44.4798 30.6336C44.6421 30.8065 44.7318 31.033 44.731 31.2678V31.6964C44.731 31.9438 44.6306 32.1811 44.4519 32.356C44.2732 32.531 44.0308 32.6292 43.7781 32.6292H36.9018C36.7767 32.6292 36.6528 32.6051 36.5372 32.5582C36.4215 32.5113 36.3165 32.4426 36.228 32.356C36.1395 32.2694 36.0693 32.1666 36.0214 32.0534C35.9735 31.9402 35.9489 31.8189 35.9489 31.6964V31.2678C35.9481 31.033 36.0378 30.8065 36.2001 30.6336C36.3624 30.4607 36.5854 30.354 36.8245 30.335C37.1862 30.31 37.5248 30.1516 37.7718 29.8918C38.0188 29.632 38.1559 29.29 38.1554 28.9351V25.4509C38.1554 25.0796 38.0047 24.7235 37.7365 24.461C37.4683 24.1984 37.1045 24.0509 36.7252 24.0509H31.0777C30.6987 24.0513 30.3353 24.199 30.0674 24.4615C29.7995 24.724 29.6491 25.0798 29.6491 25.4509V26.1366C29.6491 26.384 29.5487 26.6213 29.3699 26.7962C29.1912 26.9711 28.9489 27.0694 28.6961 27.0694H20.273C20.0202 27.0694 19.7779 26.9711 19.5992 26.7962C19.4204 26.6213 19.32 26.384 19.32 26.1366V25.4509C19.32 25.0796 19.1694 24.7235 18.9012 24.461C18.633 24.1984 18.2692 24.0509 17.8899 24.0509H12.1694C12.0443 24.0509 11.9204 24.0268 11.8048 23.9799C11.6891 23.933 11.5841 23.8643 11.4956 23.7777C11.4071 23.6911 11.3369 23.5882 11.289 23.4751C11.2411 23.3619 11.2165 23.2406 11.2165 23.1181V20.7253C11.2169 20.478 11.3174 20.241 11.496 20.0661C11.6747 19.8912 11.9168 19.7929 12.1694 19.7925H17.8885C18.0763 19.7925 18.2622 19.7563 18.4357 19.6859C18.6093 19.6156 18.7669 19.5124 18.8997 19.3824C19.0325 19.2524 19.1379 19.0981 19.2097 18.9283C19.2816 18.7584 19.3186 18.5764 19.3186 18.3925V17.7068C19.3186 17.4594 19.419 17.2222 19.5977 17.0472C19.7764 16.8723 20.0188 16.774 20.2715 16.774H22.1774C22.3652 16.774 22.5512 16.7378 22.7247 16.6674C22.8982 16.5971 23.0558 16.494 23.1886 16.364C23.3214 16.234 23.4268 16.0796 23.4986 15.9098C23.5705 15.7399 23.6075 15.5579 23.6075 15.374V11.6784C23.6075 11.3071 23.4568 10.9511 23.1886 10.6885C22.9204 10.426 22.5567 10.2785 22.1774 10.2785L22.1788 10.2599Z" fill="#35B1B8"/>
</svg>
