<svg width="56" height="56" viewBox="0 0 56 56" fill="none" xmlns="http://www.w3.org/2000/svg">
<path fill-rule="evenodd" clip-rule="evenodd" d="M51.3511 22.6005C51.664 22.7101 52.0072 22.695 52.3093 22.5584C52.6114 22.4218 52.8493 22.1741 52.9737 21.8668C53.098 21.5594 53.0993 21.216 52.9772 20.9077C52.8552 20.5994 52.6191 20.35 52.318 20.2111L45.1499 17.312C44.9924 17.2454 44.8232 17.2108 44.6523 17.2102C44.4813 17.2096 44.3119 17.2431 44.1539 17.3086C43.996 17.3742 43.8527 17.4705 43.7324 17.5919C43.612 17.7134 43.5171 17.8576 43.453 18.0162C43.389 18.1747 43.3571 18.3444 43.3593 18.5154C43.3615 18.6863 43.3977 18.8552 43.4658 19.012C43.5339 19.1689 43.6325 19.3106 43.7559 19.429C43.8793 19.5473 44.025 19.6399 44.1846 19.7014L51.3511 22.6005Z" fill="#35B1B8"/>
<path fill-rule="evenodd" clip-rule="evenodd" d="M55.9277 14.7141C56.0373 14.4012 56.0223 14.058 55.8857 13.7559C55.749 13.4538 55.5014 13.2159 55.194 13.0915C54.8867 12.9672 54.5432 12.9659 54.235 13.088C53.9267 13.21 53.6772 13.4461 53.5384 13.7472L50.6393 20.9153C50.5661 21.0739 50.5259 21.2456 50.5211 21.4202C50.5163 21.5947 50.547 21.7684 50.6113 21.9308C50.6756 22.0931 50.7721 22.2407 50.8951 22.3647C51.0181 22.4886 51.165 22.5863 51.3269 22.6518C51.4888 22.7173 51.6622 22.7492 51.8368 22.7457C52.0114 22.7422 52.1834 22.7033 52.3425 22.6314C52.5016 22.5594 52.6445 22.4559 52.7624 22.3272C52.8803 22.1984 52.9709 22.047 53.0286 21.8822L55.9277 14.7141Z" fill="#35B1B8"/>
<path fill-rule="evenodd" clip-rule="evenodd" d="M53.9006 31.8125C53.9341 31.6408 53.9322 31.464 53.8952 31.293C53.8581 31.122 53.7866 30.9604 53.6851 30.8179C53.5835 30.6754 53.454 30.5551 53.3045 30.4643C53.1549 30.3735 52.9884 30.3142 52.8152 30.2898C52.6419 30.2654 52.4655 30.2766 52.2967 30.3226C52.1279 30.3687 51.9703 30.4486 51.8333 30.5575C51.6964 30.6664 51.5831 30.8021 51.5004 30.9563C51.4176 31.1104 51.3671 31.2798 51.3519 31.4541C50.4992 37.4321 47.468 42.8844 42.8404 46.7637C38.2127 50.643 32.315 52.6758 26.2799 52.4716C20.2448 52.2675 14.4979 49.8409 10.143 45.6578C5.78801 41.4746 3.1321 35.83 2.68531 29.808C2.23852 23.7861 4.03237 17.8113 7.72232 13.0313C11.4123 8.25135 16.7381 5.00318 22.677 3.91068C28.6159 2.81818 34.7491 3.95837 39.8985 7.11228C45.048 10.2662 48.8506 15.2114 50.5762 20.9982C50.6244 21.1604 50.7041 21.3115 50.8107 21.4429C50.9173 21.5744 51.0488 21.6835 51.1976 21.7641C51.3464 21.8447 51.5096 21.8952 51.6779 21.9128C51.8463 21.9303 52.0164 21.9145 52.1786 21.8663C52.3409 21.8181 52.492 21.7384 52.6234 21.6318C52.7548 21.5251 52.864 21.3937 52.9446 21.2449C53.0252 21.0961 53.0757 20.9328 53.0933 20.7645C53.1108 20.5962 53.095 20.426 53.0468 20.2638C51.139 13.8622 46.9331 8.39118 41.237 4.90184C35.5409 1.4125 28.7564 0.150909 22.1868 1.35942C15.6171 2.56793 9.72567 6.16131 5.6442 11.4493C1.56274 16.7372 -0.4209 23.3468 0.074348 30.0083C0.569596 36.6698 3.5088 42.9134 8.32734 47.5397C13.1459 52.166 19.5039 54.8487 26.18 55.0724C32.8562 55.2962 39.3796 53.0452 44.497 48.7519C49.6145 44.4587 52.9652 38.4259 53.9054 31.8125H53.9006Z" fill="#35B1B8"/>
<path fill-rule="evenodd" clip-rule="evenodd" d="M15.8039 42.1448H38.9634C39.305 42.146 39.6434 42.0798 39.9594 41.95C40.2753 41.8201 40.5625 41.6292 40.8044 41.3881C41.0464 41.1471 41.2384 40.8606 41.3694 40.5451C41.5004 40.2297 41.5678 39.8915 41.5678 39.5499V36.423C41.5694 31.1313 35.7457 26.6711 27.3765 26.6711C19.0073 26.6711 13.1995 31.1313 13.1995 36.423V39.5515C13.2002 39.8928 13.268 40.2307 13.3993 40.5457C13.5305 40.8608 13.7226 41.1469 13.9644 41.3878C14.2063 41.6286 14.4932 41.8194 14.8089 41.9493C15.1245 42.0792 15.4626 42.1456 15.8039 42.1448ZM15.7785 36.4214C15.7785 32.7274 20.3199 29.2533 27.3845 29.2533C34.4491 29.2533 38.9905 32.7322 38.9905 36.4214V39.5499L15.8039 39.5738C15.7864 39.5738 15.7785 36.423 15.7785 36.423V36.4214Z" fill="#35B1B8"/>
<path fill-rule="evenodd" clip-rule="evenodd" d="M36.4107 20.2236C36.4107 18.4382 35.8812 16.6929 34.8893 15.2084C33.8974 13.7239 32.4876 12.5669 30.8381 11.8837C29.1886 11.2004 27.3736 11.0217 25.6225 11.37C23.8714 11.7183 22.2629 12.578 21.0005 13.8405C19.738 15.103 18.8783 16.7114 18.53 18.4625C18.1817 20.2136 18.3604 22.0286 19.0437 23.6781C19.7269 25.3276 20.8839 26.7374 22.3684 27.7294C23.8529 28.7213 25.5982 29.2507 27.3836 29.2507C29.7777 29.2507 32.0738 28.2996 33.7667 26.6067C35.4596 24.9138 36.4107 22.6177 36.4107 20.2236V20.2236ZM20.937 20.2236C20.937 18.9483 21.3152 17.7016 22.0237 16.6412C22.7323 15.5808 23.7393 14.7544 24.9176 14.2663C26.0958 13.7783 27.3923 13.6506 28.6431 13.8994C29.894 14.1482 31.0429 14.7623 31.9447 15.6641C32.8465 16.5659 33.4606 17.7148 33.7094 18.9656C33.9582 20.2165 33.8305 21.513 33.3425 22.6912C32.8544 23.8695 32.028 24.8765 30.9676 25.585C29.9072 26.2936 28.6605 26.6717 27.3852 26.6717C26.5383 26.672 25.6998 26.5053 24.9173 26.1813C24.1349 25.8574 23.424 25.3824 22.8252 24.7836C22.2264 24.1848 21.7514 23.4739 21.4274 22.6915C21.1035 21.909 20.9368 21.0705 20.937 20.2236V20.2236Z" fill="#35B1B8"/>
</svg>
