<svg width="33" height="34" viewBox="0 0 33 34" fill="none" xmlns="http://www.w3.org/2000/svg">
<path d="M19.2764 17.1316L32.4271 1.45608C32.6475 1.19558 32.4621 0.799805 32.1215 0.799805H28.1237C27.8882 0.799805 27.6628 0.90501 27.5075 1.08536L16.6614 14.0156L5.81522 1.08536C5.66493 0.90501 5.43949 0.799805 5.19902 0.799805H1.20123C0.860568 0.799805 0.675206 1.19558 0.895636 1.45608L14.0463 17.1316L0.895636 32.8072C0.846257 32.8653 0.814579 32.9363 0.804361 33.0118C0.794143 33.0874 0.805814 33.1642 0.83799 33.2333C0.870166 33.3024 0.921495 33.3608 0.985882 33.4016C1.05027 33.4424 1.12501 33.4639 1.20123 33.4635H5.19902C5.43448 33.4635 5.65992 33.3583 5.81522 33.1779L16.6614 20.2477L27.5075 33.1779C27.6578 33.3583 27.8832 33.4635 28.1237 33.4635H32.1215C32.4621 33.4635 32.6475 33.0677 32.4271 32.8072L19.2764 17.1316Z" fill="#35B1B8"/>
</svg>
