<svg width="26" height="16" viewBox="0 0 26 16" fill="none" xmlns="http://www.w3.org/2000/svg">
<path d="M13.7262 14.4304L13.7262 14.4304L24.9151 3.24156L24.9151 3.24159L24.9181 3.23846C25.3718 2.76874 25.3587 2.02022 24.889 1.56657C24.4308 1.12401 23.7044 1.12399 23.2462 1.56658L23.2462 1.56655L23.2431 1.56961L12.8903 11.9224L2.53742 1.56961L2.53741 1.5696C2.07571 1.10796 1.32718 1.10796 0.86548 1.5696L0.86544 1.56964C0.403833 2.03138 0.403814 2.77984 0.865454 3.24155L0.865467 3.24156L12.0543 14.4304L12.0543 14.4304C12.5161 14.892 13.2645 14.892 13.7262 14.4304Z" fill="#002655" stroke="#002655" stroke-width="0.5"/>
</svg>
